<?xml version="1.0" encoding="UTF-8"?>
<svg xmlns="http://www.w3.org/2000/svg" xmlns:xlink="http://www.w3.org/1999/xlink" version="1.2" >
<font id="Akkurat Regular Extra">
<font-face  font-family="Akkurat" units-per-em="1000" ascent="750" descent="-250" font-style="normal" font-weight="400" font-stretch="expanded" cap-height="750" x-height="500" underline-position="-92.5" underline-thickness="45" />
<missing-glyph  horiz-adv-x="588" d="M88 0 L500 0 L500 698 L88 698 L88 0 Z M163 74 L163 623 L425 623 L425 74 L163 74 Z " />
<glyph glyph-name="NULL" d="" />
<glyph glyph-name="CR" unicode="&#xd;" horiz-adv-x="250" d="" />
<glyph glyph-name="space" unicode="&#x20;" horiz-adv-x="230" d="" />
<glyph glyph-name="exclam" unicode="&#x21;" horiz-adv-x="276" d="M176 450 L176 759 L100 759 L100 450 L176 450 Z M176 -50 L176 258 L100 258 L100 -50 L176 -50 Z " />
<glyph glyph-name="quotedbl" unicode="&#x22;" horiz-adv-x="459" d="M450 657 L403 729 L231 600 L263 553 L450 657 Z M237 657 L190 729 L18 600 L50 553 L237 657 Z " />
<glyph glyph-name="numbersign" unicode="&#x23;" horiz-adv-x="655" d="M580 374 L526 430 C480 385 454 383 427 383 C414 383 401 385 388 390 C362 399 336 411 310 421 C284 431 257 439 228 439 C178 439 140 425 75 361 L128 306 C174 351 200 354 227 354 C256 354 287 341 312 330 C352 312 388 296 427 296 C477 296 515 310 580 374 L580 374 Z M580 184 L526 239 C480 194 454 192 427 192 C414 192 401 195 388 200 C362 209 336 221 310 231 C284 241 257 248 228 248 C178 248 140 234 75 170 L128 116 C174 161 200 164 227 164 C256 164 287 150 312 139 C352 121 388 106 427 106 C477 106 515 120 580 184 L580 184 Z " />
<glyph glyph-name="dollar" unicode="&#x24;" horiz-adv-x="663" d="M613 215 L186 642 L516 642 L516 709 L65 709 L65 260 L135 260 L135 591 L562 164 L613 215 Z " />
<glyph glyph-name="percent" unicode="&#x25;" horiz-adv-x="588" d="M539 364 C539 417 500 457 446 457 L383 457 L383 519 C383 573 344 613 290 613 C236 613 197 573 197 519 L197 448 C181 459 162 465 142 465 C88 465 49 425 49 371 L49 123 L298 123 C352 123 391 162 391 216 C391 235 385 255 374 270 L446 270 C500 270 539 310 539 364 L539 364 Z M522 364 C522 319 491 287 446 287 L214 287 L214 519 C214 564 245 596 290 596 C335 596 367 564 367 519 L367 440 L446 440 C491 440 522 409 522 364 L522 364 Z " />
<glyph glyph-name="ampersand" unicode="&#x26;" horiz-adv-x="928" d="M852 -73 L852 148 L806 148 L806 -27 L123 -27 L123 148 L76 148 L76 -73 L852 -73 Z " />
<glyph glyph-name="quotesingle" unicode="&#x27;" horiz-adv-x="588" d="M539 364 C539 417 500 457 446 457 L383 457 L383 519 C383 573 344 613 290 613 C236 613 197 573 197 519 L197 448 C181 459 162 465 142 465 C88 465 49 425 49 371 L49 123 L298 123 C352 123 391 162 391 216 C391 235 385 255 374 270 L446 270 C500 270 539 310 539 364 L539 364 Z M522 364 C522 319 491 287 446 287 L214 287 L214 519 C214 564 245 596 290 596 C335 596 367 564 367 519 L367 440 L446 440 C491 440 522 409 522 364 L522 364 Z " />
<glyph glyph-name="parenleft" unicode="&#x28;" horiz-adv-x="588" d="M539 364 C539 417 500 457 446 457 L383 457 L383 519 C383 573 344 613 290 613 C236 613 197 573 197 519 L197 448 C181 459 162 465 142 465 C88 465 49 425 49 371 L49 123 L298 123 C352 123 391 162 391 216 C391 235 385 255 374 270 L446 270 C500 270 539 310 539 364 L539 364 Z M522 364 C522 319 491 287 446 287 L214 287 L214 519 C214 564 245 596 290 596 C335 596 367 564 367 519 L367 440 L446 440 C491 440 522 409 522 364 L522 364 Z " />
<glyph glyph-name="parenright" unicode="&#x29;" horiz-adv-x="588" d="M539 364 C539 417 500 457 446 457 L383 457 L383 519 C383 573 344 613 290 613 C236 613 197 573 197 519 L197 448 C181 459 162 465 142 465 C88 465 49 425 49 371 L49 123 L298 123 C352 123 391 162 391 216 C391 235 385 255 374 270 L446 270 C500 270 539 310 539 364 L539 364 Z M522 364 C522 319 491 287 446 287 L214 287 L214 519 C214 564 245 596 290 596 C335 596 367 564 367 519 L367 440 L446 440 C491 440 522 409 522 364 L522 364 Z " />
<glyph glyph-name="asterisk" unicode="&#x2a;" horiz-adv-x="588" d="M539 364 C539 417 500 457 446 457 L383 457 L383 519 C383 573 344 613 290 613 C236 613 197 573 197 519 L197 448 C181 459 162 465 142 465 C88 465 49 425 49 371 L49 123 L298 123 C352 123 391 162 391 216 C391 235 385 255 374 270 L446 270 C500 270 539 310 539 364 L539 364 Z M522 364 C522 319 491 287 446 287 L214 287 L214 519 C214 564 245 596 290 596 C335 596 367 564 367 519 L367 440 L446 440 C491 440 522 409 522 364 L522 364 Z " />
<glyph glyph-name="plus" unicode="&#x2b;" horiz-adv-x="588" d="M539 364 C539 417 500 457 446 457 L383 457 L383 519 C383 573 344 613 290 613 C236 613 197 573 197 519 L197 448 C181 459 162 465 142 465 C88 465 49 425 49 371 L49 123 L298 123 C352 123 391 162 391 216 C391 235 385 255 374 270 L446 270 C500 270 539 310 539 364 L539 364 Z M522 364 C522 319 491 287 446 287 L214 287 L214 519 C214 564 245 596 290 596 C335 596 367 564 367 519 L367 440 L446 440 C491 440 522 409 522 364 L522 364 Z " />
<glyph glyph-name="comma" unicode="&#x2c;" horiz-adv-x="220" d="M220 670 C220 725 179 777 110 777 C41 777 0 725 0 670 C0 615 41 563 110 563 C179 563 220 615 220 670 L220 670 Z M164 670 C164 640 143 615 110 615 C77 615 55 640 55 670 C55 700 77 726 110 726 C143 726 164 700 164 670 L164 670 Z " />
<glyph glyph-name="hyphen" unicode="&#x2d;" horiz-adv-x="645" d="M585 262 L585 341 L70 341 L70 262 L585 262 Z " />
<glyph glyph-name="period" unicode="&#x2e;" horiz-adv-x="275" d="M187 622 L187 722 L88 722 L88 622 L187 622 Z " />
<glyph glyph-name="slash" unicode="&#x2f;" horiz-adv-x="588" d="M579 685 L524 724 L9 20 L63 -21 L579 685 Z " />
<glyph glyph-name="zero" unicode="0" horiz-adv-x="560" d="M512 348 C512 482 500 580 430 651 C396 685 349 709 280 709 C211 709 164 685 130 651 C60 580 48 482 48 348 C48 214 60 117 130 46 C164 12 211 -13 280 -13 C349 -13 396 12 430 46 C500 117 512 214 512 348 L512 348 Z M400 550 L140 230 C136 268 137 309 137 348 C137 442 135 543 194 599 C214 618 243 631 280 631 C317 631 346 618 366 599 C381 585 392 569 400 550 L400 550 Z M423 348 C423 254 425 153 366 97 C346 78 317 65 280 65 C243 65 214 78 194 97 C181 109 171 124 163 140 L420 459 C423 423 423 385 423 348 L423 348 Z " />
<glyph glyph-name="one" unicode="1" horiz-adv-x="310" d="M218 345 L218 709 L152 709 L55 642 L55 563 L147 626 L147 345 L218 345 Z " />
<glyph glyph-name="two" unicode="2" horiz-adv-x="412" d="M347 343 L347 409 L179 409 L260 477 C303 513 337 541 337 599 C337 674 278 716 206 716 C126 716 67 666 65 583 L136 583 C138 625 160 653 204 653 C228 653 248 646 259 628 C264 622 267 614 267 603 C267 573 251 555 228 536 L73 406 L73 343 L347 343 Z " />
<glyph glyph-name="three" unicode="3" horiz-adv-x="414" d="M349 447 C349 482 324 520 286 530 C320 538 342 576 342 608 C342 636 332 657 318 674 C294 703 254 717 208 717 C166 717 129 705 103 681 C82 661 68 635 68 598 L137 598 C138 644 176 661 207 661 C242 661 270 641 270 612 C270 584 260 569 238 563 C216 557 206 559 184 559 L184 502 L212 502 C258 502 278 479 278 446 C278 407 245 393 207 393 C165 393 135 417 134 461 L65 461 C65 428 78 401 95 381 C121 351 163 336 207 336 C254 336 296 348 324 378 C339 395 349 417 349 447 L349 447 Z " />
<glyph glyph-name="four" unicode="4" horiz-adv-x="860" d="M795 75 L795 134 L736 134 L736 212 L667 212 L667 134 L565 134 L713 369 L632 369 L489 144 L489 75 L667 75 L667 0 L736 0 L736 75 L795 75 Z M710 685 L655 724 L140 20 L194 -21 L710 685 Z M247 345 L247 709 L181 709 L84 642 L84 563 L176 626 L176 345 L247 345 Z " />
<glyph glyph-name="five" unicode="5" horiz-adv-x="909" d="M804 -1 L804 65 L636 65 L717 133 C760 169 794 197 794 255 C794 330 735 372 663 372 C582 372 524 322 522 239 L593 239 C594 281 617 309 661 309 C685 309 705 301 716 284 C720 277 724 269 724 259 C724 228 708 211 685 192 L530 62 L530 -1 L804 -1 Z M705 685 L650 724 L135 20 L189 -21 L705 685 Z M242 345 L242 709 L176 709 L79 642 L79 563 L171 626 L171 345 L242 345 Z " />
<glyph glyph-name="six" unicode="6" horiz-adv-x="902" d="M837 75 L837 134 L778 134 L778 212 L709 212 L709 134 L607 134 L755 369 L674 369 L531 144 L531 75 L709 75 L709 0 L778 0 L778 75 L837 75 Z M752 685 L697 724 L182 20 L236 -21 L752 685 Z M349 447 C349 482 324 520 286 530 C320 538 342 576 342 608 C342 636 332 657 318 674 C294 703 254 717 208 717 C166 717 129 705 103 681 C82 661 68 635 68 598 L137 598 C138 644 176 661 207 661 C242 661 270 641 270 612 C270 584 260 569 238 563 C216 557 206 559 184 559 L184 502 L212 502 C258 502 278 479 278 446 C278 407 245 393 207 393 C165 393 135 417 134 461 L65 461 C65 428 78 401 95 381 C121 351 163 336 207 336 C254 336 296 348 324 378 C339 395 349 417 349 447 L349 447 Z " />
<glyph glyph-name="seven" unicode="7" horiz-adv-x="588" d="M539 364 C539 417 500 457 446 457 L383 457 L383 519 C383 573 344 613 290 613 C236 613 197 573 197 519 L197 448 C181 459 162 465 142 465 C88 465 49 425 49 371 L49 123 L298 123 C352 123 391 162 391 216 C391 235 385 255 374 270 L446 270 C500 270 539 310 539 364 L539 364 Z M522 364 C522 319 491 287 446 287 L214 287 L214 519 C214 564 245 596 290 596 C335 596 367 564 367 519 L367 440 L446 440 C491 440 522 409 522 364 L522 364 Z " />
<glyph glyph-name="eight" unicode="8" horiz-adv-x="801" d="M746 303 C746 395 678 470 579 470 C510 470 460 434 401 364 C342 434 291 470 225 470 C126 470 55 395 55 303 C55 211 126 137 225 137 C293 137 342 171 401 241 C460 181 510 138 579 138 C678 138 746 211 746 303 L746 303 Z M668 302 C668 249 627 210 576 210 C531 210 490 247 444 302 C490 357 531 394 576 394 C627 394 668 355 668 302 L668 302 Z M358 302 C312 247 272 210 227 210 C176 210 132 249 132 302 C132 355 176 395 227 395 C272 395 312 358 358 302 L358 302 Z " />
<glyph glyph-name="nine" unicode="9" horiz-adv-x="560" d="M501 0 L501 78 L353 78 L353 695 L272 695 L102 572 L102 477 L267 598 L267 78 L119 78 L119 0 L501 0 Z " />
<glyph glyph-name="colon" unicode="&#x3a;" horiz-adv-x="352" d="M338 720 L270 720 C263 664 233 628 174 628 C115 628 84 664 77 720 L9 720 C16 633 69 564 174 564 C279 564 331 633 338 720 L338 720 Z " />
<glyph glyph-name="semicolon" unicode="&#x3b;" horiz-adv-x="368" d="M32 885 L157 754 L212 754 L337 885 L292 930 L185 815 L77 930 L32 885 Z " />
<glyph glyph-name="less" unicode="&#x3c;" horiz-adv-x="857" d="M792 269 L792 341 L188 341 L423 573 L375 623 L55 305 L375 -13 L423 37 L188 269 L792 269 Z " />
<glyph glyph-name="equal" unicode="&#x3d;" horiz-adv-x="692" d="M587 134 L587 211 L321 211 L415 344 L587 344 L587 421 L468 421 L523 499 L473 534 L394 421 L105 421 L105 344 L340 344 L247 211 L105 211 L105 134 L193 134 L135 51 L185 16 L268 134 L587 134 Z " />
<glyph glyph-name="greater" unicode="&#x3e;" horiz-adv-x="857" d="M802 305 L483 623 L435 573 L669 341 L65 341 L65 269 L669 269 L435 37 L483 -13 L802 305 Z " />
<glyph glyph-name="question" unicode="&#x3f;" horiz-adv-x="588" d="M539 364 C539 417 500 457 446 457 L383 457 L383 519 C383 573 344 613 290 613 C236 613 197 573 197 519 L197 448 C181 459 162 465 142 465 C88 465 49 425 49 371 L49 123 L298 123 C352 123 391 162 391 216 C391 235 385 255 374 270 L446 270 C500 270 539 310 539 364 L539 364 Z M522 364 C522 319 491 287 446 287 L214 287 L214 519 C214 564 245 596 290 596 C335 596 367 564 367 519 L367 440 L446 440 C491 440 522 409 522 364 L522 364 Z " />
<glyph glyph-name="at" unicode="&#x40;" horiz-adv-x="588" d="M539 364 C539 417 500 457 446 457 L383 457 L383 519 C383 573 344 613 290 613 C236 613 197 573 197 519 L197 448 C181 459 162 465 142 465 C88 465 49 425 49 371 L49 123 L298 123 C352 123 391 162 391 216 C391 235 385 255 374 270 L446 270 C500 270 539 310 539 364 L539 364 Z M522 364 C522 319 491 287 446 287 L214 287 L214 519 C214 564 245 596 290 596 C335 596 367 564 367 519 L367 440 L446 440 C491 440 522 409 522 364 L522 364 Z " />
<glyph glyph-name="A" unicode="A" horiz-adv-x="663" d="M598 260 L598 709 L146 709 L146 642 L477 642 L50 215 L101 164 L528 591 L528 260 L598 260 Z " />
<glyph glyph-name="B" unicode="B" horiz-adv-x="588" d="M539 364 C539 417 500 457 446 457 L383 457 L383 519 C383 573 344 613 290 613 C236 613 197 573 197 519 L197 448 C181 459 162 465 142 465 C88 465 49 425 49 371 L49 123 L298 123 C352 123 391 162 391 216 C391 235 385 255 374 270 L446 270 C500 270 539 310 539 364 L539 364 Z M522 364 C522 319 491 287 446 287 L214 287 L214 519 C214 564 245 596 290 596 C335 596 367 564 367 519 L367 440 L446 440 C491 440 522 409 522 364 L522 364 Z " />
<glyph glyph-name="C" unicode="C" horiz-adv-x="588" d="M539 364 C539 417 500 457 446 457 L383 457 L383 519 C383 573 344 613 290 613 C236 613 197 573 197 519 L197 448 C181 459 162 465 142 465 C88 465 49 425 49 371 L49 123 L298 123 C352 123 391 162 391 216 C391 235 385 255 374 270 L446 270 C500 270 539 310 539 364 L539 364 Z M522 364 C522 319 491 287 446 287 L214 287 L214 519 C214 564 245 596 290 596 C335 596 367 564 367 519 L367 440 L446 440 C491 440 522 409 522 364 L522 364 Z " />
<glyph glyph-name="D" unicode="D" horiz-adv-x="690" d="M637 355 C637 457 624 563 546 637 C496 685 429 709 360 709 L113 709 L113 401 L40 401 L40 335 L113 335 L113 0 L360 0 C429 0 496 23 546 71 C623 145 637 253 637 355 L637 355 Z M547 355 C547 279 542 188 486 131 C453 98 406 82 360 82 L202 82 L202 335 L348 335 L348 401 L202 401 L202 627 L360 627 C406 627 453 611 486 578 C542 520 547 431 547 355 L547 355 Z " />
<glyph glyph-name="E" unicode="E" horiz-adv-x="586" d="M571 45 L538 117 C501 88 454 67 389 67 C335 67 287 87 250 128 C219 162 204 204 198 247 L396 247 L423 308 L193 308 C192 321 192 334 192 347 C192 360 192 374 193 387 L451 387 L478 448 L198 448 C205 492 219 534 250 568 C287 609 335 629 389 629 C454 629 501 608 538 579 L571 651 C528 684 473 709 389 709 C308 709 244 680 193 628 C142 576 118 514 109 448 L30 448 L30 387 L104 387 C103 374 103 361 103 348 C103 335 103 321 104 308 L30 308 L30 247 L109 247 C118 182 142 120 193 68 C244 16 308 -13 389 -13 C473 -13 528 12 571 45 L571 45 Z " />
<glyph glyph-name="F" unicode="F" horiz-adv-x="662" d="M361 652 L361 723 C333 728 302 732 267 732 C179 732 120 672 120 596 L120 506 L28 506 L28 434 L120 434 L120 0 L205 0 L205 434 L351 434 L351 506 L205 506 L205 591 C205 632 232 660 277 660 C313 660 334 655 361 652 L361 652 Z M627 0 L627 72 C627 72 620 71 592 71 C557 71 546 89 546 123 L546 722 L461 722 L461 118 C461 38 493 -6 567 -6 C608 -6 627 0 627 0 L627 0 Z " />
<glyph glyph-name="G" unicode="G" horiz-adv-x="588" d="M539 364 C539 417 500 457 446 457 L383 457 L383 519 C383 573 344 613 290 613 C236 613 197 573 197 519 L197 448 C181 459 162 465 142 465 C88 465 49 425 49 371 L49 123 L298 123 C352 123 391 162 391 216 C391 235 385 255 374 270 L446 270 C500 270 539 310 539 364 L539 364 Z M522 364 C522 319 491 287 446 287 L214 287 L214 519 C214 564 245 596 290 596 C335 596 367 564 367 519 L367 440 L446 440 C491 440 522 409 522 364 L522 364 Z " />
<glyph glyph-name="H" unicode="H" horiz-adv-x="588" d="M539 364 C539 417 500 457 446 457 L383 457 L383 519 C383 573 344 613 290 613 C236 613 197 573 197 519 L197 448 C181 459 162 465 142 465 C88 465 49 425 49 371 L49 123 L298 123 C352 123 391 162 391 216 C391 235 385 255 374 270 L446 270 C500 270 539 310 539 364 L539 364 Z M522 364 C522 319 491 287 446 287 L214 287 L214 519 C214 564 245 596 290 596 C335 596 367 564 367 519 L367 440 L446 440 C491 440 522 409 522 364 L522 364 Z " />
<glyph glyph-name="I" unicode="I" horiz-adv-x="588" d="M539 364 C539 417 500 457 446 457 L383 457 L383 519 C383 573 344 613 290 613 C236 613 197 573 197 519 L197 448 C181 459 162 465 142 465 C88 465 49 425 49 371 L49 123 L298 123 C352 123 391 162 391 216 C391 235 385 255 374 270 L446 270 C500 270 539 310 539 364 L539 364 Z M522 364 C522 319 491 287 446 287 L214 287 L214 519 C214 564 245 596 290 596 C335 596 367 564 367 519 L367 440 L446 440 C491 440 522 409 522 364 L522 364 Z " />
<glyph glyph-name="J" unicode="J" horiz-adv-x="588" d="M539 364 C539 417 500 457 446 457 L383 457 L383 519 C383 573 344 613 290 613 C236 613 197 573 197 519 L197 448 C181 459 162 465 142 465 C88 465 49 425 49 371 L49 123 L298 123 C352 123 391 162 391 216 C391 235 385 255 374 270 L446 270 C500 270 539 310 539 364 L539 364 Z M522 364 C522 319 491 287 446 287 L214 287 L214 519 C214 564 245 596 290 596 C335 596 367 564 367 519 L367 440 L446 440 C491 440 522 409 522 364 L522 364 Z " />
<glyph glyph-name="K" unicode="K" horiz-adv-x="588" d="M539 364 C539 417 500 457 446 457 L383 457 L383 519 C383 573 344 613 290 613 C236 613 197 573 197 519 L197 448 C181 459 162 465 142 465 C88 465 49 425 49 371 L49 123 L298 123 C352 123 391 162 391 216 C391 235 385 255 374 270 L446 270 C500 270 539 310 539 364 L539 364 Z M522 364 C522 319 491 287 446 287 L214 287 L214 519 C214 564 245 596 290 596 C335 596 367 564 367 519 L367 440 L446 440 C491 440 522 409 522 364 L522 364 Z " />
<glyph glyph-name="L" unicode="L" horiz-adv-x="565" d="M551 0 L551 83 L210 83 L210 351 L370 450 L337 503 L210 424 L210 709 L121 709 L121 369 L23 308 L56 256 L121 296 L121 0 L551 0 Z " />
<glyph glyph-name="M" unicode="M" horiz-adv-x="588" d="M539 364 C539 417 500 457 446 457 L383 457 L383 519 C383 573 344 613 290 613 C236 613 197 573 197 519 L197 448 C181 459 162 465 142 465 C88 465 49 425 49 371 L49 123 L298 123 C352 123 391 162 391 216 C391 235 385 255 374 270 L446 270 C500 270 539 310 539 364 L539 364 Z M522 364 C522 319 491 287 446 287 L214 287 L214 519 C214 564 245 596 290 596 C335 596 367 564 367 519 L367 440 L446 440 C491 440 522 409 522 364 L522 364 Z " />
<glyph glyph-name="N" unicode="N" horiz-adv-x="588" d="M539 364 C539 417 500 457 446 457 L383 457 L383 519 C383 573 344 613 290 613 C236 613 197 573 197 519 L197 448 C181 459 162 465 142 465 C88 465 49 425 49 371 L49 123 L298 123 C352 123 391 162 391 216 C391 235 385 255 374 270 L446 270 C500 270 539 310 539 364 L539 364 Z M522 364 C522 319 491 287 446 287 L214 287 L214 519 C214 564 245 596 290 596 C335 596 367 564 367 519 L367 440 L446 440 C491 440 522 409 522 364 L522 364 Z " />
<glyph glyph-name="O" unicode="O" horiz-adv-x="858" d="M790 355 C790 560 636 722 429 722 C222 722 68 559 68 354 C68 149 222 -13 429 -13 C636 -13 790 150 790 355 L790 355 Z M723 355 C723 180 606 51 429 51 C252 51 135 179 135 354 C135 529 252 658 429 658 C606 658 723 530 723 355 L723 355 Z M593 421 C593 499 530 544 457 544 L316 544 L316 161 L383 161 L383 296 L457 296 C530 296 593 343 593 421 L593 421 Z M523 421 C523 379 497 358 457 358 L382 358 L382 482 L457 482 C493 482 523 460 523 421 L523 421 Z " />
<glyph glyph-name="P" unicode="P" horiz-adv-x="812" d="M747 867 C747 878 738 887 727 887 C716 887 706 878 706 867 C706 856 716 846 727 846 C738 846 747 856 747 867 L747 867 Z M746 615 C746 626 737 636 726 636 C715 636 705 626 705 615 C705 604 712 594 724 594 C735 594 746 603 746 615 L746 615 Z M492 867 C492 878 482 887 471 887 C460 887 450 878 450 867 C450 856 460 846 471 846 C482 846 492 856 492 867 L492 867 Z M620 737 C620 748 611 758 600 758 C589 758 579 748 579 737 C579 726 589 717 600 717 C611 717 620 726 620 737 L620 737 Z M744 365 C744 376 734 385 723 385 C712 385 702 376 702 365 C702 354 712 344 723 344 C734 344 744 354 744 365 L744 365 Z M491 615 C491 626 481 636 470 636 C459 636 449 626 449 615 C449 604 459 594 470 594 C481 594 491 604 491 615 L491 615 Z M619 486 C619 497 609 507 598 507 C587 507 578 497 578 486 C578 475 587 465 598 465 C609 465 619 475 619 486 L619 486 Z M237 867 C237 878 227 887 216 887 C205 887 196 878 196 867 C196 856 205 846 216 846 C227 846 237 856 237 867 L237 867 Z M365 737 C365 748 355 758 344 758 C333 758 323 748 323 737 C323 726 333 717 344 717 C355 717 365 726 365 737 L365 737 Z M745 113 C745 124 735 134 724 134 C713 134 703 124 703 113 C703 102 713 92 724 92 C735 92 745 102 745 113 L745 113 Z M488 365 C488 376 478 385 467 385 C456 385 446 376 446 365 C446 354 456 344 467 344 C478 344 488 354 488 365 L488 365 Z M616 236 C616 247 607 256 596 256 C585 256 575 247 575 236 C575 225 585 215 596 215 C607 215 616 225 616 236 L616 236 Z M236 615 C236 626 226 636 215 636 C204 636 194 626 194 615 C194 604 204 594 215 594 C226 594 236 604 236 615 L236 615 Z M363 486 C363 497 354 507 343 507 C332 507 322 497 322 486 C322 475 332 465 343 465 C354 465 363 475 363 486 L363 486 Z M110 737 C110 748 100 758 89 758 C78 758 68 748 68 737 C68 726 78 717 89 717 C100 717 110 726 110 737 L110 737 Z M745 -139 C745 -128 735 -118 724 -118 C713 -118 703 -128 703 -139 C703 -150 713 -160 724 -160 C735 -160 745 -150 745 -139 L745 -139 Z M489 113 C489 124 479 134 468 134 C457 134 447 124 447 113 C447 102 457 92 468 92 C479 92 489 102 489 113 L489 113 Z M617 -16 C617 -5 608 5 597 5 C586 5 576 -5 576 -16 C576 -27 586 -37 597 -37 C608 -37 617 -27 617 -16 L617 -16 Z M233 365 C233 376 223 385 212 385 C201 385 192 376 192 365 C192 354 201 344 212 344 C223 344 233 354 233 365 L233 365 Z M361 236 C361 247 351 256 340 256 C329 256 319 247 319 236 C319 225 329 215 340 215 C351 215 361 225 361 236 L361 236 Z M109 486 C109 497 99 507 88 507 C77 507 67 497 67 486 C67 475 77 465 88 465 C99 465 109 475 109 486 L109 486 Z M489 -139 C489 -128 479 -118 468 -118 C457 -118 447 -128 447 -139 C447 -150 457 -160 468 -160 C479 -160 489 -150 489 -139 L489 -139 Z M617 -268 C617 -257 608 -248 597 -248 C586 -248 576 -257 576 -268 C576 -279 586 -289 597 -289 C608 -289 617 -279 617 -268 L617 -268 Z M234 113 C234 124 225 134 214 134 C203 134 193 124 193 113 C193 102 203 92 214 92 C225 92 234 102 234 113 L234 113 Z M362 -16 C362 -5 352 5 341 5 C330 5 320 -5 320 -16 C320 -27 330 -37 341 -37 C352 -37 362 -27 362 -16 L362 -16 Z M106 236 C106 247 96 256 85 256 C74 256 65 247 65 236 C65 225 74 215 85 215 C96 215 106 225 106 236 L106 236 Z M234 -139 C234 -128 224 -118 213 -118 C202 -118 193 -128 193 -139 C193 -150 202 -160 213 -160 C224 -160 234 -150 234 -139 L234 -139 Z M362 -268 C362 -257 352 -248 341 -248 C330 -248 320 -257 320 -268 C320 -279 330 -289 341 -289 C352 -289 362 -279 362 -268 L362 -268 Z M107 -16 C107 -5 97 5 86 5 C75 5 66 -5 66 -16 C66 -27 75 -37 86 -37 C97 -37 107 -27 107 -16 L107 -16 Z M107 -268 C107 -257 97 -248 86 -248 C75 -248 65 -257 65 -268 C65 -279 75 -289 86 -289 C97 -289 107 -279 107 -268 L107 -268 Z " />
<glyph glyph-name="Q" unicode="Q" horiz-adv-x="588" d="M539 364 C539 417 500 457 446 457 L383 457 L383 519 C383 573 344 613 290 613 C236 613 197 573 197 519 L197 448 C181 459 162 465 142 465 C88 465 49 425 49 371 L49 123 L298 123 C352 123 391 162 391 216 C391 235 385 255 374 270 L446 270 C500 270 539 310 539 364 L539 364 Z M522 364 C522 319 491 287 446 287 L214 287 L214 519 C214 564 245 596 290 596 C335 596 367 564 367 519 L367 440 L446 440 C491 440 522 409 522 364 L522 364 Z " />
<glyph glyph-name="R" unicode="R" horiz-adv-x="588" d="M539 364 C539 417 500 457 446 457 L383 457 L383 519 C383 573 344 613 290 613 C236 613 197 573 197 519 L197 448 C181 459 162 465 142 465 C88 465 49 425 49 371 L49 123 L298 123 C352 123 391 162 391 216 C391 235 385 255 374 270 L446 270 C500 270 539 310 539 364 L539 364 Z M522 364 C522 319 491 287 446 287 L214 287 L214 519 C214 564 245 596 290 596 C335 596 367 564 367 519 L367 440 L446 440 C491 440 522 409 522 364 L522 364 Z " />
<glyph glyph-name="S" unicode="S" horiz-adv-x="635" d="M473 890 L428 935 L321 820 L213 935 L168 890 L293 759 L348 759 L473 890 Z M585 195 C585 307 506 379 388 396 C349 402 310 409 270 414 C217 421 164 450 164 514 C164 546 175 570 193 591 C224 626 268 640 319 640 C374 640 417 622 444 591 C464 568 477 537 479 502 L572 502 C570 562 547 613 504 654 C457 699 389 722 320 722 C246 722 183 698 134 652 C96 616 72 565 72 512 C72 399 155 340 261 324 C299 318 334 313 373 307 C457 294 492 248 492 193 C492 155 478 130 456 110 C424 80 378 69 324 69 C274 69 220 82 188 113 C159 141 138 183 138 225 L45 225 C45 158 76 97 121 55 C169 11 238 -13 324 -13 C400 -13 476 10 525 58 C560 92 585 136 585 195 L585 195 Z " />
<glyph glyph-name="T" unicode="T" horiz-adv-x="607" d="M577 363 C577 425 557 476 523 513 C485 554 427 577 344 577 L190 577 L190 710 L100 710 L100 0 L190 0 L190 143 L345 143 C423 143 480 164 518 202 C556 240 577 294 577 363 L577 363 Z M485 363 C485 271 446 224 343 224 L190 224 L190 496 L342 496 C442 496 485 447 485 363 L485 363 Z " />
<glyph glyph-name="U" unicode="U" horiz-adv-x="588" d="M539 364 C539 417 500 457 446 457 L383 457 L383 519 C383 573 344 613 290 613 C236 613 197 573 197 519 L197 448 C181 459 162 465 142 465 C88 465 49 425 49 371 L49 123 L298 123 C352 123 391 162 391 216 C391 235 385 255 374 270 L446 270 C500 270 539 310 539 364 L539 364 Z M522 364 C522 319 491 287 446 287 L214 287 L214 519 C214 564 245 596 290 596 C335 596 367 564 367 519 L367 440 L446 440 C491 440 522 409 522 364 L522 364 Z " />
<glyph glyph-name="V" unicode="V" horiz-adv-x="690" d="M690 766 L690 832 L513 832 L283 119 L156 504 L65 504 L244 -8 L321 -8 L580 766 L690 766 Z " />
<glyph glyph-name="W" unicode="W" horiz-adv-x="588" d="M539 364 C539 417 500 457 446 457 L383 457 L383 519 C383 573 344 613 290 613 C236 613 197 573 197 519 L197 448 C181 459 162 465 142 465 C88 465 49 425 49 371 L49 123 L298 123 C352 123 391 162 391 216 C391 235 385 255 374 270 L446 270 C500 270 539 310 539 364 L539 364 Z M522 364 C522 319 491 287 446 287 L214 287 L214 519 C214 564 245 596 290 596 C335 596 367 564 367 519 L367 440 L446 440 C491 440 522 409 522 364 L522 364 Z " />
<glyph glyph-name="X" unicode="X" horiz-adv-x="588" d="M539 364 C539 417 500 457 446 457 L383 457 L383 519 C383 573 344 613 290 613 C236 613 197 573 197 519 L197 448 C181 459 162 465 142 465 C88 465 49 425 49 371 L49 123 L298 123 C352 123 391 162 391 216 C391 235 385 255 374 270 L446 270 C500 270 539 310 539 364 L539 364 Z M522 364 C522 319 491 287 446 287 L214 287 L214 519 C214 564 245 596 290 596 C335 596 367 564 367 519 L367 440 L446 440 C491 440 522 409 522 364 L522 364 Z " />
<glyph glyph-name="Y" unicode="Y" horiz-adv-x="566" d="M397 847 L352 920 L182 797 L211 749 L397 847 Z M566 709 L471 709 L286 372 L100 709 L0 709 L238 288 L238 0 L328 0 L328 288 L566 709 Z " />
<glyph glyph-name="Z" unicode="Z" horiz-adv-x="612" d="M566 0 L566 83 L148 83 L562 619 L562 709 L47 709 L47 626 L456 626 L43 89 L43 0 L566 0 Z M151 885 L276 754 L331 754 L456 885 L411 930 L304 815 L196 930 L151 885 Z " />
<glyph glyph-name="bracketleft" unicode="&#x5b;" horiz-adv-x="588" d="M539 364 C539 417 500 457 446 457 L383 457 L383 519 C383 573 344 613 290 613 C236 613 197 573 197 519 L197 448 C181 459 162 465 142 465 C88 465 49 425 49 371 L49 123 L298 123 C352 123 391 162 391 216 C391 235 385 255 374 270 L446 270 C500 270 539 310 539 364 L539 364 Z M522 364 C522 319 491 287 446 287 L214 287 L214 519 C214 564 245 596 290 596 C335 596 367 564 367 519 L367 440 L446 440 C491 440 522 409 522 364 L522 364 Z " />
<glyph glyph-name="backslash" unicode="&#x5c;" horiz-adv-x="588" d="M539 364 C539 417 500 457 446 457 L383 457 L383 519 C383 573 344 613 290 613 C236 613 197 573 197 519 L197 448 C181 459 162 465 142 465 C88 465 49 425 49 371 L49 123 L298 123 C352 123 391 162 391 216 C391 235 385 255 374 270 L446 270 C500 270 539 310 539 364 L539 364 Z M522 364 C522 319 491 287 446 287 L214 287 L214 519 C214 564 245 596 290 596 C335 596 367 564 367 519 L367 440 L446 440 C491 440 522 409 522 364 L522 364 Z " />
<glyph glyph-name="bracketright" unicode="&#x5d;" horiz-adv-x="588" d="M539 364 C539 417 500 457 446 457 L383 457 L383 519 C383 573 344 613 290 613 C236 613 197 573 197 519 L197 448 C181 459 162 465 142 465 C88 465 49 425 49 371 L49 123 L298 123 C352 123 391 162 391 216 C391 235 385 255 374 270 L446 270 C500 270 539 310 539 364 L539 364 Z M522 364 C522 319 491 287 446 287 L214 287 L214 519 C214 564 245 596 290 596 C335 596 367 564 367 519 L367 440 L446 440 C491 440 522 409 522 364 L522 364 Z " />
<glyph glyph-name="asciicircum" unicode="&#x5e;" horiz-adv-x="588" d="M539 364 C539 417 500 457 446 457 L383 457 L383 519 C383 573 344 613 290 613 C236 613 197 573 197 519 L197 448 C181 459 162 465 142 465 C88 465 49 425 49 371 L49 123 L298 123 C352 123 391 162 391 216 C391 235 385 255 374 270 L446 270 C500 270 539 310 539 364 L539 364 Z M522 364 C522 319 491 287 446 287 L214 287 L214 519 C214 564 245 596 290 596 C335 596 367 564 367 519 L367 440 L446 440 C491 440 522 409 522 364 L522 364 Z " />
<glyph glyph-name="underscore" unicode="&#x5f;" horiz-adv-x="355" d="M330 597 L205 728 L150 728 L25 597 L70 552 L177 667 L285 552 L330 597 Z " />
<glyph glyph-name="grave" unicode="&#x60;" horiz-adv-x="588" d="M539 364 C539 417 500 457 446 457 L383 457 L383 519 C383 573 344 613 290 613 C236 613 197 573 197 519 L197 448 C181 459 162 465 142 465 C88 465 49 425 49 371 L49 123 L298 123 C352 123 391 162 391 216 C391 235 385 255 374 270 L446 270 C500 270 539 310 539 364 L539 364 Z M522 364 C522 319 491 287 446 287 L214 287 L214 519 C214 564 245 596 290 596 C335 596 367 564 367 519 L367 440 L446 440 C491 440 522 409 522 364 L522 364 Z " />
<glyph glyph-name="a" unicode="a" horiz-adv-x="721" d="M653 328 L653 403 L542 403 L542 518 L457 518 L457 403 L325 403 C247 403 199 447 199 520 C199 551 211 579 233 600 C254 619 283 631 324 631 C357 631 381 629 404 624 L404 701 C380 707 348 710 318 710 C250 710 200 689 164 656 C126 621 107 580 107 518 C107 448 152 390 212 364 C145 336 95 272 95 200 C95 144 115 95 152 59 C190 22 245 0 321 0 L652 0 L652 76 L542 76 L542 328 L653 328 Z M457 76 L323 76 C280 76 238 90 212 119 C195 138 184 165 184 197 C184 273 247 328 331 328 L457 328 L457 279 L457 76 Z " />
<glyph glyph-name="b" unicode="b" horiz-adv-x="588" d="M539 364 C539 417 500 457 446 457 L383 457 L383 519 C383 573 344 613 290 613 C236 613 197 573 197 519 L197 448 C181 459 162 465 142 465 C88 465 49 425 49 371 L49 123 L298 123 C352 123 391 162 391 216 C391 235 385 255 374 270 L446 270 C500 270 539 310 539 364 L539 364 Z M522 364 C522 319 491 287 446 287 L214 287 L214 519 C214 564 245 596 290 596 C335 596 367 564 367 519 L367 440 L446 440 C491 440 522 409 522 364 L522 364 Z " />
<glyph glyph-name="c" unicode="c" horiz-adv-x="174" d="M165 -193 L87 -58 L9 -58 L78 -234 L165 -193 Z " />
<glyph glyph-name="d" unicode="d" horiz-adv-x="551" d="M497 253 C497 327 482 385 446 446 L363 588 L426 588 L426 647 L328 647 L284 722 L195 722 L240 647 L155 647 L155 588 L275 588 L318 515 C318 515 290 519 275 519 C211 519 159 496 122 460 C67 406 54 333 54 253 C54 173 67 100 122 46 C159 10 211 -13 275 -13 C339 -13 392 10 429 46 C484 100 497 173 497 253 L497 253 Z M412 253 C412 194 402 133 366 96 C345 75 315 60 275 60 C235 60 206 75 185 96 C149 133 139 194 139 253 C139 312 149 373 185 410 C206 431 235 446 275 446 C315 446 345 431 366 410 C402 373 412 312 412 253 L412 253 Z " />
<glyph glyph-name="e" unicode="e" horiz-adv-x="588" d="M539 364 C539 417 500 457 446 457 L383 457 L383 519 C383 573 344 613 290 613 C236 613 197 573 197 519 L197 448 C181 459 162 465 142 465 C88 465 49 425 49 371 L49 123 L298 123 C352 123 391 162 391 216 C391 235 385 255 374 270 L446 270 C500 270 539 310 539 364 L539 364 Z M522 364 C522 319 491 287 446 287 L214 287 L214 519 C214 564 245 596 290 596 C335 596 367 564 367 519 L367 440 L446 440 C491 440 522 409 522 364 L522 364 Z " />
<glyph glyph-name="f" unicode="f" horiz-adv-x="638" d="M361 652 L361 723 C333 728 302 732 267 732 C179 732 120 672 120 596 L120 506 L28 506 L28 434 L120 434 L120 0 L205 0 L205 434 L351 434 L351 506 L205 506 L205 591 C205 632 232 660 277 660 C313 660 334 655 361 652 L361 652 Z M551 622 L551 722 L452 722 L452 622 L551 622 Z M545 0 L545 506 L458 506 L458 0 L545 0 Z " />
<glyph glyph-name="g" unicode="g" horiz-adv-x="588" d="M539 364 C539 417 500 457 446 457 L383 457 L383 519 C383 573 344 613 290 613 C236 613 197 573 197 519 L197 448 C181 459 162 465 142 465 C88 465 49 425 49 371 L49 123 L298 123 C352 123 391 162 391 216 C391 235 385 255 374 270 L446 270 C500 270 539 310 539 364 L539 364 Z M522 364 C522 319 491 287 446 287 L214 287 L214 519 C214 564 245 596 290 596 C335 596 367 564 367 519 L367 440 L446 440 C491 440 522 409 522 364 L522 364 Z " />
<glyph glyph-name="h" unicode="h" horiz-adv-x="588" d="M539 364 C539 417 500 457 446 457 L383 457 L383 519 C383 573 344 613 290 613 C236 613 197 573 197 519 L197 448 C181 459 162 465 142 465 C88 465 49 425 49 371 L49 123 L298 123 C352 123 391 162 391 216 C391 235 385 255 374 270 L446 270 C500 270 539 310 539 364 L539 364 Z M522 364 C522 319 491 287 446 287 L214 287 L214 519 C214 564 245 596 290 596 C335 596 367 564 367 519 L367 440 L446 440 C491 440 522 409 522 364 L522 364 Z " />
<glyph glyph-name="i" unicode="i" horiz-adv-x="273" d="M180 0 L180 506 L94 506 L94 0 L180 0 Z " />
<glyph glyph-name="j" unicode="j" horiz-adv-x="588" d="M539 364 C539 417 500 457 446 457 L383 457 L383 519 C383 573 344 613 290 613 C236 613 197 573 197 519 L197 448 C181 459 162 465 142 465 C88 465 49 425 49 371 L49 123 L298 123 C352 123 391 162 391 216 C391 235 385 255 374 270 L446 270 C500 270 539 310 539 364 L539 364 Z M522 364 C522 319 491 287 446 287 L214 287 L214 519 C214 564 245 596 290 596 C335 596 367 564 367 519 L367 440 L446 440 C491 440 522 409 522 364 L522 364 Z " />
<glyph glyph-name="k" unicode="k" horiz-adv-x="588" d="M539 364 C539 417 500 457 446 457 L383 457 L383 519 C383 573 344 613 290 613 C236 613 197 573 197 519 L197 448 C181 459 162 465 142 465 C88 465 49 425 49 371 L49 123 L298 123 C352 123 391 162 391 216 C391 235 385 255 374 270 L446 270 C500 270 539 310 539 364 L539 364 Z M522 364 C522 319 491 287 446 287 L214 287 L214 519 C214 564 245 596 290 596 C335 596 367 564 367 519 L367 440 L446 440 C491 440 522 409 522 364 L522 364 Z " />
<glyph glyph-name="l" unicode="l" horiz-adv-x="333" d="M308 466 L275 519 L195 469 L195 722 L110 722 L110 416 L20 360 L53 308 L110 343 L110 118 C110 38 142 -6 216 -6 C257 -6 276 0 276 0 L276 72 C276 72 269 71 241 71 C206 71 195 89 195 123 L195 396 L308 466 Z " />
<glyph glyph-name="m" unicode="m" horiz-adv-x="588" d="M539 364 C539 417 500 457 446 457 L383 457 L383 519 C383 573 344 613 290 613 C236 613 197 573 197 519 L197 448 C181 459 162 465 142 465 C88 465 49 425 49 371 L49 123 L298 123 C352 123 391 162 391 216 C391 235 385 255 374 270 L446 270 C500 270 539 310 539 364 L539 364 Z M522 364 C522 319 491 287 446 287 L214 287 L214 519 C214 564 245 596 290 596 C335 596 367 564 367 519 L367 440 L446 440 C491 440 522 409 522 364 L522 364 Z " />
<glyph glyph-name="n" unicode="n" horiz-adv-x="588" d="M539 364 C539 417 500 457 446 457 L383 457 L383 519 C383 573 344 613 290 613 C236 613 197 573 197 519 L197 448 C181 459 162 465 142 465 C88 465 49 425 49 371 L49 123 L298 123 C352 123 391 162 391 216 C391 235 385 255 374 270 L446 270 C500 270 539 310 539 364 L539 364 Z M522 364 C522 319 491 287 446 287 L214 287 L214 519 C214 564 245 596 290 596 C335 596 367 564 367 519 L367 440 L446 440 C491 440 522 409 522 364 L522 364 Z " />
<glyph glyph-name="o" unicode="o" horiz-adv-x="588" d="M539 364 C539 417 500 457 446 457 L383 457 L383 519 C383 573 344 613 290 613 C236 613 197 573 197 519 L197 448 C181 459 162 465 142 465 C88 465 49 425 49 371 L49 123 L298 123 C352 123 391 162 391 216 C391 235 385 255 374 270 L446 270 C500 270 539 310 539 364 L539 364 Z M522 364 C522 319 491 287 446 287 L214 287 L214 519 C214 564 245 596 290 596 C335 596 367 564 367 519 L367 440 L446 440 C491 440 522 409 522 364 L522 364 Z " />
<glyph glyph-name="p" unicode="p" horiz-adv-x="640" d="M570 4 L570 71 C565 69 553 66 525 66 C488 66 479 92 479 128 L479 438 L556 438 L556 506 L65 506 L65 438 L143 438 L143 -1 L227 -1 L227 438 L391 438 L394 438 L394 118 C394 55 422 -7 503 -7 C544 -7 565 2 570 4 L570 4 Z " />
<glyph glyph-name="q" unicode="q" horiz-adv-x="588" d="M539 364 C539 417 500 457 446 457 L383 457 L383 519 C383 573 344 613 290 613 C236 613 197 573 197 519 L197 448 C181 459 162 465 142 465 C88 465 49 425 49 371 L49 123 L298 123 C352 123 391 162 391 216 C391 235 385 255 374 270 L446 270 C500 270 539 310 539 364 L539 364 Z M522 364 C522 319 491 287 446 287 L214 287 L214 519 C214 564 245 596 290 596 C335 596 367 564 367 519 L367 440 L446 440 C491 440 522 409 522 364 L522 364 Z " />
<glyph glyph-name="r" unicode="r" horiz-adv-x="588" d="M539 364 C539 417 500 457 446 457 L383 457 L383 519 C383 573 344 613 290 613 C236 613 197 573 197 519 L197 448 C181 459 162 465 142 465 C88 465 49 425 49 371 L49 123 L298 123 C352 123 391 162 391 216 C391 235 385 255 374 270 L446 270 C500 270 539 310 539 364 L539 364 Z M522 364 C522 319 491 287 446 287 L214 287 L214 519 C214 564 245 596 290 596 C335 596 367 564 367 519 L367 440 L446 440 C491 440 522 409 522 364 L522 364 Z " />
<glyph glyph-name="s" unicode="s" horiz-adv-x="521" d="M401 671 L361 711 L265 608 L167 711 L127 671 L239 553 L289 553 L401 671 Z M468 147 C468 223 411 275 339 287 C285 296 245 300 217 304 C175 310 149 328 149 370 C149 398 168 425 200 438 C224 448 239 448 259 448 C293 448 321 440 342 421 C357 408 370 384 371 358 L456 358 C456 399 442 428 420 455 C386 498 326 519 259 519 C196 519 143 497 110 463 C87 440 68 403 68 364 C68 287 116 240 192 228 C227 223 284 216 306 213 C358 206 385 179 385 141 C385 118 374 97 360 86 C334 64 302 58 267 58 C235 58 199 64 176 81 C152 99 136 125 135 160 L50 160 C50 117 68 74 99 44 C142 2 200 -13 263 -13 C329 -13 389 4 428 44 C452 69 468 103 468 147 L468 147 Z " />
<glyph glyph-name="t" unicode="t" horiz-adv-x="590" d="M536 252 C536 339 510 419 459 468 C426 499 382 519 323 519 C268 519 205 493 178 447 L178 722 L93 722 L93 -201 L178 -201 L178 58 C205 12 268 -14 323 -14 C382 -14 426 6 459 37 C510 86 536 165 536 252 L536 252 Z M450 252 C450 159 422 58 309 58 C272 58 249 73 229 91 C187 128 173 189 173 252 C173 315 187 377 229 414 C249 432 272 447 309 447 C422 447 450 345 450 252 L450 252 Z " />
<glyph glyph-name="u" unicode="u" horiz-adv-x="588" d="M539 364 C539 417 500 457 446 457 L383 457 L383 519 C383 573 344 613 290 613 C236 613 197 573 197 519 L197 448 C181 459 162 465 142 465 C88 465 49 425 49 371 L49 123 L298 123 C352 123 391 162 391 216 C391 235 385 255 374 270 L446 270 C500 270 539 310 539 364 L539 364 Z M522 364 C522 319 491 287 446 287 L214 287 L214 519 C214 564 245 596 290 596 C335 596 367 564 367 519 L367 440 L446 440 C491 440 522 409 522 364 L522 364 Z " />
<glyph glyph-name="v" unicode="v" horiz-adv-x="588" d="M539 364 C539 417 500 457 446 457 L383 457 L383 519 C383 573 344 613 290 613 C236 613 197 573 197 519 L197 448 C181 459 162 465 142 465 C88 465 49 425 49 371 L49 123 L298 123 C352 123 391 162 391 216 C391 235 385 255 374 270 L446 270 C500 270 539 310 539 364 L539 364 Z M522 364 C522 319 491 287 446 287 L214 287 L214 519 C214 564 245 596 290 596 C335 596 367 564 367 519 L367 440 L446 440 C491 440 522 409 522 364 L522 364 Z " />
<glyph glyph-name="w" unicode="w" horiz-adv-x="588" d="M539 364 C539 417 500 457 446 457 L383 457 L383 519 C383 573 344 613 290 613 C236 613 197 573 197 519 L197 448 C181 459 162 465 142 465 C88 465 49 425 49 371 L49 123 L298 123 C352 123 391 162 391 216 C391 235 385 255 374 270 L446 270 C500 270 539 310 539 364 L539 364 Z M522 364 C522 319 491 287 446 287 L214 287 L214 519 C214 564 245 596 290 596 C335 596 367 564 367 519 L367 440 L446 440 C491 440 522 409 522 364 L522 364 Z " />
<glyph glyph-name="x" unicode="x" horiz-adv-x="682" d="M617 76 L394 298 L617 520 L563 574 L340 352 L119 574 L65 520 L287 298 L65 76 L119 22 L341 244 L563 22 L617 76 Z " />
<glyph glyph-name="y" unicode="y" horiz-adv-x="498" d="M381 654 L334 726 L162 597 L194 550 L381 654 Z M488 506 L399 506 L257 107 L108 506 L12 506 L214 0 L182 -85 C168 -123 142 -136 106 -136 C73 -136 46 -128 46 -128 L46 -202 C53 -204 81 -212 123 -212 C199 -212 236 -169 260 -104 L488 506 Z " />
<glyph glyph-name="z" unicode="z" horiz-adv-x="501" d="M453 0 L453 74 L157 74 L450 431 L450 506 L53 506 L53 432 L347 432 L53 75 L53 0 L453 0 Z M116 670 L228 552 L278 552 L390 670 L350 710 L254 607 L156 710 L116 670 Z " />
<glyph glyph-name="braceleft" unicode="&#x7b;" horiz-adv-x="588" d="M539 364 C539 417 500 457 446 457 L383 457 L383 519 C383 573 344 613 290 613 C236 613 197 573 197 519 L197 448 C181 459 162 465 142 465 C88 465 49 425 49 371 L49 123 L298 123 C352 123 391 162 391 216 C391 235 385 255 374 270 L446 270 C500 270 539 310 539 364 L539 364 Z M522 364 C522 319 491 287 446 287 L214 287 L214 519 C214 564 245 596 290 596 C335 596 367 564 367 519 L367 440 L446 440 C491 440 522 409 522 364 L522 364 Z " />
<glyph glyph-name="bar" unicode="&#x7c;" horiz-adv-x="588" d="M539 364 C539 417 500 457 446 457 L383 457 L383 519 C383 573 344 613 290 613 C236 613 197 573 197 519 L197 448 C181 459 162 465 142 465 C88 465 49 425 49 371 L49 123 L298 123 C352 123 391 162 391 216 C391 235 385 255 374 270 L446 270 C500 270 539 310 539 364 L539 364 Z M522 364 C522 319 491 287 446 287 L214 287 L214 519 C214 564 245 596 290 596 C335 596 367 564 367 519 L367 440 L446 440 C491 440 522 409 522 364 L522 364 Z " />
<glyph glyph-name="braceright" unicode="&#x7d;" horiz-adv-x="588" d="M539 364 C539 417 500 457 446 457 L383 457 L383 519 C383 573 344 613 290 613 C236 613 197 573 197 519 L197 448 C181 459 162 465 142 465 C88 465 49 425 49 371 L49 123 L298 123 C352 123 391 162 391 216 C391 235 385 255 374 270 L446 270 C500 270 539 310 539 364 L539 364 Z M522 364 C522 319 491 287 446 287 L214 287 L214 519 C214 564 245 596 290 596 C335 596 367 564 367 519 L367 440 L446 440 C491 440 522 409 522 364 L522 364 Z " />
<glyph glyph-name="asciitilde" unicode="&#x7e;" horiz-adv-x="588" d="M539 364 C539 417 500 457 446 457 L383 457 L383 519 C383 573 344 613 290 613 C236 613 197 573 197 519 L197 448 C181 459 162 465 142 465 C88 465 49 425 49 371 L49 123 L298 123 C352 123 391 162 391 216 C391 235 385 255 374 270 L446 270 C500 270 539 310 539 364 L539 364 Z M522 364 C522 319 491 287 446 287 L214 287 L214 519 C214 564 245 596 290 596 C335 596 367 564 367 519 L367 440 L446 440 C491 440 522 409 522 364 L522 364 Z " />
<glyph glyph-name="nbspace" unicode="&#xa0;" horiz-adv-x="230" d="" />
<glyph glyph-name="exclamdown" unicode="&#xa1;" horiz-adv-x="588" d="M539 364 C539 417 500 457 446 457 L383 457 L383 519 C383 573 344 613 290 613 C236 613 197 573 197 519 L197 448 C181 459 162 465 142 465 C88 465 49 425 49 371 L49 123 L298 123 C352 123 391 162 391 216 C391 235 385 255 374 270 L446 270 C500 270 539 310 539 364 L539 364 Z M522 364 C522 319 491 287 446 287 L214 287 L214 519 C214 564 245 596 290 596 C335 596 367 564 367 519 L367 440 L446 440 C491 440 522 409 522 364 L522 364 Z " />
<glyph glyph-name="cent" unicode="&#xa2;" horiz-adv-x="588" d="M539 364 C539 417 500 457 446 457 L383 457 L383 519 C383 573 344 613 290 613 C236 613 197 573 197 519 L197 448 C181 459 162 465 142 465 C88 465 49 425 49 371 L49 123 L298 123 C352 123 391 162 391 216 C391 235 385 255 374 270 L446 270 C500 270 539 310 539 364 L539 364 Z M522 364 C522 319 491 287 446 287 L214 287 L214 519 C214 564 245 596 290 596 C335 596 367 564 367 519 L367 440 L446 440 C491 440 522 409 522 364 L522 364 Z " />
<glyph glyph-name="sterling" unicode="&#xa3;" horiz-adv-x="588" d="M539 364 C539 417 500 457 446 457 L383 457 L383 519 C383 573 344 613 290 613 C236 613 197 573 197 519 L197 448 C181 459 162 465 142 465 C88 465 49 425 49 371 L49 123 L298 123 C352 123 391 162 391 216 C391 235 385 255 374 270 L446 270 C500 270 539 310 539 364 L539 364 Z M522 364 C522 319 491 287 446 287 L214 287 L214 519 C214 564 245 596 290 596 C335 596 367 564 367 519 L367 440 L446 440 C491 440 522 409 522 364 L522 364 Z " />
<glyph glyph-name="currency" unicode="&#xa4;" horiz-adv-x="560" d="M543 52 L465 120 C491 157 507 206 507 254 C507 302 491 351 465 388 L543 453 L478 520 L409 442 C372 468 329 482 280 482 C231 482 188 468 150 442 L83 519 L17 453 L96 388 C70 351 54 302 54 254 C54 206 70 157 96 120 L17 52 L82 -12 L151 66 C189 40 231 25 280 25 C329 25 372 40 409 66 L479 -12 L543 52 Z M425 254 C425 170 374 103 280 103 C186 103 135 176 135 254 C135 340 182 404 280 404 C370 404 425 337 425 254 L425 254 Z " />
<glyph glyph-name="yen" unicode="&#xa5;" horiz-adv-x="588" d="M539 364 C539 417 500 457 446 457 L383 457 L383 519 C383 573 344 613 290 613 C236 613 197 573 197 519 L197 448 C181 459 162 465 142 465 C88 465 49 425 49 371 L49 123 L298 123 C352 123 391 162 391 216 C391 235 385 255 374 270 L446 270 C500 270 539 310 539 364 L539 364 Z M522 364 C522 319 491 287 446 287 L214 287 L214 519 C214 564 245 596 290 596 C335 596 367 564 367 519 L367 440 L446 440 C491 440 522 409 522 364 L522 364 Z " />
<glyph glyph-name="brokenbar" unicode="&#xa6;" horiz-adv-x="588" d="M539 364 C539 417 500 457 446 457 L383 457 L383 519 C383 573 344 613 290 613 C236 613 197 573 197 519 L197 448 C181 459 162 465 142 465 C88 465 49 425 49 371 L49 123 L298 123 C352 123 391 162 391 216 C391 235 385 255 374 270 L446 270 C500 270 539 310 539 364 L539 364 Z M522 364 C522 319 491 287 446 287 L214 287 L214 519 C214 564 245 596 290 596 C335 596 367 564 367 519 L367 440 L446 440 C491 440 522 409 522 364 L522 364 Z " />
<glyph glyph-name="section" unicode="&#xa7;" horiz-adv-x="588" d="M539 364 C539 417 500 457 446 457 L383 457 L383 519 C383 573 344 613 290 613 C236 613 197 573 197 519 L197 448 C181 459 162 465 142 465 C88 465 49 425 49 371 L49 123 L298 123 C352 123 391 162 391 216 C391 235 385 255 374 270 L446 270 C500 270 539 310 539 364 L539 364 Z M522 364 C522 319 491 287 446 287 L214 287 L214 519 C214 564 245 596 290 596 C335 596 367 564 367 519 L367 440 L446 440 C491 440 522 409 522 364 L522 364 Z " />
<glyph glyph-name="dieresis" unicode="&#xa8;" horiz-adv-x="588" d="M539 364 C539 417 500 457 446 457 L383 457 L383 519 C383 573 344 613 290 613 C236 613 197 573 197 519 L197 448 C181 459 162 465 142 465 C88 465 49 425 49 371 L49 123 L298 123 C352 123 391 162 391 216 C391 235 385 255 374 270 L446 270 C500 270 539 310 539 364 L539 364 Z M522 364 C522 319 491 287 446 287 L214 287 L214 519 C214 564 245 596 290 596 C335 596 367 564 367 519 L367 440 L446 440 C491 440 522 409 522 364 L522 364 Z " />
<glyph glyph-name="copyright" unicode="&#xa9;" horiz-adv-x="588" d="M539 364 C539 417 500 457 446 457 L383 457 L383 519 C383 573 344 613 290 613 C236 613 197 573 197 519 L197 448 C181 459 162 465 142 465 C88 465 49 425 49 371 L49 123 L298 123 C352 123 391 162 391 216 C391 235 385 255 374 270 L446 270 C500 270 539 310 539 364 L539 364 Z M522 364 C522 319 491 287 446 287 L214 287 L214 519 C214 564 245 596 290 596 C335 596 367 564 367 519 L367 440 L446 440 C491 440 522 409 522 364 L522 364 Z " />
<glyph glyph-name="ordfeminine" unicode="&#xaa;" horiz-adv-x="588" d="M539 364 C539 417 500 457 446 457 L383 457 L383 519 C383 573 344 613 290 613 C236 613 197 573 197 519 L197 448 C181 459 162 465 142 465 C88 465 49 425 49 371 L49 123 L298 123 C352 123 391 162 391 216 C391 235 385 255 374 270 L446 270 C500 270 539 310 539 364 L539 364 Z M522 364 C522 319 491 287 446 287 L214 287 L214 519 C214 564 245 596 290 596 C335 596 367 564 367 519 L367 440 L446 440 C491 440 522 409 522 364 L522 364 Z " />
<glyph glyph-name="guillemotleft" unicode="&#xab;" horiz-adv-x="588" d="M539 364 C539 417 500 457 446 457 L383 457 L383 519 C383 573 344 613 290 613 C236 613 197 573 197 519 L197 448 C181 459 162 465 142 465 C88 465 49 425 49 371 L49 123 L298 123 C352 123 391 162 391 216 C391 235 385 255 374 270 L446 270 C500 270 539 310 539 364 L539 364 Z M522 364 C522 319 491 287 446 287 L214 287 L214 519 C214 564 245 596 290 596 C335 596 367 564 367 519 L367 440 L446 440 C491 440 522 409 522 364 L522 364 Z " />
<glyph glyph-name="logicalnot" unicode="&#xac;" horiz-adv-x="588" d="M539 364 C539 417 500 457 446 457 L383 457 L383 519 C383 573 344 613 290 613 C236 613 197 573 197 519 L197 448 C181 459 162 465 142 465 C88 465 49 425 49 371 L49 123 L298 123 C352 123 391 162 391 216 C391 235 385 255 374 270 L446 270 C500 270 539 310 539 364 L539 364 Z M522 364 C522 319 491 287 446 287 L214 287 L214 519 C214 564 245 596 290 596 C335 596 367 564 367 519 L367 440 L446 440 C491 440 522 409 522 364 L522 364 Z " />
<glyph glyph-name="registered" unicode="&#xae;" horiz-adv-x="588" d="M539 364 C539 417 500 457 446 457 L383 457 L383 519 C383 573 344 613 290 613 C236 613 197 573 197 519 L197 448 C181 459 162 465 142 465 C88 465 49 425 49 371 L49 123 L298 123 C352 123 391 162 391 216 C391 235 385 255 374 270 L446 270 C500 270 539 310 539 364 L539 364 Z M522 364 C522 319 491 287 446 287 L214 287 L214 519 C214 564 245 596 290 596 C335 596 367 564 367 519 L367 440 L446 440 C491 440 522 409 522 364 L522 364 Z " />
<glyph glyph-name="macron" unicode="&#xaf;" horiz-adv-x="588" d="M539 364 C539 417 500 457 446 457 L383 457 L383 519 C383 573 344 613 290 613 C236 613 197 573 197 519 L197 448 C181 459 162 465 142 465 C88 465 49 425 49 371 L49 123 L298 123 C352 123 391 162 391 216 C391 235 385 255 374 270 L446 270 C500 270 539 310 539 364 L539 364 Z M522 364 C522 319 491 287 446 287 L214 287 L214 519 C214 564 245 596 290 596 C335 596 367 564 367 519 L367 440 L446 440 C491 440 522 409 522 364 L522 364 Z " />
<glyph glyph-name="degree" unicode="&#xb0;" horiz-adv-x="588" d="M539 364 C539 417 500 457 446 457 L383 457 L383 519 C383 573 344 613 290 613 C236 613 197 573 197 519 L197 448 C181 459 162 465 142 465 C88 465 49 425 49 371 L49 123 L298 123 C352 123 391 162 391 216 C391 235 385 255 374 270 L446 270 C500 270 539 310 539 364 L539 364 Z M522 364 C522 319 491 287 446 287 L214 287 L214 519 C214 564 245 596 290 596 C335 596 367 564 367 519 L367 440 L446 440 C491 440 522 409 522 364 L522 364 Z " />
<glyph glyph-name="plusminus" unicode="&#xb1;" horiz-adv-x="588" d="M539 364 C539 417 500 457 446 457 L383 457 L383 519 C383 573 344 613 290 613 C236 613 197 573 197 519 L197 448 C181 459 162 465 142 465 C88 465 49 425 49 371 L49 123 L298 123 C352 123 391 162 391 216 C391 235 385 255 374 270 L446 270 C500 270 539 310 539 364 L539 364 Z M522 364 C522 319 491 287 446 287 L214 287 L214 519 C214 564 245 596 290 596 C335 596 367 564 367 519 L367 440 L446 440 C491 440 522 409 522 364 L522 364 Z " />
<glyph glyph-name="twosuperior" unicode="&#xb2;" horiz-adv-x="588" d="M539 364 C539 417 500 457 446 457 L383 457 L383 519 C383 573 344 613 290 613 C236 613 197 573 197 519 L197 448 C181 459 162 465 142 465 C88 465 49 425 49 371 L49 123 L298 123 C352 123 391 162 391 216 C391 235 385 255 374 270 L446 270 C500 270 539 310 539 364 L539 364 Z M522 364 C522 319 491 287 446 287 L214 287 L214 519 C214 564 245 596 290 596 C335 596 367 564 367 519 L367 440 L446 440 C491 440 522 409 522 364 L522 364 Z " />
<glyph glyph-name="threesuperior" unicode="&#xb3;" horiz-adv-x="588" d="M539 364 C539 417 500 457 446 457 L383 457 L383 519 C383 573 344 613 290 613 C236 613 197 573 197 519 L197 448 C181 459 162 465 142 465 C88 465 49 425 49 371 L49 123 L298 123 C352 123 391 162 391 216 C391 235 385 255 374 270 L446 270 C500 270 539 310 539 364 L539 364 Z M522 364 C522 319 491 287 446 287 L214 287 L214 519 C214 564 245 596 290 596 C335 596 367 564 367 519 L367 440 L446 440 C491 440 522 409 522 364 L522 364 Z " />
<glyph glyph-name="acute" unicode="&#xb4;" horiz-adv-x="588" d="M539 364 C539 417 500 457 446 457 L383 457 L383 519 C383 573 344 613 290 613 C236 613 197 573 197 519 L197 448 C181 459 162 465 142 465 C88 465 49 425 49 371 L49 123 L298 123 C352 123 391 162 391 216 C391 235 385 255 374 270 L446 270 C500 270 539 310 539 364 L539 364 Z M522 364 C522 319 491 287 446 287 L214 287 L214 519 C214 564 245 596 290 596 C335 596 367 564 367 519 L367 440 L446 440 C491 440 522 409 522 364 L522 364 Z " />
<glyph glyph-name="mu" unicode="&#xb5;" horiz-adv-x="588" d="M539 364 C539 417 500 457 446 457 L383 457 L383 519 C383 573 344 613 290 613 C236 613 197 573 197 519 L197 448 C181 459 162 465 142 465 C88 465 49 425 49 371 L49 123 L298 123 C352 123 391 162 391 216 C391 235 385 255 374 270 L446 270 C500 270 539 310 539 364 L539 364 Z M522 364 C522 319 491 287 446 287 L214 287 L214 519 C214 564 245 596 290 596 C335 596 367 564 367 519 L367 440 L446 440 C491 440 522 409 522 364 L522 364 Z " />
<glyph glyph-name="paragraph" unicode="&#xb6;" horiz-adv-x="657" d="M582 640 L582 709 L253 709 C149 709 65 625 65 521 C65 417 149 332 253 332 L253 -125 L328 -125 L328 640 L440 640 L440 -125 L513 -125 L513 640 L582 640 Z " />
<glyph glyph-name="periodcentered" unicode="&#xb7;" horiz-adv-x="298" d="M208 247 L208 366 L90 366 L90 247 L208 247 Z " />
<glyph glyph-name="cedilla" unicode="&#xb8;" horiz-adv-x="588" d="M539 364 C539 417 500 457 446 457 L383 457 L383 519 C383 573 344 613 290 613 C236 613 197 573 197 519 L197 448 C181 459 162 465 142 465 C88 465 49 425 49 371 L49 123 L298 123 C352 123 391 162 391 216 C391 235 385 255 374 270 L446 270 C500 270 539 310 539 364 L539 364 Z M522 364 C522 319 491 287 446 287 L214 287 L214 519 C214 564 245 596 290 596 C335 596 367 564 367 519 L367 440 L446 440 C491 440 522 409 522 364 L522 364 Z " />
<glyph glyph-name="onesuperior" unicode="&#xb9;" horiz-adv-x="588" d="M539 364 C539 417 500 457 446 457 L383 457 L383 519 C383 573 344 613 290 613 C236 613 197 573 197 519 L197 448 C181 459 162 465 142 465 C88 465 49 425 49 371 L49 123 L298 123 C352 123 391 162 391 216 C391 235 385 255 374 270 L446 270 C500 270 539 310 539 364 L539 364 Z M522 364 C522 319 491 287 446 287 L214 287 L214 519 C214 564 245 596 290 596 C335 596 367 564 367 519 L367 440 L446 440 C491 440 522 409 522 364 L522 364 Z " />
<glyph glyph-name="ordmasculine" unicode="&#xba;" horiz-adv-x="588" d="M539 364 C539 417 500 457 446 457 L383 457 L383 519 C383 573 344 613 290 613 C236 613 197 573 197 519 L197 448 C181 459 162 465 142 465 C88 465 49 425 49 371 L49 123 L298 123 C352 123 391 162 391 216 C391 235 385 255 374 270 L446 270 C500 270 539 310 539 364 L539 364 Z M522 364 C522 319 491 287 446 287 L214 287 L214 519 C214 564 245 596 290 596 C335 596 367 564 367 519 L367 440 L446 440 C491 440 522 409 522 364 L522 364 Z " />
<glyph glyph-name="guillemotright" unicode="&#xbb;" horiz-adv-x="588" d="M539 364 C539 417 500 457 446 457 L383 457 L383 519 C383 573 344 613 290 613 C236 613 197 573 197 519 L197 448 C181 459 162 465 142 465 C88 465 49 425 49 371 L49 123 L298 123 C352 123 391 162 391 216 C391 235 385 255 374 270 L446 270 C500 270 539 310 539 364 L539 364 Z M522 364 C522 319 491 287 446 287 L214 287 L214 519 C214 564 245 596 290 596 C335 596 367 564 367 519 L367 440 L446 440 C491 440 522 409 522 364 L522 364 Z " />
<glyph glyph-name="onequarter" unicode="&#xbc;" horiz-adv-x="588" d="M539 364 C539 417 500 457 446 457 L383 457 L383 519 C383 573 344 613 290 613 C236 613 197 573 197 519 L197 448 C181 459 162 465 142 465 C88 465 49 425 49 371 L49 123 L298 123 C352 123 391 162 391 216 C391 235 385 255 374 270 L446 270 C500 270 539 310 539 364 L539 364 Z M522 364 C522 319 491 287 446 287 L214 287 L214 519 C214 564 245 596 290 596 C335 596 367 564 367 519 L367 440 L446 440 C491 440 522 409 522 364 L522 364 Z " />
<glyph glyph-name="onehalf" unicode="&#xbd;" horiz-adv-x="588" d="M539 364 C539 417 500 457 446 457 L383 457 L383 519 C383 573 344 613 290 613 C236 613 197 573 197 519 L197 448 C181 459 162 465 142 465 C88 465 49 425 49 371 L49 123 L298 123 C352 123 391 162 391 216 C391 235 385 255 374 270 L446 270 C500 270 539 310 539 364 L539 364 Z M522 364 C522 319 491 287 446 287 L214 287 L214 519 C214 564 245 596 290 596 C335 596 367 564 367 519 L367 440 L446 440 C491 440 522 409 522 364 L522 364 Z " />
<glyph glyph-name="threequarters" unicode="&#xbe;" horiz-adv-x="588" d="M539 364 C539 417 500 457 446 457 L383 457 L383 519 C383 573 344 613 290 613 C236 613 197 573 197 519 L197 448 C181 459 162 465 142 465 C88 465 49 425 49 371 L49 123 L298 123 C352 123 391 162 391 216 C391 235 385 255 374 270 L446 270 C500 270 539 310 539 364 L539 364 Z M522 364 C522 319 491 287 446 287 L214 287 L214 519 C214 564 245 596 290 596 C335 596 367 564 367 519 L367 440 L446 440 C491 440 522 409 522 364 L522 364 Z " />
<glyph glyph-name="questiondown" unicode="&#xbf;" horiz-adv-x="588" d="M539 364 C539 417 500 457 446 457 L383 457 L383 519 C383 573 344 613 290 613 C236 613 197 573 197 519 L197 448 C181 459 162 465 142 465 C88 465 49 425 49 371 L49 123 L298 123 C352 123 391 162 391 216 C391 235 385 255 374 270 L446 270 C500 270 539 310 539 364 L539 364 Z M522 364 C522 319 491 287 446 287 L214 287 L214 519 C214 564 245 596 290 596 C335 596 367 564 367 519 L367 440 L446 440 C491 440 522 409 522 364 L522 364 Z " />
<glyph glyph-name="Agrave" unicode="&#xc0;" horiz-adv-x="588" d="M539 364 C539 417 500 457 446 457 L383 457 L383 519 C383 573 344 613 290 613 C236 613 197 573 197 519 L197 448 C181 459 162 465 142 465 C88 465 49 425 49 371 L49 123 L298 123 C352 123 391 162 391 216 C391 235 385 255 374 270 L446 270 C500 270 539 310 539 364 L539 364 Z M522 364 C522 319 491 287 446 287 L214 287 L214 519 C214 564 245 596 290 596 C335 596 367 564 367 519 L367 440 L446 440 C491 440 522 409 522 364 L522 364 Z " />
<glyph glyph-name="Aacute" unicode="&#xc1;" horiz-adv-x="588" d="M539 364 C539 417 500 457 446 457 L383 457 L383 519 C383 573 344 613 290 613 C236 613 197 573 197 519 L197 448 C181 459 162 465 142 465 C88 465 49 425 49 371 L49 123 L298 123 C352 123 391 162 391 216 C391 235 385 255 374 270 L446 270 C500 270 539 310 539 364 L539 364 Z M522 364 C522 319 491 287 446 287 L214 287 L214 519 C214 564 245 596 290 596 C335 596 367 564 367 519 L367 440 L446 440 C491 440 522 409 522 364 L522 364 Z " />
<glyph glyph-name="Acircumflex" unicode="&#xc2;" horiz-adv-x="588" d="M539 364 C539 417 500 457 446 457 L383 457 L383 519 C383 573 344 613 290 613 C236 613 197 573 197 519 L197 448 C181 459 162 465 142 465 C88 465 49 425 49 371 L49 123 L298 123 C352 123 391 162 391 216 C391 235 385 255 374 270 L446 270 C500 270 539 310 539 364 L539 364 Z M522 364 C522 319 491 287 446 287 L214 287 L214 519 C214 564 245 596 290 596 C335 596 367 564 367 519 L367 440 L446 440 C491 440 522 409 522 364 L522 364 Z " />
<glyph glyph-name="Atilde" unicode="&#xc3;" horiz-adv-x="588" d="M539 364 C539 417 500 457 446 457 L383 457 L383 519 C383 573 344 613 290 613 C236 613 197 573 197 519 L197 448 C181 459 162 465 142 465 C88 465 49 425 49 371 L49 123 L298 123 C352 123 391 162 391 216 C391 235 385 255 374 270 L446 270 C500 270 539 310 539 364 L539 364 Z M522 364 C522 319 491 287 446 287 L214 287 L214 519 C214 564 245 596 290 596 C335 596 367 564 367 519 L367 440 L446 440 C491 440 522 409 522 364 L522 364 Z " />
<glyph glyph-name="Adieresis" unicode="&#xc4;" horiz-adv-x="588" d="M539 364 C539 417 500 457 446 457 L383 457 L383 519 C383 573 344 613 290 613 C236 613 197 573 197 519 L197 448 C181 459 162 465 142 465 C88 465 49 425 49 371 L49 123 L298 123 C352 123 391 162 391 216 C391 235 385 255 374 270 L446 270 C500 270 539 310 539 364 L539 364 Z M522 364 C522 319 491 287 446 287 L214 287 L214 519 C214 564 245 596 290 596 C335 596 367 564 367 519 L367 440 L446 440 C491 440 522 409 522 364 L522 364 Z " />
<glyph glyph-name="Aring" unicode="&#xc5;" horiz-adv-x="588" d="M539 364 C539 417 500 457 446 457 L383 457 L383 519 C383 573 344 613 290 613 C236 613 197 573 197 519 L197 448 C181 459 162 465 142 465 C88 465 49 425 49 371 L49 123 L298 123 C352 123 391 162 391 216 C391 235 385 255 374 270 L446 270 C500 270 539 310 539 364 L539 364 Z M522 364 C522 319 491 287 446 287 L214 287 L214 519 C214 564 245 596 290 596 C335 596 367 564 367 519 L367 440 L446 440 C491 440 522 409 522 364 L522 364 Z " />
<glyph glyph-name="AE" unicode="&#xc6;" horiz-adv-x="588" d="M539 364 C539 417 500 457 446 457 L383 457 L383 519 C383 573 344 613 290 613 C236 613 197 573 197 519 L197 448 C181 459 162 465 142 465 C88 465 49 425 49 371 L49 123 L298 123 C352 123 391 162 391 216 C391 235 385 255 374 270 L446 270 C500 270 539 310 539 364 L539 364 Z M522 364 C522 319 491 287 446 287 L214 287 L214 519 C214 564 245 596 290 596 C335 596 367 564 367 519 L367 440 L446 440 C491 440 522 409 522 364 L522 364 Z " />
<glyph glyph-name="Ccedilla" unicode="&#xc7;" horiz-adv-x="588" d="M539 364 C539 417 500 457 446 457 L383 457 L383 519 C383 573 344 613 290 613 C236 613 197 573 197 519 L197 448 C181 459 162 465 142 465 C88 465 49 425 49 371 L49 123 L298 123 C352 123 391 162 391 216 C391 235 385 255 374 270 L446 270 C500 270 539 310 539 364 L539 364 Z M522 364 C522 319 491 287 446 287 L214 287 L214 519 C214 564 245 596 290 596 C335 596 367 564 367 519 L367 440 L446 440 C491 440 522 409 522 364 L522 364 Z " />
<glyph glyph-name="Egrave" unicode="&#xc8;" horiz-adv-x="588" d="M539 364 C539 417 500 457 446 457 L383 457 L383 519 C383 573 344 613 290 613 C236 613 197 573 197 519 L197 448 C181 459 162 465 142 465 C88 465 49 425 49 371 L49 123 L298 123 C352 123 391 162 391 216 C391 235 385 255 374 270 L446 270 C500 270 539 310 539 364 L539 364 Z M522 364 C522 319 491 287 446 287 L214 287 L214 519 C214 564 245 596 290 596 C335 596 367 564 367 519 L367 440 L446 440 C491 440 522 409 522 364 L522 364 Z " />
<glyph glyph-name="Eacute" unicode="&#xc9;" horiz-adv-x="588" d="M539 364 C539 417 500 457 446 457 L383 457 L383 519 C383 573 344 613 290 613 C236 613 197 573 197 519 L197 448 C181 459 162 465 142 465 C88 465 49 425 49 371 L49 123 L298 123 C352 123 391 162 391 216 C391 235 385 255 374 270 L446 270 C500 270 539 310 539 364 L539 364 Z M522 364 C522 319 491 287 446 287 L214 287 L214 519 C214 564 245 596 290 596 C335 596 367 564 367 519 L367 440 L446 440 C491 440 522 409 522 364 L522 364 Z " />
<glyph glyph-name="Ecircumflex" unicode="&#xca;" horiz-adv-x="588" d="M539 364 C539 417 500 457 446 457 L383 457 L383 519 C383 573 344 613 290 613 C236 613 197 573 197 519 L197 448 C181 459 162 465 142 465 C88 465 49 425 49 371 L49 123 L298 123 C352 123 391 162 391 216 C391 235 385 255 374 270 L446 270 C500 270 539 310 539 364 L539 364 Z M522 364 C522 319 491 287 446 287 L214 287 L214 519 C214 564 245 596 290 596 C335 596 367 564 367 519 L367 440 L446 440 C491 440 522 409 522 364 L522 364 Z " />
<glyph glyph-name="Edieresis" unicode="&#xcb;" horiz-adv-x="588" d="M539 364 C539 417 500 457 446 457 L383 457 L383 519 C383 573 344 613 290 613 C236 613 197 573 197 519 L197 448 C181 459 162 465 142 465 C88 465 49 425 49 371 L49 123 L298 123 C352 123 391 162 391 216 C391 235 385 255 374 270 L446 270 C500 270 539 310 539 364 L539 364 Z M522 364 C522 319 491 287 446 287 L214 287 L214 519 C214 564 245 596 290 596 C335 596 367 564 367 519 L367 440 L446 440 C491 440 522 409 522 364 L522 364 Z " />
<glyph glyph-name="Igrave" unicode="&#xcc;" horiz-adv-x="588" d="M539 364 C539 417 500 457 446 457 L383 457 L383 519 C383 573 344 613 290 613 C236 613 197 573 197 519 L197 448 C181 459 162 465 142 465 C88 465 49 425 49 371 L49 123 L298 123 C352 123 391 162 391 216 C391 235 385 255 374 270 L446 270 C500 270 539 310 539 364 L539 364 Z M522 364 C522 319 491 287 446 287 L214 287 L214 519 C214 564 245 596 290 596 C335 596 367 564 367 519 L367 440 L446 440 C491 440 522 409 522 364 L522 364 Z " />
<glyph glyph-name="Iacute" unicode="&#xcd;" horiz-adv-x="588" d="M539 364 C539 417 500 457 446 457 L383 457 L383 519 C383 573 344 613 290 613 C236 613 197 573 197 519 L197 448 C181 459 162 465 142 465 C88 465 49 425 49 371 L49 123 L298 123 C352 123 391 162 391 216 C391 235 385 255 374 270 L446 270 C500 270 539 310 539 364 L539 364 Z M522 364 C522 319 491 287 446 287 L214 287 L214 519 C214 564 245 596 290 596 C335 596 367 564 367 519 L367 440 L446 440 C491 440 522 409 522 364 L522 364 Z " />
<glyph glyph-name="Icircumflex" unicode="&#xce;" horiz-adv-x="588" d="M539 364 C539 417 500 457 446 457 L383 457 L383 519 C383 573 344 613 290 613 C236 613 197 573 197 519 L197 448 C181 459 162 465 142 465 C88 465 49 425 49 371 L49 123 L298 123 C352 123 391 162 391 216 C391 235 385 255 374 270 L446 270 C500 270 539 310 539 364 L539 364 Z M522 364 C522 319 491 287 446 287 L214 287 L214 519 C214 564 245 596 290 596 C335 596 367 564 367 519 L367 440 L446 440 C491 440 522 409 522 364 L522 364 Z " />
<glyph glyph-name="Idieresis" unicode="&#xcf;" horiz-adv-x="588" d="M539 364 C539 417 500 457 446 457 L383 457 L383 519 C383 573 344 613 290 613 C236 613 197 573 197 519 L197 448 C181 459 162 465 142 465 C88 465 49 425 49 371 L49 123 L298 123 C352 123 391 162 391 216 C391 235 385 255 374 270 L446 270 C500 270 539 310 539 364 L539 364 Z M522 364 C522 319 491 287 446 287 L214 287 L214 519 C214 564 245 596 290 596 C335 596 367 564 367 519 L367 440 L446 440 C491 440 522 409 522 364 L522 364 Z " />
<glyph glyph-name="Eth" unicode="&#xd0;" horiz-adv-x="588" d="M539 364 C539 417 500 457 446 457 L383 457 L383 519 C383 573 344 613 290 613 C236 613 197 573 197 519 L197 448 C181 459 162 465 142 465 C88 465 49 425 49 371 L49 123 L298 123 C352 123 391 162 391 216 C391 235 385 255 374 270 L446 270 C500 270 539 310 539 364 L539 364 Z M522 364 C522 319 491 287 446 287 L214 287 L214 519 C214 564 245 596 290 596 C335 596 367 564 367 519 L367 440 L446 440 C491 440 522 409 522 364 L522 364 Z " />
<glyph glyph-name="Ntilde" unicode="&#xd1;" horiz-adv-x="588" d="M539 364 C539 417 500 457 446 457 L383 457 L383 519 C383 573 344 613 290 613 C236 613 197 573 197 519 L197 448 C181 459 162 465 142 465 C88 465 49 425 49 371 L49 123 L298 123 C352 123 391 162 391 216 C391 235 385 255 374 270 L446 270 C500 270 539 310 539 364 L539 364 Z M522 364 C522 319 491 287 446 287 L214 287 L214 519 C214 564 245 596 290 596 C335 596 367 564 367 519 L367 440 L446 440 C491 440 522 409 522 364 L522 364 Z " />
<glyph glyph-name="Ograve" unicode="&#xd2;" horiz-adv-x="588" d="M539 364 C539 417 500 457 446 457 L383 457 L383 519 C383 573 344 613 290 613 C236 613 197 573 197 519 L197 448 C181 459 162 465 142 465 C88 465 49 425 49 371 L49 123 L298 123 C352 123 391 162 391 216 C391 235 385 255 374 270 L446 270 C500 270 539 310 539 364 L539 364 Z M522 364 C522 319 491 287 446 287 L214 287 L214 519 C214 564 245 596 290 596 C335 596 367 564 367 519 L367 440 L446 440 C491 440 522 409 522 364 L522 364 Z " />
<glyph glyph-name="Oacute" unicode="&#xd3;" horiz-adv-x="588" d="M539 364 C539 417 500 457 446 457 L383 457 L383 519 C383 573 344 613 290 613 C236 613 197 573 197 519 L197 448 C181 459 162 465 142 465 C88 465 49 425 49 371 L49 123 L298 123 C352 123 391 162 391 216 C391 235 385 255 374 270 L446 270 C500 270 539 310 539 364 L539 364 Z M522 364 C522 319 491 287 446 287 L214 287 L214 519 C214 564 245 596 290 596 C335 596 367 564 367 519 L367 440 L446 440 C491 440 522 409 522 364 L522 364 Z " />
<glyph glyph-name="Ocircumflex" unicode="&#xd4;" horiz-adv-x="588" d="M539 364 C539 417 500 457 446 457 L383 457 L383 519 C383 573 344 613 290 613 C236 613 197 573 197 519 L197 448 C181 459 162 465 142 465 C88 465 49 425 49 371 L49 123 L298 123 C352 123 391 162 391 216 C391 235 385 255 374 270 L446 270 C500 270 539 310 539 364 L539 364 Z M522 364 C522 319 491 287 446 287 L214 287 L214 519 C214 564 245 596 290 596 C335 596 367 564 367 519 L367 440 L446 440 C491 440 522 409 522 364 L522 364 Z " />
<glyph glyph-name="Otilde" unicode="&#xd5;" horiz-adv-x="588" d="M539 364 C539 417 500 457 446 457 L383 457 L383 519 C383 573 344 613 290 613 C236 613 197 573 197 519 L197 448 C181 459 162 465 142 465 C88 465 49 425 49 371 L49 123 L298 123 C352 123 391 162 391 216 C391 235 385 255 374 270 L446 270 C500 270 539 310 539 364 L539 364 Z M522 364 C522 319 491 287 446 287 L214 287 L214 519 C214 564 245 596 290 596 C335 596 367 564 367 519 L367 440 L446 440 C491 440 522 409 522 364 L522 364 Z " />
<glyph glyph-name="Odieresis" unicode="&#xd6;" horiz-adv-x="588" d="M539 364 C539 417 500 457 446 457 L383 457 L383 519 C383 573 344 613 290 613 C236 613 197 573 197 519 L197 448 C181 459 162 465 142 465 C88 465 49 425 49 371 L49 123 L298 123 C352 123 391 162 391 216 C391 235 385 255 374 270 L446 270 C500 270 539 310 539 364 L539 364 Z M522 364 C522 319 491 287 446 287 L214 287 L214 519 C214 564 245 596 290 596 C335 596 367 564 367 519 L367 440 L446 440 C491 440 522 409 522 364 L522 364 Z " />
<glyph glyph-name="multiply" unicode="&#xd7;" horiz-adv-x="588" d="M539 364 C539 417 500 457 446 457 L383 457 L383 519 C383 573 344 613 290 613 C236 613 197 573 197 519 L197 448 C181 459 162 465 142 465 C88 465 49 425 49 371 L49 123 L298 123 C352 123 391 162 391 216 C391 235 385 255 374 270 L446 270 C500 270 539 310 539 364 L539 364 Z M522 364 C522 319 491 287 446 287 L214 287 L214 519 C214 564 245 596 290 596 C335 596 367 564 367 519 L367 440 L446 440 C491 440 522 409 522 364 L522 364 Z " />
<glyph glyph-name="Oslash" unicode="&#xd8;" horiz-adv-x="588" d="M539 364 C539 417 500 457 446 457 L383 457 L383 519 C383 573 344 613 290 613 C236 613 197 573 197 519 L197 448 C181 459 162 465 142 465 C88 465 49 425 49 371 L49 123 L298 123 C352 123 391 162 391 216 C391 235 385 255 374 270 L446 270 C500 270 539 310 539 364 L539 364 Z M522 364 C522 319 491 287 446 287 L214 287 L214 519 C214 564 245 596 290 596 C335 596 367 564 367 519 L367 440 L446 440 C491 440 522 409 522 364 L522 364 Z " />
<glyph glyph-name="Ugrave" unicode="&#xd9;" horiz-adv-x="588" d="M539 364 C539 417 500 457 446 457 L383 457 L383 519 C383 573 344 613 290 613 C236 613 197 573 197 519 L197 448 C181 459 162 465 142 465 C88 465 49 425 49 371 L49 123 L298 123 C352 123 391 162 391 216 C391 235 385 255 374 270 L446 270 C500 270 539 310 539 364 L539 364 Z M522 364 C522 319 491 287 446 287 L214 287 L214 519 C214 564 245 596 290 596 C335 596 367 564 367 519 L367 440 L446 440 C491 440 522 409 522 364 L522 364 Z " />
<glyph glyph-name="Uacute" unicode="&#xda;" horiz-adv-x="588" d="M539 364 C539 417 500 457 446 457 L383 457 L383 519 C383 573 344 613 290 613 C236 613 197 573 197 519 L197 448 C181 459 162 465 142 465 C88 465 49 425 49 371 L49 123 L298 123 C352 123 391 162 391 216 C391 235 385 255 374 270 L446 270 C500 270 539 310 539 364 L539 364 Z M522 364 C522 319 491 287 446 287 L214 287 L214 519 C214 564 245 596 290 596 C335 596 367 564 367 519 L367 440 L446 440 C491 440 522 409 522 364 L522 364 Z " />
<glyph glyph-name="Ucircumflex" unicode="&#xdb;" horiz-adv-x="588" d="M539 364 C539 417 500 457 446 457 L383 457 L383 519 C383 573 344 613 290 613 C236 613 197 573 197 519 L197 448 C181 459 162 465 142 465 C88 465 49 425 49 371 L49 123 L298 123 C352 123 391 162 391 216 C391 235 385 255 374 270 L446 270 C500 270 539 310 539 364 L539 364 Z M522 364 C522 319 491 287 446 287 L214 287 L214 519 C214 564 245 596 290 596 C335 596 367 564 367 519 L367 440 L446 440 C491 440 522 409 522 364 L522 364 Z " />
<glyph glyph-name="Udieresis" unicode="&#xdc;" horiz-adv-x="588" d="M539 364 C539 417 500 457 446 457 L383 457 L383 519 C383 573 344 613 290 613 C236 613 197 573 197 519 L197 448 C181 459 162 465 142 465 C88 465 49 425 49 371 L49 123 L298 123 C352 123 391 162 391 216 C391 235 385 255 374 270 L446 270 C500 270 539 310 539 364 L539 364 Z M522 364 C522 319 491 287 446 287 L214 287 L214 519 C214 564 245 596 290 596 C335 596 367 564 367 519 L367 440 L446 440 C491 440 522 409 522 364 L522 364 Z " />
<glyph glyph-name="Yacute" unicode="&#xdd;" horiz-adv-x="588" d="M539 364 C539 417 500 457 446 457 L383 457 L383 519 C383 573 344 613 290 613 C236 613 197 573 197 519 L197 448 C181 459 162 465 142 465 C88 465 49 425 49 371 L49 123 L298 123 C352 123 391 162 391 216 C391 235 385 255 374 270 L446 270 C500 270 539 310 539 364 L539 364 Z M522 364 C522 319 491 287 446 287 L214 287 L214 519 C214 564 245 596 290 596 C335 596 367 564 367 519 L367 440 L446 440 C491 440 522 409 522 364 L522 364 Z " />
<glyph glyph-name="Thorn" unicode="&#xde;" horiz-adv-x="588" d="M539 364 C539 417 500 457 446 457 L383 457 L383 519 C383 573 344 613 290 613 C236 613 197 573 197 519 L197 448 C181 459 162 465 142 465 C88 465 49 425 49 371 L49 123 L298 123 C352 123 391 162 391 216 C391 235 385 255 374 270 L446 270 C500 270 539 310 539 364 L539 364 Z M522 364 C522 319 491 287 446 287 L214 287 L214 519 C214 564 245 596 290 596 C335 596 367 564 367 519 L367 440 L446 440 C491 440 522 409 522 364 L522 364 Z " />
<glyph glyph-name="germandbls" unicode="&#xdf;" horiz-adv-x="588" d="M539 364 C539 417 500 457 446 457 L383 457 L383 519 C383 573 344 613 290 613 C236 613 197 573 197 519 L197 448 C181 459 162 465 142 465 C88 465 49 425 49 371 L49 123 L298 123 C352 123 391 162 391 216 C391 235 385 255 374 270 L446 270 C500 270 539 310 539 364 L539 364 Z M522 364 C522 319 491 287 446 287 L214 287 L214 519 C214 564 245 596 290 596 C335 596 367 564 367 519 L367 440 L446 440 C491 440 522 409 522 364 L522 364 Z " />
<glyph glyph-name="agrave" unicode="&#xe0;" horiz-adv-x="588" d="M539 364 C539 417 500 457 446 457 L383 457 L383 519 C383 573 344 613 290 613 C236 613 197 573 197 519 L197 448 C181 459 162 465 142 465 C88 465 49 425 49 371 L49 123 L298 123 C352 123 391 162 391 216 C391 235 385 255 374 270 L446 270 C500 270 539 310 539 364 L539 364 Z M522 364 C522 319 491 287 446 287 L214 287 L214 519 C214 564 245 596 290 596 C335 596 367 564 367 519 L367 440 L446 440 C491 440 522 409 522 364 L522 364 Z " />
<glyph glyph-name="aacute" unicode="&#xe1;" horiz-adv-x="588" d="M539 364 C539 417 500 457 446 457 L383 457 L383 519 C383 573 344 613 290 613 C236 613 197 573 197 519 L197 448 C181 459 162 465 142 465 C88 465 49 425 49 371 L49 123 L298 123 C352 123 391 162 391 216 C391 235 385 255 374 270 L446 270 C500 270 539 310 539 364 L539 364 Z M522 364 C522 319 491 287 446 287 L214 287 L214 519 C214 564 245 596 290 596 C335 596 367 564 367 519 L367 440 L446 440 C491 440 522 409 522 364 L522 364 Z " />
<glyph glyph-name="acircumflex" unicode="&#xe2;" horiz-adv-x="588" d="M539 364 C539 417 500 457 446 457 L383 457 L383 519 C383 573 344 613 290 613 C236 613 197 573 197 519 L197 448 C181 459 162 465 142 465 C88 465 49 425 49 371 L49 123 L298 123 C352 123 391 162 391 216 C391 235 385 255 374 270 L446 270 C500 270 539 310 539 364 L539 364 Z M522 364 C522 319 491 287 446 287 L214 287 L214 519 C214 564 245 596 290 596 C335 596 367 564 367 519 L367 440 L446 440 C491 440 522 409 522 364 L522 364 Z " />
<glyph glyph-name="atilde" unicode="&#xe3;" horiz-adv-x="588" d="M539 364 C539 417 500 457 446 457 L383 457 L383 519 C383 573 344 613 290 613 C236 613 197 573 197 519 L197 448 C181 459 162 465 142 465 C88 465 49 425 49 371 L49 123 L298 123 C352 123 391 162 391 216 C391 235 385 255 374 270 L446 270 C500 270 539 310 539 364 L539 364 Z M522 364 C522 319 491 287 446 287 L214 287 L214 519 C214 564 245 596 290 596 C335 596 367 564 367 519 L367 440 L446 440 C491 440 522 409 522 364 L522 364 Z " />
<glyph glyph-name="adieresis" unicode="&#xe4;" horiz-adv-x="588" d="M539 364 C539 417 500 457 446 457 L383 457 L383 519 C383 573 344 613 290 613 C236 613 197 573 197 519 L197 448 C181 459 162 465 142 465 C88 465 49 425 49 371 L49 123 L298 123 C352 123 391 162 391 216 C391 235 385 255 374 270 L446 270 C500 270 539 310 539 364 L539 364 Z M522 364 C522 319 491 287 446 287 L214 287 L214 519 C214 564 245 596 290 596 C335 596 367 564 367 519 L367 440 L446 440 C491 440 522 409 522 364 L522 364 Z " />
<glyph glyph-name="aring" unicode="&#xe5;" horiz-adv-x="588" d="M539 364 C539 417 500 457 446 457 L383 457 L383 519 C383 573 344 613 290 613 C236 613 197 573 197 519 L197 448 C181 459 162 465 142 465 C88 465 49 425 49 371 L49 123 L298 123 C352 123 391 162 391 216 C391 235 385 255 374 270 L446 270 C500 270 539 310 539 364 L539 364 Z M522 364 C522 319 491 287 446 287 L214 287 L214 519 C214 564 245 596 290 596 C335 596 367 564 367 519 L367 440 L446 440 C491 440 522 409 522 364 L522 364 Z " />
<glyph glyph-name="ae" unicode="&#xe6;" horiz-adv-x="588" d="M539 364 C539 417 500 457 446 457 L383 457 L383 519 C383 573 344 613 290 613 C236 613 197 573 197 519 L197 448 C181 459 162 465 142 465 C88 465 49 425 49 371 L49 123 L298 123 C352 123 391 162 391 216 C391 235 385 255 374 270 L446 270 C500 270 539 310 539 364 L539 364 Z M522 364 C522 319 491 287 446 287 L214 287 L214 519 C214 564 245 596 290 596 C335 596 367 564 367 519 L367 440 L446 440 C491 440 522 409 522 364 L522 364 Z " />
<glyph glyph-name="ccedilla" unicode="&#xe7;" horiz-adv-x="588" d="M539 364 C539 417 500 457 446 457 L383 457 L383 519 C383 573 344 613 290 613 C236 613 197 573 197 519 L197 448 C181 459 162 465 142 465 C88 465 49 425 49 371 L49 123 L298 123 C352 123 391 162 391 216 C391 235 385 255 374 270 L446 270 C500 270 539 310 539 364 L539 364 Z M522 364 C522 319 491 287 446 287 L214 287 L214 519 C214 564 245 596 290 596 C335 596 367 564 367 519 L367 440 L446 440 C491 440 522 409 522 364 L522 364 Z " />
<glyph glyph-name="egrave" unicode="&#xe8;" horiz-adv-x="588" d="M539 364 C539 417 500 457 446 457 L383 457 L383 519 C383 573 344 613 290 613 C236 613 197 573 197 519 L197 448 C181 459 162 465 142 465 C88 465 49 425 49 371 L49 123 L298 123 C352 123 391 162 391 216 C391 235 385 255 374 270 L446 270 C500 270 539 310 539 364 L539 364 Z M522 364 C522 319 491 287 446 287 L214 287 L214 519 C214 564 245 596 290 596 C335 596 367 564 367 519 L367 440 L446 440 C491 440 522 409 522 364 L522 364 Z " />
<glyph glyph-name="eacute" unicode="&#xe9;" horiz-adv-x="588" d="M539 364 C539 417 500 457 446 457 L383 457 L383 519 C383 573 344 613 290 613 C236 613 197 573 197 519 L197 448 C181 459 162 465 142 465 C88 465 49 425 49 371 L49 123 L298 123 C352 123 391 162 391 216 C391 235 385 255 374 270 L446 270 C500 270 539 310 539 364 L539 364 Z M522 364 C522 319 491 287 446 287 L214 287 L214 519 C214 564 245 596 290 596 C335 596 367 564 367 519 L367 440 L446 440 C491 440 522 409 522 364 L522 364 Z " />
<glyph glyph-name="ecircumflex" unicode="&#xea;" horiz-adv-x="588" d="M539 364 C539 417 500 457 446 457 L383 457 L383 519 C383 573 344 613 290 613 C236 613 197 573 197 519 L197 448 C181 459 162 465 142 465 C88 465 49 425 49 371 L49 123 L298 123 C352 123 391 162 391 216 C391 235 385 255 374 270 L446 270 C500 270 539 310 539 364 L539 364 Z M522 364 C522 319 491 287 446 287 L214 287 L214 519 C214 564 245 596 290 596 C335 596 367 564 367 519 L367 440 L446 440 C491 440 522 409 522 364 L522 364 Z " />
<glyph glyph-name="edieresis" unicode="&#xeb;" horiz-adv-x="588" d="M539 364 C539 417 500 457 446 457 L383 457 L383 519 C383 573 344 613 290 613 C236 613 197 573 197 519 L197 448 C181 459 162 465 142 465 C88 465 49 425 49 371 L49 123 L298 123 C352 123 391 162 391 216 C391 235 385 255 374 270 L446 270 C500 270 539 310 539 364 L539 364 Z M522 364 C522 319 491 287 446 287 L214 287 L214 519 C214 564 245 596 290 596 C335 596 367 564 367 519 L367 440 L446 440 C491 440 522 409 522 364 L522 364 Z " />
<glyph glyph-name="igrave" unicode="&#xec;" horiz-adv-x="588" d="M539 364 C539 417 500 457 446 457 L383 457 L383 519 C383 573 344 613 290 613 C236 613 197 573 197 519 L197 448 C181 459 162 465 142 465 C88 465 49 425 49 371 L49 123 L298 123 C352 123 391 162 391 216 C391 235 385 255 374 270 L446 270 C500 270 539 310 539 364 L539 364 Z M522 364 C522 319 491 287 446 287 L214 287 L214 519 C214 564 245 596 290 596 C335 596 367 564 367 519 L367 440 L446 440 C491 440 522 409 522 364 L522 364 Z " />
<glyph glyph-name="iacute" unicode="&#xed;" horiz-adv-x="588" d="M539 364 C539 417 500 457 446 457 L383 457 L383 519 C383 573 344 613 290 613 C236 613 197 573 197 519 L197 448 C181 459 162 465 142 465 C88 465 49 425 49 371 L49 123 L298 123 C352 123 391 162 391 216 C391 235 385 255 374 270 L446 270 C500 270 539 310 539 364 L539 364 Z M522 364 C522 319 491 287 446 287 L214 287 L214 519 C214 564 245 596 290 596 C335 596 367 564 367 519 L367 440 L446 440 C491 440 522 409 522 364 L522 364 Z " />
<glyph glyph-name="icircumflex" unicode="&#xee;" horiz-adv-x="588" d="M539 364 C539 417 500 457 446 457 L383 457 L383 519 C383 573 344 613 290 613 C236 613 197 573 197 519 L197 448 C181 459 162 465 142 465 C88 465 49 425 49 371 L49 123 L298 123 C352 123 391 162 391 216 C391 235 385 255 374 270 L446 270 C500 270 539 310 539 364 L539 364 Z M522 364 C522 319 491 287 446 287 L214 287 L214 519 C214 564 245 596 290 596 C335 596 367 564 367 519 L367 440 L446 440 C491 440 522 409 522 364 L522 364 Z " />
<glyph glyph-name="idieresis" unicode="&#xef;" horiz-adv-x="588" d="M539 364 C539 417 500 457 446 457 L383 457 L383 519 C383 573 344 613 290 613 C236 613 197 573 197 519 L197 448 C181 459 162 465 142 465 C88 465 49 425 49 371 L49 123 L298 123 C352 123 391 162 391 216 C391 235 385 255 374 270 L446 270 C500 270 539 310 539 364 L539 364 Z M522 364 C522 319 491 287 446 287 L214 287 L214 519 C214 564 245 596 290 596 C335 596 367 564 367 519 L367 440 L446 440 C491 440 522 409 522 364 L522 364 Z " />
<glyph glyph-name="eth" unicode="&#xf0;" horiz-adv-x="588" d="M539 364 C539 417 500 457 446 457 L383 457 L383 519 C383 573 344 613 290 613 C236 613 197 573 197 519 L197 448 C181 459 162 465 142 465 C88 465 49 425 49 371 L49 123 L298 123 C352 123 391 162 391 216 C391 235 385 255 374 270 L446 270 C500 270 539 310 539 364 L539 364 Z M522 364 C522 319 491 287 446 287 L214 287 L214 519 C214 564 245 596 290 596 C335 596 367 564 367 519 L367 440 L446 440 C491 440 522 409 522 364 L522 364 Z " />
<glyph glyph-name="ntilde" unicode="&#xf1;" horiz-adv-x="588" d="M539 364 C539 417 500 457 446 457 L383 457 L383 519 C383 573 344 613 290 613 C236 613 197 573 197 519 L197 448 C181 459 162 465 142 465 C88 465 49 425 49 371 L49 123 L298 123 C352 123 391 162 391 216 C391 235 385 255 374 270 L446 270 C500 270 539 310 539 364 L539 364 Z M522 364 C522 319 491 287 446 287 L214 287 L214 519 C214 564 245 596 290 596 C335 596 367 564 367 519 L367 440 L446 440 C491 440 522 409 522 364 L522 364 Z " />
<glyph glyph-name="ograve" unicode="&#xf2;" horiz-adv-x="588" d="M539 364 C539 417 500 457 446 457 L383 457 L383 519 C383 573 344 613 290 613 C236 613 197 573 197 519 L197 448 C181 459 162 465 142 465 C88 465 49 425 49 371 L49 123 L298 123 C352 123 391 162 391 216 C391 235 385 255 374 270 L446 270 C500 270 539 310 539 364 L539 364 Z M522 364 C522 319 491 287 446 287 L214 287 L214 519 C214 564 245 596 290 596 C335 596 367 564 367 519 L367 440 L446 440 C491 440 522 409 522 364 L522 364 Z " />
<glyph glyph-name="oacute" unicode="&#xf3;" horiz-adv-x="588" d="M539 364 C539 417 500 457 446 457 L383 457 L383 519 C383 573 344 613 290 613 C236 613 197 573 197 519 L197 448 C181 459 162 465 142 465 C88 465 49 425 49 371 L49 123 L298 123 C352 123 391 162 391 216 C391 235 385 255 374 270 L446 270 C500 270 539 310 539 364 L539 364 Z M522 364 C522 319 491 287 446 287 L214 287 L214 519 C214 564 245 596 290 596 C335 596 367 564 367 519 L367 440 L446 440 C491 440 522 409 522 364 L522 364 Z " />
<glyph glyph-name="ocircumflex" unicode="&#xf4;" horiz-adv-x="588" d="M539 364 C539 417 500 457 446 457 L383 457 L383 519 C383 573 344 613 290 613 C236 613 197 573 197 519 L197 448 C181 459 162 465 142 465 C88 465 49 425 49 371 L49 123 L298 123 C352 123 391 162 391 216 C391 235 385 255 374 270 L446 270 C500 270 539 310 539 364 L539 364 Z M522 364 C522 319 491 287 446 287 L214 287 L214 519 C214 564 245 596 290 596 C335 596 367 564 367 519 L367 440 L446 440 C491 440 522 409 522 364 L522 364 Z " />
<glyph glyph-name="otilde" unicode="&#xf5;" horiz-adv-x="588" d="M539 364 C539 417 500 457 446 457 L383 457 L383 519 C383 573 344 613 290 613 C236 613 197 573 197 519 L197 448 C181 459 162 465 142 465 C88 465 49 425 49 371 L49 123 L298 123 C352 123 391 162 391 216 C391 235 385 255 374 270 L446 270 C500 270 539 310 539 364 L539 364 Z M522 364 C522 319 491 287 446 287 L214 287 L214 519 C214 564 245 596 290 596 C335 596 367 564 367 519 L367 440 L446 440 C491 440 522 409 522 364 L522 364 Z " />
<glyph glyph-name="odieresis" unicode="&#xf6;" horiz-adv-x="588" d="M539 364 C539 417 500 457 446 457 L383 457 L383 519 C383 573 344 613 290 613 C236 613 197 573 197 519 L197 448 C181 459 162 465 142 465 C88 465 49 425 49 371 L49 123 L298 123 C352 123 391 162 391 216 C391 235 385 255 374 270 L446 270 C500 270 539 310 539 364 L539 364 Z M522 364 C522 319 491 287 446 287 L214 287 L214 519 C214 564 245 596 290 596 C335 596 367 564 367 519 L367 440 L446 440 C491 440 522 409 522 364 L522 364 Z " />
<glyph glyph-name="divide" unicode="&#xf7;" horiz-adv-x="588" d="M539 364 C539 417 500 457 446 457 L383 457 L383 519 C383 573 344 613 290 613 C236 613 197 573 197 519 L197 448 C181 459 162 465 142 465 C88 465 49 425 49 371 L49 123 L298 123 C352 123 391 162 391 216 C391 235 385 255 374 270 L446 270 C500 270 539 310 539 364 L539 364 Z M522 364 C522 319 491 287 446 287 L214 287 L214 519 C214 564 245 596 290 596 C335 596 367 564 367 519 L367 440 L446 440 C491 440 522 409 522 364 L522 364 Z " />
<glyph glyph-name="oslash" unicode="&#xf8;" horiz-adv-x="588" d="M539 364 C539 417 500 457 446 457 L383 457 L383 519 C383 573 344 613 290 613 C236 613 197 573 197 519 L197 448 C181 459 162 465 142 465 C88 465 49 425 49 371 L49 123 L298 123 C352 123 391 162 391 216 C391 235 385 255 374 270 L446 270 C500 270 539 310 539 364 L539 364 Z M522 364 C522 319 491 287 446 287 L214 287 L214 519 C214 564 245 596 290 596 C335 596 367 564 367 519 L367 440 L446 440 C491 440 522 409 522 364 L522 364 Z " />
<glyph glyph-name="ugrave" unicode="&#xf9;" horiz-adv-x="588" d="M539 364 C539 417 500 457 446 457 L383 457 L383 519 C383 573 344 613 290 613 C236 613 197 573 197 519 L197 448 C181 459 162 465 142 465 C88 465 49 425 49 371 L49 123 L298 123 C352 123 391 162 391 216 C391 235 385 255 374 270 L446 270 C500 270 539 310 539 364 L539 364 Z M522 364 C522 319 491 287 446 287 L214 287 L214 519 C214 564 245 596 290 596 C335 596 367 564 367 519 L367 440 L446 440 C491 440 522 409 522 364 L522 364 Z " />
<glyph glyph-name="uacute" unicode="&#xfa;" horiz-adv-x="588" d="M539 364 C539 417 500 457 446 457 L383 457 L383 519 C383 573 344 613 290 613 C236 613 197 573 197 519 L197 448 C181 459 162 465 142 465 C88 465 49 425 49 371 L49 123 L298 123 C352 123 391 162 391 216 C391 235 385 255 374 270 L446 270 C500 270 539 310 539 364 L539 364 Z M522 364 C522 319 491 287 446 287 L214 287 L214 519 C214 564 245 596 290 596 C335 596 367 564 367 519 L367 440 L446 440 C491 440 522 409 522 364 L522 364 Z " />
<glyph glyph-name="ucircumflex" unicode="&#xfb;" horiz-adv-x="588" d="M539 364 C539 417 500 457 446 457 L383 457 L383 519 C383 573 344 613 290 613 C236 613 197 573 197 519 L197 448 C181 459 162 465 142 465 C88 465 49 425 49 371 L49 123 L298 123 C352 123 391 162 391 216 C391 235 385 255 374 270 L446 270 C500 270 539 310 539 364 L539 364 Z M522 364 C522 319 491 287 446 287 L214 287 L214 519 C214 564 245 596 290 596 C335 596 367 564 367 519 L367 440 L446 440 C491 440 522 409 522 364 L522 364 Z " />
<glyph glyph-name="udieresis" unicode="&#xfc;" horiz-adv-x="588" d="M539 364 C539 417 500 457 446 457 L383 457 L383 519 C383 573 344 613 290 613 C236 613 197 573 197 519 L197 448 C181 459 162 465 142 465 C88 465 49 425 49 371 L49 123 L298 123 C352 123 391 162 391 216 C391 235 385 255 374 270 L446 270 C500 270 539 310 539 364 L539 364 Z M522 364 C522 319 491 287 446 287 L214 287 L214 519 C214 564 245 596 290 596 C335 596 367 564 367 519 L367 440 L446 440 C491 440 522 409 522 364 L522 364 Z " />
<glyph glyph-name="yacute" unicode="&#xfd;" horiz-adv-x="588" d="M539 364 C539 417 500 457 446 457 L383 457 L383 519 C383 573 344 613 290 613 C236 613 197 573 197 519 L197 448 C181 459 162 465 142 465 C88 465 49 425 49 371 L49 123 L298 123 C352 123 391 162 391 216 C391 235 385 255 374 270 L446 270 C500 270 539 310 539 364 L539 364 Z M522 364 C522 319 491 287 446 287 L214 287 L214 519 C214 564 245 596 290 596 C335 596 367 564 367 519 L367 440 L446 440 C491 440 522 409 522 364 L522 364 Z " />
<glyph glyph-name="thorn" unicode="&#xfe;" horiz-adv-x="588" d="M539 364 C539 417 500 457 446 457 L383 457 L383 519 C383 573 344 613 290 613 C236 613 197 573 197 519 L197 448 C181 459 162 465 142 465 C88 465 49 425 49 371 L49 123 L298 123 C352 123 391 162 391 216 C391 235 385 255 374 270 L446 270 C500 270 539 310 539 364 L539 364 Z M522 364 C522 319 491 287 446 287 L214 287 L214 519 C214 564 245 596 290 596 C335 596 367 564 367 519 L367 440 L446 440 C491 440 522 409 522 364 L522 364 Z " />
<glyph glyph-name="ydieresis" unicode="&#xff;" horiz-adv-x="588" d="M539 364 C539 417 500 457 446 457 L383 457 L383 519 C383 573 344 613 290 613 C236 613 197 573 197 519 L197 448 C181 459 162 465 142 465 C88 465 49 425 49 371 L49 123 L298 123 C352 123 391 162 391 216 C391 235 385 255 374 270 L446 270 C500 270 539 310 539 364 L539 364 Z M522 364 C522 319 491 287 446 287 L214 287 L214 519 C214 564 245 596 290 596 C335 596 367 564 367 519 L367 440 L446 440 C491 440 522 409 522 364 L522 364 Z " />
<glyph glyph-name="dotlessi" unicode="&#x131;" horiz-adv-x="588" d="M539 364 C539 417 500 457 446 457 L383 457 L383 519 C383 573 344 613 290 613 C236 613 197 573 197 519 L197 448 C181 459 162 465 142 465 C88 465 49 425 49 371 L49 123 L298 123 C352 123 391 162 391 216 C391 235 385 255 374 270 L446 270 C500 270 539 310 539 364 L539 364 Z M522 364 C522 319 491 287 446 287 L214 287 L214 519 C214 564 245 596 290 596 C335 596 367 564 367 519 L367 440 L446 440 C491 440 522 409 522 364 L522 364 Z " />
<glyph glyph-name="Lslash" unicode="&#x141;" horiz-adv-x="588" d="M539 364 C539 417 500 457 446 457 L383 457 L383 519 C383 573 344 613 290 613 C236 613 197 573 197 519 L197 448 C181 459 162 465 142 465 C88 465 49 425 49 371 L49 123 L298 123 C352 123 391 162 391 216 C391 235 385 255 374 270 L446 270 C500 270 539 310 539 364 L539 364 Z M522 364 C522 319 491 287 446 287 L214 287 L214 519 C214 564 245 596 290 596 C335 596 367 564 367 519 L367 440 L446 440 C491 440 522 409 522 364 L522 364 Z " />
<glyph glyph-name="lslash" unicode="&#x142;" horiz-adv-x="588" d="M539 364 C539 417 500 457 446 457 L383 457 L383 519 C383 573 344 613 290 613 C236 613 197 573 197 519 L197 448 C181 459 162 465 142 465 C88 465 49 425 49 371 L49 123 L298 123 C352 123 391 162 391 216 C391 235 385 255 374 270 L446 270 C500 270 539 310 539 364 L539 364 Z M522 364 C522 319 491 287 446 287 L214 287 L214 519 C214 564 245 596 290 596 C335 596 367 564 367 519 L367 440 L446 440 C491 440 522 409 522 364 L522 364 Z " />
<glyph glyph-name="OE" unicode="&#x152;" horiz-adv-x="588" d="M539 364 C539 417 500 457 446 457 L383 457 L383 519 C383 573 344 613 290 613 C236 613 197 573 197 519 L197 448 C181 459 162 465 142 465 C88 465 49 425 49 371 L49 123 L298 123 C352 123 391 162 391 216 C391 235 385 255 374 270 L446 270 C500 270 539 310 539 364 L539 364 Z M522 364 C522 319 491 287 446 287 L214 287 L214 519 C214 564 245 596 290 596 C335 596 367 564 367 519 L367 440 L446 440 C491 440 522 409 522 364 L522 364 Z " />
<glyph glyph-name="oe" unicode="&#x153;" horiz-adv-x="588" d="M539 364 C539 417 500 457 446 457 L383 457 L383 519 C383 573 344 613 290 613 C236 613 197 573 197 519 L197 448 C181 459 162 465 142 465 C88 465 49 425 49 371 L49 123 L298 123 C352 123 391 162 391 216 C391 235 385 255 374 270 L446 270 C500 270 539 310 539 364 L539 364 Z M522 364 C522 319 491 287 446 287 L214 287 L214 519 C214 564 245 596 290 596 C335 596 367 564 367 519 L367 440 L446 440 C491 440 522 409 522 364 L522 364 Z " />
<glyph glyph-name="Scaron" unicode="&#x160;" horiz-adv-x="588" d="M539 364 C539 417 500 457 446 457 L383 457 L383 519 C383 573 344 613 290 613 C236 613 197 573 197 519 L197 448 C181 459 162 465 142 465 C88 465 49 425 49 371 L49 123 L298 123 C352 123 391 162 391 216 C391 235 385 255 374 270 L446 270 C500 270 539 310 539 364 L539 364 Z M522 364 C522 319 491 287 446 287 L214 287 L214 519 C214 564 245 596 290 596 C335 596 367 564 367 519 L367 440 L446 440 C491 440 522 409 522 364 L522 364 Z " />
<glyph glyph-name="scaron" unicode="&#x161;" horiz-adv-x="588" d="M539 364 C539 417 500 457 446 457 L383 457 L383 519 C383 573 344 613 290 613 C236 613 197 573 197 519 L197 448 C181 459 162 465 142 465 C88 465 49 425 49 371 L49 123 L298 123 C352 123 391 162 391 216 C391 235 385 255 374 270 L446 270 C500 270 539 310 539 364 L539 364 Z M522 364 C522 319 491 287 446 287 L214 287 L214 519 C214 564 245 596 290 596 C335 596 367 564 367 519 L367 440 L446 440 C491 440 522 409 522 364 L522 364 Z " />
<glyph glyph-name="Ydieresis" unicode="&#x178;" horiz-adv-x="588" d="M539 364 C539 417 500 457 446 457 L383 457 L383 519 C383 573 344 613 290 613 C236 613 197 573 197 519 L197 448 C181 459 162 465 142 465 C88 465 49 425 49 371 L49 123 L298 123 C352 123 391 162 391 216 C391 235 385 255 374 270 L446 270 C500 270 539 310 539 364 L539 364 Z M522 364 C522 319 491 287 446 287 L214 287 L214 519 C214 564 245 596 290 596 C335 596 367 564 367 519 L367 440 L446 440 C491 440 522 409 522 364 L522 364 Z " />
<glyph glyph-name="Zcaron" unicode="&#x17d;" horiz-adv-x="588" d="M539 364 C539 417 500 457 446 457 L383 457 L383 519 C383 573 344 613 290 613 C236 613 197 573 197 519 L197 448 C181 459 162 465 142 465 C88 465 49 425 49 371 L49 123 L298 123 C352 123 391 162 391 216 C391 235 385 255 374 270 L446 270 C500 270 539 310 539 364 L539 364 Z M522 364 C522 319 491 287 446 287 L214 287 L214 519 C214 564 245 596 290 596 C335 596 367 564 367 519 L367 440 L446 440 C491 440 522 409 522 364 L522 364 Z " />
<glyph glyph-name="zcaron" unicode="&#x17e;" horiz-adv-x="588" d="M539 364 C539 417 500 457 446 457 L383 457 L383 519 C383 573 344 613 290 613 C236 613 197 573 197 519 L197 448 C181 459 162 465 142 465 C88 465 49 425 49 371 L49 123 L298 123 C352 123 391 162 391 216 C391 235 385 255 374 270 L446 270 C500 270 539 310 539 364 L539 364 Z M522 364 C522 319 491 287 446 287 L214 287 L214 519 C214 564 245 596 290 596 C335 596 367 564 367 519 L367 440 L446 440 C491 440 522 409 522 364 L522 364 Z " />
<glyph glyph-name="florin" unicode="&#x192;" horiz-adv-x="588" d="M539 364 C539 417 500 457 446 457 L383 457 L383 519 C383 573 344 613 290 613 C236 613 197 573 197 519 L197 448 C181 459 162 465 142 465 C88 465 49 425 49 371 L49 123 L298 123 C352 123 391 162 391 216 C391 235 385 255 374 270 L446 270 C500 270 539 310 539 364 L539 364 Z M522 364 C522 319 491 287 446 287 L214 287 L214 519 C214 564 245 596 290 596 C335 596 367 564 367 519 L367 440 L446 440 C491 440 522 409 522 364 L522 364 Z " />
<glyph glyph-name="circumflex" unicode="&#x2c6;" horiz-adv-x="588" d="M539 364 C539 417 500 457 446 457 L383 457 L383 519 C383 573 344 613 290 613 C236 613 197 573 197 519 L197 448 C181 459 162 465 142 465 C88 465 49 425 49 371 L49 123 L298 123 C352 123 391 162 391 216 C391 235 385 255 374 270 L446 270 C500 270 539 310 539 364 L539 364 Z M522 364 C522 319 491 287 446 287 L214 287 L214 519 C214 564 245 596 290 596 C335 596 367 564 367 519 L367 440 L446 440 C491 440 522 409 522 364 L522 364 Z " />
<glyph glyph-name="caron" unicode="&#x2c7;" horiz-adv-x="588" d="M539 364 C539 417 500 457 446 457 L383 457 L383 519 C383 573 344 613 290 613 C236 613 197 573 197 519 L197 448 C181 459 162 465 142 465 C88 465 49 425 49 371 L49 123 L298 123 C352 123 391 162 391 216 C391 235 385 255 374 270 L446 270 C500 270 539 310 539 364 L539 364 Z M522 364 C522 319 491 287 446 287 L214 287 L214 519 C214 564 245 596 290 596 C335 596 367 564 367 519 L367 440 L446 440 C491 440 522 409 522 364 L522 364 Z " />
<glyph glyph-name="breve" unicode="&#x2d8;" horiz-adv-x="588" d="M539 364 C539 417 500 457 446 457 L383 457 L383 519 C383 573 344 613 290 613 C236 613 197 573 197 519 L197 448 C181 459 162 465 142 465 C88 465 49 425 49 371 L49 123 L298 123 C352 123 391 162 391 216 C391 235 385 255 374 270 L446 270 C500 270 539 310 539 364 L539 364 Z M522 364 C522 319 491 287 446 287 L214 287 L214 519 C214 564 245 596 290 596 C335 596 367 564 367 519 L367 440 L446 440 C491 440 522 409 522 364 L522 364 Z " />
<glyph glyph-name="dotaccent" unicode="&#x2d9;" horiz-adv-x="588" d="M539 364 C539 417 500 457 446 457 L383 457 L383 519 C383 573 344 613 290 613 C236 613 197 573 197 519 L197 448 C181 459 162 465 142 465 C88 465 49 425 49 371 L49 123 L298 123 C352 123 391 162 391 216 C391 235 385 255 374 270 L446 270 C500 270 539 310 539 364 L539 364 Z M522 364 C522 319 491 287 446 287 L214 287 L214 519 C214 564 245 596 290 596 C335 596 367 564 367 519 L367 440 L446 440 C491 440 522 409 522 364 L522 364 Z " />
<glyph glyph-name="ring" unicode="&#x2da;" horiz-adv-x="588" d="M539 364 C539 417 500 457 446 457 L383 457 L383 519 C383 573 344 613 290 613 C236 613 197 573 197 519 L197 448 C181 459 162 465 142 465 C88 465 49 425 49 371 L49 123 L298 123 C352 123 391 162 391 216 C391 235 385 255 374 270 L446 270 C500 270 539 310 539 364 L539 364 Z M522 364 C522 319 491 287 446 287 L214 287 L214 519 C214 564 245 596 290 596 C335 596 367 564 367 519 L367 440 L446 440 C491 440 522 409 522 364 L522 364 Z " />
<glyph glyph-name="ogonek" unicode="&#x2db;" horiz-adv-x="588" d="M539 364 C539 417 500 457 446 457 L383 457 L383 519 C383 573 344 613 290 613 C236 613 197 573 197 519 L197 448 C181 459 162 465 142 465 C88 465 49 425 49 371 L49 123 L298 123 C352 123 391 162 391 216 C391 235 385 255 374 270 L446 270 C500 270 539 310 539 364 L539 364 Z M522 364 C522 319 491 287 446 287 L214 287 L214 519 C214 564 245 596 290 596 C335 596 367 564 367 519 L367 440 L446 440 C491 440 522 409 522 364 L522 364 Z " />
<glyph glyph-name="tilde" unicode="&#x2dc;" horiz-adv-x="588" d="M539 364 C539 417 500 457 446 457 L383 457 L383 519 C383 573 344 613 290 613 C236 613 197 573 197 519 L197 448 C181 459 162 465 142 465 C88 465 49 425 49 371 L49 123 L298 123 C352 123 391 162 391 216 C391 235 385 255 374 270 L446 270 C500 270 539 310 539 364 L539 364 Z M522 364 C522 319 491 287 446 287 L214 287 L214 519 C214 564 245 596 290 596 C335 596 367 564 367 519 L367 440 L446 440 C491 440 522 409 522 364 L522 364 Z " />
<glyph glyph-name="hungarumlaut" unicode="&#x2dd;" horiz-adv-x="588" d="M539 364 C539 417 500 457 446 457 L383 457 L383 519 C383 573 344 613 290 613 C236 613 197 573 197 519 L197 448 C181 459 162 465 142 465 C88 465 49 425 49 371 L49 123 L298 123 C352 123 391 162 391 216 C391 235 385 255 374 270 L446 270 C500 270 539 310 539 364 L539 364 Z M522 364 C522 319 491 287 446 287 L214 287 L214 519 C214 564 245 596 290 596 C335 596 367 564 367 519 L367 440 L446 440 C491 440 522 409 522 364 L522 364 Z " />
<glyph glyph-name="pi" unicode="&#x3c0;" horiz-adv-x="588" d="M539 364 C539 417 500 457 446 457 L383 457 L383 519 C383 573 344 613 290 613 C236 613 197 573 197 519 L197 448 C181 459 162 465 142 465 C88 465 49 425 49 371 L49 123 L298 123 C352 123 391 162 391 216 C391 235 385 255 374 270 L446 270 C500 270 539 310 539 364 L539 364 Z M522 364 C522 319 491 287 446 287 L214 287 L214 519 C214 564 245 596 290 596 C335 596 367 564 367 519 L367 440 L446 440 C491 440 522 409 522 364 L522 364 Z " />
<glyph glyph-name="endash" unicode="&#x2013;" horiz-adv-x="588" d="M539 364 C539 417 500 457 446 457 L383 457 L383 519 C383 573 344 613 290 613 C236 613 197 573 197 519 L197 448 C181 459 162 465 142 465 C88 465 49 425 49 371 L49 123 L298 123 C352 123 391 162 391 216 C391 235 385 255 374 270 L446 270 C500 270 539 310 539 364 L539 364 Z M522 364 C522 319 491 287 446 287 L214 287 L214 519 C214 564 245 596 290 596 C335 596 367 564 367 519 L367 440 L446 440 C491 440 522 409 522 364 L522 364 Z " />
<glyph glyph-name="emdash" unicode="&#x2014;" horiz-adv-x="588" d="M539 364 C539 417 500 457 446 457 L383 457 L383 519 C383 573 344 613 290 613 C236 613 197 573 197 519 L197 448 C181 459 162 465 142 465 C88 465 49 425 49 371 L49 123 L298 123 C352 123 391 162 391 216 C391 235 385 255 374 270 L446 270 C500 270 539 310 539 364 L539 364 Z M522 364 C522 319 491 287 446 287 L214 287 L214 519 C214 564 245 596 290 596 C335 596 367 564 367 519 L367 440 L446 440 C491 440 522 409 522 364 L522 364 Z " />
<glyph glyph-name="quoteleft" unicode="&#x2018;" horiz-adv-x="588" d="M539 364 C539 417 500 457 446 457 L383 457 L383 519 C383 573 344 613 290 613 C236 613 197 573 197 519 L197 448 C181 459 162 465 142 465 C88 465 49 425 49 371 L49 123 L298 123 C352 123 391 162 391 216 C391 235 385 255 374 270 L446 270 C500 270 539 310 539 364 L539 364 Z M522 364 C522 319 491 287 446 287 L214 287 L214 519 C214 564 245 596 290 596 C335 596 367 564 367 519 L367 440 L446 440 C491 440 522 409 522 364 L522 364 Z " />
<glyph glyph-name="quoteright" unicode="&#x2019;" horiz-adv-x="588" d="M539 364 C539 417 500 457 446 457 L383 457 L383 519 C383 573 344 613 290 613 C236 613 197 573 197 519 L197 448 C181 459 162 465 142 465 C88 465 49 425 49 371 L49 123 L298 123 C352 123 391 162 391 216 C391 235 385 255 374 270 L446 270 C500 270 539 310 539 364 L539 364 Z M522 364 C522 319 491 287 446 287 L214 287 L214 519 C214 564 245 596 290 596 C335 596 367 564 367 519 L367 440 L446 440 C491 440 522 409 522 364 L522 364 Z " />
<glyph glyph-name="quotesinglbase" unicode="&#x201a;" horiz-adv-x="588" d="M539 364 C539 417 500 457 446 457 L383 457 L383 519 C383 573 344 613 290 613 C236 613 197 573 197 519 L197 448 C181 459 162 465 142 465 C88 465 49 425 49 371 L49 123 L298 123 C352 123 391 162 391 216 C391 235 385 255 374 270 L446 270 C500 270 539 310 539 364 L539 364 Z M522 364 C522 319 491 287 446 287 L214 287 L214 519 C214 564 245 596 290 596 C335 596 367 564 367 519 L367 440 L446 440 C491 440 522 409 522 364 L522 364 Z " />
<glyph glyph-name="quotedblleft" unicode="&#x201c;" horiz-adv-x="588" d="M539 364 C539 417 500 457 446 457 L383 457 L383 519 C383 573 344 613 290 613 C236 613 197 573 197 519 L197 448 C181 459 162 465 142 465 C88 465 49 425 49 371 L49 123 L298 123 C352 123 391 162 391 216 C391 235 385 255 374 270 L446 270 C500 270 539 310 539 364 L539 364 Z M522 364 C522 319 491 287 446 287 L214 287 L214 519 C214 564 245 596 290 596 C335 596 367 564 367 519 L367 440 L446 440 C491 440 522 409 522 364 L522 364 Z " />
<glyph glyph-name="quotedblright" unicode="&#x201d;" horiz-adv-x="588" d="M539 364 C539 417 500 457 446 457 L383 457 L383 519 C383 573 344 613 290 613 C236 613 197 573 197 519 L197 448 C181 459 162 465 142 465 C88 465 49 425 49 371 L49 123 L298 123 C352 123 391 162 391 216 C391 235 385 255 374 270 L446 270 C500 270 539 310 539 364 L539 364 Z M522 364 C522 319 491 287 446 287 L214 287 L214 519 C214 564 245 596 290 596 C335 596 367 564 367 519 L367 440 L446 440 C491 440 522 409 522 364 L522 364 Z " />
<glyph glyph-name="quotedblbase" unicode="&#x201e;" horiz-adv-x="588" d="M539 364 C539 417 500 457 446 457 L383 457 L383 519 C383 573 344 613 290 613 C236 613 197 573 197 519 L197 448 C181 459 162 465 142 465 C88 465 49 425 49 371 L49 123 L298 123 C352 123 391 162 391 216 C391 235 385 255 374 270 L446 270 C500 270 539 310 539 364 L539 364 Z M522 364 C522 319 491 287 446 287 L214 287 L214 519 C214 564 245 596 290 596 C335 596 367 564 367 519 L367 440 L446 440 C491 440 522 409 522 364 L522 364 Z " />
<glyph glyph-name="dagger" unicode="&#x2020;" horiz-adv-x="588" d="M539 364 C539 417 500 457 446 457 L383 457 L383 519 C383 573 344 613 290 613 C236 613 197 573 197 519 L197 448 C181 459 162 465 142 465 C88 465 49 425 49 371 L49 123 L298 123 C352 123 391 162 391 216 C391 235 385 255 374 270 L446 270 C500 270 539 310 539 364 L539 364 Z M522 364 C522 319 491 287 446 287 L214 287 L214 519 C214 564 245 596 290 596 C335 596 367 564 367 519 L367 440 L446 440 C491 440 522 409 522 364 L522 364 Z " />
<glyph glyph-name="daggerdbl" unicode="&#x2021;" horiz-adv-x="588" d="M539 364 C539 417 500 457 446 457 L383 457 L383 519 C383 573 344 613 290 613 C236 613 197 573 197 519 L197 448 C181 459 162 465 142 465 C88 465 49 425 49 371 L49 123 L298 123 C352 123 391 162 391 216 C391 235 385 255 374 270 L446 270 C500 270 539 310 539 364 L539 364 Z M522 364 C522 319 491 287 446 287 L214 287 L214 519 C214 564 245 596 290 596 C335 596 367 564 367 519 L367 440 L446 440 C491 440 522 409 522 364 L522 364 Z " />
<glyph glyph-name="bullet" unicode="&#x2022;" horiz-adv-x="435" d="M345 292 C345 364 289 423 218 423 C147 423 90 364 90 292 C90 220 147 161 218 161 C289 161 345 220 345 292 L345 292 Z " />
<glyph glyph-name="ellipsis" unicode="&#x2026;" horiz-adv-x="588" d="M539 364 C539 417 500 457 446 457 L383 457 L383 519 C383 573 344 613 290 613 C236 613 197 573 197 519 L197 448 C181 459 162 465 142 465 C88 465 49 425 49 371 L49 123 L298 123 C352 123 391 162 391 216 C391 235 385 255 374 270 L446 270 C500 270 539 310 539 364 L539 364 Z M522 364 C522 319 491 287 446 287 L214 287 L214 519 C214 564 245 596 290 596 C335 596 367 564 367 519 L367 440 L446 440 C491 440 522 409 522 364 L522 364 Z " />
<glyph glyph-name="perthousand" unicode="&#x2030;" horiz-adv-x="588" d="M539 364 C539 417 500 457 446 457 L383 457 L383 519 C383 573 344 613 290 613 C236 613 197 573 197 519 L197 448 C181 459 162 465 142 465 C88 465 49 425 49 371 L49 123 L298 123 C352 123 391 162 391 216 C391 235 385 255 374 270 L446 270 C500 270 539 310 539 364 L539 364 Z M522 364 C522 319 491 287 446 287 L214 287 L214 519 C214 564 245 596 290 596 C335 596 367 564 367 519 L367 440 L446 440 C491 440 522 409 522 364 L522 364 Z " />
<glyph glyph-name="guilsinglleft" unicode="&#x2039;" horiz-adv-x="588" d="M539 364 C539 417 500 457 446 457 L383 457 L383 519 C383 573 344 613 290 613 C236 613 197 573 197 519 L197 448 C181 459 162 465 142 465 C88 465 49 425 49 371 L49 123 L298 123 C352 123 391 162 391 216 C391 235 385 255 374 270 L446 270 C500 270 539 310 539 364 L539 364 Z M522 364 C522 319 491 287 446 287 L214 287 L214 519 C214 564 245 596 290 596 C335 596 367 564 367 519 L367 440 L446 440 C491 440 522 409 522 364 L522 364 Z " />
<glyph glyph-name="guilsinglright" unicode="&#x203a;" horiz-adv-x="588" d="M539 364 C539 417 500 457 446 457 L383 457 L383 519 C383 573 344 613 290 613 C236 613 197 573 197 519 L197 448 C181 459 162 465 142 465 C88 465 49 425 49 371 L49 123 L298 123 C352 123 391 162 391 216 C391 235 385 255 374 270 L446 270 C500 270 539 310 539 364 L539 364 Z M522 364 C522 319 491 287 446 287 L214 287 L214 519 C214 564 245 596 290 596 C335 596 367 564 367 519 L367 440 L446 440 C491 440 522 409 522 364 L522 364 Z " />
<glyph glyph-name="fraction" unicode="&#x2044;" horiz-adv-x="588" d="M539 364 C539 417 500 457 446 457 L383 457 L383 519 C383 573 344 613 290 613 C236 613 197 573 197 519 L197 448 C181 459 162 465 142 465 C88 465 49 425 49 371 L49 123 L298 123 C352 123 391 162 391 216 C391 235 385 255 374 270 L446 270 C500 270 539 310 539 364 L539 364 Z M522 364 C522 319 491 287 446 287 L214 287 L214 519 C214 564 245 596 290 596 C335 596 367 564 367 519 L367 440 L446 440 C491 440 522 409 522 364 L522 364 Z " />
<glyph glyph-name="Euro" unicode="&#x20ac;" horiz-adv-x="588" d="M539 364 C539 417 500 457 446 457 L383 457 L383 519 C383 573 344 613 290 613 C236 613 197 573 197 519 L197 448 C181 459 162 465 142 465 C88 465 49 425 49 371 L49 123 L298 123 C352 123 391 162 391 216 C391 235 385 255 374 270 L446 270 C500 270 539 310 539 364 L539 364 Z M522 364 C522 319 491 287 446 287 L214 287 L214 519 C214 564 245 596 290 596 C335 596 367 564 367 519 L367 440 L446 440 C491 440 522 409 522 364 L522 364 Z " />
<glyph glyph-name="trademark" unicode="&#x2122;" horiz-adv-x="588" d="M539 364 C539 417 500 457 446 457 L383 457 L383 519 C383 573 344 613 290 613 C236 613 197 573 197 519 L197 448 C181 459 162 465 142 465 C88 465 49 425 49 371 L49 123 L298 123 C352 123 391 162 391 216 C391 235 385 255 374 270 L446 270 C500 270 539 310 539 364 L539 364 Z M522 364 C522 319 491 287 446 287 L214 287 L214 519 C214 564 245 596 290 596 C335 596 367 564 367 519 L367 440 L446 440 C491 440 522 409 522 364 L522 364 Z " />
<glyph glyph-name="Omega" unicode="&#x2126;" horiz-adv-x="588" d="M539 364 C539 417 500 457 446 457 L383 457 L383 519 C383 573 344 613 290 613 C236 613 197 573 197 519 L197 448 C181 459 162 465 142 465 C88 465 49 425 49 371 L49 123 L298 123 C352 123 391 162 391 216 C391 235 385 255 374 270 L446 270 C500 270 539 310 539 364 L539 364 Z M522 364 C522 319 491 287 446 287 L214 287 L214 519 C214 564 245 596 290 596 C335 596 367 564 367 519 L367 440 L446 440 C491 440 522 409 522 364 L522 364 Z " />
<glyph glyph-name="partialdiff" unicode="&#x2202;" horiz-adv-x="588" d="M539 364 C539 417 500 457 446 457 L383 457 L383 519 C383 573 344 613 290 613 C236 613 197 573 197 519 L197 448 C181 459 162 465 142 465 C88 465 49 425 49 371 L49 123 L298 123 C352 123 391 162 391 216 C391 235 385 255 374 270 L446 270 C500 270 539 310 539 364 L539 364 Z M522 364 C522 319 491 287 446 287 L214 287 L214 519 C214 564 245 596 290 596 C335 596 367 564 367 519 L367 440 L446 440 C491 440 522 409 522 364 L522 364 Z " />
<glyph glyph-name="Delta" unicode="&#x2206;" horiz-adv-x="588" d="M539 364 C539 417 500 457 446 457 L383 457 L383 519 C383 573 344 613 290 613 C236 613 197 573 197 519 L197 448 C181 459 162 465 142 465 C88 465 49 425 49 371 L49 123 L298 123 C352 123 391 162 391 216 C391 235 385 255 374 270 L446 270 C500 270 539 310 539 364 L539 364 Z M522 364 C522 319 491 287 446 287 L214 287 L214 519 C214 564 245 596 290 596 C335 596 367 564 367 519 L367 440 L446 440 C491 440 522 409 522 364 L522 364 Z " />
<glyph glyph-name="product" unicode="&#x220f;" horiz-adv-x="588" d="M539 364 C539 417 500 457 446 457 L383 457 L383 519 C383 573 344 613 290 613 C236 613 197 573 197 519 L197 448 C181 459 162 465 142 465 C88 465 49 425 49 371 L49 123 L298 123 C352 123 391 162 391 216 C391 235 385 255 374 270 L446 270 C500 270 539 310 539 364 L539 364 Z M522 364 C522 319 491 287 446 287 L214 287 L214 519 C214 564 245 596 290 596 C335 596 367 564 367 519 L367 440 L446 440 C491 440 522 409 522 364 L522 364 Z " />
<glyph glyph-name="summation" unicode="&#x2211;" horiz-adv-x="588" d="M539 364 C539 417 500 457 446 457 L383 457 L383 519 C383 573 344 613 290 613 C236 613 197 573 197 519 L197 448 C181 459 162 465 142 465 C88 465 49 425 49 371 L49 123 L298 123 C352 123 391 162 391 216 C391 235 385 255 374 270 L446 270 C500 270 539 310 539 364 L539 364 Z M522 364 C522 319 491 287 446 287 L214 287 L214 519 C214 564 245 596 290 596 C335 596 367 564 367 519 L367 440 L446 440 C491 440 522 409 522 364 L522 364 Z " />
<glyph glyph-name="minus" unicode="&#x2212;" horiz-adv-x="588" d="M539 364 C539 417 500 457 446 457 L383 457 L383 519 C383 573 344 613 290 613 C236 613 197 573 197 519 L197 448 C181 459 162 465 142 465 C88 465 49 425 49 371 L49 123 L298 123 C352 123 391 162 391 216 C391 235 385 255 374 270 L446 270 C500 270 539 310 539 364 L539 364 Z M522 364 C522 319 491 287 446 287 L214 287 L214 519 C214 564 245 596 290 596 C335 596 367 564 367 519 L367 440 L446 440 C491 440 522 409 522 364 L522 364 Z " />
<glyph glyph-name="radical" unicode="&#x221a;" horiz-adv-x="588" d="M539 364 C539 417 500 457 446 457 L383 457 L383 519 C383 573 344 613 290 613 C236 613 197 573 197 519 L197 448 C181 459 162 465 142 465 C88 465 49 425 49 371 L49 123 L298 123 C352 123 391 162 391 216 C391 235 385 255 374 270 L446 270 C500 270 539 310 539 364 L539 364 Z M522 364 C522 319 491 287 446 287 L214 287 L214 519 C214 564 245 596 290 596 C335 596 367 564 367 519 L367 440 L446 440 C491 440 522 409 522 364 L522 364 Z " />
<glyph glyph-name="infinity" unicode="&#x221e;" horiz-adv-x="588" d="M539 364 C539 417 500 457 446 457 L383 457 L383 519 C383 573 344 613 290 613 C236 613 197 573 197 519 L197 448 C181 459 162 465 142 465 C88 465 49 425 49 371 L49 123 L298 123 C352 123 391 162 391 216 C391 235 385 255 374 270 L446 270 C500 270 539 310 539 364 L539 364 Z M522 364 C522 319 491 287 446 287 L214 287 L214 519 C214 564 245 596 290 596 C335 596 367 564 367 519 L367 440 L446 440 C491 440 522 409 522 364 L522 364 Z " />
<glyph glyph-name="integral" unicode="&#x222b;" horiz-adv-x="588" d="M539 364 C539 417 500 457 446 457 L383 457 L383 519 C383 573 344 613 290 613 C236 613 197 573 197 519 L197 448 C181 459 162 465 142 465 C88 465 49 425 49 371 L49 123 L298 123 C352 123 391 162 391 216 C391 235 385 255 374 270 L446 270 C500 270 539 310 539 364 L539 364 Z M522 364 C522 319 491 287 446 287 L214 287 L214 519 C214 564 245 596 290 596 C335 596 367 564 367 519 L367 440 L446 440 C491 440 522 409 522 364 L522 364 Z " />
<glyph glyph-name="approxequal" unicode="&#x2248;" horiz-adv-x="588" d="M539 364 C539 417 500 457 446 457 L383 457 L383 519 C383 573 344 613 290 613 C236 613 197 573 197 519 L197 448 C181 459 162 465 142 465 C88 465 49 425 49 371 L49 123 L298 123 C352 123 391 162 391 216 C391 235 385 255 374 270 L446 270 C500 270 539 310 539 364 L539 364 Z M522 364 C522 319 491 287 446 287 L214 287 L214 519 C214 564 245 596 290 596 C335 596 367 564 367 519 L367 440 L446 440 C491 440 522 409 522 364 L522 364 Z " />
<glyph glyph-name="notequal" unicode="&#x2260;" horiz-adv-x="588" d="M539 364 C539 417 500 457 446 457 L383 457 L383 519 C383 573 344 613 290 613 C236 613 197 573 197 519 L197 448 C181 459 162 465 142 465 C88 465 49 425 49 371 L49 123 L298 123 C352 123 391 162 391 216 C391 235 385 255 374 270 L446 270 C500 270 539 310 539 364 L539 364 Z M522 364 C522 319 491 287 446 287 L214 287 L214 519 C214 564 245 596 290 596 C335 596 367 564 367 519 L367 440 L446 440 C491 440 522 409 522 364 L522 364 Z " />
<glyph glyph-name="lessequal" unicode="&#x2264;" horiz-adv-x="588" d="M539 364 C539 417 500 457 446 457 L383 457 L383 519 C383 573 344 613 290 613 C236 613 197 573 197 519 L197 448 C181 459 162 465 142 465 C88 465 49 425 49 371 L49 123 L298 123 C352 123 391 162 391 216 C391 235 385 255 374 270 L446 270 C500 270 539 310 539 364 L539 364 Z M522 364 C522 319 491 287 446 287 L214 287 L214 519 C214 564 245 596 290 596 C335 596 367 564 367 519 L367 440 L446 440 C491 440 522 409 522 364 L522 364 Z " />
<glyph glyph-name="greaterequal" unicode="&#x2265;" horiz-adv-x="588" d="M539 364 C539 417 500 457 446 457 L383 457 L383 519 C383 573 344 613 290 613 C236 613 197 573 197 519 L197 448 C181 459 162 465 142 465 C88 465 49 425 49 371 L49 123 L298 123 C352 123 391 162 391 216 C391 235 385 255 374 270 L446 270 C500 270 539 310 539 364 L539 364 Z M522 364 C522 319 491 287 446 287 L214 287 L214 519 C214 564 245 596 290 596 C335 596 367 564 367 519 L367 440 L446 440 C491 440 522 409 522 364 L522 364 Z " />
<glyph glyph-name="lozenge" unicode="&#x25ca;" horiz-adv-x="588" d="M539 364 C539 417 500 457 446 457 L383 457 L383 519 C383 573 344 613 290 613 C236 613 197 573 197 519 L197 448 C181 459 162 465 142 465 C88 465 49 425 49 371 L49 123 L298 123 C352 123 391 162 391 216 C391 235 385 255 374 270 L446 270 C500 270 539 310 539 364 L539 364 Z M522 364 C522 319 491 287 446 287 L214 287 L214 519 C214 564 245 596 290 596 C335 596 367 564 367 519 L367 440 L446 440 C491 440 522 409 522 364 L522 364 Z " />
<glyph glyph-name="fi" unicode="&#xfb01;" horiz-adv-x="588" d="M539 364 C539 417 500 457 446 457 L383 457 L383 519 C383 573 344 613 290 613 C236 613 197 573 197 519 L197 448 C181 459 162 465 142 465 C88 465 49 425 49 371 L49 123 L298 123 C352 123 391 162 391 216 C391 235 385 255 374 270 L446 270 C500 270 539 310 539 364 L539 364 Z M522 364 C522 319 491 287 446 287 L214 287 L214 519 C214 564 245 596 290 596 C335 596 367 564 367 519 L367 440 L446 440 C491 440 522 409 522 364 L522 364 Z " />
<glyph glyph-name="fl" unicode="&#xfb02;" horiz-adv-x="588" d="M539 364 C539 417 500 457 446 457 L383 457 L383 519 C383 573 344 613 290 613 C236 613 197 573 197 519 L197 448 C181 459 162 465 142 465 C88 465 49 425 49 371 L49 123 L298 123 C352 123 391 162 391 216 C391 235 385 255 374 270 L446 270 C500 270 539 310 539 364 L539 364 Z M522 364 C522 319 491 287 446 287 L214 287 L214 519 C214 564 245 596 290 596 C335 596 367 564 367 519 L367 440 L446 440 C491 440 522 409 522 364 L522 364 Z " />
</font>
</svg>
