<?xml version="1.0" encoding="UTF-8"?>
<svg xmlns="http://www.w3.org/2000/svg" xmlns:xlink="http://www.w3.org/1999/xlink" version="1.2" >
<font id="Circular Std Black">
<font-face  font-family="Circular Std" units-per-em="1000" ascent="809" descent="-191" font-style="normal" font-weight="900" font-stretch="normal" cap-height="709" x-height="497" underline-position="-155" underline-thickness="80" />
<missing-glyph  horiz-adv-x="595" d="M67 0 L528 0 L528 709 L67 709 L67 0 Z M191 124 L191 585 L404 585 L404 124 L191 124 Z " />
<glyph glyph-name=".null" d="" />
<glyph glyph-name="CR" unicode="&#xd;" horiz-adv-x="250" d="" />
<glyph glyph-name="space" unicode="&#x20;" horiz-adv-x="246" d="" />
<glyph glyph-name="uni000D" horiz-adv-x="246" d="" />
<glyph glyph-name="exclam" unicode="&#x21;" horiz-adv-x="345" d="M264 709 L82 709 L117 222 L229 222 L264 709 Z M86 76 C86 29 124 -10 172 -10 C220 -10 259 29 259 76 C259 124 220 163 172 163 C124 163 86 124 86 76 L86 76 Z " />
<glyph glyph-name="quotedbl" unicode="&#x22;" horiz-adv-x="416" d="M31 577 C31 566 35 553 36 547 L86 366 L140 366 L190 547 C192 554 194 568 194 577 C194 624 159 660 113 660 C66 660 31 624 31 577 L31 577 Z M222 577 C222 566 226 553 227 547 L277 366 L331 366 L381 547 C383 554 385 568 385 577 C385 624 350 660 304 660 C257 660 222 624 222 577 L222 577 Z " />
<glyph glyph-name="numbersign" unicode="&#x23;" horiz-adv-x="744" d="M86 392 L208 392 L180 262 L37 262 L37 156 L157 156 L124 0 L238 0 L271 156 L397 156 L364 0 L479 0 L512 156 L657 156 L657 262 L535 262 L563 392 L708 392 L708 497 L585 497 L618 649 L503 649 L470 497 L344 497 L377 649 L263 649 L230 497 L86 497 L86 392 Z M322 392 L448 392 L420 262 L294 262 L322 392 Z " />
<glyph glyph-name="dollar" unicode="&#x24;" horiz-adv-x="596" d="M368 -117 L368 -8 C484 13 550 99 550 191 C550 281 497 359 363 389 L276 408 C237 417 217 438 217 465 C217 497 245 530 301 530 C380 530 397 478 403 447 L542 484 C528 552 478 631 368 655 L368 766 L253 766 L253 658 C148 640 64 563 64 451 C64 356 133 288 245 261 L334 240 C374 231 396 212 396 183 C396 144 360 120 310 120 C224 120 184 172 179 230 L41 199 C48 117 112 13 253 -10 L253 -117 L368 -117 Z " />
<glyph glyph-name="percent" unicode="&#x25;" horiz-adv-x="872" d="M147 495 C147 533 173 559 208 559 C243 559 268 533 268 495 C268 456 243 429 208 429 C173 429 147 455 147 495 L147 495 Z M39 495 C39 402 114 329 207 329 C300 329 377 399 377 495 C377 588 300 661 208 661 C116 661 39 588 39 495 L39 495 Z M604 153 C604 191 630 217 665 217 C700 217 725 191 725 153 C725 114 700 87 665 87 C630 87 604 113 604 153 L604 153 Z M496 153 C496 60 571 -13 664 -13 C757 -13 834 57 834 153 C834 246 757 319 665 319 C573 319 496 246 496 153 L496 153 Z M274 0 L729 649 L600 649 L146 0 L274 0 Z " />
<glyph glyph-name="ampersand" unicode="&#x26;" horiz-adv-x="727" d="M535 0 L727 0 L568 168 L668 269 L668 455 L479 262 L384 362 L407 379 C459 417 507 472 507 543 C507 650 421 725 304 725 C205 725 103 658 103 537 C103 473 143 422 177 385 L187 374 C111 319 66 268 66 181 C66 83 145 -14 285 -14 C360 -14 422 19 471 69 L535 0 Z M289 116 C243 116 213 152 213 189 C213 228 235 253 268 277 L273 281 L383 163 C354 133 324 116 289 116 L289 116 Z M244 542 C244 584 274 603 304 603 C339 603 366 577 366 543 C366 520 354 496 325 475 L297 455 L280 473 C263 491 244 514 244 542 L244 542 Z " />
<glyph glyph-name="quotesingle" unicode="&#x27;" horiz-adv-x="225" d="M31 577 C31 566 35 553 36 547 L86 366 L140 366 L190 547 C192 554 194 568 194 577 C194 624 159 660 113 660 C66 660 31 624 31 577 L31 577 Z " />
<glyph glyph-name="parenleft" unicode="&#x28;" horiz-adv-x="343" d="M37 324 C37 90 134 -65 257 -183 L343 -102 C234 12 164 142 164 324 C164 507 234 636 343 750 L257 831 C134 714 37 558 37 324 L37 324 Z " />
<glyph glyph-name="parenright" unicode="&#x29;" horiz-adv-x="343" d="M306 324 C306 558 209 714 87 831 L0 750 C109 636 180 507 180 324 C180 142 109 12 0 -102 L87 -183 C209 -65 306 90 306 324 L306 324 Z " />
<glyph glyph-name="asterisk" unicode="&#x2a;" horiz-adv-x="463" d="M291 709 L171 709 L171 586 L57 623 L20 513 L135 475 L65 378 L159 309 L231 407 L304 309 L398 378 L328 475 L443 513 L405 623 L291 586 L291 709 Z " />
<glyph glyph-name="plus" unicode="&#x2b;" horiz-adv-x="599" d="M46 360 L46 236 L236 236 L236 41 L364 41 L364 236 L553 236 L553 360 L364 360 L364 555 L236 555 L236 360 L46 360 Z " />
<glyph glyph-name="comma" unicode="&#x2c;" horiz-adv-x="321" d="M57 88 C57 38 92 -2 147 -2 C159 -2 170 1 175 5 C173 -55 118 -95 75 -103 L75 -174 C155 -165 265 -99 265 56 C265 122 227 181 157 181 C100 181 57 141 57 88 L57 88 Z " />
<glyph glyph-name="hyphen" unicode="&#x2d;" horiz-adv-x="390" d="M345 233 L345 370 L45 370 L45 233 L345 233 Z " />
<glyph glyph-name="period" unicode="&#x2e;" horiz-adv-x="327" d="M61 94 C61 39 107 -9 163 -9 C219 -9 266 39 266 94 C266 150 219 196 163 196 C107 196 61 150 61 94 L61 94 Z " />
<glyph glyph-name="slash" unicode="&#x2f;" horiz-adv-x="495" d="M495 723 L359 723 L0 -14 L135 -14 L495 723 Z " />
<glyph glyph-name="zero" unicode="0" horiz-adv-x="628" d="M195 324 C195 376 201 427 219 465 C237 501 266 525 314 525 C363 525 391 501 409 465 C428 427 434 376 434 324 C434 272 428 221 409 183 C391 147 363 123 314 123 C266 123 237 147 219 183 C201 221 195 272 195 324 L195 324 Z M37 324 C37 244 49 163 94 95 C137 31 209 -16 314 -16 C420 -16 492 31 535 95 C580 163 592 244 592 324 C592 404 580 485 535 553 C492 618 420 664 314 664 C209 664 137 618 94 553 C49 485 37 404 37 324 L37 324 Z " />
<glyph glyph-name="one" unicode="1" horiz-adv-x="417" d="M346 0 L346 649 L211 649 C200 583 131 528 34 527 L34 422 L189 422 L189 0 L346 0 Z " />
<glyph glyph-name="two" unicode="2" horiz-adv-x="551" d="M189 389 C185 402 183 416 183 429 C183 483 213 525 274 525 C332 525 361 489 361 448 C361 405 341 378 290 348 L184 286 C65 217 31 119 31 0 L524 0 L524 132 L224 132 C233 151 249 164 268 176 L391 249 C474 298 519 367 519 451 C519 567 427 664 278 664 C122 664 35 560 35 444 C35 424 38 398 41 390 L189 389 Z " />
<glyph glyph-name="three" unicode="3" horiz-adv-x="547" d="M209 282 C224 290 246 297 267 297 C313 297 361 271 361 209 C361 161 325 120 264 120 C203 120 162 165 160 222 L8 194 C18 83 114 -14 265 -14 C425 -14 520 90 520 205 C520 316 438 396 338 403 L498 527 L498 649 L30 649 L30 517 L301 517 L141 386 L209 282 Z " />
<glyph glyph-name="four" unicode="4" horiz-adv-x="608" d="M31 135 L331 135 L331 0 L489 0 L489 135 L593 135 L593 267 L489 267 L489 649 L301 649 L31 295 L31 135 Z M331 267 L168 267 L331 481 L331 267 Z " />
<glyph glyph-name="five" unicode="5" horiz-adv-x="557" d="M26 185 C34 83 133 -16 277 -16 C439 -16 531 92 531 213 C531 353 440 430 307 430 C270 430 222 417 197 395 L223 517 L491 517 L491 649 L114 649 L41 312 C44 310 179 267 182 266 C198 286 229 308 273 308 C325 308 374 277 374 212 C374 153 330 118 277 118 C213 118 175 165 172 215 L26 185 Z " />
<glyph glyph-name="six" unicode="6" horiz-adv-x="584" d="M545 637 C519 652 471 664 410 664 C185 664 37 513 37 283 C37 97 152 -15 306 -15 C457 -15 562 84 562 217 C562 343 477 433 345 433 C269 433 214 402 191 365 C210 477 294 530 401 530 C437 530 473 520 503 509 L545 637 Z M203 211 C203 269 248 306 304 306 C360 306 406 269 406 211 C406 154 360 117 304 117 C248 117 203 156 203 211 L203 211 Z " />
<glyph glyph-name="seven" unicode="7" horiz-adv-x="514" d="M509 649 L5 649 L5 517 L323 517 C323 517 118 336 91 0 L255 0 C283 320 464 484 509 523 L509 649 Z " />
<glyph glyph-name="eight" unicode="8" horiz-adv-x="573" d="M286 388 C230 389 203 425 203 464 C203 498 232 534 286 534 C340 534 369 498 369 464 C369 425 343 389 286 388 L286 388 Z M286 113 C223 113 190 155 190 194 C190 234 220 277 286 277 C353 277 383 234 383 194 C383 155 350 113 286 113 L286 113 Z M286 -15 C434 -15 537 62 537 176 C537 243 494 307 426 334 C493 358 525 425 525 476 C525 585 427 664 286 664 C146 664 48 585 48 476 C48 425 79 358 146 334 C78 307 36 243 36 176 C36 62 139 -15 286 -15 L286 -15 Z " />
<glyph glyph-name="nine" unicode="9" horiz-adv-x="585" d="M51 19 C85 -1 144 -15 202 -15 C425 -15 548 122 548 352 C548 559 433 664 285 664 C133 664 31 567 31 435 C31 305 130 217 255 217 C313 217 369 240 396 280 C386 165 298 120 199 120 C153 120 106 135 85 146 L51 19 Z M375 440 C375 387 333 348 278 348 C223 348 181 386 181 440 C181 494 223 532 278 532 C333 532 375 494 375 440 L375 440 Z " />
<glyph glyph-name="colon" unicode="&#x3a;" horiz-adv-x="322" d="M61 91 C61 38 106 -9 161 -9 C215 -9 261 38 261 91 C261 146 215 191 161 191 C106 191 61 146 61 91 L61 91 Z M61 406 C61 353 106 306 161 306 C215 306 261 353 261 406 C261 461 215 506 161 506 C106 506 61 461 61 406 L61 406 Z " />
<glyph glyph-name="semicolon" unicode="&#x3b;" horiz-adv-x="323" d="M64 82 C64 34 97 -4 150 -4 C161 -4 171 -1 176 3 C174 -54 122 -92 81 -100 L81 -167 C157 -159 262 -96 262 51 C262 114 226 170 159 170 C105 170 64 132 64 82 L64 82 Z M61 406 C61 353 106 306 161 306 C215 306 261 353 261 406 C261 461 215 506 161 506 C106 506 61 461 61 406 L61 406 Z " />
<glyph glyph-name="less" unicode="&#x3c;" horiz-adv-x="505" d="M35 244 L474 22 L474 162 L186 301 L474 438 L474 576 L35 352 L35 244 Z " />
<glyph glyph-name="equal" unicode="&#x3d;" horiz-adv-x="607" d="M551 339 L551 461 L56 461 L56 339 L551 339 Z M551 138 L551 260 L56 260 L56 138 L551 138 Z " />
<glyph glyph-name="greater" unicode="&#x3e;" horiz-adv-x="505" d="M470 353 L31 576 L31 436 L319 297 L31 159 L31 22 L470 245 L470 353 Z " />
<glyph glyph-name="question" unicode="&#x3f;" horiz-adv-x="538" d="M313 222 C313 267 337 293 372 319 L410 347 C470 392 507 447 507 527 C507 627 426 724 264 724 C118 724 31 625 31 508 C31 495 32 480 35 466 L175 461 C174 465 172 475 172 498 C172 545 206 592 264 592 C324 592 353 554 353 515 C353 489 344 465 317 445 L266 407 C209 364 190 313 190 266 C190 250 191 236 194 222 L313 222 Z M171 76 C171 29 209 -10 257 -10 C305 -10 344 29 344 76 C344 124 305 163 257 163 C209 163 171 124 171 76 L171 76 Z " />
<glyph glyph-name="at" unicode="&#x40;" horiz-adv-x="827" d="M583 141 C686 143 792 243 792 396 C792 584 640 725 432 725 C215 725 36 564 36 330 C36 103 206 -48 440 -48 C515 -48 612 -18 664 28 L613 101 C559 63 496 49 440 49 C256 49 147 171 147 333 C147 509 270 626 433 626 C581 626 688 533 688 395 C688 300 641 237 594 237 C577 237 566 251 566 266 C566 270 566 274 567 278 L619 521 L516 521 L508 481 C493 517 452 534 417 534 C312 534 221 441 221 311 C221 210 288 139 372 139 C418 139 464 159 487 199 C495 171 524 141 579 141 L583 141 Z M486 365 C485 290 447 237 398 237 C354 237 335 271 335 320 C335 384 372 435 427 435 C465 435 486 407 486 365 L486 365 Z " />
<glyph glyph-name="A" unicode="A" horiz-adv-x="734" d="M552 0 L724 0 L460 709 L277 709 L10 0 L176 0 L227 144 L501 144 L552 0 Z M366 533 L451 288 L279 288 L366 533 Z " />
<glyph glyph-name="B" unicode="B" horiz-adv-x="617" d="M77 709 L77 0 L363 0 C497 0 585 85 585 201 C585 293 523 352 459 367 C517 386 563 446 563 519 C563 628 482 709 342 709 L77 709 Z M231 425 L231 578 L315 578 C377 578 408 548 408 502 C408 454 372 425 317 425 L231 425 Z M231 129 L231 295 L330 295 C392 295 428 261 428 212 C428 161 391 129 330 129 L231 129 Z " />
<glyph glyph-name="C" unicode="C" horiz-adv-x="772" d="M404 -15 C624 -15 718 135 741 233 L590 276 C576 225 527 143 404 143 C298 143 200 220 200 353 C200 502 307 570 402 570 C527 570 572 487 583 438 L732 485 C709 587 615 724 402 724 C204 724 36 574 36 353 C36 132 200 -15 404 -15 L404 -15 Z " />
<glyph glyph-name="D" unicode="D" horiz-adv-x="726" d="M235 149 L235 560 L327 560 C436 560 525 496 525 354 C525 212 436 149 327 149 L235 149 Z M333 0 C547 0 690 135 690 354 C690 573 547 709 334 709 L77 709 L77 0 L333 0 Z " />
<glyph glyph-name="E" unicode="E" horiz-adv-x="583" d="M527 0 L527 150 L235 150 L235 286 L499 286 L499 425 L235 425 L235 560 L526 560 L526 709 L77 709 L77 0 L527 0 Z " />
<glyph glyph-name="F" unicode="F" horiz-adv-x="568" d="M236 0 L236 265 L498 265 L498 409 L235 409 L235 559 L534 559 L534 709 L77 709 L77 0 L236 0 Z " />
<glyph glyph-name="G" unicode="G" horiz-adv-x="788" d="M732 0 L732 379 L371 379 L371 245 L584 245 C575 205 526 129 409 129 C294 129 196 206 196 354 C196 512 309 576 405 576 C523 576 570 496 581 452 L733 505 C702 604 608 724 405 724 C205 724 36 577 36 354 C36 130 198 -15 395 -15 C496 -15 563 27 594 72 L604 0 L732 0 Z " />
<glyph glyph-name="H" unicode="H" horiz-adv-x="753" d="M677 0 L677 709 L518 709 L518 431 L235 431 L235 709 L77 709 L77 0 L235 0 L235 282 L518 282 L518 0 L677 0 Z " />
<glyph glyph-name="I" unicode="I" horiz-adv-x="313" d="M237 0 L237 709 L77 709 L77 0 L237 0 Z " />
<glyph glyph-name="J" unicode="J" horiz-adv-x="568" d="M20 219 C20 78 117 -15 257 -15 C398 -15 497 93 497 222 L497 709 L339 709 L339 226 C339 173 308 135 256 135 C210 135 170 164 170 227 L170 292 L20 266 L20 219 Z " />
<glyph glyph-name="K" unicode="K" horiz-adv-x="713" d="M506 0 L703 0 L426 402 L702 709 L494 709 L235 411 L235 709 L77 709 L77 0 L235 0 L235 190 L315 279 L506 0 Z " />
<glyph glyph-name="L" unicode="L" horiz-adv-x="566" d="M541 0 L541 151 L235 151 L235 709 L77 709 L77 0 L541 0 Z " />
<glyph glyph-name="M" unicode="M" horiz-adv-x="957" d="M880 0 L880 709 L663 709 L478 230 L283 709 L77 709 L77 0 L227 0 L227 464 L412 0 L540 0 L725 470 L725 0 L880 0 Z " />
<glyph glyph-name="N" unicode="N" horiz-adv-x="769" d="M693 0 L693 709 L535 709 L535 278 L269 709 L77 709 L77 0 L234 0 L234 466 L526 0 L693 0 Z " />
<glyph glyph-name="O" unicode="O" horiz-adv-x="809" d="M200 355 C200 503 306 570 405 570 C503 570 609 503 609 355 C609 207 503 141 405 141 C306 141 200 207 200 355 L200 355 Z M36 354 C36 130 205 -15 405 -15 C604 -15 773 130 773 354 C773 579 604 724 405 724 C205 724 36 579 36 354 L36 354 Z " />
<glyph glyph-name="P" unicode="P" horiz-adv-x="613" d="M236 391 L236 572 L328 572 C388 572 429 538 429 481 C429 426 388 391 328 391 L236 391 Z M344 255 C488 255 587 348 587 482 C587 614 488 709 344 709 L77 709 L77 0 L235 0 L235 255 L344 255 Z " />
<glyph glyph-name="Q" unicode="Q" horiz-adv-x="809" d="M36 354 C36 130 205 -15 405 -15 C471 -15 535 1 589 31 L676 -65 L780 23 L693 118 C743 179 773 259 773 354 C773 579 604 724 405 724 C205 724 36 579 36 354 L36 354 Z M200 355 C200 503 306 570 405 570 C503 570 609 503 609 355 C609 309 599 272 582 241 L478 355 L373 267 L477 153 C453 145 429 141 405 141 C306 141 200 207 200 355 L200 355 Z " />
<glyph glyph-name="R" unicode="R" horiz-adv-x="628" d="M418 0 L592 0 L448 287 C535 318 588 391 588 487 C588 613 498 709 358 709 L77 709 L77 0 L235 0 L235 264 L291 264 L418 0 Z M235 400 L235 572 L328 572 C393 572 428 539 428 486 C428 436 393 400 328 400 L235 400 Z " />
<glyph glyph-name="S" unicode="S" horiz-adv-x="609" d="M565 535 C550 618 483 724 306 724 C170 724 52 630 52 496 C52 391 125 311 245 288 L342 270 C389 261 418 235 418 199 C418 155 380 125 318 125 C221 125 177 182 171 247 L26 212 C36 112 120 -15 316 -15 C485 -15 578 98 578 209 C578 310 508 397 373 422 L278 440 C229 449 208 474 208 508 C208 547 246 584 305 584 C391 584 418 528 423 495 L565 535 Z " />
<glyph glyph-name="T" unicode="T" horiz-adv-x="633" d="M614 558 L614 709 L19 709 L19 558 L237 558 L237 0 L395 0 L395 558 L614 558 Z " />
<glyph glyph-name="U" unicode="U" horiz-adv-x="704" d="M352 -16 C508 -16 633 78 633 256 L633 709 L475 709 L475 269 C475 183 427 140 352 140 C277 140 229 183 229 269 L229 709 L71 709 L71 256 C71 78 196 -16 352 -16 L352 -16 Z " />
<glyph glyph-name="V" unicode="V" horiz-adv-x="702" d="M355 210 L184 709 L10 709 L270 0 L433 0 L692 709 L524 709 L355 210 Z " />
<glyph glyph-name="W" unicode="W" horiz-adv-x="1039" d="M752 254 L605 709 L443 709 L296 255 L179 709 L11 709 L204 0 L370 0 L522 470 L673 0 L836 0 L1029 709 L867 709 L752 254 Z " />
<glyph glyph-name="X" unicode="X" horiz-adv-x="695" d="M674 709 L489 709 L349 479 L209 709 L19 709 L248 355 L19 0 L205 0 L344 230 L484 0 L676 0 L446 353 L674 709 Z " />
<glyph glyph-name="Y" unicode="Y" horiz-adv-x="673" d="M256 296 L256 0 L414 0 L414 296 L663 709 L487 709 L340 446 L195 709 L10 709 L256 296 Z " />
<glyph glyph-name="Z" unicode="Z" horiz-adv-x="644" d="M599 0 L599 151 L245 151 L595 563 L595 709 L51 709 L51 558 L378 558 L36 152 L36 0 L599 0 Z " />
<glyph glyph-name="bracketleft" unicode="&#x5b;" horiz-adv-x="331" d="M326 -171 L326 -55 L203 -55 L203 709 L326 709 L326 823 L77 823 L77 -171 L326 -171 Z " />
<glyph glyph-name="backslash" unicode="&#x5c;" horiz-adv-x="497" d="M360 -14 L497 -14 L138 723 L0 723 L360 -14 Z " />
<glyph glyph-name="bracketright" unicode="&#x5d;" horiz-adv-x="331" d="M255 -171 L255 823 L5 823 L5 709 L129 709 L129 -55 L5 -55 L5 -171 L255 -171 Z " />
<glyph glyph-name="asciicircum" unicode="&#x5e;" horiz-adv-x="535" d="M523 350 L323 709 L211 709 L12 350 L152 350 L269 567 L385 350 L523 350 Z " />
<glyph glyph-name="underscore" unicode="&#x5f;" horiz-adv-x="513" d="M512 -124 L512 0 L2 0 L2 -124 L512 -124 Z " />
<glyph glyph-name="grave" unicode="&#x60;" horiz-adv-x="308" d="M163 556 L287 556 L194 707 L21 707 L163 556 Z " />
<glyph glyph-name="a" unicode="a" horiz-adv-x="546" d="M37 137 C37 58 100 -14 209 -14 C275 -14 323 14 349 56 C349 22 353 4 354 0 L491 0 C490 5 485 38 485 77 L485 320 C485 422 426 512 265 512 C119 512 53 418 47 347 L179 320 C182 357 211 393 264 393 C312 393 337 368 337 339 C337 322 328 309 301 305 L184 287 C102 275 37 225 37 137 L37 137 Z M246 96 C204 96 187 121 187 147 C187 182 211 197 243 202 L337 217 L337 195 C337 118 291 96 246 96 L246 96 Z " />
<glyph glyph-name="b" unicode="b" horiz-adv-x="622" d="M214 0 L214 56 C237 18 288 -11 354 -11 C493 -11 591 98 591 250 C591 399 504 509 360 509 C292 509 237 481 216 450 L216 724 L67 724 L67 0 L214 0 Z M439 249 C439 166 386 125 327 125 C268 125 214 167 214 249 C214 333 268 372 327 372 C386 372 439 333 439 249 L439 249 Z " />
<glyph glyph-name="c" unicode="c" horiz-adv-x="561" d="M296 372 C355 372 385 336 396 298 L532 339 C510 428 430 512 293 512 C147 512 31 403 31 248 C31 94 150 -15 298 -15 C431 -15 513 71 535 158 L401 199 C390 162 357 125 298 125 C235 125 182 169 182 248 C182 328 233 372 296 372 L296 372 Z " />
<glyph glyph-name="d" unicode="d" horiz-adv-x="626" d="M556 724 L406 724 L406 458 C394 477 357 509 272 509 C131 509 31 398 31 250 C31 97 137 -11 277 -11 C337 -11 387 14 410 48 C410 28 413 6 414 0 L560 0 C559 11 556 44 556 89 L556 724 Z M184 249 C184 332 237 372 296 372 C355 372 408 332 408 249 C408 167 355 125 296 125 C237 125 184 167 184 249 L184 249 Z " />
<glyph glyph-name="e" unicode="e" horiz-adv-x="559" d="M182 308 C185 345 217 392 281 392 C353 392 379 346 381 308 L182 308 Z M392 179 C378 140 347 114 292 114 C233 114 182 154 179 210 L525 210 C526 213 528 236 528 257 C528 417 433 512 279 512 C150 512 31 410 31 250 C31 83 153 -15 290 -15 C416 -15 495 57 519 143 L392 179 Z " />
<glyph glyph-name="f" unicode="f" horiz-adv-x="363" d="M350 369 L350 497 L242 497 L242 535 C242 590 280 602 307 602 C331 602 344 599 352 597 L352 721 C338 728 311 732 280 732 C159 732 90 654 90 540 L90 497 L11 497 L11 369 L90 369 L90 0 L242 0 L242 369 L350 369 Z " />
<glyph glyph-name="g" unicode="g" horiz-adv-x="607" d="M32 -28 C46 -117 137 -205 280 -205 C466 -205 546 -81 546 62 L546 497 L401 497 L401 444 C387 470 344 506 263 506 C127 506 32 394 32 263 C32 125 131 21 263 21 C335 21 378 50 396 77 L396 54 C396 -36 349 -73 273 -73 C216 -73 176 -38 166 10 L32 -28 Z M291 153 C230 153 184 195 184 263 C184 331 234 373 291 373 C348 373 397 331 397 263 C397 195 353 153 291 153 L291 153 Z " />
<glyph glyph-name="h" unicode="h" horiz-adv-x="595" d="M219 292 C222 338 253 372 301 372 C356 372 382 335 382 286 L382 0 L534 0 L534 312 C534 421 476 510 346 510 C302 510 250 496 219 465 L219 724 L67 724 L67 0 L219 0 L219 292 Z " />
<glyph glyph-name="i" unicode="i" horiz-adv-x="285" d="M219 0 L219 497 L67 497 L67 0 L219 0 Z M54 649 C54 600 94 560 142 560 C192 560 232 600 232 649 C232 698 192 738 142 738 C94 738 54 698 54 649 L54 649 Z " />
<glyph glyph-name="j" unicode="j" horiz-adv-x="286" d="M67 -20 C67 -51 51 -71 16 -71 C-7 -71 -22 -67 -29 -65 L-29 -191 C-22 -194 2 -205 55 -205 C156 -205 219 -136 219 -36 L219 497 L67 497 L67 -20 Z M54 649 C54 600 94 560 142 560 C192 560 232 600 232 649 C232 699 192 738 142 738 C94 738 54 699 54 649 L54 649 Z " />
<glyph glyph-name="k" unicode="k" horiz-adv-x="576" d="M567 497 L370 497 L219 330 L219 724 L67 724 L67 0 L219 0 L219 122 L268 175 L385 0 L571 0 L373 288 L567 497 Z " />
<glyph glyph-name="l" unicode="l" horiz-adv-x="286" d="M219 0 L219 724 L67 724 L67 0 L219 0 Z " />
<glyph glyph-name="m" unicode="m" horiz-adv-x="901" d="M219 0 L219 286 C219 331 248 372 301 372 C356 372 381 335 381 288 L381 0 L531 0 L531 287 C531 331 560 372 614 372 C668 372 693 335 693 288 L693 0 L840 0 L840 322 C840 457 750 512 656 512 C589 512 541 490 502 434 C477 483 426 512 355 512 C301 512 237 484 212 440 L212 497 L67 497 L67 0 L219 0 Z " />
<glyph glyph-name="n" unicode="n" horiz-adv-x="595" d="M219 285 C219 335 251 372 301 372 C356 372 382 335 382 286 L382 0 L534 0 L534 312 C534 421 478 510 353 510 C302 510 241 487 214 440 L214 497 L67 497 L67 0 L219 0 L219 285 Z " />
<glyph glyph-name="o" unicode="o" horiz-adv-x="590" d="M295 125 C238 125 183 166 183 249 C183 333 238 372 295 372 C353 372 407 333 407 249 C407 165 353 125 295 125 L295 125 Z M295 512 C147 512 31 403 31 249 C31 95 147 -15 295 -15 C444 -15 559 95 559 249 C559 403 444 512 295 512 L295 512 Z " />
<glyph glyph-name="p" unicode="p" horiz-adv-x="622" d="M219 -190 L219 39 C242 11 290 -11 354 -11 C493 -11 591 98 591 250 C591 399 504 509 360 509 C289 509 235 478 214 446 L214 497 L67 497 L67 -190 L219 -190 Z M442 249 C442 166 389 125 329 125 C270 125 217 167 217 249 C217 332 270 372 329 372 C389 372 442 332 442 249 L442 249 Z " />
<glyph glyph-name="q" unicode="q" horiz-adv-x="622" d="M556 -190 L556 497 L411 497 L411 448 C400 469 359 509 271 509 C129 509 31 398 31 250 C31 98 135 -11 277 -11 C339 -11 385 9 407 40 L407 -190 L556 -190 Z M185 249 C185 332 238 372 297 372 C356 372 409 332 409 249 C409 166 356 125 297 125 C238 125 185 167 185 249 L185 249 Z " />
<glyph glyph-name="r" unicode="r" horiz-adv-x="403" d="M383 497 C373 500 358 502 343 502 C303 502 240 486 214 430 L214 497 L67 497 L67 0 L219 0 L219 217 C219 316 274 352 335 352 C350 352 366 351 383 347 L383 497 Z " />
<glyph glyph-name="s" unicode="s" horiz-adv-x="466" d="M26 141 C30 86 80 -15 236 -15 C369 -15 434 68 434 153 C434 226 384 288 281 309 L215 322 C193 326 176 338 176 359 C176 385 201 402 230 402 C276 402 297 374 301 341 L427 364 C422 422 372 512 228 512 C117 512 37 438 37 347 C37 277 79 217 185 194 L242 181 C279 173 291 158 291 140 C291 118 272 97 233 97 C181 97 157 130 155 164 L26 141 Z " />
<glyph glyph-name="t" unicode="t" horiz-adv-x="382" d="M249 642 L113 642 L113 578 C113 532 88 497 36 497 L11 497 L11 364 L99 364 L99 151 C99 52 162 -9 265 -9 C313 -9 338 2 344 5 L344 131 C335 129 320 126 304 126 C271 126 249 137 249 178 L249 364 L346 364 L346 497 L249 497 L249 642 Z " />
<glyph glyph-name="u" unicode="u" horiz-adv-x="596" d="M388 0 L534 0 C533 8 529 44 529 89 L529 497 L377 497 L377 214 C377 164 345 129 294 129 C240 129 214 167 214 215 L214 497 L62 497 L62 183 C62 77 130 -11 251 -11 C301 -11 358 7 384 50 C384 37 386 9 388 0 L388 0 Z " />
<glyph glyph-name="v" unicode="v" horiz-adv-x="566" d="M556 497 L396 497 L290 188 L175 497 L10 497 L214 0 L367 0 L556 497 Z " />
<glyph glyph-name="w" unicode="w" horiz-adv-x="851" d="M350 497 L252 203 L169 497 L11 497 L167 0 L321 0 L427 321 L535 0 L686 0 L840 497 L691 497 L608 202 L511 497 L350 497 Z " />
<glyph glyph-name="x" unicode="x" horiz-adv-x="552" d="M14 0 L181 0 C208 41 245 100 272 140 L364 0 L542 0 C485 80 420 174 364 254 L536 497 L366 497 L279 361 L190 497 L11 497 L185 248 L14 0 Z " />
<glyph glyph-name="y" unicode="y" horiz-adv-x="578" d="M262 -191 L568 497 L407 497 L297 231 L176 497 L6 497 L215 67 L102 -191 L262 -191 Z " />
<glyph glyph-name="z" unicode="z" horiz-adv-x="489" d="M453 0 L453 131 L220 131 L449 372 L449 497 L42 497 L42 367 L255 367 L36 134 L36 0 L453 0 Z " />
<glyph glyph-name="braceleft" unicode="&#x7b;" horiz-adv-x="385" d="M45 269 C101 269 141 244 141 180 L141 34 C141 -100 220 -162 340 -162 L380 -162 L380 -49 L343 -49 C306 -49 267 -29 267 33 L267 203 C267 265 231 312 168 331 C232 350 267 397 267 458 L267 628 C267 690 306 709 343 709 L380 709 L380 823 L340 823 C220 823 141 760 141 626 L141 481 C141 417 101 393 45 393 L45 269 Z " />
<glyph glyph-name="bar" unicode="&#x7c;" horiz-adv-x="279" d="M203 -162 L203 823 L77 823 L77 -162 L203 -162 Z " />
<glyph glyph-name="braceright" unicode="&#x7d;" horiz-adv-x="385" d="M340 393 C284 393 245 417 245 481 L245 626 C245 760 166 823 45 823 L5 823 L5 709 L42 709 C79 709 119 690 119 628 L119 458 C119 397 153 350 217 331 C154 312 119 265 119 203 L119 33 C119 -29 79 -49 42 -49 L5 -49 L5 -162 L45 -162 C166 -162 245 -100 245 34 L245 180 C245 244 284 269 340 269 L340 393 Z " />
<glyph glyph-name="asciitilde" unicode="&#x7e;" horiz-adv-x="589" d="M285 230 C322 210 360 200 396 200 C467 200 530 239 567 310 L487 375 C465 342 434 325 402 325 C385 325 368 330 351 339 L303 365 C266 385 229 394 194 394 C122 394 59 355 22 284 L104 219 C126 252 156 269 189 269 C205 269 222 265 238 256 L285 230 Z " />
<glyph glyph-name="uni00A0" unicode="&#xa0;" horiz-adv-x="246" d="" />
<glyph glyph-name="exclamdown" unicode="&#xa1;" horiz-adv-x="315" d="M213 281 L101 281 L66 -206 L248 -206 L213 281 Z M71 426 C71 379 109 340 157 340 C205 340 244 379 244 426 C244 474 205 512 157 512 C109 512 71 474 71 426 L71 426 Z " />
<glyph glyph-name="cent" unicode="&#xa2;" horiz-adv-x="553" d="M341 0 L341 81 C438 99 499 167 517 237 L389 274 C379 240 348 206 291 206 C231 206 181 247 181 319 C181 393 230 434 289 434 C346 434 374 400 385 365 L514 403 C496 473 438 540 341 558 L341 649 L226 649 L226 556 C117 531 37 440 37 319 C37 200 117 110 226 84 L226 0 L341 0 Z " />
<glyph glyph-name="sterling" unicode="&#xa3;" horiz-adv-x="592" d="M59 383 L59 273 L156 273 C158 262 160 251 160 240 C160 181 119 140 56 118 L56 0 L390 0 C501 0 576 83 576 196 L444 204 C444 159 412 130 370 130 L239 130 C284 160 301 208 301 255 C301 261 301 267 300 273 L441 273 L441 383 L265 383 C255 409 248 432 248 462 C248 515 285 540 325 540 C377 540 404 505 405 452 L537 471 C536 554 482 664 323 664 C183 664 103 565 103 467 C103 434 108 407 116 383 L59 383 Z " />
<glyph glyph-name="currency" unicode="&#xa4;" horiz-adv-x="589" d="M77 248 C77 211 87 174 103 147 L31 76 L122 -15 L196 59 C226 44 259 36 295 36 C330 36 364 44 394 59 L467 -15 L558 76 L487 146 C503 176 513 210 513 248 C513 285 503 322 487 349 L558 421 L467 511 L393 437 C366 452 330 460 295 460 C259 460 226 452 196 437 L122 511 L31 421 L102 349 C86 319 77 285 77 248 L77 248 Z M202 248 C202 301 240 339 295 339 C350 339 388 301 388 248 C388 195 350 157 295 157 C240 157 202 195 202 248 L202 248 Z " />
<glyph glyph-name="yen" unicode="&#xa5;" horiz-adv-x="631" d="M569 125 L569 231 L387 231 L387 294 L569 294 L569 400 L461 400 L610 649 L448 649 L319 413 L190 649 L21 649 L167 400 L69 400 L69 294 L241 294 L241 231 L69 231 L69 125 L241 125 L241 0 L387 0 L387 125 L569 125 Z " />
<glyph glyph-name="brokenbar" unicode="&#xa6;" horiz-adv-x="279" d="M77 823 L77 425 L203 425 L203 823 L77 823 Z M77 235 L77 -163 L203 -163 L203 235 L77 235 Z " />
<glyph glyph-name="section" unicode="&#xa7;" horiz-adv-x="555" d="M494 257 C494 351 427 396 352 435 L251 487 C228 497 215 517 215 537 C215 569 240 594 279 594 C321 594 354 573 354 514 L497 536 C492 648 409 724 279 724 C169 724 63 648 63 528 C63 474 86 424 134 386 C94 363 61 323 61 260 C61 168 128 121 203 83 L304 32 C327 22 340 1 340 -19 C340 -52 315 -76 277 -76 C235 -76 201 -54 201 4 L58 -18 C64 -131 146 -206 277 -206 C386 -206 493 -130 493 -9 C493 44 469 94 421 131 C460 155 494 195 494 257 L494 257 Z M324 282 C350 268 358 250 358 227 C358 209 346 194 333 182 L231 236 C205 250 198 266 198 291 C198 308 208 323 222 336 L324 282 Z " />
<glyph glyph-name="dieresis" unicode="&#xa8;" horiz-adv-x="418" d="M22 632 C22 589 55 556 98 556 C141 556 175 589 175 632 C175 675 141 709 98 709 C55 709 22 675 22 632 L22 632 Z M243 632 C243 589 276 556 319 556 C362 556 396 589 396 632 C396 675 362 709 319 709 C276 709 243 675 243 632 L243 632 Z " />
<glyph glyph-name="copyright" unicode="&#xa9;" horiz-adv-x="813" d="M125 354 C125 515 247 643 406 643 C565 643 688 515 688 354 C688 193 565 66 406 66 C247 66 125 193 125 354 L125 354 Z M36 354 C36 150 202 -16 406 -16 C610 -16 777 150 777 354 C777 558 610 725 406 725 C202 725 36 558 36 354 L36 354 Z M411 442 C455 442 477 416 485 388 L584 418 C568 483 510 545 409 545 C302 545 217 465 217 351 C217 238 304 158 413 158 C510 158 570 221 587 285 L488 315 C480 288 456 261 413 261 C366 261 328 293 328 351 C328 410 365 442 411 442 L411 442 Z " />
<glyph glyph-name="ordfeminine" unicode="&#xaa;" horiz-adv-x="422" d="M50 397 C50 341 95 290 172 290 C217 290 250 308 269 338 C269 318 271 305 272 300 L372 300 C371 307 368 328 368 354 L368 524 C368 596 326 660 212 660 C106 660 62 591 57 544 L153 524 C155 548 175 573 211 573 C243 573 260 557 260 538 C260 526 253 517 235 514 L154 502 C97 493 50 458 50 397 L50 397 Z M200 369 C171 369 160 386 160 404 C160 427 176 438 198 441 L260 451 L260 436 C260 384 229 369 200 369 L200 369 Z " />
<glyph glyph-name="guillemotleft" unicode="&#xab;" horiz-adv-x="550" d="M306 102 L168 296 L307 497 L166 497 L26 297 L164 102 L306 102 Z M534 102 L396 296 L535 497 L393 497 L253 297 L391 102 L534 102 Z " />
<glyph glyph-name="logicalnot" unicode="&#xac;" horiz-adv-x="599" d="M548 129 L548 449 L45 449 L45 324 L418 324 L418 129 L548 129 Z " />
<glyph glyph-name="uni00AD" unicode="&#xad;" horiz-adv-x="390" d="M345 233 L345 370 L45 370 L45 233 L345 233 Z " />
<glyph glyph-name="registered" unicode="&#xae;" horiz-adv-x="813" d="M36 354 C36 150 202 -16 406 -16 C610 -16 777 150 777 354 C777 558 610 725 406 725 C202 725 36 558 36 354 L36 354 Z M125 354 C125 515 247 643 406 643 C565 643 688 515 688 354 C688 193 565 66 406 66 C247 66 125 193 125 354 L125 354 Z M463 157 L577 157 L501 309 C543 330 572 373 572 424 C572 497 512 555 435 555 L268 555 L268 157 L372 157 L372 291 L402 291 L463 157 Z M372 375 L372 471 L415 471 C447 471 467 453 467 423 C467 394 447 375 415 375 L372 375 Z " />
<glyph glyph-name="macron" unicode="&#xaf;" horiz-adv-x="330" d="M308 577 L308 682 L22 682 L22 577 L308 577 Z " />
<glyph glyph-name="degree" unicode="&#xb0;" horiz-adv-x="374" d="M126 498 C126 536 152 562 187 562 C222 562 247 536 247 498 C247 459 222 432 187 432 C152 432 126 458 126 498 L126 498 Z M18 498 C18 405 93 332 186 332 C279 332 356 402 356 498 C356 591 279 664 187 664 C95 664 18 591 18 498 L18 498 Z " />
<glyph glyph-name="plusminus" unicode="&#xb1;" horiz-adv-x="605" d="M61 438 L61 314 L238 314 L238 198 L366 198 L366 314 L544 314 L544 438 L366 438 L366 555 L238 555 L238 438 L61 438 Z M61 164 L61 40 L544 40 L544 164 L61 164 Z " />
<glyph glyph-name="twosuperior" unicode="&#xb2;" horiz-adv-x="396" d="M154 563 C153 565 151 571 151 580 C151 606 166 628 196 628 C226 628 235 607 235 594 C235 577 222 562 199 549 L139 515 C70 476 48 421 48 353 L48 340 L350 340 L350 435 L191 435 C191 437 193 438 196 440 L263 479 C316 510 347 545 347 593 C347 661 293 718 199 718 C99 718 50 658 50 590 C50 582 52 571 54 563 L154 563 Z " />
<glyph glyph-name="threesuperior" unicode="&#xb3;" horiz-adv-x="411" d="M47 452 C52 391 109 331 202 331 C304 331 364 392 364 458 C364 515 329 555 266 565 L351 616 L351 709 L60 709 L60 617 L218 617 L139 570 L174 495 C183 499 193 501 203 501 C227 501 249 489 249 461 C249 440 231 424 202 424 C171 424 151 445 150 470 L47 452 Z " />
<glyph glyph-name="acute" unicode="&#xb4;" horiz-adv-x="306" d="M284 707 L114 707 L22 556 L143 556 L284 707 Z " />
<glyph glyph-name="mu" unicode="&#xb5;" horiz-adv-x="606" d="M394 0 L540 0 C539 9 535 44 535 89 L535 497 L383 497 L383 214 C383 164 351 129 300 129 C246 129 220 167 220 215 L220 497 L68 497 L68 -190 L220 -190 L220 -8 C232 -10 244 -11 257 -11 C307 -11 364 7 390 50 C390 37 392 9 394 0 L394 0 Z " />
<glyph glyph-name="paragraph" unicode="&#xb6;" horiz-adv-x="686" d="M363 597 L461 597 L461 -191 L578 -191 L578 597 L675 597 L675 709 L265 709 C133 709 22 634 22 496 C22 381 117 291 230 291 L248 291 L248 -191 L363 -191 L363 597 Z " />
<glyph glyph-name="periodcentered" unicode="&#xb7;" horiz-adv-x="293" d="M57 322 C57 269 99 230 151 230 C203 230 245 269 245 322 C245 373 203 413 151 413 C99 413 57 373 57 322 L57 322 Z " />
<glyph glyph-name="cedilla" unicode="&#xb8;" horiz-adv-x="299" d="M120 -112 C128 -109 139 -108 147 -108 C169 -108 182 -120 182 -133 C182 -150 168 -159 144 -159 C108 -159 83 -136 68 -121 L21 -180 C39 -204 87 -235 145 -235 C244 -235 278 -182 278 -137 C278 -87 240 -51 181 -49 L221 12 L131 12 L83 -63 L120 -112 Z " />
<glyph glyph-name="onesuperior" unicode="&#xb9;" horiz-adv-x="307" d="M241 341 L241 709 L140 709 C133 674 102 627 32 627 L32 553 L126 553 L126 341 L241 341 Z " />
<glyph glyph-name="ordmasculine" unicode="&#xba;" horiz-adv-x="482" d="M241 392 C203 392 166 419 166 475 C166 532 203 558 241 558 C280 558 317 532 317 475 C317 418 280 392 241 392 L241 392 Z M241 660 C137 660 55 583 55 475 C55 366 137 290 241 290 C345 290 427 366 427 475 C427 583 345 660 241 660 L241 660 Z " />
<glyph glyph-name="guillemotright" unicode="&#xbb;" horiz-adv-x="550" d="M386 102 L525 297 L385 497 L243 497 L382 296 L244 102 L386 102 Z M159 102 L297 297 L157 497 L16 497 L155 296 L16 102 L159 102 Z " />
<glyph glyph-name="onequarter" unicode="&#xbc;" horiz-adv-x="822" d="M251 281 L251 649 L150 649 C143 614 112 567 42 567 L42 493 L136 493 L136 281 L251 281 Z M441 71 L615 71 L615 0 L726 0 L726 71 L785 71 L785 156 L726 156 L726 369 L605 369 L441 183 L441 71 Z M615 156 L524 156 L615 258 L615 156 Z M233 0 L688 649 L559 649 L105 0 L233 0 Z " />
<glyph glyph-name="onehalf" unicode="&#xbd;" horiz-adv-x="849" d="M251 281 L251 649 L150 649 C143 614 112 567 42 567 L42 493 L136 493 L136 281 L251 281 Z M232 0 L687 649 L558 649 L104 0 L232 0 Z M608 223 C607 225 605 231 605 240 C605 266 620 288 650 288 C680 288 689 267 689 254 C689 237 676 222 653 209 L593 175 C524 136 502 81 502 13 L502 0 L804 0 L804 95 L645 95 C645 97 647 98 650 100 L717 139 C770 170 801 205 801 253 C801 321 747 378 653 378 C553 378 504 318 504 250 C504 242 506 231 508 223 L608 223 Z " />
<glyph glyph-name="threequarters" unicode="&#xbe;" horiz-adv-x="901" d="M47 392 C52 331 109 271 202 271 C304 271 364 332 364 398 C364 455 329 495 266 505 L351 556 L351 649 L60 649 L60 557 L218 557 L139 510 L174 435 C183 439 193 441 203 441 C227 441 249 429 249 401 C249 380 231 364 202 364 C171 364 151 385 150 410 L47 392 Z M520 71 L694 71 L694 0 L805 0 L805 71 L864 71 L864 156 L805 156 L805 369 L684 369 L520 183 L520 71 Z M694 156 L603 156 L694 258 L694 156 Z M314 0 L769 649 L640 649 L186 0 L314 0 Z " />
<glyph glyph-name="questiondown" unicode="&#xbf;" horiz-adv-x="499" d="M203 282 C203 239 180 212 144 185 L106 157 C48 113 11 57 11 -23 C11 -123 91 -221 254 -221 C391 -221 488 -131 488 -9 C488 5 487 20 484 34 L341 46 C344 34 346 21 346 8 C346 -42 315 -86 254 -86 C194 -86 165 -50 165 -11 C165 14 175 38 202 59 L252 97 C309 140 326 191 326 238 C326 254 324 268 322 282 L203 282 Z M175 427 C175 380 214 341 261 341 C309 341 347 380 347 427 C347 475 309 513 261 513 C214 513 175 475 175 427 L175 427 Z " />
<glyph glyph-name="Agrave" unicode="&#xc0;" horiz-adv-x="734" d="M552 0 L724 0 L460 709 L277 709 L10 0 L176 0 L227 144 L501 144 L552 0 Z M366 533 L451 288 L279 288 L366 533 Z M314 759 L449 759 L345 891 L164 891 L314 759 Z " />
<glyph glyph-name="Aacute" unicode="&#xc1;" horiz-adv-x="734" d="M552 0 L724 0 L460 709 L277 709 L10 0 L176 0 L227 144 L501 144 L552 0 Z M366 533 L451 288 L279 288 L366 533 Z M576 891 L395 891 L291 759 L426 759 L576 891 Z " />
<glyph glyph-name="Acircumflex" unicode="&#xc2;" horiz-adv-x="734" d="M552 0 L724 0 L460 709 L277 709 L10 0 L176 0 L227 144 L501 144 L552 0 Z M366 533 L451 288 L279 288 L366 533 Z M305 759 L362 824 L420 759 L561 759 L437 891 L292 891 L170 759 L305 759 Z " />
<glyph glyph-name="Atilde" unicode="&#xc3;" horiz-adv-x="734" d="M552 0 L724 0 L460 709 L277 709 L10 0 L176 0 L227 144 L501 144 L552 0 Z M366 533 L451 288 L279 288 L366 533 Z M535 895 L448 895 L448 881 C448 861 436 852 421 852 C406 852 389 863 369 874 C347 887 322 898 290 898 C236 898 187 863 187 790 L187 757 L274 757 L274 770 C274 790 287 799 300 799 C314 799 329 790 347 779 L352 776 C374 763 400 751 431 751 C486 751 535 788 535 861 L535 895 Z " />
<glyph glyph-name="Adieresis" unicode="&#xc4;" horiz-adv-x="734" d="M120 824 C120 780 154 747 198 747 C243 747 278 780 278 824 C278 869 243 904 198 904 C154 904 120 869 120 824 L120 824 Z M453 824 C453 780 486 747 531 747 C575 747 610 780 610 824 C610 869 575 904 531 904 C486 904 453 869 453 824 L453 824 Z M552 0 L724 0 L460 709 L277 709 L10 0 L176 0 L227 144 L501 144 L552 0 Z M366 533 L451 288 L279 288 L366 533 Z " />
<glyph glyph-name="Aring" unicode="&#xc5;" horiz-adv-x="734" d="M413 757 C413 726 391 709 366 709 C339 709 317 726 317 757 C317 788 339 806 366 806 C391 806 413 788 413 757 L413 757 Z M366 531 L451 288 L279 288 L366 531 Z M552 0 L724 0 L475 669 C495 692 507 722 507 757 C507 838 440 895 365 895 C290 895 223 838 223 757 C223 720 237 688 260 664 L10 0 L176 0 L227 144 L501 144 L552 0 Z " />
<glyph glyph-name="AE" unicode="&#xc6;" horiz-adv-x="1076" d="M1021 0 L1021 150 L728 150 L728 286 L993 286 L993 425 L728 425 L728 560 L1020 560 L1020 709 L478 709 L10 0 L199 0 L296 153 L570 153 L570 0 L1021 0 Z M379 282 L570 581 L570 282 L379 282 Z " />
<glyph glyph-name="Ccedilla" unicode="&#xc7;" horiz-adv-x="772" d="M369 -112 C377 -109 388 -108 396 -108 C418 -108 431 -120 431 -133 C431 -150 417 -159 393 -159 C357 -159 332 -136 317 -121 L270 -180 C288 -204 336 -235 394 -235 C493 -235 527 -182 527 -137 C527 -87 489 -51 430 -49 L454 -12 C638 8 720 143 741 233 L590 276 C576 225 527 143 404 143 C298 143 200 220 200 353 C200 502 307 570 402 570 C527 570 572 487 583 438 L732 485 C709 587 615 724 402 724 C204 724 36 574 36 353 C36 146 179 5 364 -13 L332 -63 L369 -112 Z " />
<glyph glyph-name="Egrave" unicode="&#xc8;" horiz-adv-x="583" d="M267 759 L402 759 L298 891 L117 891 L267 759 Z M527 0 L527 150 L235 150 L235 286 L499 286 L499 425 L235 425 L235 560 L526 560 L526 709 L77 709 L77 0 L527 0 Z " />
<glyph glyph-name="Eacute" unicode="&#xc9;" horiz-adv-x="583" d="M489 891 L308 891 L204 759 L339 759 L489 891 Z M527 0 L527 150 L235 150 L235 286 L499 286 L499 425 L235 425 L235 560 L526 560 L526 709 L77 709 L77 0 L527 0 Z " />
<glyph glyph-name="Ecircumflex" unicode="&#xca;" horiz-adv-x="583" d="M239 759 L296 824 L354 759 L495 759 L371 891 L226 891 L104 759 L239 759 Z M527 0 L527 150 L235 150 L235 286 L499 286 L499 425 L235 425 L235 560 L526 560 L526 709 L77 709 L77 0 L527 0 Z " />
<glyph glyph-name="Edieresis" unicode="&#xcb;" horiz-adv-x="583" d="M114 824 C114 780 148 747 192 747 C237 747 272 780 272 824 C272 869 237 904 192 904 C148 904 114 869 114 824 L114 824 Z M330 824 C330 780 364 747 408 747 C453 747 488 780 488 824 C488 869 453 904 408 904 C364 904 330 869 330 824 L330 824 Z M527 0 L527 150 L235 150 L235 286 L499 286 L499 425 L235 425 L235 560 L526 560 L526 709 L77 709 L77 0 L527 0 Z " />
<glyph glyph-name="Igrave" unicode="&#xcc;" horiz-adv-x="313" d="M237 0 L237 709 L77 709 L77 0 L237 0 Z M100 759 L235 759 L131 891 L-50 891 L100 759 Z " />
<glyph glyph-name="Iacute" unicode="&#xcd;" horiz-adv-x="313" d="M237 0 L237 709 L77 709 L77 0 L237 0 Z M363 891 L182 891 L78 759 L213 759 L363 891 Z " />
<glyph glyph-name="Icircumflex" unicode="&#xce;" horiz-adv-x="313" d="M237 0 L237 709 L77 709 L77 0 L237 0 Z M98 759 L155 824 L213 759 L354 759 L230 891 L85 891 L-37 759 L98 759 Z " />
<glyph glyph-name="Idieresis" unicode="&#xcf;" horiz-adv-x="313" d="M-24 824 C-24 780 9 747 53 747 C98 747 132 780 132 824 C132 869 98 904 53 904 C9 904 -24 869 -24 824 L-24 824 Z M183 824 C183 780 216 747 260 747 C305 747 339 780 339 824 C339 869 305 904 260 904 C216 904 183 869 183 824 L183 824 Z M237 0 L237 709 L77 709 L77 0 L237 0 Z " />
<glyph glyph-name="Eth" unicode="&#xd0;" horiz-adv-x="759" d="M365 0 C579 0 722 135 722 354 C722 573 579 709 366 709 L109 709 L109 421 L15 421 L15 310 L109 310 L109 0 L365 0 Z M267 149 L267 310 L411 310 L411 421 L267 421 L267 560 L359 560 C468 560 557 496 557 354 C557 212 468 149 359 149 L267 149 Z " />
<glyph glyph-name="Ntilde" unicode="&#xd1;" horiz-adv-x="769" d="M562 895 L475 895 L475 881 C475 861 463 852 448 852 C433 852 416 863 396 874 C374 887 349 898 317 898 C263 898 214 863 214 790 L214 757 L301 757 L301 770 C301 790 314 799 327 799 C341 799 356 790 374 779 L379 776 C401 763 427 751 458 751 C513 751 562 788 562 861 L562 895 Z M693 0 L693 709 L535 709 L535 278 L269 709 L77 709 L77 0 L234 0 L234 466 L526 0 L693 0 Z " />
<glyph glyph-name="Ograve" unicode="&#xd2;" horiz-adv-x="809" d="M338 759 L473 759 L369 891 L188 891 L338 759 Z M200 355 C200 503 306 570 405 570 C503 570 609 503 609 355 C609 207 503 141 405 141 C306 141 200 207 200 355 L200 355 Z M36 354 C36 130 205 -15 405 -15 C604 -15 773 130 773 354 C773 579 604 724 405 724 C205 724 36 579 36 354 L36 354 Z " />
<glyph glyph-name="Oacute" unicode="&#xd3;" horiz-adv-x="809" d="M610 891 L429 891 L325 759 L460 759 L610 891 Z M200 355 C200 503 306 570 405 570 C503 570 609 503 609 355 C609 207 503 141 405 141 C306 141 200 207 200 355 L200 355 Z M36 354 C36 130 205 -15 405 -15 C604 -15 773 130 773 354 C773 579 604 724 405 724 C205 724 36 579 36 354 L36 354 Z " />
<glyph glyph-name="Ocircumflex" unicode="&#xd4;" horiz-adv-x="809" d="M344 759 L401 824 L459 759 L600 759 L476 891 L331 891 L209 759 L344 759 Z M200 355 C200 503 306 570 405 570 C503 570 609 503 609 355 C609 207 503 141 405 141 C306 141 200 207 200 355 L200 355 Z M36 354 C36 130 205 -15 405 -15 C604 -15 773 130 773 354 C773 579 604 724 405 724 C205 724 36 579 36 354 L36 354 Z " />
<glyph glyph-name="Otilde" unicode="&#xd5;" horiz-adv-x="809" d="M573 895 L486 895 L486 881 C486 861 474 852 459 852 C444 852 427 863 407 874 C385 887 360 898 328 898 C274 898 225 863 225 790 L225 757 L312 757 L312 770 C312 790 325 799 338 799 C352 799 367 790 385 779 L390 776 C412 763 438 751 469 751 C524 751 573 788 573 861 L573 895 Z M200 355 C200 503 306 570 405 570 C503 570 609 503 609 355 C609 207 503 141 405 141 C306 141 200 207 200 355 L200 355 Z M36 354 C36 130 205 -15 405 -15 C604 -15 773 130 773 354 C773 579 604 724 405 724 C205 724 36 579 36 354 L36 354 Z " />
<glyph glyph-name="Odieresis" unicode="&#xd6;" horiz-adv-x="809" d="M150 824 C150 780 183 747 228 747 C272 747 307 780 307 824 C307 869 272 904 228 904 C183 904 150 869 150 824 L150 824 Z M503 824 C503 780 536 747 581 747 C626 747 661 780 661 824 C661 869 626 904 581 904 C536 904 503 869 503 824 L503 824 Z M200 355 C200 503 306 570 405 570 C503 570 609 503 609 355 C609 207 503 141 405 141 C306 141 200 207 200 355 L200 355 Z M36 354 C36 130 205 -15 405 -15 C604 -15 773 130 773 354 C773 579 604 724 405 724 C205 724 36 579 36 354 L36 354 Z " />
<glyph glyph-name="multiply" unicode="&#xd7;" horiz-adv-x="580" d="M454 43 L544 135 L380 299 L544 464 L454 554 L290 389 L126 554 L36 464 L199 299 L36 135 L126 43 L290 208 L454 43 Z " />
<glyph glyph-name="Oslash" unicode="&#xd8;" horiz-adv-x="809" d="M36 354 C36 251 72 164 130 101 L60 11 L158 -62 L227 27 C280 0 341 -15 405 -15 C604 -15 773 130 773 354 C773 458 736 546 677 609 L746 698 L650 772 L580 682 C528 709 468 724 405 724 C205 724 36 579 36 354 L36 354 Z M609 355 C609 207 503 141 405 141 C378 141 351 145 326 155 L576 479 C597 447 609 405 609 355 L609 355 Z M200 355 C200 503 306 570 405 570 C431 570 457 565 482 555 L232 233 C212 265 200 305 200 355 L200 355 Z " />
<glyph glyph-name="Ugrave" unicode="&#xd9;" horiz-adv-x="704" d="M300 759 L435 759 L331 891 L150 891 L300 759 Z M352 -16 C508 -16 633 78 633 256 L633 709 L475 709 L475 269 C475 183 427 140 352 140 C277 140 229 183 229 269 L229 709 L71 709 L71 256 C71 78 196 -16 352 -16 L352 -16 Z " />
<glyph glyph-name="Uacute" unicode="&#xda;" horiz-adv-x="704" d="M545 891 L364 891 L260 759 L395 759 L545 891 Z M352 -16 C508 -16 633 78 633 256 L633 709 L475 709 L475 269 C475 183 427 140 352 140 C277 140 229 183 229 269 L229 709 L71 709 L71 256 C71 78 196 -16 352 -16 L352 -16 Z " />
<glyph glyph-name="Ucircumflex" unicode="&#xdb;" horiz-adv-x="704" d="M292 759 L349 824 L407 759 L548 759 L424 891 L279 891 L157 759 L292 759 Z M352 -16 C508 -16 633 78 633 256 L633 709 L475 709 L475 269 C475 183 427 140 352 140 C277 140 229 183 229 269 L229 709 L71 709 L71 256 C71 78 196 -16 352 -16 L352 -16 Z " />
<glyph glyph-name="Udieresis" unicode="&#xdc;" horiz-adv-x="704" d="M152 824 C152 780 185 747 230 747 C275 747 310 780 310 824 C310 869 275 904 230 904 C185 904 152 869 152 824 L152 824 Z M397 824 C397 780 430 747 474 747 C519 747 554 780 554 824 C554 869 519 904 474 904 C430 904 397 869 397 824 L397 824 Z M352 -16 C508 -16 633 78 633 256 L633 709 L475 709 L475 269 C475 183 427 140 352 140 C277 140 229 183 229 269 L229 709 L71 709 L71 256 C71 78 196 -16 352 -16 L352 -16 Z " />
<glyph glyph-name="Yacute" unicode="&#xdd;" horiz-adv-x="673" d="M256 296 L256 0 L414 0 L414 296 L663 709 L487 709 L340 446 L195 709 L10 709 L256 296 Z M540 891 L359 891 L255 759 L390 759 L540 891 Z " />
<glyph glyph-name="Thorn" unicode="&#xde;" horiz-adv-x="610" d="M236 264 L236 449 L328 449 C388 449 427 413 427 356 C427 301 388 264 328 264 L236 264 Z M340 130 C479 130 585 227 585 357 C585 486 479 584 340 584 L235 584 L235 709 L77 709 L77 0 L235 0 L235 130 L340 130 Z " />
<glyph glyph-name="germandbls" unicode="&#xdf;" horiz-adv-x="611" d="M424 343 C424 357 432 364 447 374 L463 384 C510 413 551 456 551 534 C551 637 462 724 314 724 C187 724 67 652 67 483 L67 0 L215 0 L215 472 C215 559 264 590 314 590 C377 590 401 557 401 526 C401 499 386 480 357 461 L342 451 C314 432 273 400 273 330 C273 252 334 214 386 195 L412 185 C447 172 459 158 459 137 C459 116 442 98 415 98 C376 98 363 128 362 150 L243 130 C244 72 292 -15 414 -15 C547 -15 600 78 600 146 C600 219 554 275 483 303 L455 314 C434 322 425 328 424 343 L424 343 Z " />
<glyph glyph-name="agrave" unicode="&#xe0;" horiz-adv-x="546" d="M37 137 C37 58 100 -14 209 -14 C275 -14 323 14 349 56 C349 22 353 4 354 0 L491 0 C490 5 485 38 485 77 L485 320 C485 422 426 512 265 512 C119 512 53 418 47 347 L179 320 C182 357 211 393 264 393 C312 393 337 368 337 339 C337 322 328 309 301 305 L184 287 C102 275 37 225 37 137 L37 137 Z M246 96 C204 96 187 121 187 147 C187 182 211 197 243 202 L337 217 L337 195 C337 118 291 96 246 96 L246 96 Z M223 556 L347 556 L254 707 L81 707 L223 556 Z " />
<glyph glyph-name="aacute" unicode="&#xe1;" horiz-adv-x="546" d="M37 137 C37 58 100 -14 209 -14 C275 -14 323 14 349 56 C349 22 353 4 354 0 L491 0 C490 5 485 38 485 77 L485 320 C485 422 426 512 265 512 C119 512 53 418 47 347 L179 320 C182 357 211 393 264 393 C312 393 337 368 337 339 C337 322 328 309 301 305 L184 287 C102 275 37 225 37 137 L37 137 Z M246 96 C204 96 187 121 187 147 C187 182 211 197 243 202 L337 217 L337 195 C337 118 291 96 246 96 L246 96 Z M452 707 L282 707 L190 556 L311 556 L452 707 Z " />
<glyph glyph-name="acircumflex" unicode="&#xe2;" horiz-adv-x="546" d="M37 137 C37 58 100 -14 209 -14 C275 -14 323 14 349 56 C349 22 353 4 354 0 L491 0 C490 5 485 38 485 77 L485 320 C485 422 426 512 265 512 C119 512 53 418 47 347 L179 320 C182 357 211 393 264 393 C312 393 337 368 337 339 C337 322 328 309 301 305 L184 287 C102 275 37 225 37 137 L37 137 Z M246 96 C204 96 187 121 187 147 C187 182 211 197 243 202 L337 217 L337 195 C337 118 291 96 246 96 L246 96 Z M194 556 L264 627 L335 556 L451 556 L337 707 L194 707 L81 556 L194 556 Z " />
<glyph glyph-name="atilde" unicode="&#xe3;" horiz-adv-x="546" d="M37 137 C37 58 100 -14 209 -14 C275 -14 323 14 349 56 C349 22 353 4 354 0 L491 0 C490 5 485 38 485 77 L485 320 C485 422 426 512 265 512 C119 512 53 418 47 347 L179 320 C182 357 211 393 264 393 C312 393 337 368 337 339 C337 322 328 309 301 305 L184 287 C102 275 37 225 37 137 L37 137 Z M246 96 C204 96 187 121 187 147 C187 182 211 197 243 202 L337 217 L337 195 C337 118 291 96 246 96 L246 96 Z M454 706 L369 706 C368 677 356 662 334 662 C316 662 299 672 279 684 C257 696 234 707 203 707 C140 707 90 666 90 580 L90 557 L176 557 C177 587 190 600 210 600 C229 600 246 589 266 579 C289 567 312 556 342 556 C407 556 454 598 454 686 L454 706 Z " />
<glyph glyph-name="adieresis" unicode="&#xe4;" horiz-adv-x="546" d="M37 137 C37 58 100 -14 209 -14 C275 -14 323 14 349 56 C349 22 353 4 354 0 L491 0 C490 5 485 38 485 77 L485 320 C485 422 426 512 265 512 C119 512 53 418 47 347 L179 320 C182 357 211 393 264 393 C312 393 337 368 337 339 C337 322 328 309 301 305 L184 287 C102 275 37 225 37 137 L37 137 Z M246 96 C204 96 187 121 187 147 C187 182 211 197 243 202 L337 217 L337 195 C337 118 291 96 246 96 L246 96 Z M81 632 C81 589 114 556 157 556 C200 556 234 589 234 632 C234 675 200 709 157 709 C114 709 81 675 81 632 L81 632 Z M302 632 C302 589 335 556 378 556 C421 556 455 589 455 632 C455 675 421 709 378 709 C335 709 302 675 302 632 L302 632 Z " />
<glyph glyph-name="aring" unicode="&#xe5;" horiz-adv-x="546" d="M37 137 C37 58 100 -14 209 -14 C275 -14 323 14 349 56 C349 22 353 4 354 0 L491 0 C490 5 485 38 485 77 L485 320 C485 422 426 512 265 512 C119 512 53 418 47 347 L179 320 C182 357 211 393 264 393 C312 393 337 368 337 339 C337 322 328 309 301 305 L184 287 C102 275 37 225 37 137 L37 137 Z M246 96 C204 96 187 121 187 147 C187 182 211 197 243 202 L337 217 L337 195 C337 118 291 96 246 96 L246 96 Z M377 660 C377 726 323 773 261 773 C199 773 145 726 145 660 C145 594 199 549 261 549 C323 549 377 594 377 660 L377 660 Z M298 660 C298 637 282 622 261 622 C240 622 224 637 224 660 C224 683 240 698 261 698 C282 698 298 683 298 660 L298 660 Z " />
<glyph glyph-name="ae" unicode="&#xe6;" horiz-adv-x="870" d="M699 181 C684 141 652 113 596 113 C537 113 486 150 482 210 L831 210 C832 213 834 236 834 257 C834 417 742 512 590 512 C532 512 477 491 433 455 C401 490 348 512 268 512 C121 512 53 418 47 347 L178 320 C182 357 211 393 267 393 C316 393 341 368 341 339 C341 322 332 309 304 305 L184 287 C102 275 37 225 37 137 C37 56 102 -15 229 -15 C313 -15 373 22 409 64 C455 13 521 -15 594 -15 C719 -15 800 57 825 143 L699 181 Z M248 96 C206 96 186 122 186 146 C186 181 211 197 243 202 L341 217 L341 195 C341 118 292 96 248 96 L248 96 Z M485 308 C488 345 520 392 585 392 C659 392 685 346 687 308 L485 308 Z " />
<glyph glyph-name="ccedilla" unicode="&#xe7;" horiz-adv-x="561" d="M296 372 C355 372 385 336 396 298 L532 339 C510 428 430 512 293 512 C147 512 31 403 31 248 C31 109 128 7 255 -12 L222 -63 L259 -112 C267 -109 278 -108 286 -108 C308 -108 321 -120 321 -133 C321 -150 307 -159 283 -159 C247 -159 222 -136 207 -121 L160 -180 C178 -204 226 -235 284 -235 C383 -235 417 -182 417 -137 C417 -87 379 -51 320 -49 L345 -11 C450 6 515 82 535 158 L401 199 C390 162 357 125 298 125 C235 125 182 169 182 248 C182 328 233 372 296 372 L296 372 Z " />
<glyph glyph-name="egrave" unicode="&#xe8;" horiz-adv-x="559" d="M182 308 C185 345 217 392 281 392 C353 392 379 346 381 308 L182 308 Z M392 179 C378 140 347 114 292 114 C233 114 182 154 179 210 L525 210 C526 213 528 236 528 257 C528 417 433 512 279 512 C150 512 31 410 31 250 C31 83 153 -15 290 -15 C416 -15 495 57 519 143 L392 179 Z M235 556 L359 556 L266 707 L93 707 L235 556 Z " />
<glyph glyph-name="eacute" unicode="&#xe9;" horiz-adv-x="559" d="M470 707 L300 707 L208 556 L329 556 L470 707 Z M182 308 C185 345 217 392 281 392 C353 392 379 346 381 308 L182 308 Z M392 179 C378 140 347 114 292 114 C233 114 182 154 179 210 L525 210 C526 213 528 236 528 257 C528 417 433 512 279 512 C150 512 31 410 31 250 C31 83 153 -15 290 -15 C416 -15 495 57 519 143 L392 179 Z " />
<glyph glyph-name="ecircumflex" unicode="&#xea;" horiz-adv-x="559" d="M211 556 L281 627 L352 556 L468 556 L354 707 L211 707 L98 556 L211 556 Z M182 308 C185 345 217 392 281 392 C353 392 379 346 381 308 L182 308 Z M392 179 C378 140 347 114 292 114 C233 114 182 154 179 210 L525 210 C526 213 528 236 528 257 C528 417 433 512 279 512 C150 512 31 410 31 250 C31 83 153 -15 290 -15 C416 -15 495 57 519 143 L392 179 Z " />
<glyph glyph-name="edieresis" unicode="&#xeb;" horiz-adv-x="559" d="M97 632 C97 589 130 556 173 556 C216 556 250 589 250 632 C250 675 216 709 173 709 C130 709 97 675 97 632 L97 632 Z M318 632 C318 589 351 556 394 556 C437 556 471 589 471 632 C471 675 437 709 394 709 C351 709 318 675 318 632 L318 632 Z M182 308 C185 345 217 392 281 392 C353 392 379 346 381 308 L182 308 Z M392 179 C378 140 347 114 292 114 C233 114 182 154 179 210 L525 210 C526 213 528 236 528 257 C528 417 433 512 279 512 C150 512 31 410 31 250 C31 83 153 -15 290 -15 C416 -15 495 57 519 143 L392 179 Z " />
<glyph glyph-name="igrave" unicode="&#xec;" horiz-adv-x="285" d="M219 0 L219 497 L67 497 L67 0 L219 0 Z M89 556 L213 556 L120 707 L-53 707 L89 556 Z " />
<glyph glyph-name="iacute" unicode="&#xed;" horiz-adv-x="285" d="M331 707 L161 707 L69 556 L190 556 L331 707 Z M219 0 L219 497 L67 497 L67 0 L219 0 Z " />
<glyph glyph-name="icircumflex" unicode="&#xee;" horiz-adv-x="285" d="M71 556 L141 627 L212 556 L328 556 L214 707 L71 707 L-42 556 L71 556 Z M219 0 L219 497 L67 497 L67 0 L219 0 Z " />
<glyph glyph-name="idieresis" unicode="&#xef;" horiz-adv-x="285" d="M-33 632 C-33 589 0 556 43 556 C85 556 119 589 119 632 C119 674 85 708 43 708 C0 708 -33 674 -33 632 L-33 632 Z M166 632 C166 589 199 556 241 556 C284 556 318 589 318 632 C318 674 284 708 241 708 C199 708 166 674 166 632 L166 632 Z M219 0 L219 497 L67 497 L67 0 L219 0 Z " />
<glyph glyph-name="eth" unicode="&#xf0;" horiz-adv-x="587" d="M530 613 L495 703 L379 658 C322 702 248 736 168 756 L122 644 C157 634 195 620 231 600 L148 567 L182 479 L321 532 C348 503 370 469 382 428 C363 449 315 461 277 461 C158 461 31 385 31 231 C31 89 146 -15 293 -15 C471 -15 556 128 556 285 C556 406 519 507 455 584 L530 613 Z M293 122 C237 122 182 163 182 233 C182 305 237 344 293 344 C351 344 405 307 405 232 C405 161 351 122 293 122 L293 122 Z " />
<glyph glyph-name="ntilde" unicode="&#xf1;" horiz-adv-x="595" d="M219 285 C219 335 251 372 301 372 C356 372 382 335 382 286 L382 0 L534 0 L534 312 C534 421 478 510 353 510 C302 510 241 487 214 440 L214 497 L67 497 L67 0 L219 0 L219 285 Z M486 706 L401 706 C400 677 388 662 366 662 C348 662 331 672 311 684 C289 696 266 707 235 707 C172 707 122 666 122 580 L122 557 L208 557 C209 587 222 600 242 600 C261 600 278 589 298 579 C321 567 344 556 374 556 C439 556 486 598 486 686 L486 706 Z " />
<glyph glyph-name="ograve" unicode="&#xf2;" horiz-adv-x="590" d="M295 125 C238 125 183 166 183 249 C183 333 238 372 295 372 C353 372 407 333 407 249 C407 165 353 125 295 125 L295 125 Z M295 512 C147 512 31 403 31 249 C31 95 147 -15 295 -15 C444 -15 559 95 559 249 C559 403 444 512 295 512 L295 512 Z M241 556 L365 556 L272 707 L99 707 L241 556 Z " />
<glyph glyph-name="oacute" unicode="&#xf3;" horiz-adv-x="590" d="M484 707 L314 707 L222 556 L343 556 L484 707 Z M295 125 C238 125 183 166 183 249 C183 333 238 372 295 372 C353 372 407 333 407 249 C407 165 353 125 295 125 L295 125 Z M295 512 C147 512 31 403 31 249 C31 95 147 -15 295 -15 C444 -15 559 95 559 249 C559 403 444 512 295 512 L295 512 Z " />
<glyph glyph-name="ocircumflex" unicode="&#xf4;" horiz-adv-x="590" d="M225 556 L295 627 L366 556 L482 556 L368 707 L225 707 L112 556 L225 556 Z M295 125 C238 125 183 166 183 249 C183 333 238 372 295 372 C353 372 407 333 407 249 C407 165 353 125 295 125 L295 125 Z M295 512 C147 512 31 403 31 249 C31 95 147 -15 295 -15 C444 -15 559 95 559 249 C559 403 444 512 295 512 L295 512 Z " />
<glyph glyph-name="otilde" unicode="&#xf5;" horiz-adv-x="590" d="M295 125 C238 125 183 166 183 249 C183 333 238 372 295 372 C353 372 407 333 407 249 C407 165 353 125 295 125 L295 125 Z M295 512 C147 512 31 403 31 249 C31 95 147 -15 295 -15 C444 -15 559 95 559 249 C559 403 444 512 295 512 L295 512 Z M479 706 L394 706 C393 677 381 662 359 662 C341 662 324 672 304 684 C282 696 259 707 228 707 C165 707 115 666 115 580 L115 557 L201 557 C202 587 215 600 235 600 C254 600 271 589 291 579 C314 567 337 556 367 556 C432 556 479 598 479 686 L479 706 Z " />
<glyph glyph-name="odieresis" unicode="&#xf6;" horiz-adv-x="590" d="M108 632 C108 589 141 556 184 556 C227 556 261 589 261 632 C261 675 227 709 184 709 C141 709 108 675 108 632 L108 632 Z M329 632 C329 589 362 556 405 556 C448 556 482 589 482 632 C482 675 448 709 405 709 C362 709 329 675 329 632 L329 632 Z M295 125 C238 125 183 166 183 249 C183 333 238 372 295 372 C353 372 407 333 407 249 C407 165 353 125 295 125 L295 125 Z M295 512 C147 512 31 403 31 249 C31 95 147 -15 295 -15 C444 -15 559 95 559 249 C559 403 444 512 295 512 L295 512 Z " />
<glyph glyph-name="divide" unicode="&#xf7;" horiz-adv-x="597" d="M210 113 C210 67 248 28 295 28 C341 28 379 67 379 113 C379 159 341 197 295 197 C248 197 210 159 210 113 L210 113 Z M210 485 C210 439 248 400 295 400 C341 400 379 439 379 485 C379 531 341 569 295 569 C248 569 210 531 210 485 L210 485 Z M46 236 L551 236 L551 361 L46 361 L46 236 Z " />
<glyph glyph-name="oslash" unicode="&#xf8;" horiz-adv-x="590" d="M295 512 C147 512 31 403 31 249 C31 179 55 118 95 72 L45 12 L114 -45 L165 17 C203 -3 247 -15 295 -15 C444 -15 559 95 559 249 C559 317 537 377 499 422 L552 486 L484 543 L430 478 C391 500 345 512 295 512 L295 512 Z M183 249 C183 333 238 372 295 372 C309 372 323 369 336 364 L193 192 C187 208 183 227 183 249 L183 249 Z M295 125 C282 125 270 127 259 131 L399 300 C404 285 407 268 407 249 C407 165 353 125 295 125 L295 125 Z " />
<glyph glyph-name="ugrave" unicode="&#xf9;" horiz-adv-x="596" d="M388 0 L534 0 C533 8 529 44 529 89 L529 497 L377 497 L377 214 C377 164 345 129 294 129 C240 129 214 167 214 215 L214 497 L62 497 L62 183 C62 77 130 -11 251 -11 C301 -11 358 7 384 50 C384 37 386 9 388 0 L388 0 Z M259 556 L383 556 L290 707 L117 707 L259 556 Z " />
<glyph glyph-name="uacute" unicode="&#xfa;" horiz-adv-x="596" d="M467 707 L297 707 L205 556 L326 556 L467 707 Z M388 0 L534 0 C533 8 529 44 529 89 L529 497 L377 497 L377 214 C377 164 345 129 294 129 C240 129 214 167 214 215 L214 497 L62 497 L62 183 C62 77 130 -11 251 -11 C301 -11 358 7 384 50 C384 37 386 9 388 0 L388 0 Z " />
<glyph glyph-name="ucircumflex" unicode="&#xfb;" horiz-adv-x="596" d="M226 556 L296 627 L367 556 L483 556 L369 707 L226 707 L113 556 L226 556 Z M388 0 L534 0 C533 8 529 44 529 89 L529 497 L377 497 L377 214 C377 164 345 129 294 129 C240 129 214 167 214 215 L214 497 L62 497 L62 183 C62 77 130 -11 251 -11 C301 -11 358 7 384 50 C384 37 386 9 388 0 L388 0 Z " />
<glyph glyph-name="udieresis" unicode="&#xfc;" horiz-adv-x="596" d="M113 632 C113 589 146 556 189 556 C232 556 266 589 266 632 C266 675 232 709 189 709 C146 709 113 675 113 632 L113 632 Z M334 632 C334 589 367 556 410 556 C453 556 487 589 487 632 C487 675 453 709 410 709 C367 709 334 675 334 632 L334 632 Z M388 0 L534 0 C533 8 529 44 529 89 L529 497 L377 497 L377 214 C377 164 345 129 294 129 C240 129 214 167 214 215 L214 497 L62 497 L62 183 C62 77 130 -11 251 -11 C301 -11 358 7 384 50 C384 37 386 9 388 0 L388 0 Z " />
<glyph glyph-name="yacute" unicode="&#xfd;" horiz-adv-x="578" d="M262 -191 L568 497 L407 497 L297 231 L176 497 L6 497 L215 67 L102 -191 L262 -191 Z M469 707 L299 707 L207 556 L328 556 L469 707 Z " />
<glyph glyph-name="thorn" unicode="&#xfe;" horiz-adv-x="622" d="M219 -190 L219 39 C242 11 290 -11 354 -11 C493 -11 591 98 591 250 C591 399 504 509 360 509 C294 509 242 482 219 452 L219 724 L67 724 L67 -190 L219 -190 Z M442 249 C442 166 389 125 329 125 C270 125 217 167 217 249 C217 332 270 372 329 372 C389 372 442 332 442 249 L442 249 Z " />
<glyph glyph-name="ydieresis" unicode="&#xff;" horiz-adv-x="578" d="M262 -191 L568 497 L407 497 L297 231 L176 497 L6 497 L215 67 L102 -191 L262 -191 Z M105 632 C105 589 138 556 181 556 C224 556 258 589 258 632 C258 675 224 709 181 709 C138 709 105 675 105 632 L105 632 Z M326 632 C326 589 359 556 402 556 C445 556 479 589 479 632 C479 675 445 709 402 709 C359 709 326 675 326 632 L326 632 Z " />
<glyph glyph-name="dotlessi" unicode="&#x131;" horiz-adv-x="285" d="M219 0 L219 497 L67 497 L67 0 L219 0 Z " />
<glyph glyph-name="Lslash" unicode="&#x141;" horiz-adv-x="594" d="M569 0 L569 151 L263 151 L263 317 L424 392 L424 514 L263 440 L263 709 L105 709 L105 367 L14 325 L14 202 L105 244 L105 0 L569 0 Z " />
<glyph glyph-name="lslash" unicode="&#x142;" horiz-adv-x="347" d="M249 0 L249 321 L333 360 L333 482 L249 443 L249 724 L97 724 L97 373 L14 335 L14 212 L97 250 L97 0 L249 0 Z " />
<glyph glyph-name="OE" unicode="&#x152;" horiz-adv-x="1116" d="M200 355 C200 503 306 570 405 570 C503 570 609 503 609 355 C609 207 503 141 405 141 C306 141 200 207 200 355 L200 355 Z M1060 0 L1060 150 L768 150 L768 286 L1032 286 L1032 425 L768 425 L768 560 L1059 560 L1059 709 L609 709 L609 649 C562 697 494 724 405 724 C205 724 36 579 36 354 C36 130 205 -15 405 -15 C494 -15 560 11 609 60 L609 0 L1060 0 Z " />
<glyph glyph-name="oe" unicode="&#x153;" horiz-adv-x="937" d="M560 308 C563 345 595 392 659 392 C731 392 757 346 759 308 L560 308 Z M295 125 C238 125 183 166 183 249 C183 333 238 372 295 372 C353 372 407 333 407 249 C407 165 353 125 295 125 L295 125 Z M295 512 C147 512 31 403 31 249 C31 95 147 -15 295 -15 C369 -15 435 13 482 59 C530 11 597 -15 668 -15 C794 -15 873 57 897 143 L770 179 C756 140 725 114 670 114 C611 114 560 154 557 210 L903 210 C904 213 906 236 906 257 C906 417 811 512 657 512 C591 512 528 486 482 439 C435 485 369 512 295 512 L295 512 Z " />
<glyph glyph-name="Scaron" unicode="&#x160;" horiz-adv-x="609" d="M116 891 L239 759 L384 759 L507 891 L372 891 L314 826 L256 891 L116 891 Z M565 535 C550 618 483 724 306 724 C170 724 52 630 52 496 C52 391 125 311 245 288 L342 270 C389 261 418 235 418 199 C418 155 380 125 318 125 C221 125 177 182 171 247 L26 212 C36 112 120 -15 316 -15 C485 -15 578 98 578 209 C578 310 508 397 373 422 L278 440 C229 449 208 474 208 508 C208 547 246 584 305 584 C391 584 418 528 423 495 L565 535 Z " />
<glyph glyph-name="scaron" unicode="&#x161;" horiz-adv-x="466" d="M48 707 L161 556 L306 556 L418 707 L305 707 L235 635 L164 707 L48 707 Z M26 141 C30 86 80 -15 236 -15 C369 -15 434 68 434 153 C434 226 384 288 281 309 L215 322 C193 326 176 338 176 359 C176 385 201 402 230 402 C276 402 297 374 301 341 L427 364 C422 422 372 512 228 512 C117 512 37 438 37 347 C37 277 79 217 185 194 L242 181 C279 173 291 158 291 140 C291 118 272 97 233 97 C181 97 157 130 155 164 L26 141 Z " />
<glyph glyph-name="Ydieresis" unicode="&#x178;" horiz-adv-x="673" d="M139 824 C139 780 172 747 217 747 C262 747 297 780 297 824 C297 869 262 904 217 904 C172 904 139 869 139 824 L139 824 Z M384 824 C384 780 417 747 461 747 C506 747 541 780 541 824 C541 869 506 904 461 904 C417 904 384 869 384 824 L384 824 Z M256 296 L256 0 L414 0 L414 296 L663 709 L487 709 L340 446 L195 709 L10 709 L256 296 Z " />
<glyph glyph-name="Zcaron" unicode="&#x17d;" horiz-adv-x="644" d="M131 891 L254 759 L399 759 L522 891 L387 891 L329 826 L271 891 L131 891 Z M599 0 L599 151 L245 151 L595 563 L595 709 L51 709 L51 558 L378 558 L36 152 L36 0 L599 0 Z " />
<glyph glyph-name="zcaron" unicode="&#x17e;" horiz-adv-x="489" d="M64 707 L177 556 L322 556 L434 707 L321 707 L251 635 L180 707 L64 707 Z M453 0 L453 131 L220 131 L449 372 L449 497 L42 497 L42 367 L255 367 L36 134 L36 0 L453 0 Z " />
<glyph glyph-name="florin" unicode="&#x192;" horiz-adv-x="529" d="M118 30 C106 -27 63 -38 40 -38 C14 -38 -10 -35 -30 -30 L-30 -161 C2 -171 20 -176 70 -176 C152 -176 245 -128 268 -13 L345 370 L481 370 L481 496 L371 496 L379 535 C391 593 434 603 457 603 C483 603 503 600 524 595 L524 725 C492 736 477 741 427 741 C344 741 252 692 229 578 L212 496 L94 496 L94 370 L187 370 L118 30 Z " />
<glyph glyph-name="circumflex" unicode="&#x2c6;" horiz-adv-x="414" d="M135 556 L205 627 L276 556 L392 556 L278 707 L135 707 L22 556 L135 556 Z " />
<glyph glyph-name="caron" unicode="&#x2c7;" horiz-adv-x="414" d="M22 707 L135 556 L280 556 L392 707 L279 707 L209 635 L138 707 L22 707 Z " />
<glyph glyph-name="uni02C9" unicode="&#x2c9;" horiz-adv-x="330" d="M308 577 L308 682 L22 682 L22 577 L308 577 Z " />
<glyph glyph-name="breve" unicode="&#x2d8;" horiz-adv-x="380" d="M190 551 C301 551 356 625 359 707 L262 707 C260 681 240 651 190 651 C140 651 120 681 118 707 L22 707 C24 625 80 551 190 551 L190 551 Z " />
<glyph glyph-name="dotaccent" unicode="&#x2d9;" horiz-adv-x="201" d="M12 633 C12 584 51 547 101 547 C150 547 190 584 190 633 C190 682 150 720 101 720 C51 720 12 682 12 633 L12 633 Z " />
<glyph glyph-name="ring" unicode="&#x2da;" horiz-adv-x="276" d="M254 652 C254 718 200 765 138 765 C76 765 22 718 22 652 C22 586 76 541 138 541 C200 541 254 586 254 652 L254 652 Z M175 652 C175 629 159 614 138 614 C117 614 101 629 101 652 C101 675 117 690 138 690 C159 690 175 675 175 652 L175 652 Z " />
<glyph glyph-name="ogonek" unicode="&#x2db;" horiz-adv-x="220" d="M145 -226 C168 -226 185 -223 198 -218 L198 -134 C191 -135 182 -136 169 -136 C142 -136 122 -121 122 -93 C122 -53 160 -18 198 0 L122 16 C77 -4 19 -40 19 -117 C19 -183 70 -226 145 -226 L145 -226 Z " />
<glyph glyph-name="tilde" unicode="&#x2dc;" horiz-adv-x="398" d="M381 706 L296 706 C295 677 283 662 261 662 C243 662 226 672 206 684 C184 696 161 707 130 707 C67 707 17 666 17 580 L17 557 L103 557 C104 587 117 600 137 600 C156 600 173 589 193 579 C216 567 239 556 269 556 C334 556 381 598 381 686 L381 706 Z " />
<glyph glyph-name="hungarumlaut" unicode="&#x2dd;" horiz-adv-x="410" d="M213 707 L72 707 L19 556 L111 556 L213 707 Z M391 707 L249 707 L180 556 L273 556 L391 707 Z " />
<glyph glyph-name="uni0394" unicode="&#x394;" horiz-adv-x="705" d="M0 0 L705 0 L439 709 L266 709 L0 0 Z M352 539 L489 148 L216 148 L352 539 Z " />
<glyph glyph-name="uni03A9" unicode="&#x3a9;" horiz-adv-x="774" d="M387 575 C481 575 566 510 566 397 C566 300 499 235 420 219 L420 0 L721 0 L721 145 L558 145 C654 184 729 278 729 411 C729 602 569 725 387 725 C205 725 45 602 45 411 C45 278 121 184 216 145 L54 145 L54 0 L354 0 L354 219 C276 235 209 300 209 397 C209 510 294 575 387 575 L387 575 Z " />
<glyph glyph-name="uni03BC" unicode="&#x3bc;" horiz-adv-x="606" d="M394 0 L540 0 C539 9 535 44 535 89 L535 497 L383 497 L383 214 C383 164 351 129 300 129 C246 129 220 167 220 215 L220 497 L68 497 L68 -190 L220 -190 L220 -8 C232 -10 244 -11 257 -11 C307 -11 364 7 390 50 C390 37 392 9 394 0 L394 0 Z " />
<glyph glyph-name="pi" unicode="&#x3c0;" horiz-adv-x="649" d="M613 5 L613 126 C604 124 602 123 582 123 C560 123 536 132 536 168 L536 368 L611 368 L611 497 L32 497 L32 368 L115 368 L115 0 L268 0 L268 368 L384 368 L384 147 C384 51 436 -9 538 -9 C585 -9 612 5 613 5 L613 5 Z " />
<glyph glyph-name="uni2007" unicode="&#x2007;" horiz-adv-x="628" d="" />
<glyph glyph-name="uni2008" unicode="&#x2008;" horiz-adv-x="327" d="" />
<glyph glyph-name="uni200B" unicode="&#x200b;" d="" />
<glyph glyph-name="endash" unicode="&#x2013;" horiz-adv-x="638" d="M578 236 L578 368 L61 368 L61 236 L578 236 Z " />
<glyph glyph-name="emdash" unicode="&#x2014;" horiz-adv-x="1074" d="M1004 236 L1004 368 L71 368 L71 236 L1004 236 Z " />
<glyph glyph-name="quoteleft" unicode="&#x2018;" horiz-adv-x="241" d="M210 499 C210 543 182 574 132 574 C122 574 112 570 110 569 C113 615 160 643 195 647 L195 715 C129 710 31 661 31 523 C31 472 64 422 124 422 C174 422 210 457 210 499 L210 499 Z " />
<glyph glyph-name="quoteright" unicode="&#x2019;" horiz-adv-x="241" d="M31 637 C31 594 59 561 109 561 C119 561 131 565 131 566 C127 519 81 493 46 489 L46 421 C112 426 210 475 210 613 C210 665 177 714 117 714 C66 714 31 679 31 637 L31 637 Z " />
<glyph glyph-name="quotesinglbase" unicode="&#x201a;" horiz-adv-x="241" d="M31 73 C31 29 59 -4 109 -4 C118 -4 127 -1 131 1 C127 -46 81 -72 46 -76 L46 -143 C112 -138 210 -90 210 49 C210 100 177 150 117 150 C66 150 31 115 31 73 L31 73 Z " />
<glyph glyph-name="quotedblleft" unicode="&#x201c;" horiz-adv-x="451" d="M210 499 C210 543 182 575 132 575 C122 575 112 571 110 570 C113 616 160 643 195 647 L195 715 C129 710 31 661 31 523 C31 472 64 422 124 422 C174 422 210 457 210 499 L210 499 Z M420 499 C420 543 392 575 342 575 C332 575 322 571 320 570 C323 616 370 643 405 647 L405 715 C339 710 242 661 242 523 C242 472 274 422 334 422 C384 422 420 457 420 499 L420 499 Z " />
<glyph glyph-name="quotedblright" unicode="&#x201d;" horiz-adv-x="448" d="M31 637 C31 594 59 561 109 561 C121 561 129 565 131 566 C127 519 81 493 46 489 L46 422 C112 427 210 475 210 613 C210 665 176 714 117 714 C66 714 31 679 31 637 L31 637 Z M239 637 C239 594 267 561 317 561 C328 561 335 564 339 566 C335 519 289 493 254 489 L254 422 C320 427 417 475 417 613 C417 665 384 714 325 714 C274 714 239 679 239 637 L239 637 Z " />
<glyph glyph-name="quotedblbase" unicode="&#x201e;" horiz-adv-x="448" d="M31 73 C31 29 59 -4 109 -4 C118 -4 127 -1 131 1 C127 -46 81 -72 46 -76 L46 -143 C112 -138 210 -90 210 49 C210 100 177 150 117 150 C66 150 31 115 31 73 L31 73 Z M238 73 C238 29 266 -4 316 -4 C325 -4 334 -1 338 1 C334 -46 288 -72 253 -76 L253 -143 C319 -138 417 -90 417 49 C417 100 384 150 324 150 C273 150 238 115 238 73 L238 73 Z " />
<glyph glyph-name="dagger" unicode="&#x2020;" horiz-adv-x="427" d="M276 163 L276 456 L397 456 L397 570 L276 570 L276 709 L150 709 L150 570 L30 570 L30 456 L150 456 L150 163 L276 163 Z " />
<glyph glyph-name="daggerdbl" unicode="&#x2021;" horiz-adv-x="467" d="M50 255 L50 141 L170 141 L170 0 L296 0 L296 141 L417 141 L417 255 L296 255 L296 454 L417 454 L417 568 L296 568 L296 709 L170 709 L170 568 L50 568 L50 454 L170 454 L170 255 L50 255 Z " />
<glyph glyph-name="bullet" unicode="&#x2022;" horiz-adv-x="522" d="M52 303 C52 190 146 95 261 95 C376 95 470 190 470 303 C470 419 376 513 261 513 C146 513 52 419 52 303 L52 303 Z " />
<glyph glyph-name="ellipsis" unicode="&#x2026;" horiz-adv-x="916" d="M848 75 C848 125 809 165 759 165 C711 165 671 125 671 75 C671 28 711 -13 759 -13 C809 -13 848 28 848 75 L848 75 Z M546 75 C546 125 507 165 457 165 C408 165 369 125 369 75 C369 28 408 -13 457 -13 C507 -13 546 28 546 75 L546 75 Z M245 75 C245 125 205 165 156 165 C107 165 68 125 68 75 C68 28 107 -13 156 -13 C205 -13 245 28 245 75 L245 75 Z " />
<glyph glyph-name="perthousand" unicode="&#x2030;" horiz-adv-x="1128" d="M147 494 C147 533 173 559 208 559 C243 559 268 533 268 494 C268 456 243 429 208 429 C173 429 147 455 147 494 L147 494 Z M39 494 C39 402 114 329 207 329 C300 329 377 399 377 494 C377 588 300 661 208 661 C116 661 39 588 39 494 L39 494 Z M602 155 C602 193 630 219 665 219 C700 219 727 193 727 155 C727 116 700 89 665 89 C630 89 602 115 602 155 L602 155 Z M274 0 L729 649 L600 649 L146 0 L274 0 Z M849 155 C849 193 877 219 912 219 C947 219 974 193 974 155 C974 116 947 89 912 89 C877 89 849 115 849 155 L849 155 Z M494 155 C494 62 571 -11 664 -11 C715 -11 759 9 788 44 C817 10 860 -11 911 -11 C1004 -11 1083 59 1083 155 C1083 248 1004 321 912 321 C861 321 817 299 788 264 C759 299 716 321 665 321 C573 321 494 248 494 155 L494 155 Z " />
<glyph glyph-name="guilsinglleft" unicode="&#x2039;" horiz-adv-x="323" d="M306 102 L168 296 L307 497 L166 497 L26 297 L164 102 L306 102 Z " />
<glyph glyph-name="guilsinglright" unicode="&#x203a;" horiz-adv-x="323" d="M159 102 L297 297 L158 497 L16 497 L155 296 L16 102 L159 102 Z " />
<glyph glyph-name="uni2042" unicode="&#x2042;" horiz-adv-x="839" d="M467 708 L364 708 L364 603 L267 635 L235 541 L333 508 L274 425 L354 366 L416 450 L478 366 L558 425 L498 508 L597 541 L564 635 L467 603 L467 708 Z M266 327 L163 327 L163 222 L66 254 L34 160 L132 127 L73 44 L153 -15 L215 69 L277 -15 L357 44 L297 127 L396 160 L363 254 L266 222 L266 327 Z M676 327 L573 327 L573 222 L476 254 L444 160 L542 127 L483 44 L563 -15 L625 69 L687 -15 L767 44 L707 127 L806 160 L773 254 L676 222 L676 327 Z " />
<glyph glyph-name="fraction" unicode="&#x2044;" horiz-adv-x="583" d="M128 0 L583 649 L454 649 L0 0 L128 0 Z " />
<glyph glyph-name="uni2051" unicode="&#x2051;" horiz-adv-x="430" d="M267 708 L164 708 L164 603 L67 635 L35 541 L133 508 L74 425 L154 366 L216 450 L278 366 L358 425 L298 508 L397 541 L364 635 L267 603 L267 708 Z M267 331 L164 331 L164 226 L67 258 L35 164 L133 131 L74 48 L154 -11 L216 73 L278 -11 L358 48 L298 131 L397 164 L364 258 L267 226 L267 331 Z " />
<glyph glyph-name="uni2070" unicode="&#x2070;" horiz-adv-x="439" d="M163 525 C163 574 170 625 219 625 C268 625 275 574 275 525 C275 476 268 425 219 425 C170 425 163 476 163 525 L163 525 Z M47 525 C47 480 55 433 83 396 C111 358 156 332 219 332 C283 332 328 358 356 395 C384 433 392 480 392 525 C392 570 384 617 356 655 C328 693 283 718 219 718 C156 718 111 693 83 655 C55 617 47 570 47 525 L47 525 Z " />
<glyph glyph-name="uni2074" unicode="&#x2074;" horiz-adv-x="438" d="M47 411 L221 411 L221 340 L332 340 L332 411 L391 411 L391 496 L332 496 L332 709 L211 709 L47 523 L47 411 Z M221 496 L130 496 L221 598 L221 496 Z " />
<glyph glyph-name="uni2075" unicode="&#x2075;" horiz-adv-x="405" d="M47 454 C54 387 116 334 202 334 C303 334 358 395 358 468 C358 543 308 587 228 587 C202 587 174 580 157 567 L169 619 L334 619 L334 709 L103 709 L59 519 L151 493 C162 505 179 513 198 513 C227 513 248 499 248 467 C248 442 229 427 202 427 C173 427 149 445 147 472 L47 454 Z " />
<glyph glyph-name="uni2076" unicode="&#x2076;" horiz-adv-x="419" d="M360 701 C329 710 299 715 268 715 C145 715 47 636 47 500 C47 396 118 330 211 330 C307 330 372 386 372 465 C372 542 314 581 242 581 C211 581 181 571 160 553 C178 607 228 624 274 624 C300 624 324 619 341 613 L360 701 Z M165 461 C165 487 185 505 211 505 C237 505 258 487 258 461 C258 437 237 419 211 419 C185 419 165 437 165 461 L165 461 Z " />
<glyph glyph-name="uni2077" unicode="&#x2077;" horiz-adv-x="405" d="M359 709 L47 709 L47 616 L226 616 C226 616 114 515 103 340 L223 340 C238 505 325 588 359 617 L359 709 Z " />
<glyph glyph-name="uni2078" unicode="&#x2078;" horiz-adv-x="424" d="M212 563 C185 564 172 581 172 597 C172 611 184 629 212 629 C240 629 252 611 252 597 C252 581 239 564 212 563 L212 563 Z M212 418 C176 418 163 439 163 457 C163 474 177 493 212 493 C247 493 261 474 261 457 C261 439 248 418 212 418 L212 418 Z M212 332 C316 332 373 378 373 446 C373 486 338 519 297 530 C340 542 362 577 362 613 C362 671 311 717 212 717 C114 717 62 671 62 613 C62 577 85 542 127 530 C84 519 51 485 51 442 C51 376 111 332 212 332 L212 332 Z " />
<glyph glyph-name="uni2079" unicode="&#x2079;" horiz-adv-x="419" d="M66 345 C96 336 127 330 157 330 C277 330 371 408 371 547 C371 650 302 718 208 718 C108 718 47 661 47 582 C47 505 114 466 179 466 C211 466 242 476 263 494 C248 437 195 422 145 422 C122 422 99 426 83 433 L66 345 Z M251 586 C251 560 231 543 205 543 C179 543 159 560 159 586 C159 610 179 628 205 628 C231 628 251 610 251 586 L251 586 Z " />
<glyph glyph-name="uni2080" unicode="&#x2080;" horiz-adv-x="439" d="M163 110 C163 159 170 210 219 210 C268 210 275 159 275 110 C275 61 268 10 219 10 C170 10 163 61 163 110 L163 110 Z M47 110 C47 65 55 18 83 -19 C111 -57 156 -83 219 -83 C283 -83 328 -57 356 -20 C384 18 392 65 392 110 C392 155 384 202 356 240 C328 278 283 303 219 303 C156 303 111 278 83 240 C55 202 47 155 47 110 L47 110 Z " />
<glyph glyph-name="uni2081" unicode="&#x2081;" horiz-adv-x="308" d="M241 -120 L241 248 L140 248 C133 213 102 166 32 166 L32 92 L126 92 L126 -120 L241 -120 Z " />
<glyph glyph-name="uni2082" unicode="&#x2082;" horiz-adv-x="396" d="M154 103 C153 105 151 111 151 120 C151 146 166 168 196 168 C226 168 235 147 235 134 C235 117 222 102 199 89 L139 55 C70 16 48 -39 48 -107 L48 -120 L350 -120 L350 -25 L191 -25 C191 -23 193 -22 196 -20 L263 19 C316 50 347 85 347 133 C347 201 293 258 199 258 C99 258 50 198 50 130 C50 122 52 111 54 103 L154 103 Z " />
<glyph glyph-name="uni2083" unicode="&#x2083;" horiz-adv-x="411" d="M47 -7 C52 -68 109 -128 202 -128 C304 -128 364 -67 364 -1 C364 56 329 96 266 106 L351 157 L351 250 L60 250 L60 158 L218 158 L139 111 L174 36 C183 40 193 42 203 42 C227 42 249 30 249 2 C249 -19 231 -35 202 -35 C171 -35 151 -14 150 11 L47 -7 Z " />
<glyph glyph-name="uni2084" unicode="&#x2084;" horiz-adv-x="438" d="M47 -49 L221 -49 L221 -120 L332 -120 L332 -49 L391 -49 L391 36 L332 36 L332 249 L211 249 L47 63 L47 -49 Z M221 36 L130 36 L221 138 L221 36 Z " />
<glyph glyph-name="uni2085" unicode="&#x2085;" horiz-adv-x="405" d="M47 -6 C54 -73 116 -126 202 -126 C303 -126 358 -65 358 8 C358 83 308 127 228 127 C202 127 174 120 157 107 L169 159 L334 159 L334 249 L103 249 L59 59 L151 33 C162 45 179 53 198 53 C227 53 248 39 248 7 C248 -18 229 -33 202 -33 C173 -33 149 -15 147 12 L47 -6 Z " />
<glyph glyph-name="uni2086" unicode="&#x2086;" horiz-adv-x="419" d="M360 243 C329 252 299 257 268 257 C145 257 47 178 47 42 C47 -62 118 -128 211 -128 C307 -128 372 -72 372 7 C372 84 314 123 242 123 C211 123 181 113 160 95 C178 149 228 166 274 166 C300 166 324 161 341 155 L360 243 Z M165 3 C165 29 185 47 211 47 C237 47 258 29 258 3 C258 -21 237 -39 211 -39 C185 -39 165 -21 165 3 L165 3 Z " />
<glyph glyph-name="uni2087" unicode="&#x2087;" horiz-adv-x="405" d="M359 248 L47 248 L47 155 L226 155 C226 155 114 54 103 -121 L223 -121 C238 44 325 127 359 156 L359 248 Z " />
<glyph glyph-name="uni2088" unicode="&#x2088;" horiz-adv-x="424" d="M212 103 C185 104 172 121 172 137 C172 151 184 169 212 169 C240 169 252 151 252 137 C252 121 239 104 212 103 L212 103 Z M212 -42 C176 -42 163 -21 163 -3 C163 14 177 33 212 33 C247 33 261 14 261 -3 C261 -21 248 -42 212 -42 L212 -42 Z M212 -128 C316 -128 373 -82 373 -14 C373 26 338 59 297 70 C340 82 362 117 362 153 C362 211 311 257 212 257 C114 257 62 211 62 153 C62 117 85 82 127 70 C84 59 51 25 51 -18 C51 -84 111 -128 212 -128 L212 -128 Z " />
<glyph glyph-name="uni2089" unicode="&#x2089;" horiz-adv-x="419" d="M66 -113 C96 -122 127 -128 157 -128 C277 -128 371 -50 371 89 C371 192 302 260 208 260 C108 260 47 203 47 124 C47 47 114 8 179 8 C211 8 242 18 263 36 C248 -21 195 -36 145 -36 C122 -36 99 -32 83 -25 L66 -113 Z M251 128 C251 102 231 85 205 85 C179 85 159 102 159 128 C159 152 179 170 205 170 C231 170 251 152 251 128 L251 128 Z " />
<glyph glyph-name="Euro" unicode="&#x20ac;" horiz-adv-x="674" d="M593 161 C564 138 522 123 471 123 C412 123 359 146 325 193 L450 193 L495 295 L289 295 C288 305 288 315 288 323 C288 332 288 339 289 349 L516 349 L563 450 L319 450 C354 505 412 528 469 528 C515 528 556 519 585 499 L641 619 C596 647 545 664 469 664 C326 664 201 581 152 450 L61 450 L61 349 L131 349 C130 339 130 331 130 323 C130 311 130 305 131 295 L61 295 L61 193 L152 193 C201 62 323 -16 471 -16 C551 -16 618 12 662 47 L593 161 Z " />
<glyph glyph-name="uni2113" unicode="&#x2113;" horiz-adv-x="439" d="M26 277 L26 146 C50 150 74 155 96 162 C102 58 172 -5 281 -5 C349 -5 380 14 392 24 L392 148 C375 138 351 126 300 126 C274 126 231 143 231 203 L231 224 C344 296 413 402 413 499 C413 604 351 663 256 663 C165 663 96 599 96 492 L96 299 C69 289 45 282 26 277 L26 277 Z M279 506 C279 458 259 418 231 386 L231 500 C231 530 245 537 256 537 C268 537 279 526 279 506 L279 506 Z " />
<glyph glyph-name="trademark" unicode="&#x2122;" horiz-adv-x="884" d="M336 618 L336 709 L35 709 L35 618 L135 618 L135 344 L237 344 L237 618 L336 618 Z M824 344 L824 709 L682 709 L606 515 L526 709 L384 709 L384 344 L483 344 L483 562 L566 344 L642 344 L724 566 L724 344 L824 344 Z " />
<glyph glyph-name="Omega" unicode="&#x2126;" horiz-adv-x="774" d="M387 575 C481 575 566 510 566 397 C566 300 499 235 420 219 L420 0 L721 0 L721 145 L558 145 C654 184 729 278 729 411 C729 602 569 725 387 725 C205 725 45 602 45 411 C45 278 121 184 216 145 L54 145 L54 0 L354 0 L354 219 C276 235 209 300 209 397 C209 510 294 575 387 575 L387 575 Z " />
<glyph glyph-name="uni2160" unicode="&#x2160;" horiz-adv-x="493" d="M452 649 L42 649 L42 518 L169 518 L169 131 L42 131 L42 0 L452 0 L452 131 L326 131 L326 518 L452 518 L452 649 Z " />
<glyph glyph-name="uni2161" unicode="&#x2161;" horiz-adv-x="793" d="M752 131 L618 131 L618 518 L752 518 L752 649 L42 649 L42 518 L177 518 L177 131 L42 131 L42 0 L752 0 L752 131 Z M334 518 L461 518 L461 131 L334 131 L334 518 Z " />
<glyph glyph-name="uni2162" unicode="&#x2162;" horiz-adv-x="1067" d="M1026 131 L892 131 L892 518 L1026 518 L1026 649 L42 649 L42 518 L177 518 L177 131 L42 131 L42 0 L1026 0 L1026 131 Z M334 518 L456 518 L456 131 L334 131 L334 518 Z M613 518 L735 518 L735 131 L613 131 L613 518 Z " />
<glyph glyph-name="uni2163" unicode="&#x2163;" horiz-adv-x="1077" d="M1036 131 L811 131 L932 518 L1036 518 L1036 649 L42 649 L42 518 L174 518 L174 131 L42 131 L42 0 L1036 0 L1036 131 Z M331 518 L407 518 L531 131 L331 131 L331 518 Z M673 179 L572 518 L772 518 L673 179 Z " />
<glyph glyph-name="uni2164" unicode="&#x2164;" horiz-adv-x="810" d="M769 649 L42 649 L42 518 L141 518 L265 131 L42 131 L42 0 L768 0 L768 131 L545 131 L665 518 L769 518 L769 649 Z M407 179 L306 518 L506 518 L407 179 Z " />
<glyph glyph-name="uni2165" unicode="&#x2165;" horiz-adv-x="1073" d="M1031 131 L898 131 L898 518 L1031 518 L1031 649 L42 649 L42 518 L141 518 L265 131 L42 131 L42 0 L1031 0 L1031 131 Z M666 518 L741 518 L741 131 L546 131 L666 518 Z M407 179 L306 518 L506 518 L407 179 Z " />
<glyph glyph-name="uni2166" unicode="&#x2166;" horiz-adv-x="1348" d="M1306 131 L1173 131 L1173 518 L1306 518 L1306 649 L42 649 L42 518 L141 518 L265 131 L42 131 L42 0 L1306 0 L1306 131 Z M1016 131 L898 131 L898 518 L1016 518 L1016 131 Z M666 518 L741 518 L741 131 L546 131 L666 518 Z M407 179 L306 518 L506 518 L407 179 Z " />
<glyph glyph-name="uni2167" unicode="&#x2167;" horiz-adv-x="1619" d="M1578 131 L1445 131 L1445 518 L1577 518 L1577 649 L42 649 L42 518 L141 518 L265 131 L42 131 L42 0 L1578 0 L1578 131 Z M665 518 L741 518 L741 131 L545 131 L665 518 Z M1171 518 L1288 518 L1288 131 L1171 131 L1171 518 Z M898 518 L1014 518 L1014 131 L898 131 L898 518 Z M407 179 L306 518 L506 518 L407 179 Z " />
<glyph glyph-name="uni2168" unicode="&#x2168;" horiz-adv-x="1052" d="M1010 131 L905 131 L762 321 L907 518 L1010 518 L1010 649 L42 649 L42 518 L174 518 L174 131 L42 131 L42 0 L1010 0 L1010 131 Z M555 322 L411 131 L331 131 L331 518 L409 518 L555 322 Z M596 518 L723 518 L659 429 L596 518 Z M657 216 L718 131 L595 131 L657 216 Z " />
<glyph glyph-name="uni2169" unicode="&#x2169;" horiz-adv-x="787" d="M745 649 L42 649 L42 518 L144 518 L290 322 L146 131 L42 131 L42 0 L745 0 L745 131 L640 131 L497 321 L642 518 L745 518 L745 649 Z M332 518 L458 518 L395 429 L332 518 Z M392 216 L453 131 L331 131 L392 216 Z " />
<glyph glyph-name="uni216C" unicode="&#x216c;" horiz-adv-x="660" d="M619 297 L471 297 L471 131 L310 131 L310 518 L431 518 L431 649 L42 649 L42 518 L153 518 L153 131 L42 131 L42 0 L619 0 L619 297 Z " />
<glyph glyph-name="uni216D" unicode="&#x216d;" horiz-adv-x="743" d="M701 252 L549 252 C538 207 496 125 380 125 C281 125 193 198 193 323 C193 463 290 527 377 527 C495 527 534 446 543 402 L696 402 L696 649 L543 649 L543 595 C507 634 453 664 369 664 C187 664 42 523 42 323 C42 123 185 -16 372 -16 C457 -16 512 15 549 55 L549 0 L701 0 L701 252 Z " />
<glyph glyph-name="uni216E" unicode="&#x216e;" horiz-adv-x="747" d="M382 649 L42 649 L42 518 L159 518 L159 131 L42 131 L42 0 L381 0 C580 0 705 125 705 324 C705 522 581 649 382 649 L382 649 Z M316 131 L316 518 L368 518 C468 518 546 453 546 324 C546 195 468 132 369 131 L316 131 Z " />
<glyph glyph-name="uni216F" unicode="&#x216f;" horiz-adv-x="1042" d="M373 131 L305 131 L305 409 L463 9 L577 9 L735 413 L735 131 L660 131 L660 0 L1001 0 L1001 131 L891 131 L891 518 L1001 518 L1001 649 L667 649 L521 258 L366 649 L42 649 L42 518 L153 518 L153 131 L42 131 L42 0 L373 0 L373 131 Z " />
<glyph glyph-name="arrowleft" unicode="&#x2190;" horiz-adv-x="1080" d="M271 57 L271 236 L1024 236 L1024 367 L271 367 L271 547 L-14 301 L271 57 Z " />
<glyph glyph-name="arrowup" unicode="&#x2191;" horiz-adv-x="504" d="M273 800 L27 523 L208 523 L208 -146 L339 -146 L339 523 L516 523 L273 800 Z " />
<glyph glyph-name="arrowright" unicode="&#x2192;" horiz-adv-x="1114" d="M1084 301 L770 549 L770 367 L21 367 L21 236 L770 236 L770 54 L1084 301 Z " />
<glyph glyph-name="arrowdown" unicode="&#x2193;" horiz-adv-x="492" d="M479 131 L300 131 L300 799 L169 799 L169 131 L-14 131 L234 -148 L479 131 Z " />
<glyph glyph-name="uni2196" unicode="&#x2196;" horiz-adv-x="877" d="M69 708 L69 354 L199 485 L698 -13 L790 79 L291 577 L421 708 L69 708 Z " />
<glyph glyph-name="uni2197" unicode="&#x2197;" horiz-adv-x="749" d="M310 708 L439 578 L-60 79 L33 -13 L532 485 L662 354 L662 708 L310 708 Z " />
<glyph glyph-name="uni2198" unicode="&#x2198;" horiz-adv-x="850" d="M763 1 L763 355 L633 224 L134 722 L42 630 L540 131 L411 1 L763 1 Z " />
<glyph glyph-name="uni2199" unicode="&#x2199;" horiz-adv-x="740" d="M384 1 L254 132 L753 630 L661 722 L162 224 L32 355 L32 1 L384 1 Z " />
<glyph glyph-name="uni21A9" unicode="&#x21a9;" horiz-adv-x="874" d="M252 24 L252 200 L617 200 C766 200 863 295 863 424 C863 551 763 646 617 646 L407 646 L407 515 L611 515 C683 515 726 477 726 424 C726 375 683 332 611 332 L252 332 L252 514 L-32 268 L252 24 Z " />
<glyph glyph-name="uni21B0" unicode="&#x21b0;" horiz-adv-x="819" d="M316 235 L316 414 L612 414 L612 0 L743 0 L743 545 L316 545 L316 725 L32 480 L316 235 Z " />
<glyph glyph-name="uni21B1" unicode="&#x21b1;" horiz-adv-x="764" d="M166 0 L166 414 L467 414 L467 235 L751 480 L467 725 L467 545 L35 545 L35 0 L166 0 Z " />
<glyph glyph-name="uni21B2" unicode="&#x21b2;" horiz-adv-x="777" d="M570 709 L570 295 L270 295 L270 474 L-15 230 L270 -16 L270 164 L701 164 L701 709 L570 709 Z " />
<glyph glyph-name="uni21B3" unicode="&#x21b3;" horiz-adv-x="857" d="M499 474 L499 295 L198 295 L198 709 L67 709 L67 164 L499 164 L499 -16 L783 230 L499 474 Z " />
<glyph glyph-name="uni21B4" unicode="&#x21b4;" horiz-adv-x="792" d="M64 578 L491 578 L491 260 L314 260 L560 -15 L802 260 L622 260 L622 709 L64 709 L64 578 Z " />
<glyph glyph-name="uni21C6" unicode="&#x21c6;" horiz-adv-x="1197" d="M1142 158 L858 404 L858 224 L101 224 L101 93 L858 93 L858 -86 L1142 158 Z M353 320 L353 496 L1109 496 L1109 627 L353 627 L353 810 L69 564 L353 320 Z " />
<glyph glyph-name="partialdiff" unicode="&#x2202;" horiz-adv-x="626" d="M255 580 C343 580 418 538 430 407 C412 428 373 462 274 462 C161 462 32 382 32 232 C32 68 158 -16 293 -16 C499 -16 590 149 590 348 C590 659 393 720 263 720 C205 720 129 709 53 668 L107 545 C173 577 227 580 255 580 L255 580 Z M311 335 C368 335 406 315 434 287 C428 207 395 124 298 124 C244 124 186 162 186 226 C186 287 226 335 311 335 L311 335 Z " />
<glyph glyph-name="Delta" unicode="&#x2206;" horiz-adv-x="705" d="M0 0 L705 0 L439 709 L266 709 L0 0 Z M352 539 L489 148 L216 148 L352 539 Z " />
<glyph glyph-name="product" unicode="&#x220f;" horiz-adv-x="685" d="M609 0 L609 709 L77 709 L77 0 L235 0 L235 563 L450 563 L450 0 L609 0 Z " />
<glyph glyph-name="summation" unicode="&#x2211;" horiz-adv-x="571" d="M32 0 L555 0 L555 147 L241 147 L492 353 L250 562 L555 562 L555 709 L32 709 L32 565 L278 353 L32 145 L32 0 Z " />
<glyph glyph-name="minus" unicode="&#x2212;" horiz-adv-x="593" d="M547 237 L547 361 L46 361 L46 237 L547 237 Z " />
<glyph glyph-name="uni2215" unicode="&#x2215;" horiz-adv-x="464" d="M464 662 L328 662 L0 -14 L135 -14 L464 662 Z " />
<glyph glyph-name="uni2219" unicode="&#x2219;" horiz-adv-x="293" d="M57 322 C57 269 99 230 151 230 C203 230 245 269 245 322 C245 373 203 413 151 413 C99 413 57 373 57 322 L57 322 Z " />
<glyph glyph-name="radical" unicode="&#x221a;" horiz-adv-x="714" d="M744 762 L744 885 L513 885 L288 196 L171 542 L31 542 L221 0 L353 0 L606 762 L744 762 Z " />
<glyph glyph-name="infinity" unicode="&#x221e;" horiz-adv-x="846" d="M422 188 C479 127 536 96 605 96 C721 96 806 179 806 290 C806 401 721 485 605 485 C541 485 481 448 425 390 C369 451 308 485 242 485 C125 485 41 401 41 290 C41 179 125 96 242 96 C308 96 364 128 422 188 L422 188 Z M244 353 C277 353 308 325 340 287 C310 251 277 226 244 226 C204 226 178 253 178 289 C178 325 204 353 244 353 L244 353 Z M603 226 C569 226 537 253 506 289 C538 326 569 353 603 353 C642 353 669 325 669 289 C669 253 642 226 603 226 L603 226 Z " />
<glyph glyph-name="integral" unicode="&#x222b;" horiz-adv-x="370" d="M109 -9 C109 -46 88 -67 59 -67 L5 -67 L5 -200 L64 -200 C187 -200 262 -123 262 -1 L262 519 C262 556 282 577 312 577 L365 577 L365 710 L307 710 C184 710 109 633 109 511 L109 -9 Z " />
<glyph glyph-name="approxequal" unicode="&#x2248;" horiz-adv-x="607" d="M497 479 C474 446 443 431 410 431 C393 431 375 436 359 445 L312 471 C274 492 236 500 200 500 C130 500 67 461 31 391 L112 326 C133 357 164 375 196 375 C212 375 230 371 246 362 L294 336 C332 315 370 305 407 305 C477 306 540 344 576 414 L497 479 Z M497 275 C474 241 443 226 410 226 C393 226 376 231 359 240 L312 266 C275 286 236 295 202 295 C131 295 68 257 31 187 L112 122 C135 154 166 170 197 170 C214 170 230 165 246 157 L294 131 C332 110 369 101 406 101 C476 101 539 139 576 209 L497 275 Z " />
<glyph glyph-name="notequal" unicode="&#x2260;" horiz-adv-x="607" d="M551 138 L551 260 L351 260 L399 339 L551 339 L551 461 L474 461 L528 549 L396 549 L342 461 L56 461 L56 339 L267 339 L219 260 L56 260 L56 138 L144 138 L85 42 L217 42 L276 138 L551 138 Z " />
<glyph glyph-name="lessequal" unicode="&#x2264;" horiz-adv-x="547" d="M52 164 L52 40 L491 40 L491 164 L52 164 Z M52 322 L491 192 L491 318 L225 384 L491 449 L491 572 L52 442 L52 322 Z " />
<glyph glyph-name="greaterequal" unicode="&#x2265;" horiz-adv-x="547" d="M56 164 L56 40 L495 40 L495 164 L56 164 Z M495 442 L56 572 L56 447 L322 380 L56 315 L56 192 L495 322 L495 442 Z " />
<glyph glyph-name="dotmath" unicode="&#x22c5;" horiz-adv-x="293" d="M57 322 C57 269 99 230 151 230 C203 230 245 269 245 322 C245 373 203 413 151 413 C99 413 57 373 57 322 L57 322 Z " />
<glyph glyph-name="uni24C5" unicode="&#x24c5;" horiz-adv-x="813" d="M125 354 C125 515 247 643 406 643 C565 643 688 515 688 354 C688 193 565 66 406 66 C247 66 125 193 125 354 L125 354 Z M36 354 C36 150 202 -16 406 -16 C610 -16 777 150 777 354 C777 558 610 725 406 725 C202 725 36 558 36 354 L36 354 Z M385 372 L385 469 L429 469 C461 469 482 450 482 420 C482 390 461 372 429 372 L385 372 Z M450 288 C527 288 587 347 587 420 C587 493 527 553 450 553 L281 553 L281 154 L385 154 L385 288 L450 288 Z " />
<glyph glyph-name="filledbox" unicode="&#x25a0;" horiz-adv-x="901" d="M97 0 L805 0 L805 709 L97 709 L97 0 Z " />
<glyph glyph-name="H22073" unicode="&#x25a1;" horiz-adv-x="901" d="M805 0 L805 709 L97 709 L97 0 L805 0 Z M227 579 L671 579 L671 129 L227 129 L227 579 Z " />
<glyph glyph-name="triagup" unicode="&#x25b2;" horiz-adv-x="839" d="M421 725 L0 0 L839 0 L421 725 Z " />
<glyph glyph-name="uni25B3" unicode="&#x25b3;" horiz-adv-x="838" d="M419 725 L0 0 L838 0 L419 725 Z M611 130 L227 130 L419 463 L611 130 Z " />
<glyph glyph-name="lozenge" unicode="&#x25ca;" horiz-adv-x="648" d="M201 354 L324 567 L447 354 L324 142 L201 354 Z M26 354 L236 0 L412 0 L622 354 L412 709 L236 709 L26 354 Z " />
<glyph glyph-name="circle" unicode="&#x25cb;" horiz-adv-x="804" d="M32 354 C32 149 197 -16 402 -16 C607 -16 773 149 773 354 C773 559 607 725 402 725 C197 725 32 559 32 354 L32 354 Z M162 354 C162 486 270 596 402 596 C534 596 640 486 640 354 C640 222 534 113 402 113 C270 113 162 222 162 354 L162 354 Z " />
<glyph glyph-name="H18533" unicode="&#x25cf;" horiz-adv-x="804" d="M32 354 C32 149 197 -16 402 -16 C607 -16 773 149 773 354 C773 559 607 725 402 725 C197 725 32 559 32 354 L32 354 Z " />
<glyph glyph-name="uni262E" unicode="&#x262e;" horiz-adv-x="812" d="M776 354 C776 559 611 725 406 725 C202 725 36 559 36 354 C36 149 202 -16 406 -16 C611 -16 776 149 776 354 L776 354 Z M646 354 C646 331 643 309 636 288 L467 420 L467 590 C569 562 646 467 646 354 L646 354 Z M164 354 C164 465 239 560 340 589 L340 420 L173 290 C167 310 164 331 164 354 L164 354 Z M467 118 L467 265 L573 178 C543 150 507 128 467 118 L467 118 Z M235 181 L340 265 L340 119 C300 130 265 152 235 181 L235 181 Z " />
<glyph glyph-name="uni2713" unicode="&#x2713;" horiz-adv-x="928" d="M916 633 L824 725 L314 176 L107 402 L12 313 L310 -16 L916 633 Z " />
<glyph glyph-name="uni2715" unicode="&#x2715;" horiz-adv-x="755" d="M649 -5 L739 86 L466 356 L730 621 L639 711 L375 446 L107 711 L16 621 L284 355 L16 86 L107 -5 L376 265 L649 -5 Z " />
<glyph glyph-name="uni2780" unicode="&#x2780;" horiz-adv-x="822" d="M129 354 C129 515 252 643 411 643 C569 643 692 515 692 354 C692 193 569 66 411 66 C252 66 129 193 129 354 L129 354 Z M41 354 C41 150 206 -16 411 -16 C615 -16 781 150 781 354 C781 558 615 725 411 725 C206 725 41 558 41 354 L41 354 Z M488 172 L488 540 L387 540 C380 505 349 458 279 458 L279 384 L373 384 L373 172 L488 172 Z " />
<glyph glyph-name="uni2781" unicode="&#x2781;" horiz-adv-x="822" d="M129 354 C129 515 252 643 411 643 C569 643 692 515 692 354 C692 193 569 66 411 66 C252 66 129 193 129 354 L129 354 Z M41 354 C41 150 206 -16 411 -16 C615 -16 781 150 781 354 C781 558 615 725 411 725 C206 725 41 558 41 354 L41 354 Z M363 407 C362 409 360 415 360 424 C360 450 375 472 405 472 C435 472 444 451 444 438 C444 421 431 406 408 393 L348 359 C279 320 257 265 257 197 L257 184 L559 184 L559 279 L400 279 C400 281 402 282 405 284 L472 323 C525 354 556 389 556 437 C556 505 502 562 408 562 C308 562 259 502 259 434 C259 426 261 415 263 407 L363 407 Z " />
<glyph glyph-name="uni2782" unicode="&#x2782;" horiz-adv-x="822" d="M129 354 C129 515 252 643 411 643 C569 643 692 515 692 354 C692 193 569 66 411 66 C252 66 129 193 129 354 L129 354 Z M41 354 C41 150 206 -16 411 -16 C615 -16 781 150 781 354 C781 558 615 725 411 725 C206 725 41 558 41 354 L41 354 Z M254 277 C259 216 316 156 409 156 C511 156 571 217 571 283 C571 340 536 380 473 390 L558 441 L558 534 L267 534 L267 442 L425 442 L346 395 L381 320 C390 324 400 326 410 326 C434 326 456 314 456 286 C456 265 438 249 409 249 C378 249 358 270 357 295 L254 277 Z " />
<glyph glyph-name="uni2783" unicode="&#x2783;" horiz-adv-x="822" d="M129 354 C129 515 252 643 411 643 C569 643 692 515 692 354 C692 193 569 66 411 66 C252 66 129 193 129 354 L129 354 Z M41 354 C41 150 206 -16 411 -16 C615 -16 781 150 781 354 C781 558 615 725 411 725 C206 725 41 558 41 354 L41 354 Z M230 249 L404 249 L404 178 L515 178 L515 249 L574 249 L574 334 L515 334 L515 547 L394 547 L230 361 L230 249 Z M404 334 L313 334 L404 436 L404 334 Z " />
<glyph glyph-name="uni2784" unicode="&#x2784;" horiz-adv-x="822" d="M129 354 C129 515 252 643 411 643 C569 643 692 515 692 354 C692 193 569 66 411 66 C252 66 129 193 129 354 L129 354 Z M41 354 C41 150 206 -16 411 -16 C615 -16 781 150 781 354 C781 558 615 725 411 725 C206 725 41 558 41 354 L41 354 Z M249 276 C256 209 318 156 404 156 C505 156 560 217 560 290 C560 365 510 409 430 409 C404 409 376 402 359 389 L371 441 L536 441 L536 531 L305 531 L261 341 L353 315 C364 327 381 335 400 335 C429 335 450 321 450 289 C450 264 431 249 404 249 C375 249 351 267 349 294 L249 276 Z " />
<glyph glyph-name="uni2785" unicode="&#x2785;" horiz-adv-x="822" d="M129 354 C129 515 252 643 411 643 C569 643 692 515 692 354 C692 193 569 66 411 66 C252 66 129 193 129 354 L129 354 Z M41 354 C41 150 206 -16 411 -16 C615 -16 781 150 781 354 C781 558 615 725 411 725 C206 725 41 558 41 354 L41 354 Z M549 534 C518 543 488 548 457 548 C334 548 236 469 236 333 C236 229 307 163 400 163 C496 163 561 219 561 298 C561 375 503 414 431 414 C400 414 370 404 349 386 C367 440 417 457 463 457 C489 457 513 452 530 446 L549 534 Z M354 294 C354 320 374 338 400 338 C426 338 447 320 447 294 C447 270 426 252 400 252 C374 252 354 270 354 294 L354 294 Z " />
<glyph glyph-name="uni2786" unicode="&#x2786;" horiz-adv-x="822" d="M129 354 C129 515 252 643 411 643 C569 643 692 515 692 354 C692 193 569 66 411 66 C252 66 129 193 129 354 L129 354 Z M41 354 C41 150 206 -16 411 -16 C615 -16 781 150 781 354 C781 558 615 725 411 725 C206 725 41 558 41 354 L41 354 Z M564 529 L252 529 L252 436 L431 436 C431 436 319 335 308 160 L428 160 C443 325 530 408 564 437 L564 529 Z " />
<glyph glyph-name="uni2787" unicode="&#x2787;" horiz-adv-x="822" d="M129 354 C129 515 252 643 411 643 C569 643 692 515 692 354 C692 193 569 66 411 66 C252 66 129 193 129 354 L129 354 Z M41 354 C41 150 206 -16 411 -16 C615 -16 781 150 781 354 C781 558 615 725 411 725 C206 725 41 558 41 354 L41 354 Z M411 396 C384 397 371 414 371 430 C371 444 383 462 411 462 C439 462 451 444 451 430 C451 414 438 397 411 396 L411 396 Z M411 251 C375 251 362 272 362 290 C362 307 376 326 411 326 C446 326 460 307 460 290 C460 272 447 251 411 251 L411 251 Z M411 165 C515 165 572 211 572 279 C572 319 537 352 496 363 C539 375 561 410 561 446 C561 504 510 550 411 550 C313 550 261 504 261 446 C261 410 284 375 326 363 C283 352 250 318 250 275 C250 209 310 165 411 165 L411 165 Z " />
<glyph glyph-name="uni2788" unicode="&#x2788;" horiz-adv-x="822" d="M129 354 C129 515 252 643 411 643 C569 643 692 515 692 354 C692 193 569 66 411 66 C252 66 129 193 129 354 L129 354 Z M41 354 C41 150 206 -16 411 -16 C615 -16 781 150 781 354 C781 558 615 725 411 725 C206 725 41 558 41 354 L41 354 Z M276 178 C306 169 337 163 367 163 C487 163 581 241 581 380 C581 483 512 551 418 551 C318 551 257 494 257 415 C257 338 324 299 389 299 C421 299 452 309 473 327 C458 270 405 255 355 255 C332 255 309 259 293 266 L276 178 Z M461 419 C461 393 441 376 415 376 C389 376 369 393 369 419 C369 443 389 461 415 461 C441 461 461 443 461 419 L461 419 Z " />
<glyph glyph-name="uniE000" unicode="&#xe000;" horiz-adv-x="711" d="M223 -15 L468 260 L292 260 L292 578 L719 578 L719 709 L161 709 L161 260 L-19 260 L223 -15 Z " />
<glyph glyph-name="uni21B5" unicode="&#xe001;" horiz-adv-x="1125" d="M265 83 L497 354 L327 354 C327 486 435 595 567 595 C606 595 643 586 676 568 L736 684 C686 711 627 725 567 725 C362 725 196 559 196 354 L32 354 L265 83 Z M932 354 L1095 354 L862 625 L630 354 L799 354 C799 222 693 113 562 113 C523 113 486 123 453 140 L393 25 C444 -1 502 -16 562 -16 C767 -16 932 149 932 354 L932 354 Z " />
<glyph glyph-name="uniE002" unicode="&#xe002;" horiz-adv-x="960" d="M478 354 L649 354 C649 222 543 113 412 113 C280 113 172 222 172 354 C172 486 280 595 412 595 C446 595 478 588 506 575 L557 696 C512 715 463 725 412 725 C207 725 41 559 41 354 C41 149 207 -16 412 -16 C617 -16 782 149 782 354 L943 354 L710 625 L478 354 Z " />
<glyph glyph-name="uniFB00" unicode="&#xfb00;" horiz-adv-x="690" d="M677 369 L677 497 L569 497 L569 540 C569 590 607 602 634 602 C656 602 671 599 679 597 L679 722 C665 729 632 732 606 732 C486 732 417 654 417 540 L417 497 L242 497 L242 540 C242 590 281 602 307 602 C330 602 344 599 352 597 L352 721 C338 728 305 732 280 732 C159 732 90 654 90 540 L90 497 L11 497 L11 369 L90 369 L90 0 L242 0 L242 369 L417 369 L417 0 L569 0 L569 369 L677 369 Z " />
<glyph glyph-name="fi" unicode="&#xfb01;" horiz-adv-x="643" d="M425 369 L425 0 L577 0 L577 497 L242 497 L242 540 C242 590 281 602 307 602 C329 602 343 599 350 597 L350 721 C336 728 305 732 280 732 C159 732 90 654 90 540 L90 497 L11 497 L11 369 L90 369 L90 0 L242 0 L242 369 L425 369 Z M412 649 C412 600 452 560 500 560 C550 560 590 600 590 649 C590 699 550 738 500 738 C452 738 412 699 412 649 L412 649 Z " />
<glyph glyph-name="fl" unicode="&#xfb02;" horiz-adv-x="644" d="M307 602 C329 602 343 599 350 597 L350 721 C336 728 305 732 280 732 C159 732 90 654 90 540 L90 497 L11 497 L11 369 L90 369 L90 0 L242 0 L242 369 L424 369 L424 0 L577 0 L577 724 L424 724 L424 497 L242 497 L242 540 C242 590 281 602 307 602 L307 602 Z " />
<glyph glyph-name="uniFB03" unicode="&#xfb03;" horiz-adv-x="973" d="M280 732 C159 732 90 654 90 540 L90 497 L11 497 L11 369 L90 369 L90 0 L242 0 L242 369 L417 369 L417 0 L569 0 L569 369 L755 369 L755 0 L908 0 L908 497 L569 497 L569 540 C569 590 607 602 634 602 C656 602 671 599 679 597 L679 721 C665 728 632 732 606 732 C486 732 417 654 417 540 L417 497 L242 497 L242 540 C242 590 278 602 307 602 C330 602 344 599 352 597 L352 720 C338 727 305 732 280 732 L280 732 Z M742 649 C742 600 782 560 831 560 C881 560 920 600 920 649 C920 699 881 738 831 738 C782 738 742 699 742 649 L742 649 Z " />
<glyph glyph-name="uniFB04" unicode="&#xfb04;" horiz-adv-x="975" d="M307 602 C330 602 344 599 352 597 L352 721 C338 728 305 732 280 732 C159 732 90 654 90 540 L90 497 L11 497 L11 369 L90 369 L90 0 L242 0 L242 369 L417 369 L417 0 L569 0 L569 369 L756 369 L756 0 L908 0 L908 724 L756 724 L756 497 L569 497 L569 540 C569 590 607 602 634 602 C656 602 671 599 679 597 L679 721 C665 728 632 732 606 732 C486 732 417 654 417 540 L417 497 L242 497 L242 540 C242 590 281 602 307 602 L307 602 Z " />
<glyph glyph-name="uniFEFF" unicode="&#xfeff;" d="" />
</font>
</svg>
