<?xml version="1.0" encoding="UTF-8"?>
<svg xmlns="http://www.w3.org/2000/svg" xmlns:xlink="http://www.w3.org/1999/xlink" version="1.2" >
<font id="Circular Std Book Italic">
<font-face  font-family="Circular Std" units-per-em="1000" ascent="809" descent="-191" font-style="italic" font-weight="450" font-stretch="normal" slope="-12" cap-height="709" x-height="481" underline-position="-155" underline-thickness="80" />
<missing-glyph  horiz-adv-x="555" d="M5 0 L550 0 L550 709 L5 709 L5 0 Z M84 79 L84 630 L471 630 L471 79 L84 79 Z " />
<glyph glyph-name=".null" d="" />
<glyph glyph-name="CR" unicode="&#xd;" horiz-adv-x="250" d="" />
<glyph glyph-name="space" unicode="&#x20;" horiz-adv-x="261" d="" />
<glyph glyph-name="uni000D" horiz-adv-x="261" d="" />
<glyph glyph-name="exclam" unicode="&#x21;" horiz-adv-x="304" d="M85 203 L152 203 L284 709 L164 709 L85 203 Z M25 53 C25 20 50 -5 86 -5 C123 -5 157 27 157 68 C157 101 133 126 97 126 C56 126 25 92 25 53 L25 53 Z " />
<glyph glyph-name="quotedbl" unicode="&#x22;" horiz-adv-x="400" d="M125 393 L205 574 C209 584 212 595 212 606 C212 637 190 659 156 659 C114 659 90 627 90 591 L90 393 L125 393 Z M298 393 L378 574 C382 584 385 595 385 606 C385 637 363 659 329 659 C287 659 263 627 263 591 L263 393 L298 393 Z " />
<glyph glyph-name="numbersign" unicode="&#x23;" horiz-adv-x="718" d="M84 405 L212 405 L178 245 L35 245 L35 169 L161 169 L125 0 L209 0 L245 169 L387 169 L351 0 L435 0 L471 169 L624 169 L624 245 L488 245 L522 405 L673 405 L673 481 L538 481 L574 648 L490 648 L454 481 L312 481 L348 648 L264 648 L228 481 L84 481 L84 405 Z M296 405 L438 405 L404 245 L262 245 L296 405 Z " />
<glyph glyph-name="dollar" unicode="&#x24;" horiz-adv-x="565" d="M156 -117 L232 -117 L253 -15 C383 -15 472 73 472 175 C472 247 428 300 346 343 L331 350 L377 571 C440 547 450 489 450 462 L535 479 C535 538 498 625 395 653 L419 766 L343 766 L321 663 C196 662 104 579 104 471 C104 391 149 342 220 305 L243 293 L196 75 C132 96 104 155 104 214 C104 218 104 222 105 231 L16 216 C15 207 15 205 15 203 C15 118 63 21 179 -6 L156 -117 Z M195 482 C195 536 241 578 304 582 L262 386 L259 388 C216 410 195 440 195 482 L195 482 Z M378 168 C377 112 336 74 271 68 L311 258 C355 233 378 203 378 168 L378 168 Z " />
<glyph glyph-name="percent" unicode="&#x25;" horiz-adv-x="768" d="M208 422 C166 422 140 451 140 491 C140 542 180 580 223 580 C266 580 293 553 293 513 C293 458 252 422 208 422 L208 422 Z M200 344 C288 344 376 418 376 516 C376 596 314 659 232 659 C136 659 57 579 57 485 C57 406 117 344 200 344 L200 344 Z M549 74 C507 74 481 103 481 143 C481 194 521 232 564 232 C607 232 634 205 634 165 C634 110 593 74 549 74 L549 74 Z M541 -4 C629 -4 717 70 717 168 C717 248 655 311 573 311 C477 311 398 231 398 137 C398 58 458 -4 541 -4 L541 -4 Z M732 648 L637 648 L31 0 L128 0 L732 648 Z " />
<glyph glyph-name="ampersand" unicode="&#x26;" horiz-adv-x="680" d="M589 0 L484 150 L613 262 L642 398 L435 219 L328 373 L362 392 C426 428 500 476 500 569 C500 654 437 724 328 724 C235 724 134 666 134 544 C134 490 161 447 184 415 L198 396 L180 386 C87 336 13 277 13 169 C13 72 89 -7 203 -7 C284 -7 342 26 404 80 L413 88 L475 0 L589 0 Z M113 175 C113 234 139 268 200 302 L245 327 L364 157 L359 153 C316 116 264 82 214 82 C160 82 113 114 113 175 L113 175 Z M281 440 L257 474 C244 493 231 520 231 548 C231 615 287 640 323 640 C368 640 403 613 403 569 C403 530 386 496 318 460 L281 440 Z " />
<glyph glyph-name="quotesingle" unicode="&#x27;" horiz-adv-x="217" d="M125 393 L205 574 C209 584 212 595 212 606 C212 637 190 659 156 659 C114 659 90 627 90 591 L90 393 L125 393 Z " />
<glyph glyph-name="parenleft" unicode="&#x28;" horiz-adv-x="285" d="M37 201 C37 62 82 -54 141 -146 L208 -109 C152 -13 119 90 119 206 C119 444 236 617 385 726 L340 787 C141 649 37 430 37 201 L37 201 Z " />
<glyph glyph-name="parenright" unicode="&#x29;" horiz-adv-x="285" d="M248 432 C248 566 205 686 144 782 L78 745 C133 649 166 545 166 430 C166 189 50 19 -100 -91 L-55 -151 C140 -10 248 198 248 432 L248 432 Z " />
<glyph glyph-name="asterisk" unicode="&#x2a;" horiz-adv-x="433" d="M325 709 L240 709 L219 574 L105 617 L70 547 L186 506 L83 400 L139 354 L240 462 L303 353 L368 399 L306 502 L438 545 L429 617 L299 575 L325 709 Z " />
<glyph glyph-name="plus" unicode="&#x2b;" horiz-adv-x="567" d="M316 248 L504 248 L504 327 L316 327 L316 522 L234 522 L234 327 L47 327 L47 248 L234 248 L234 51 L316 51 L316 248 Z " />
<glyph glyph-name="comma" unicode="&#x2c;" horiz-adv-x="282" d="M11 55 C11 17 39 -6 73 -6 C82 -6 92 -4 96 -2 C85 -51 36 -96 -19 -106 L-30 -160 C83 -154 167 -55 167 49 C167 102 133 131 91 131 C46 131 11 98 11 55 L11 55 Z " />
<glyph glyph-name="hyphen" unicode="&#x2d;" horiz-adv-x="358" d="M291 246 L308 328 L37 328 L20 246 L291 246 Z " />
<glyph glyph-name="period" unicode="&#x2e;" horiz-adv-x="262" d="M70 -5 C111 -5 147 28 147 72 C147 106 122 134 83 134 C40 134 5 98 5 56 C5 23 31 -5 70 -5 L70 -5 Z " />
<glyph glyph-name="slash" unicode="&#x2f;" horiz-adv-x="459" d="M539 724 L442 724 L-75 -15 L21 -15 L539 724 Z " />
<glyph glyph-name="zero" unicode="0" horiz-adv-x="604" d="M127 239 C127 365 179 574 328 574 C427 574 462 511 462 415 C462 288 409 74 261 74 C166 74 127 142 127 239 L127 239 Z M254 -15 C454 -15 559 210 559 412 C559 542 500 663 335 663 C127 663 30 429 30 240 C30 107 95 -15 254 -15 L254 -15 Z " />
<glyph glyph-name="one" unicode="1" horiz-adv-x="341" d="M174 0 L311 648 L225 648 C195 581 128 537 48 531 L35 468 L177 468 L77 0 L174 0 Z " />
<glyph glyph-name="two" unicode="2" horiz-adv-x="539" d="M-30 0 L437 0 L456 91 L102 91 C122 144 170 179 208 197 L352 265 C453 313 518 382 518 488 C518 584 453 663 313 663 C162 663 73 555 73 428 L73 421 L168 413 L168 421 C168 520 225 579 309 579 C387 579 419 530 419 478 C419 417 377 377 300 340 L179 282 C51 221 -17 121 -30 0 L-30 0 Z " />
<glyph glyph-name="three" unicode="3" horiz-adv-x="541" d="M215 312 C222 314 235 316 246 316 C300 316 363 287 363 208 C363 126 300 71 217 71 C133 71 92 134 92 199 C92 208 92 217 94 226 L-2 215 C-4 205 -4 195 -4 186 C-4 85 73 -15 219 -15 C370 -15 464 96 464 215 C464 318 389 382 307 389 L525 535 L548 648 L111 648 L93 559 L409 559 L178 403 L215 312 Z " />
<glyph glyph-name="four" unicode="4" horiz-adv-x="588" d="M-5 146 L313 146 L285 0 L380 0 L408 146 L529 146 L548 237 L427 237 L517 648 L390 648 L19 262 L-5 146 Z M332 237 L107 237 L399 542 L332 237 Z " />
<glyph glyph-name="five" unicode="5" horiz-adv-x="535" d="M-5 191 C-5 70 83 -15 215 -15 C359 -15 461 96 461 231 C461 351 377 420 261 420 C221 420 190 413 161 396 L239 558 L516 558 L535 648 L188 648 L49 357 L137 301 C164 323 196 337 242 337 C315 337 361 291 361 220 C361 123 291 71 217 71 C127 71 90 137 90 203 C90 208 90 213 91 219 L-4 201 C-5 198 -5 193 -5 191 L-5 191 Z " />
<glyph glyph-name="six" unicode="6" horiz-adv-x="559" d="M562 631 C523 655 463 663 409 663 C169 663 25 452 25 226 C25 69 129 -15 245 -15 C377 -15 502 79 502 238 C502 352 424 429 299 429 C230 429 178 403 147 371 C181 496 276 578 411 578 C453 578 491 570 526 554 L562 631 Z M275 345 C353 345 401 298 401 224 C401 125 327 71 253 71 C181 71 127 123 127 197 C127 283 190 345 275 345 L275 345 Z " />
<glyph glyph-name="seven" unicode="7" horiz-adv-x="483" d="M538 648 L65 648 L46 558 L411 558 C411 558 127 396 25 0 L127 0 C229 347 448 506 518 554 L538 648 Z " />
<glyph glyph-name="eight" unicode="8" horiz-adv-x="556" d="M289 370 C220 370 180 414 180 463 C180 533 232 583 319 583 C386 583 424 539 424 489 C424 417 365 370 289 370 L289 370 Z M104 167 C104 243 168 291 252 291 C334 291 374 245 374 188 C374 114 309 66 230 66 C154 66 104 105 104 167 L104 167 Z M472 187 C472 250 437 307 375 328 C468 352 521 420 521 501 C521 590 450 663 318 663 C191 663 84 586 84 463 C84 407 124 352 166 335 C63 313 5 242 5 160 C5 66 75 -15 222 -15 C363 -15 472 63 472 187 L472 187 Z " />
<glyph glyph-name="nine" unicode="9" horiz-adv-x="560" d="M147 429 C147 526 220 577 292 577 C360 577 414 529 414 454 C414 369 356 308 271 308 C196 308 147 356 147 429 L147 429 Z M-20 38 C23 2 96 -15 160 -15 C397 -15 520 175 520 423 C520 588 423 663 300 663 C170 663 47 572 47 419 C47 298 140 224 248 224 C327 224 377 256 403 295 C390 165 297 73 160 73 C113 73 63 84 20 114 L-20 38 Z " />
<glyph glyph-name="colon" unicode="&#x3a;" horiz-adv-x="290" d="M75 -5 C116 -5 152 28 152 72 C152 106 127 134 88 134 C45 134 10 98 10 56 C10 23 36 -5 75 -5 L75 -5 Z M153 347 C194 347 230 380 230 424 C230 458 205 486 166 486 C123 486 88 450 88 408 C88 375 114 347 153 347 L153 347 Z " />
<glyph glyph-name="semicolon" unicode="&#x3b;" horiz-adv-x="290" d="M3 55 C3 18 29 -4 62 -4 C71 -4 80 -2 84 0 C74 -47 27 -90 -26 -100 L-37 -152 C72 -146 152 -51 152 49 C152 100 120 128 79 128 C36 128 3 96 3 55 L3 55 Z M153 347 C194 347 230 380 230 424 C230 458 205 486 166 486 C123 486 88 450 88 408 C88 375 114 347 153 347 L153 347 Z " />
<glyph glyph-name="less" unicode="&#x3c;" horiz-adv-x="492" d="M25 244 L437 39 L437 134 L127 287 L437 440 L437 535 L25 329 L25 244 Z " />
<glyph glyph-name="equal" unicode="&#x3d;" horiz-adv-x="618" d="M65 346 L528 346 L528 423 L65 423 L65 346 Z M65 151 L528 151 L528 230 L65 230 L65 151 Z " />
<glyph glyph-name="greater" unicode="&#x3e;" horiz-adv-x="492" d="M437 329 L25 535 L25 440 L337 287 L25 134 L25 39 L437 244 L437 329 Z " />
<glyph glyph-name="question" unicode="&#x3f;" horiz-adv-x="502" d="M243 203 C246 248 269 293 312 318 L366 349 C444 393 507 455 507 556 C507 646 438 724 309 724 C161 724 65 628 60 492 L155 479 C155 560 201 636 299 636 C371 636 406 590 406 541 C406 492 379 454 328 424 L277 394 C202 350 163 282 157 203 L243 203 Z M118 53 C118 20 143 -5 179 -5 C216 -5 250 27 250 68 C250 101 226 126 190 126 C149 126 118 92 118 53 L118 53 Z " />
<glyph glyph-name="at" unicode="&#x40;" horiz-adv-x="816" d="M435 -47 C521 -47 623 -13 681 42 L640 96 C580 48 508 26 435 26 C235 26 117 157 117 332 C117 523 248 651 424 651 C593 651 704 542 704 396 C704 296 652 206 596 206 C568 206 558 224 558 247 C558 256 559 265 561 275 L615 526 L536 526 L527 477 C511 519 461 539 420 539 C312 539 220 440 220 306 C220 203 283 135 373 135 C416 135 463 157 493 199 C505 157 545 137 591 137 C695 137 781 248 781 397 C781 584 626 724 423 724 C212 724 35 565 35 333 C35 106 201 -47 435 -47 L435 -47 Z M505 370 C502 276 455 208 387 208 C322 208 302 255 302 316 C302 390 349 464 421 464 C475 464 505 429 505 370 L505 370 Z " />
<glyph glyph-name="A" unicode="A" horiz-adv-x="654" d="M485 0 L584 0 L461 709 L353 709 L-70 0 L41 0 L156 198 L453 198 L485 0 Z M388 599 L438 289 L209 289 L388 599 Z " />
<glyph glyph-name="B" unicode="B" horiz-adv-x="603" d="M165 709 L15 0 L282 0 C423 0 524 94 524 216 C524 286 480 340 421 359 C507 383 563 462 563 547 C563 639 500 709 379 709 L165 709 Z M197 399 L245 623 L355 623 C426 623 464 588 464 532 C464 456 404 399 312 399 L197 399 Z M131 86 L179 315 L309 315 C390 315 423 275 423 220 C423 142 357 86 268 86 L131 86 Z " />
<glyph glyph-name="C" unicode="C" horiz-adv-x="719" d="M417 724 C229 724 35 578 35 301 C35 115 160 -15 335 -15 C488 -15 600 67 658 199 L572 234 C525 128 444 74 344 74 C214 74 135 163 135 307 C135 476 233 634 407 634 C523 634 592 562 611 472 L704 499 C679 623 586 724 417 724 L417 724 Z " />
<glyph glyph-name="D" unicode="D" horiz-adv-x="691" d="M131 87 L245 622 L340 622 C473 622 557 553 557 420 C557 200 408 87 276 87 L131 87 Z M276 0 C464 0 655 146 655 426 C655 598 539 709 358 709 L165 709 L15 0 L276 0 Z " />
<glyph glyph-name="E" unicode="E" horiz-adv-x="576" d="M441 0 L460 91 L132 91 L178 308 L475 308 L495 400 L198 400 L244 618 L572 618 L591 709 L165 709 L15 0 L441 0 Z " />
<glyph glyph-name="F" unicode="F" horiz-adv-x="561" d="M113 0 L176 298 L473 298 L492 390 L195 390 L244 618 L572 618 L591 709 L165 709 L15 0 L113 0 Z " />
<glyph glyph-name="G" unicode="G" horiz-adv-x="740" d="M408 634 C524 634 593 562 612 472 L705 499 C680 623 587 724 418 724 C230 724 35 578 35 301 C35 104 173 -15 336 -15 C429 -15 498 20 550 80 L542 0 L618 0 L691 347 L352 347 L334 259 L580 259 C551 142 447 74 345 74 C215 74 134 163 134 307 C134 480 237 634 408 634 L408 634 Z " />
<glyph glyph-name="H" unicode="H" horiz-adv-x="708" d="M543 0 L693 709 L595 709 L531 406 L199 406 L263 709 L165 709 L15 0 L113 0 L179 315 L511 315 L445 0 L543 0 Z " />
<glyph glyph-name="I" unicode="I" horiz-adv-x="280" d="M115 0 L265 709 L165 709 L15 0 L115 0 Z " />
<glyph glyph-name="J" unicode="J" horiz-adv-x="544" d="M440 709 L331 198 C314 121 276 74 209 74 C140 74 107 119 107 183 C107 198 108 214 112 230 L123 282 L23 267 L18 244 C13 221 10 198 10 177 C10 67 78 -14 206 -14 C330 -14 402 71 429 196 L539 709 L440 709 Z " />
<glyph glyph-name="K" unicode="K" horiz-adv-x="662" d="M465 0 L576 0 L362 397 L717 709 L582 709 L190 365 L263 709 L165 709 L15 0 L113 0 L159 220 L289 334 L465 0 Z " />
<glyph glyph-name="L" unicode="L" horiz-adv-x="538" d="M438 0 L457 92 L132 92 L263 709 L165 709 L15 0 L438 0 Z " />
<glyph glyph-name="M" unicode="M" horiz-adv-x="926" d="M761 0 L911 709 L781 709 L420 139 L280 709 L165 709 L15 0 L112 0 L227 540 L360 0 L434 0 L779 543 L664 0 L761 0 Z " />
<glyph glyph-name="N" unicode="N" horiz-adv-x="738" d="M573 0 L723 709 L625 709 L507 155 L282 709 L165 709 L15 0 L113 0 L235 574 L471 0 L573 0 Z " />
<glyph glyph-name="O" unicode="O" horiz-adv-x="753" d="M35 294 C35 109 157 -15 342 -15 C525 -15 718 131 718 414 C718 601 597 724 412 724 C228 724 35 577 35 294 L35 294 Z M618 404 C618 235 521 75 347 75 C225 75 135 156 135 304 C135 473 232 634 406 634 C528 634 618 552 618 404 L618 404 Z " />
<glyph glyph-name="P" unicode="P" horiz-adv-x="588" d="M165 709 L15 0 L113 0 L175 294 L327 294 C472 294 588 385 588 529 C588 632 513 709 390 709 L165 709 Z M374 622 C448 622 489 582 489 523 C489 433 420 381 327 381 L193 381 L245 622 L374 622 Z " />
<glyph glyph-name="Q" unicode="Q" horiz-adv-x="757" d="M35 294 C35 109 157 -15 342 -15 C400 -15 458 0 512 28 L589 -75 L661 -26 L583 79 C662 150 718 262 718 414 C718 601 597 724 412 724 C228 724 35 577 35 294 L35 294 Z M346 252 L458 101 C426 85 388 75 347 75 C225 75 135 156 135 304 C135 473 232 634 406 634 C528 634 618 552 618 404 C618 308 586 215 528 153 L418 301 L346 252 Z " />
<glyph glyph-name="R" unicode="R" horiz-adv-x="615" d="M412 0 L516 0 L400 301 C511 325 590 408 590 529 C590 632 518 709 395 709 L165 709 L15 0 L113 0 L175 294 L301 294 L412 0 Z M193 381 L245 622 L379 622 C453 622 491 582 491 523 C491 433 425 381 332 381 L193 381 Z " />
<glyph glyph-name="S" unicode="S" horiz-adv-x="581" d="M264 73 C150 73 104 153 104 233 C104 237 104 244 105 253 L6 236 C5 229 5 223 5 221 C5 111 79 -15 264 -15 C406 -15 502 84 502 195 C502 273 458 338 364 382 L267 427 C226 446 201 478 201 525 C201 588 258 637 331 637 C460 637 478 542 478 505 L571 523 C571 602 512 724 339 724 C203 724 101 630 101 512 C101 423 151 364 230 329 L324 287 C378 263 400 225 400 184 C400 118 345 74 264 73 L264 73 Z " />
<glyph glyph-name="T" unicode="T" horiz-adv-x="566" d="M612 619 L631 709 L84 709 L65 619 L294 619 L163 0 L261 0 L392 619 L612 619 Z " />
<glyph glyph-name="U" unicode="U" horiz-adv-x="666" d="M562 709 L460 225 C440 131 380 76 293 76 C197 76 153 126 153 204 C153 221 155 239 159 258 L251 709 L157 709 L64 270 C58 243 56 219 56 196 C56 61 147 -15 288 -15 C426 -15 526 69 557 216 L661 709 L562 709 Z " />
<glyph glyph-name="V" unicode="V" horiz-adv-x="608" d="M173 709 L75 709 L180 0 L277 0 L683 709 L578 709 L253 126 L173 709 Z " />
<glyph glyph-name="W" unicode="W" horiz-adv-x="952" d="M495 709 L224 154 L185 709 L90 709 L145 0 L245 0 L525 575 L588 0 L685 0 L1012 709 L913 709 L661 148 L598 709 L495 709 Z " />
<glyph glyph-name="X" unicode="X" horiz-adv-x="627" d="M299 270 L420 0 L528 0 L367 348 L682 709 L559 709 L324 434 L201 709 L94 709 L256 356 L-55 0 L67 0 L299 270 Z " />
<glyph glyph-name="Y" unicode="Y" horiz-adv-x="611" d="M257 305 L193 0 L291 0 L353 299 L666 709 L549 709 L321 398 L198 709 L95 709 L257 305 Z " />
<glyph glyph-name="Z" unicode="Z" horiz-adv-x="614" d="M499 0 L518 91 L112 91 L624 616 L644 709 L130 709 L111 619 L500 619 L-10 96 L-30 0 L499 0 Z " />
<glyph glyph-name="bracketleft" unicode="&#x5b;" horiz-adv-x="288" d="M176 -148 L192 -74 L76 -74 L242 710 L358 710 L374 785 L181 785 L-17 -148 L176 -148 Z " />
<glyph glyph-name="backslash" unicode="&#x5c;" horiz-adv-x="429" d="M278 -15 L364 -15 L151 724 L65 724 L278 -15 Z " />
<glyph glyph-name="bracketright" unicode="&#x5d;" horiz-adv-x="288" d="M91 -148 L289 785 L96 785 L80 710 L196 710 L30 -74 L-85 -74 L-101 -148 L91 -148 Z " />
<glyph glyph-name="asciicircum" unicode="&#x5e;" horiz-adv-x="556" d="M249 710 L55 354 L154 354 L291 612 L427 354 L526 354 L332 710 L249 710 Z " />
<glyph glyph-name="underscore" unicode="&#x5f;" horiz-adv-x="532" d="M-60 -79 L452 -79 L452 0 L-60 0 L-60 -79 Z " />
<glyph glyph-name="grave" unicode="&#x60;" horiz-adv-x="208" d="M159 543 L233 543 L177 689 L65 689 L159 543 Z " />
<glyph glyph-name="a" unicode="a" horiz-adv-x="567" d="M266 414 C344 414 378 359 378 290 C378 166 311 71 219 71 C142 71 105 126 105 202 C105 299 161 414 266 414 L266 414 Z M424 481 L411 420 C390 458 342 495 261 495 C112 495 10 357 10 201 C10 83 75 -10 200 -10 C259 -10 310 21 343 61 C341 46 341 35 341 28 C341 15 342 5 343 0 L432 0 C431 8 431 13 431 16 C431 36 431 75 442 125 L517 481 L424 481 Z " />
<glyph glyph-name="b" unicode="b" horiz-adv-x="564" d="M83 0 L100 79 C123 23 182 -13 252 -13 C404 -13 508 118 508 287 C508 401 446 495 321 495 C263 495 211 477 176 441 L236 724 L143 724 L-10 0 L83 0 Z M286 412 C366 412 412 362 412 277 C412 144 332 71 246 71 C172 74 129 129 129 205 C129 331 204 412 286 412 L286 412 Z " />
<glyph glyph-name="c" unicode="c" horiz-adv-x="498" d="M468 344 C451 412 399 496 268 496 C123 496 5 378 5 207 C5 81 89 -15 227 -15 C339 -15 408 53 445 125 L365 160 C343 116 305 69 231 69 C152 69 100 123 100 208 C100 344 180 412 262 412 C333 412 369 365 381 314 L468 344 Z " />
<glyph glyph-name="d" unicode="d" horiz-adv-x="567" d="M266 414 C344 414 378 359 378 290 C378 166 311 71 219 71 C142 71 105 126 105 202 C105 299 161 414 266 414 L266 414 Z M343 61 C341 44 341 35 341 28 C341 15 342 5 343 0 L432 0 C431 8 431 13 431 16 C431 36 431 75 442 125 L568 724 L475 724 L411 420 C390 458 342 495 261 495 C112 495 10 357 10 201 C10 83 75 -10 200 -10 C259 -10 312 21 343 61 L343 61 Z " />
<glyph glyph-name="e" unicode="e" horiz-adv-x="528" d="M118 290 C135 353 188 413 269 413 C349 413 376 358 376 310 C376 302 375 294 374 290 L118 290 Z M459 214 C464 230 473 263 473 302 C473 416 404 496 274 496 C140 496 10 386 10 204 C10 60 109 -15 228 -15 C328 -15 405 39 439 102 L368 148 C346 109 301 68 226 68 C159 68 104 118 104 197 C104 203 104 207 105 214 L459 214 Z " />
<glyph glyph-name="f" unicode="f" horiz-adv-x="332" d="M331 643 C351 643 366 637 371 635 L389 715 C386 717 363 729 325 729 C266 729 180 711 153 581 L132 481 L51 481 L33 398 L114 398 L30 0 L127 0 L211 398 L320 398 L338 481 L229 481 L247 566 C260 625 291 643 331 643 L331 643 Z " />
<glyph glyph-name="g" unicode="g" horiz-adv-x="565" d="M378 293 C378 175 317 102 226 102 C145 102 107 160 107 231 C107 343 174 409 260 409 C344 409 378 347 378 293 L378 293 Z M-47 -29 C-47 -118 21 -205 154 -205 C333 -205 399 -77 425 46 L515 481 L419 481 L406 417 C379 464 324 491 257 491 C113 491 12 374 12 225 C12 112 83 23 207 23 C268 23 314 50 335 82 L327 43 C305 -63 251 -123 158 -123 C79 -123 42 -74 42 -15 L42 -8 L-47 -29 Z " />
<glyph glyph-name="h" unicode="h" horiz-adv-x="555" d="M409 0 L474 305 C477 321 479 337 479 351 C479 439 420 495 331 495 C275 495 228 480 193 441 L253 724 L159 724 L5 0 L99 0 L159 280 C173 345 217 412 293 412 C351 412 381 381 381 328 C381 316 380 304 377 291 L315 0 L409 0 Z " />
<glyph glyph-name="i" unicode="i" horiz-adv-x="257" d="M125 659 C125 626 150 599 186 599 C222 599 260 632 260 673 C260 706 235 733 199 733 C163 733 125 701 125 659 L125 659 Z M99 0 L202 481 L108 481 L5 0 L99 0 Z " />
<glyph glyph-name="j" unicode="j" horiz-adv-x="256" d="M-8 -57 C-18 -102 -36 -122 -78 -122 C-96 -122 -112 -117 -115 -116 L-131 -191 C-124 -195 -99 -205 -63 -205 C10 -205 65 -159 82 -79 L201 481 L108 481 L-8 -57 Z M125 659 C125 626 150 599 186 599 C222 599 260 632 260 673 C260 706 235 733 199 733 C163 733 125 701 125 659 L125 659 Z " />
<glyph glyph-name="k" unicode="k" horiz-adv-x="527" d="M336 0 L441 0 L299 287 L537 481 L397 481 L158 284 L252 724 L159 724 L5 0 L98 0 L129 148 L227 228 L336 0 Z " />
<glyph glyph-name="l" unicode="l" horiz-adv-x="255" d="M99 0 L253 724 L159 724 L5 0 L99 0 Z " />
<glyph glyph-name="m" unicode="m" horiz-adv-x="828" d="M390 0 L452 291 C467 360 506 413 572 413 C630 413 655 378 655 335 C655 325 653 313 651 302 L587 0 L680 0 L747 312 C750 328 752 343 752 357 C752 447 687 495 612 495 C555 495 497 481 447 418 C428 464 385 495 327 495 C265 495 223 473 188 431 C192 455 193 479 193 481 L101 481 C101 475 98 436 89 396 L5 0 L98 0 L160 290 C175 362 214 413 281 413 C339 413 364 379 364 334 C364 324 362 313 360 302 L296 0 L390 0 Z " />
<glyph glyph-name="n" unicode="n" horiz-adv-x="555" d="M409 0 L474 305 C477 321 479 337 479 351 C479 439 420 495 336 495 C278 495 224 478 187 428 C191 450 193 477 193 481 L101 481 C101 479 99 441 89 396 L5 0 L99 0 L159 280 C173 345 217 412 293 412 C351 412 381 381 381 328 C381 313 379 301 377 291 L315 0 L409 0 Z " />
<glyph glyph-name="o" unicode="o" horiz-adv-x="541" d="M267 412 C344 412 390 356 390 273 C390 142 311 69 228 69 C154 69 106 124 106 209 C106 340 185 412 267 412 L267 412 Z M486 275 C486 396 412 496 273 496 C123 496 10 372 10 207 C10 86 88 -15 224 -15 C374 -15 486 113 486 275 L486 275 Z " />
<glyph glyph-name="p" unicode="p" horiz-adv-x="565" d="M291 409 C369 409 413 362 413 277 C413 146 332 71 251 71 C177 71 131 120 131 205 C131 336 209 409 291 409 L291 409 Z M173 426 C178 450 179 475 179 481 L87 481 C87 473 84 439 75 396 L-50 -190 L43 -190 L99 74 C127 20 191 -13 257 -13 C409 -13 509 118 509 288 C509 402 451 494 326 494 C267 494 209 471 173 426 L173 426 Z " />
<glyph glyph-name="q" unicode="q" horiz-adv-x="565" d="M515 481 L422 481 L410 422 C387 459 336 494 257 494 C108 494 5 357 5 201 C5 86 75 -10 200 -10 C252 -10 297 12 330 46 L280 -190 L373 -190 L515 481 Z M262 412 C343 412 378 358 378 285 C378 165 313 71 221 71 C140 71 100 128 100 202 C100 301 157 412 262 412 L262 412 Z " />
<glyph glyph-name="r" unicode="r" horiz-adv-x="364" d="M347 384 L369 487 C362 488 351 489 342 489 C289 489 223 470 184 406 C189 423 193 460 193 481 L101 481 C101 475 98 440 89 396 L5 0 L98 0 L147 228 C171 340 236 387 313 387 C324 387 335 386 347 384 L347 384 Z " />
<glyph glyph-name="s" unicode="s" horiz-adv-x="441" d="M-10 150 C-10 81 41 -15 173 -15 C301 -15 349 74 349 136 C349 193 313 241 249 270 L183 300 C159 311 145 327 145 354 C145 387 173 417 221 417 C290 417 311 371 317 334 L401 357 C396 408 356 496 230 496 C120 496 54 421 54 340 C54 285 85 243 140 218 L210 186 C240 172 255 153 255 129 C255 97 231 65 178 65 C113 65 74 112 73 169 L-10 150 Z " />
<glyph glyph-name="t" unicode="t" horiz-adv-x="337" d="M59 101 C59 34 105 -5 175 -5 C204 -5 221 0 226 2 L242 79 C234 78 221 77 210 77 C174 77 156 90 156 120 C156 127 157 134 159 143 L212 396 L309 396 L327 481 L230 481 L263 633 L177 633 L161 559 C151 511 119 481 62 481 L48 481 L30 396 L118 396 L63 138 C60 125 59 113 59 101 L59 101 Z " />
<glyph glyph-name="u" unicode="u" horiz-adv-x="544" d="M318 56 C317 43 317 33 317 28 C317 15 318 5 319 0 L409 0 C408 8 408 13 408 16 C408 36 408 75 419 125 L494 481 L401 481 L342 200 C328 132 285 70 213 70 C150 70 128 107 128 156 C128 171 130 186 133 202 L192 481 L98 481 L38 200 C34 181 32 162 32 145 C32 52 88 -10 187 -10 C232 -10 286 11 318 56 L318 56 Z " />
<glyph glyph-name="v" unicode="v" horiz-adv-x="482" d="M497 481 L391 481 L185 113 L132 481 L35 481 L121 0 L212 0 L497 481 Z " />
<glyph glyph-name="w" unicode="w" horiz-adv-x="768" d="M349 481 L161 123 L130 481 L40 481 L89 0 L188 0 L378 364 L426 0 L523 0 L778 481 L675 481 L494 122 L448 481 L349 481 Z " />
<glyph glyph-name="x" unicode="x" horiz-adv-x="495" d="M215 174 L306 0 L409 0 C364 81 322 162 278 243 L505 481 L385 481 L233 314 C204 370 175 425 147 481 L44 481 L170 246 L-65 0 L56 0 L215 174 Z " />
<glyph glyph-name="y" unicode="y" horiz-adv-x="504" d="M78 -190 L519 481 L408 481 L220 179 L135 481 L33 481 L151 83 L-30 -190 L78 -190 Z " />
<glyph glyph-name="z" unicode="z" horiz-adv-x="473" d="M359 0 L377 85 L108 85 L435 396 L453 481 L81 481 L63 396 L315 396 L-12 84 L-30 0 L359 0 Z " />
<glyph glyph-name="braceleft" unicode="&#x7b;" horiz-adv-x="353" d="M28 274 C73 274 120 259 120 203 C120 194 119 185 117 175 L87 37 C82 15 80 -5 80 -23 C80 -104 127 -148 228 -148 L242 -148 L258 -74 L245 -74 C185 -74 160 -50 160 -2 C160 10 161 25 165 41 L196 187 C198 198 199 208 199 218 C199 272 166 307 121 318 C191 327 236 373 250 440 L285 605 C299 675 328 710 409 710 L423 710 L439 785 L416 785 C292 785 234 735 206 599 L177 461 C162 387 104 361 46 361 L28 274 Z " />
<glyph glyph-name="bar" unicode="&#x7c;" horiz-adv-x="262" d="M65 -148 L263 785 L181 785 L-17 -148 L65 -148 Z " />
<glyph glyph-name="braceright" unicode="&#x7d;" horiz-adv-x="354" d="M310 360 C260 360 217 380 217 433 C217 441 219 451 221 461 L255 612 C260 633 262 652 262 669 C262 750 210 785 120 785 L97 785 L81 710 L100 710 C160 710 181 692 181 651 C181 638 179 623 175 605 L140 440 C138 431 137 422 137 414 C137 367 168 331 219 321 C152 307 103 267 90 205 L55 41 C41 -25 3 -74 -73 -74 L-85 -74 L-101 -148 L-87 -148 C36 -148 104 -88 131 37 L161 175 C178 255 240 273 292 273 L310 360 Z " />
<glyph glyph-name="asciitilde" unicode="&#x7e;" horiz-adv-x="640" d="M498 351 C476 316 442 296 405 296 C387 296 367 301 348 312 L302 337 C270 355 237 363 207 363 C146 363 92 329 55 268 L112 222 C138 257 171 279 208 279 C225 279 243 274 262 264 L308 239 C341 221 374 212 405 212 C465 212 518 244 555 305 L498 351 Z " />
<glyph glyph-name="uni00A0" unicode="&#xa0;" horiz-adv-x="261" d="" />
<glyph glyph-name="exclamdown" unicode="&#xa1;" horiz-adv-x="254" d="M154 288 L87 288 L-45 -218 L75 -218 L154 288 Z M214 438 C214 471 189 496 153 496 C116 496 82 464 82 423 C82 390 106 365 142 365 C183 365 214 399 214 438 L214 438 Z " />
<glyph glyph-name="cent" unicode="&#xa2;" horiz-adv-x="554" d="M170 0 L246 0 L263 82 C372 82 440 146 476 215 L398 248 C377 209 344 171 281 165 L347 476 C385 461 405 429 413 394 L499 423 C485 475 448 539 364 560 L383 648 L307 648 L290 567 C154 561 45 450 45 293 C45 198 99 119 189 92 L170 0 Z M138 294 C138 409 200 471 272 483 L207 176 C164 195 138 236 138 294 L138 294 Z " />
<glyph glyph-name="sterling" unicode="&#xa3;" horiz-adv-x="597" d="M64 273 L166 273 C162 201 118 132 20 104 L0 0 L342 0 C446 0 525 66 545 179 L457 197 C447 137 406 87 338 87 L128 87 C209 122 258 192 262 273 L429 273 L447 359 L254 359 C248 391 241 422 241 453 C241 534 287 577 352 577 C412 577 442 536 442 489 C442 478 441 468 439 457 L532 471 C534 478 536 491 536 504 C536 603 467 663 356 663 C229 663 145 567 145 447 C145 418 150 391 156 359 L82 359 L64 273 Z " />
<glyph glyph-name="currency" unicode="&#xa4;" horiz-adv-x="579" d="M73 239 C73 195 86 155 108 121 L35 45 L94 -14 L167 62 C201 39 242 25 286 25 C327 25 367 37 400 58 L470 -14 L529 45 L461 116 C486 151 500 193 500 239 C500 286 484 329 459 364 L529 437 L469 496 L397 422 C364 442 326 453 286 453 C244 453 204 440 170 418 L95 496 L35 437 L110 359 C87 325 73 284 73 239 L73 239 Z M156 239 C156 316 214 370 286 370 C358 370 414 316 414 239 C414 161 358 107 286 107 C214 107 156 161 156 239 L156 239 Z " />
<glyph glyph-name="yen" unicode="&#xa5;" horiz-adv-x="583" d="M73 306 L241 306 L224 226 L56 226 L40 154 L209 154 L177 0 L274 0 L306 154 L474 154 L490 226 L321 226 L338 306 L507 306 L522 377 L400 377 L613 648 L500 648 L306 386 L214 648 L104 648 L210 377 L88 377 L73 306 Z " />
<glyph glyph-name="brokenbar" unicode="&#xa6;" horiz-adv-x="262" d="M179 386 L263 785 L181 785 L97 386 L179 386 Z M65 -148 L150 251 L68 251 L-17 -148 L65 -148 Z " />
<glyph glyph-name="section" unicode="&#xa7;" horiz-adv-x="567" d="M4 -8 C1 -24 0 -39 0 -53 C0 -142 63 -215 185 -215 C295 -215 402 -144 402 -23 C402 22 380 70 341 103 C388 117 455 171 455 253 C455 322 404 363 349 403 L259 468 C231 488 216 514 216 543 C216 606 271 646 330 646 C397 646 430 606 430 550 C430 538 428 524 425 510 L518 519 C521 534 522 548 522 562 C522 650 461 724 336 724 C227 724 120 651 120 533 C120 485 141 439 182 406 C137 391 67 344 67 261 C67 192 116 147 172 107 L263 42 C289 23 304 -3 304 -33 C304 -101 249 -137 193 -137 C123 -137 91 -96 91 -39 C91 -27 93 -14 96 0 L4 -8 Z M316 307 C348 283 362 260 362 231 C362 184 321 146 292 139 L205 203 C173 226 160 250 160 278 C160 326 199 363 229 371 L316 307 Z " />
<glyph glyph-name="dieresis" unicode="&#xa8;" horiz-adv-x="352" d="M65 614 C65 586 87 563 116 563 C149 563 182 589 182 626 C182 654 161 679 129 679 C94 679 65 649 65 614 L65 614 Z M260 614 C260 586 282 563 311 563 C344 563 377 589 377 626 C377 654 356 679 324 679 C289 679 260 649 260 614 L260 614 Z " />
<glyph glyph-name="copyright" unicode="&#xa9;" horiz-adv-x="826" d="M40 355 C40 152 202 -15 404 -15 C607 -15 771 152 771 355 C771 558 607 724 404 724 C202 724 40 558 40 355 L40 355 Z M118 355 C118 523 244 651 404 651 C564 651 690 523 690 355 C690 187 564 58 404 58 C244 58 118 187 118 355 L118 355 Z M593 441 C579 497 536 566 429 566 C310 566 213 469 213 329 C213 225 282 147 395 147 C487 147 544 202 574 261 L509 290 C491 254 459 216 399 216 C334 216 291 260 291 330 C291 441 357 497 424 497 C482 497 512 458 522 416 L593 441 Z " />
<glyph glyph-name="ordfeminine" unicode="&#xaa;" horiz-adv-x="463" d="M242 592 C292 592 316 557 316 510 C316 427 271 367 212 367 C162 367 136 402 136 453 C136 518 173 592 242 592 L242 592 Z M349 648 L341 606 C327 630 296 658 237 658 C134 658 61 564 61 452 C61 369 108 302 195 302 C238 302 271 325 292 352 C291 341 291 333 291 330 C291 325 291 316 292 309 L362 309 L362 331 C362 351 365 374 369 392 L422 648 L349 648 Z " />
<glyph glyph-name="guillemotleft" unicode="&#xab;" horiz-adv-x="477" d="M206 99 L113 284 L289 481 L186 481 L15 293 L113 99 L206 99 Z M399 99 L306 284 L482 481 L379 481 L208 293 L306 99 L399 99 Z " />
<glyph glyph-name="logicalnot" unicode="&#xac;" horiz-adv-x="618" d="M523 149 L523 426 L60 426 L60 344 L439 344 L439 149 L523 149 Z " />
<glyph glyph-name="uni00AD" unicode="&#xad;" horiz-adv-x="358" d="M291 246 L308 328 L37 328 L20 246 L291 246 Z " />
<glyph glyph-name="registered" unicode="&#xae;" horiz-adv-x="826" d="M40 355 C40 152 202 -15 404 -15 C607 -15 771 152 771 355 C771 558 607 724 404 724 C202 724 40 558 40 355 L40 355 Z M118 355 C118 523 244 651 404 651 C564 651 690 523 690 355 C690 187 564 58 404 58 C244 58 118 187 118 355 L118 355 Z M368 367 L397 494 L447 494 C489 494 510 476 510 443 C510 392 474 367 421 367 L368 367 Z M457 157 L531 157 L466 312 C535 324 584 375 584 446 C584 504 539 558 469 558 L337 558 L252 157 L325 157 L356 306 L398 306 L457 157 Z " />
<glyph glyph-name="macron" unicode="&#xaf;" horiz-adv-x="330" d="M338 577 L355 658 L82 658 L65 577 L338 577 Z " />
<glyph glyph-name="degree" unicode="&#xb0;" horiz-adv-x="399" d="M206 426 C164 426 138 455 138 495 C138 546 178 584 221 584 C264 584 291 557 291 517 C291 462 250 426 206 426 L206 426 Z M198 348 C286 348 374 422 374 520 C374 600 312 663 230 663 C134 663 55 583 55 489 C55 410 115 348 198 348 L198 348 Z " />
<glyph glyph-name="plusminus" unicode="&#xb1;" horiz-adv-x="592" d="M324 309 L502 309 L502 386 L324 386 L324 522 L242 522 L242 386 L65 386 L65 309 L242 309 L242 175 L324 175 L324 309 Z M65 51 L502 51 L502 130 L65 130 L65 51 Z " />
<glyph glyph-name="twosuperior" unicode="&#xb2;" horiz-adv-x="381" d="M170 510 C96 477 58 422 50 344 L324 344 L338 409 L154 409 C160 423 171 438 196 449 L272 482 C330 507 368 549 368 607 C368 664 325 715 241 715 C158 715 98 665 98 574 L173 574 C173 627 200 651 239 651 C273 651 290 626 290 603 C290 575 272 555 233 538 L170 510 Z " />
<glyph glyph-name="threesuperior" unicode="&#xb3;" horiz-adv-x="425" d="M198 515 C203 517 214 519 222 519 C253 519 281 500 281 467 C281 425 249 403 209 403 C171 403 145 432 145 465 C145 469 145 472 146 476 L77 471 C76 466 75 458 75 452 C75 380 137 337 210 337 C303 337 357 401 357 469 C357 518 320 559 272 568 L386 635 L400 709 L140 709 L126 644 L286 644 L172 575 L198 515 Z " />
<glyph glyph-name="acute" unicode="&#xb4;" horiz-adv-x="279" d="M304 689 L180 689 L65 543 L149 543 L304 689 Z " />
<glyph glyph-name="mu" unicode="&#xb5;" horiz-adv-x="577" d="M65 -190 L159 -190 L159 5 C184 -8 213 -15 246 -15 C302 -15 362 8 388 58 C388 38 390 11 392 0 L482 0 C481 8 477 42 477 89 L477 481 L383 481 L383 191 C383 118 345 68 269 68 C190 68 160 126 160 192 L160 481 L65 481 L65 -190 Z " />
<glyph glyph-name="paragraph" unicode="&#xb6;" horiz-adv-x="626" d="M381 628 L474 628 L298 -201 L381 -201 L557 628 L654 628 L671 709 L331 709 C197 709 60 628 60 480 C60 389 130 321 224 321 L233 321 L122 -201 L205 -201 L381 628 Z " />
<glyph glyph-name="periodcentered" unicode="&#xb7;" horiz-adv-x="272" d="M55 276 C55 243 81 215 120 215 C161 215 197 248 197 292 C197 326 172 354 133 354 C90 354 55 318 55 276 L55 276 Z " />
<glyph glyph-name="cedilla" unicode="&#xb8;" horiz-adv-x="294" d="M70 14 L-6 -52 L16 -94 C21 -93 27 -93 30 -93 C56 -93 73 -106 73 -126 C73 -150 50 -161 27 -161 C-19 -161 -38 -127 -44 -113 L-96 -145 C-85 -175 -42 -216 28 -216 C96 -216 143 -176 143 -124 C143 -89 120 -58 75 -52 L154 14 L70 14 Z " />
<glyph glyph-name="onesuperior" unicode="&#xb9;" horiz-adv-x="290" d="M176 344 L255 709 L187 709 C172 673 134 647 85 645 L75 594 L155 594 L99 344 L176 344 Z " />
<glyph glyph-name="ordmasculine" unicode="&#xba;" horiz-adv-x="455" d="M243 591 C294 591 324 555 324 500 C324 413 271 366 217 366 C169 366 137 401 137 458 C137 541 187 591 243 591 L243 591 Z M400 502 C400 588 346 659 248 659 C143 659 61 573 61 455 C61 369 118 299 214 299 C321 299 400 389 400 502 L400 502 Z " />
<glyph glyph-name="guillemotright" unicode="&#xbb;" horiz-adv-x="492" d="M48 481 L141 296 L-35 99 L68 99 L239 287 L141 481 L48 481 Z M256 481 L349 296 L173 99 L276 99 L447 287 L349 481 L256 481 Z " />
<glyph glyph-name="onequarter" unicode="&#xbc;" horiz-adv-x="796" d="M369 76 L542 76 L526 0 L602 0 C617 72 618 75 618 76 L682 76 L696 141 L631 141 L679 365 L591 365 L385 161 L369 76 Z M555 141 L448 141 L586 278 L555 141 Z M190 283 L269 648 L201 648 C186 612 148 586 99 584 L89 533 L169 533 L113 283 L190 283 Z M716 648 L621 648 L15 0 L112 0 L716 648 Z " />
<glyph glyph-name="onehalf" unicode="&#xbd;" horiz-adv-x="815" d="M716 648 L621 648 L15 0 L112 0 L716 648 Z M190 283 L269 648 L201 648 C186 612 148 586 99 584 L89 533 L169 533 L113 283 L190 283 Z M547 166 C473 133 435 78 427 0 L701 0 L715 65 L531 65 C537 79 548 94 573 105 L649 138 C707 163 745 205 745 263 C745 320 702 371 618 371 C535 371 475 321 475 230 L550 230 C550 283 577 307 616 307 C650 307 667 282 667 259 C667 231 649 211 610 194 L547 166 Z " />
<glyph glyph-name="threequarters" unicode="&#xbe;" horiz-adv-x="884" d="M457 76 L630 76 L614 0 L690 0 C705 72 706 75 706 76 L770 76 L784 141 L719 141 L767 365 L679 365 L473 161 L457 76 Z M643 141 L536 141 L674 278 L643 141 Z M804 648 L709 648 L103 0 L200 0 L804 648 Z M178 454 C183 456 194 458 202 458 C233 458 261 439 261 406 C261 364 229 342 189 342 C151 342 125 371 125 404 C125 408 125 411 126 415 L57 410 C56 405 55 397 55 391 C55 319 117 276 190 276 C283 276 337 340 337 408 C337 457 300 498 252 507 L366 574 L380 648 L120 648 L106 583 L266 583 L152 514 L178 454 Z " />
<glyph glyph-name="questiondown" unicode="&#xbf;" horiz-adv-x="457" d="M201 288 C198 243 178 199 132 173 L78 142 C0 98 -60 36 -60 -65 C-60 -153 9 -233 138 -233 C286 -233 382 -137 387 -1 L292 12 C292 -69 246 -145 148 -145 C73 -145 41 -99 41 -50 C41 -1 66 38 116 67 L167 97 C247 144 281 209 287 288 L201 288 Z M326 438 C326 471 301 496 265 496 C228 496 194 464 194 423 C194 390 218 365 254 365 C295 365 326 399 326 438 L326 438 Z " />
<glyph glyph-name="Agrave" unicode="&#xc0;" horiz-adv-x="654" d="M485 0 L584 0 L461 709 L353 709 L-70 0 L41 0 L156 198 L453 198 L485 0 Z M388 599 L438 289 L209 289 L388 599 Z M373 759 L459 759 L384 878 L266 878 L373 759 Z " />
<glyph glyph-name="Aacute" unicode="&#xc1;" horiz-adv-x="654" d="M485 0 L584 0 L461 709 L353 709 L-70 0 L41 0 L156 198 L453 198 L485 0 Z M388 599 L438 289 L209 289 L388 599 Z M616 878 L485 878 L366 759 L463 759 L616 878 Z " />
<glyph glyph-name="Acircumflex" unicode="&#xc2;" horiz-adv-x="654" d="M485 0 L584 0 L461 709 L353 709 L-70 0 L41 0 L156 198 L453 198 L485 0 Z M388 599 L438 289 L209 289 L388 599 Z M323 759 L424 823 L498 759 L581 759 L491 878 L371 878 L236 759 L323 759 Z " />
<glyph glyph-name="Atilde" unicode="&#xc3;" horiz-adv-x="654" d="M485 0 L584 0 L461 709 L353 709 L-70 0 L41 0 L156 198 L453 198 L485 0 Z M388 599 L438 289 L209 289 L388 599 Z M586 881 L517 881 C511 849 497 837 478 837 C463 837 452 843 440 851 L428 859 C411 871 386 883 358 883 C303 883 254 848 244 757 L314 757 C320 789 334 801 353 801 C368 801 379 795 391 787 L403 779 C420 767 445 755 473 755 C528 755 570 786 586 881 L586 881 Z " />
<glyph glyph-name="Adieresis" unicode="&#xc4;" horiz-adv-x="654" d="M215 813 C215 782 238 760 268 760 C302 760 333 787 333 826 C333 855 312 878 281 878 C244 878 215 851 215 813 L215 813 Z M503 813 C503 782 526 760 556 760 C590 760 621 787 621 826 C621 855 600 878 569 878 C532 878 503 851 503 813 L503 813 Z M485 0 L584 0 L461 709 L353 709 L-70 0 L41 0 L156 198 L453 198 L485 0 Z M388 599 L438 289 L209 289 L388 599 Z " />
<glyph glyph-name="Aring" unicode="&#xc5;" horiz-adv-x="654" d="M410 811 C439 811 459 791 459 764 C459 731 432 709 402 709 C373 709 354 727 354 756 C354 789 383 811 410 811 L410 811 Z M388 599 L438 289 L209 289 L388 599 Z M485 0 L584 0 L469 661 C506 685 531 727 531 770 C531 830 482 880 418 880 C351 880 284 826 284 747 C284 713 300 683 326 663 L-70 0 L41 0 L156 198 L453 198 L485 0 Z " />
<glyph glyph-name="AE" unicode="&#xc6;" horiz-adv-x="1019" d="M575 91 L621 308 L918 308 L938 400 L641 400 L687 618 L1015 618 L1034 709 L545 709 L-70 0 L54 0 L217 191 L498 191 L458 0 L884 0 L903 91 L575 91 Z M292 279 L591 629 L517 279 L292 279 Z " />
<glyph glyph-name="Ccedilla" unicode="&#xc7;" horiz-adv-x="719" d="M231 -52 L253 -94 C258 -93 264 -93 267 -93 C291 -93 310 -106 310 -126 C310 -150 287 -161 264 -161 C218 -161 199 -127 193 -113 L141 -145 C153 -172 195 -216 265 -216 C333 -216 380 -176 380 -124 C380 -89 357 -58 312 -52 L357 -14 C498 -7 603 73 658 199 L572 234 C525 128 444 74 344 74 C214 74 135 163 135 307 C135 476 233 634 407 634 C523 634 592 562 611 472 L704 499 C679 623 586 724 417 724 C229 724 35 578 35 301 C35 135 134 14 279 -10 L231 -52 Z " />
<glyph glyph-name="Egrave" unicode="&#xc8;" horiz-adv-x="576" d="M441 0 L460 91 L132 91 L178 308 L475 308 L495 400 L198 400 L244 618 L572 618 L591 709 L165 709 L15 0 L441 0 Z M367 759 L453 759 L378 878 L260 878 L367 759 Z " />
<glyph glyph-name="Eacute" unicode="&#xc9;" horiz-adv-x="576" d="M441 0 L460 91 L132 91 L178 308 L475 308 L495 400 L198 400 L244 618 L572 618 L591 709 L165 709 L15 0 L441 0 Z M562 878 L431 878 L312 759 L409 759 L562 878 Z " />
<glyph glyph-name="Ecircumflex" unicode="&#xca;" horiz-adv-x="576" d="M441 0 L460 91 L132 91 L178 308 L475 308 L495 400 L198 400 L244 618 L572 618 L591 709 L165 709 L15 0 L441 0 Z M302 759 L403 823 L477 759 L560 759 L470 878 L350 878 L215 759 L302 759 Z " />
<glyph glyph-name="Edieresis" unicode="&#xcb;" horiz-adv-x="576" d="M221 813 C221 782 244 760 274 760 C308 760 339 787 339 826 C339 855 318 878 287 878 C250 878 221 851 221 813 L221 813 Z M451 813 C451 782 474 760 504 760 C538 760 569 787 569 826 C569 855 548 878 517 878 C480 878 451 851 451 813 L451 813 Z M441 0 L460 91 L132 91 L178 308 L475 308 L495 400 L198 400 L244 618 L572 618 L591 709 L165 709 L15 0 L441 0 Z " />
<glyph glyph-name="Igrave" unicode="&#xcc;" horiz-adv-x="280" d="M196 759 L282 759 L207 878 L89 878 L196 759 Z M115 0 L265 709 L165 709 L15 0 L115 0 Z " />
<glyph glyph-name="Iacute" unicode="&#xcd;" horiz-adv-x="280" d="M428 878 L297 878 L178 759 L275 759 L428 878 Z M115 0 L265 709 L165 709 L15 0 L115 0 Z " />
<glyph glyph-name="Icircumflex" unicode="&#xce;" horiz-adv-x="280" d="M138 759 L239 823 L313 759 L396 759 L306 878 L186 878 L51 759 L138 759 Z M115 0 L265 709 L165 709 L15 0 L115 0 Z " />
<glyph glyph-name="Idieresis" unicode="&#xcf;" horiz-adv-x="280" d="M102 813 C102 786 123 766 149 766 C181 766 208 791 208 826 C208 851 189 872 162 872 C128 872 102 847 102 813 L102 813 Z M257 813 C257 786 278 766 304 766 C336 766 363 791 363 826 C363 851 344 872 317 872 C283 872 257 847 257 813 L257 813 Z M115 0 L265 709 L165 709 L15 0 L115 0 Z " />
<glyph glyph-name="Eth" unicode="&#xd0;" horiz-adv-x="690" d="M15 320 L82 320 L15 0 L276 0 C464 0 655 146 655 426 C655 598 539 709 358 709 L165 709 L100 402 L32 402 L15 320 Z M131 87 L180 320 L331 320 L348 402 L198 402 L245 622 L340 622 C477 622 557 553 557 420 C557 200 408 87 276 87 L131 87 Z " />
<glyph glyph-name="Ntilde" unicode="&#xd1;" horiz-adv-x="738" d="M639 881 L570 881 C564 849 550 837 531 837 C516 837 505 843 493 851 L481 859 C464 871 439 883 411 883 C356 883 307 848 297 757 L367 757 C373 789 387 801 406 801 C421 801 432 795 444 787 L456 779 C473 767 498 755 526 755 C581 755 623 786 639 881 L639 881 Z M573 0 L723 709 L625 709 L507 155 L282 709 L165 709 L15 0 L113 0 L235 574 L471 0 L573 0 Z " />
<glyph glyph-name="Ograve" unicode="&#xd2;" horiz-adv-x="753" d="M35 294 C35 109 157 -15 342 -15 C525 -15 718 131 718 414 C718 601 597 724 412 724 C228 724 35 577 35 294 L35 294 Z M618 404 C618 235 521 75 347 75 C225 75 135 156 135 304 C135 473 232 634 406 634 C528 634 618 552 618 404 L618 404 Z M411 759 L497 759 L422 878 L304 878 L411 759 Z " />
<glyph glyph-name="Oacute" unicode="&#xd3;" horiz-adv-x="753" d="M35 294 C35 109 157 -15 342 -15 C525 -15 718 131 718 414 C718 601 597 724 412 724 C228 724 35 577 35 294 L35 294 Z M618 404 C618 235 521 75 347 75 C225 75 135 156 135 304 C135 473 232 634 406 634 C528 634 618 552 618 404 L618 404 Z M639 878 L508 878 L389 759 L486 759 L639 878 Z " />
<glyph glyph-name="Ocircumflex" unicode="&#xd4;" horiz-adv-x="753" d="M35 294 C35 109 157 -15 342 -15 C525 -15 718 131 718 414 C718 601 597 724 412 724 C228 724 35 577 35 294 L35 294 Z M618 404 C618 235 521 75 347 75 C225 75 135 156 135 304 C135 473 232 634 406 634 C528 634 618 552 618 404 L618 404 Z M349 759 L450 823 L524 759 L607 759 L517 878 L397 878 L262 759 L349 759 Z " />
<glyph glyph-name="Otilde" unicode="&#xd5;" horiz-adv-x="753" d="M626 881 L557 881 C551 849 537 837 518 837 C503 837 492 843 480 851 L468 859 C451 871 426 883 398 883 C343 883 294 848 284 757 L354 757 C360 789 374 801 393 801 C408 801 419 795 431 787 L443 779 C460 767 485 755 513 755 C568 755 610 786 626 881 L626 881 Z M35 294 C35 109 157 -15 342 -15 C525 -15 718 131 718 414 C718 601 597 724 412 724 C228 724 35 577 35 294 L35 294 Z M618 404 C618 235 521 75 347 75 C225 75 135 156 135 304 C135 473 232 634 406 634 C528 634 618 552 618 404 L618 404 Z " />
<glyph glyph-name="Odieresis" unicode="&#xd6;" horiz-adv-x="753" d="M230 813 C230 782 253 760 283 760 C317 760 348 787 348 826 C348 855 327 878 296 878 C259 878 230 851 230 813 L230 813 Z M550 813 C550 782 573 760 603 760 C637 760 668 787 668 826 C668 855 647 878 616 878 C579 878 550 851 550 813 L550 813 Z M35 294 C35 109 157 -15 342 -15 C525 -15 718 131 718 414 C718 601 597 724 412 724 C228 724 35 577 35 294 L35 294 Z M618 404 C618 235 521 75 347 75 C225 75 135 156 135 304 C135 473 232 634 406 634 C528 634 618 552 618 404 L618 404 Z " />
<glyph glyph-name="multiply" unicode="&#xd7;" horiz-adv-x="540" d="M101 56 L269 230 L439 55 L495 112 L325 288 L494 463 L437 519 L270 345 L103 519 L46 462 L214 287 L45 112 L101 56 Z " />
<glyph glyph-name="Oslash" unicode="&#xd8;" horiz-adv-x="753" d="M35 294 C35 224 52 163 84 114 L6 36 L65 -21 L138 53 C190 9 260 -15 342 -15 C525 -15 718 131 718 414 C718 482 702 543 672 591 L754 674 L695 731 L618 654 C566 699 496 724 412 724 C228 724 35 577 35 294 L35 294 Z M135 304 C135 473 232 634 406 634 C462 634 512 617 549 584 L158 189 C143 221 135 259 135 304 L135 304 Z M618 404 C618 235 521 75 347 75 C292 75 244 91 208 123 L597 516 C611 484 618 447 618 404 L618 404 Z " />
<glyph glyph-name="Ugrave" unicode="&#xd9;" horiz-adv-x="666" d="M562 709 L460 225 C440 131 380 76 293 76 C197 76 153 126 153 204 C153 221 155 239 159 258 L251 709 L157 709 L64 270 C58 243 56 219 56 196 C56 61 147 -15 288 -15 C426 -15 526 69 557 216 L661 709 L562 709 Z M391 759 L477 759 L402 878 L284 878 L391 759 Z " />
<glyph glyph-name="Uacute" unicode="&#xda;" horiz-adv-x="666" d="M562 709 L460 225 C440 131 380 76 293 76 C197 76 153 126 153 204 C153 221 155 239 159 258 L251 709 L157 709 L64 270 C58 243 56 219 56 196 C56 61 147 -15 288 -15 C426 -15 526 69 557 216 L661 709 L562 709 Z M588 878 L457 878 L338 759 L435 759 L588 878 Z " />
<glyph glyph-name="Ucircumflex" unicode="&#xdb;" horiz-adv-x="666" d="M562 709 L460 225 C440 131 380 76 293 76 C197 76 153 126 153 204 C153 221 155 239 159 258 L251 709 L157 709 L64 270 C58 243 56 219 56 196 C56 61 147 -15 288 -15 C426 -15 526 69 557 216 L661 709 L562 709 Z M329 759 L430 823 L504 759 L587 759 L497 878 L377 878 L242 759 L329 759 Z " />
<glyph glyph-name="Udieresis" unicode="&#xdc;" horiz-adv-x="666" d="M257 813 C257 782 280 760 310 760 C344 760 375 787 375 826 C375 855 354 878 323 878 C286 878 257 851 257 813 L257 813 Z M467 813 C467 782 490 760 520 760 C554 760 585 787 585 826 C585 855 564 878 533 878 C496 878 467 851 467 813 L467 813 Z M562 709 L460 225 C440 131 380 76 293 76 C197 76 153 126 153 204 C153 221 155 239 159 258 L251 709 L157 709 L64 270 C58 243 56 219 56 196 C56 61 147 -15 288 -15 C426 -15 526 69 557 216 L661 709 L562 709 Z " />
<glyph glyph-name="Yacute" unicode="&#xdd;" horiz-adv-x="611" d="M257 305 L193 0 L291 0 L353 299 L666 709 L549 709 L321 398 L198 709 L95 709 L257 305 Z M566 878 L435 878 L316 759 L413 759 L566 878 Z " />
<glyph glyph-name="Thorn" unicode="&#xde;" horiz-adv-x="594" d="M350 483 C424 483 465 443 465 384 C465 294 396 242 303 242 L164 242 L216 483 L350 483 Z M113 0 L146 155 L303 155 C448 155 564 246 564 390 C564 493 489 570 366 570 L233 570 L263 709 L165 709 L15 0 L113 0 Z " />
<glyph glyph-name="germandbls" unicode="&#xdf;" horiz-adv-x="572" d="M359 329 C359 356 375 368 395 378 L426 393 C480 419 547 463 547 562 C547 647 479 724 352 724 C242 724 143 661 113 516 L5 0 L99 0 L205 501 C227 606 288 641 346 641 C416 641 452 598 452 557 C452 509 417 483 376 462 L341 444 C300 423 263 388 263 327 C263 283 292 242 333 208 L358 187 C381 167 396 154 396 124 C396 101 379 63 327 63 C271 63 256 105 256 137 C256 144 257 151 259 158 L172 145 C170 136 170 127 170 119 C170 36 241 -15 323 -15 C440 -15 490 70 490 136 C490 186 459 230 420 262 L392 285 C376 298 359 312 359 329 L359 329 Z " />
<glyph glyph-name="agrave" unicode="&#xe0;" horiz-adv-x="567" d="M262 543 L336 543 L280 689 L168 689 L262 543 Z M266 414 C344 414 378 359 378 290 C378 166 311 71 219 71 C142 71 105 126 105 202 C105 299 161 414 266 414 L266 414 Z M424 481 L411 420 C390 458 342 495 261 495 C112 495 10 357 10 201 C10 83 75 -10 200 -10 C259 -10 310 21 343 61 C341 46 341 35 341 28 C341 15 342 5 343 0 L432 0 C431 8 431 13 431 16 C431 36 431 75 442 125 L517 481 L424 481 Z " />
<glyph glyph-name="aacute" unicode="&#xe1;" horiz-adv-x="567" d="M488 689 L364 689 L249 543 L333 543 L488 689 Z M266 414 C344 414 378 359 378 290 C378 166 311 71 219 71 C142 71 105 126 105 202 C105 299 161 414 266 414 L266 414 Z M424 481 L411 420 C390 458 342 495 261 495 C112 495 10 357 10 201 C10 83 75 -10 200 -10 C259 -10 310 21 343 61 C341 46 341 35 341 28 C341 15 342 5 343 0 L432 0 C431 8 431 13 431 16 C431 36 431 75 442 125 L517 481 L424 481 Z " />
<glyph glyph-name="acircumflex" unicode="&#xe2;" horiz-adv-x="567" d="M221 545 L309 626 L361 545 L446 545 L375 684 L262 684 L131 545 L221 545 Z M266 414 C344 414 378 359 378 290 C378 166 311 71 219 71 C142 71 105 126 105 202 C105 299 161 414 266 414 L266 414 Z M424 481 L411 420 C390 458 342 495 261 495 C112 495 10 357 10 201 C10 83 75 -10 200 -10 C259 -10 310 21 343 61 C341 46 341 35 341 28 C341 15 342 5 343 0 L432 0 C431 8 431 13 431 16 C431 36 431 75 442 125 L517 481 L424 481 Z " />
<glyph glyph-name="atilde" unicode="&#xe3;" horiz-adv-x="567" d="M216 554 C222 586 236 598 255 598 C270 598 279 592 291 584 L303 576 C320 564 343 552 371 552 C426 552 468 583 484 678 L415 678 C409 646 395 634 376 634 C361 634 352 640 340 648 L328 656 C311 668 288 680 260 680 C205 680 156 645 146 554 L216 554 Z M266 414 C344 414 378 359 378 290 C378 166 311 71 219 71 C142 71 105 126 105 202 C105 299 161 414 266 414 L266 414 Z M424 481 L411 420 C390 458 342 495 261 495 C112 495 10 357 10 201 C10 83 75 -10 200 -10 C259 -10 310 21 343 61 C341 46 341 35 341 28 C341 15 342 5 343 0 L432 0 C431 8 431 13 431 16 C431 36 431 75 442 125 L517 481 L424 481 Z " />
<glyph glyph-name="adieresis" unicode="&#xe4;" horiz-adv-x="567" d="M156 614 C156 586 178 563 207 563 C240 563 273 589 273 626 C273 654 252 679 220 679 C185 679 156 649 156 614 L156 614 Z M351 614 C351 586 373 563 402 563 C435 563 468 589 468 626 C468 654 447 679 415 679 C380 679 351 649 351 614 L351 614 Z M266 414 C344 414 378 359 378 290 C378 166 311 71 219 71 C142 71 105 126 105 202 C105 299 161 414 266 414 L266 414 Z M424 481 L411 420 C390 458 342 495 261 495 C112 495 10 357 10 201 C10 83 75 -10 200 -10 C259 -10 310 21 343 61 C341 46 341 35 341 28 C341 15 342 5 343 0 L432 0 C431 8 431 13 431 16 C431 36 431 75 442 125 L517 481 L424 481 Z " />
<glyph glyph-name="aring" unicode="&#xe5;" horiz-adv-x="567" d="M321 750 C260 750 199 701 199 629 C199 574 246 531 304 531 C369 531 424 589 424 650 C424 705 379 750 321 750 L321 750 Z M263 637 C263 667 289 687 314 687 C340 687 358 669 358 645 C358 615 334 595 306 595 C280 595 263 611 263 637 L263 637 Z M266 414 C344 414 378 359 378 290 C378 166 311 71 219 71 C142 71 105 126 105 202 C105 299 161 414 266 414 L266 414 Z M424 481 L411 420 C390 458 342 495 261 495 C112 495 10 357 10 201 C10 83 75 -10 200 -10 C259 -10 310 21 343 61 C341 46 341 35 341 28 C341 15 342 5 343 0 L432 0 C431 8 431 13 431 16 C431 36 431 75 442 125 L517 481 L424 481 Z " />
<glyph glyph-name="ae" unicode="&#xe6;" horiz-adv-x="853" d="M313 284 L173 279 C77 276 -2 216 -2 124 C-2 45 61 -15 170 -15 C271 -15 330 39 365 91 C400 21 471 -15 553 -15 C653 -15 730 39 764 102 L693 148 C671 109 626 68 551 68 C484 68 429 118 429 197 C429 203 429 207 430 214 L784 214 C789 230 798 263 798 302 C798 416 729 496 599 496 C533 496 470 470 422 422 C394 465 340 496 262 496 C167 496 77 446 50 359 L131 333 C146 383 193 417 251 417 C326 417 360 376 360 334 C360 302 341 285 313 284 L313 284 Z M95 129 C95 183 137 207 179 209 L337 216 C319 103 239 63 178 63 C133 63 95 86 95 129 L95 129 Z M594 413 C674 413 701 358 701 310 C701 302 700 294 699 290 L443 290 C460 353 513 413 594 413 L594 413 Z " />
<glyph glyph-name="ccedilla" unicode="&#xe7;" horiz-adv-x="498" d="M116 -52 L138 -94 C143 -93 149 -93 152 -93 C176 -93 195 -106 195 -126 C195 -150 172 -161 149 -161 C103 -161 84 -127 78 -113 L26 -145 C38 -172 80 -216 150 -216 C218 -216 265 -176 265 -124 C265 -89 242 -58 197 -52 L241 -15 C344 -9 409 56 445 125 L365 160 C343 116 305 69 231 69 C152 69 100 123 100 208 C100 344 180 412 262 412 C333 412 369 365 381 314 L468 344 C451 412 399 496 268 496 C123 496 5 378 5 207 C5 100 65 16 166 -8 L116 -52 Z " />
<glyph glyph-name="egrave" unicode="&#xe8;" horiz-adv-x="528" d="M281 543 L355 543 L299 689 L187 689 L281 543 Z M118 290 C135 353 188 413 269 413 C349 413 376 358 376 310 C376 302 375 294 374 290 L118 290 Z M459 214 C464 230 473 263 473 302 C473 416 404 496 274 496 C140 496 10 386 10 204 C10 60 109 -15 228 -15 C328 -15 405 39 439 102 L368 148 C346 109 301 68 226 68 C159 68 104 118 104 197 C104 203 104 207 105 214 L459 214 Z " />
<glyph glyph-name="eacute" unicode="&#xe9;" horiz-adv-x="528" d="M469 689 L345 689 L230 543 L314 543 L469 689 Z M118 290 C135 353 188 413 269 413 C349 413 376 358 376 310 C376 302 375 294 374 290 L118 290 Z M459 214 C464 230 473 263 473 302 C473 416 404 496 274 496 C140 496 10 386 10 204 C10 60 109 -15 228 -15 C328 -15 405 39 439 102 L368 148 C346 109 301 68 226 68 C159 68 104 118 104 197 C104 203 104 207 105 214 L459 214 Z " />
<glyph glyph-name="ecircumflex" unicode="&#xea;" horiz-adv-x="528" d="M230 545 L318 626 L370 545 L455 545 L384 684 L271 684 L140 545 L230 545 Z M118 290 C135 353 188 413 269 413 C349 413 376 358 376 310 C376 302 375 294 374 290 L118 290 Z M459 214 C464 230 473 263 473 302 C473 416 404 496 274 496 C140 496 10 386 10 204 C10 60 109 -15 228 -15 C328 -15 405 39 439 102 L368 148 C346 109 301 68 226 68 C159 68 104 118 104 197 C104 203 104 207 105 214 L459 214 Z " />
<glyph glyph-name="edieresis" unicode="&#xeb;" horiz-adv-x="528" d="M152 614 C152 586 174 563 203 563 C236 563 269 589 269 626 C269 654 248 679 216 679 C181 679 152 649 152 614 L152 614 Z M347 614 C347 586 369 563 398 563 C431 563 464 589 464 626 C464 654 443 679 411 679 C376 679 347 649 347 614 L347 614 Z M118 290 C135 353 188 413 269 413 C349 413 376 358 376 310 C376 302 375 294 374 290 L118 290 Z M459 214 C464 230 473 263 473 302 C473 416 404 496 274 496 C140 496 10 386 10 204 C10 60 109 -15 228 -15 C328 -15 405 39 439 102 L368 148 C346 109 301 68 226 68 C159 68 104 118 104 197 C104 203 104 207 105 214 L459 214 Z " />
<glyph glyph-name="igrave" unicode="&#xec;" horiz-adv-x="257" d="M99 0 L202 481 L108 481 L5 0 L99 0 Z M130 543 L204 543 L148 689 L36 689 L130 543 Z " />
<glyph glyph-name="iacute" unicode="&#xed;" horiz-adv-x="257" d="M358 689 L234 689 L119 543 L203 543 L358 689 Z M99 0 L202 481 L108 481 L5 0 L99 0 Z " />
<glyph glyph-name="icircumflex" unicode="&#xee;" horiz-adv-x="257" d="M99 0 L202 481 L108 481 L5 0 L99 0 Z M98 545 L186 626 L238 545 L323 545 L252 684 L139 684 L8 545 L98 545 Z " />
<glyph glyph-name="idieresis" unicode="&#xef;" horiz-adv-x="257" d="M99 0 L202 481 L108 481 L5 0 L99 0 Z M59 615 C59 589 77 569 107 569 C138 569 166 593 166 627 C166 654 146 675 117 675 C83 675 59 646 59 615 L59 615 Z M200 615 C200 589 218 569 248 569 C279 569 307 593 307 627 C307 654 287 675 258 675 C224 675 200 646 200 615 L200 615 Z " />
<glyph glyph-name="eth" unicode="&#xf0;" horiz-adv-x="541" d="M529 612 L502 678 L380 632 C327 687 266 717 230 729 L192 657 C226 645 262 626 293 599 L197 563 L222 498 L345 544 C374 505 395 456 404 399 C380 439 325 468 258 468 C107 468 10 337 10 199 C10 79 88 -16 223 -16 C392 -16 492 141 492 341 C492 439 465 516 427 574 L529 612 Z M390 257 C390 129 302 67 227 67 C148 67 104 131 104 199 C104 324 183 387 261 387 C333 387 390 340 390 257 L390 257 Z " />
<glyph glyph-name="ntilde" unicode="&#xf1;" horiz-adv-x="555" d="M228 554 C234 586 248 598 267 598 C282 598 291 592 303 584 L315 576 C332 564 355 552 383 552 C438 552 480 583 496 678 L427 678 C421 646 407 634 388 634 C373 634 364 640 352 648 L340 656 C323 668 300 680 272 680 C217 680 168 645 158 554 L228 554 Z M409 0 L474 305 C477 321 479 337 479 351 C479 439 420 495 336 495 C278 495 224 478 187 428 C191 450 193 477 193 481 L101 481 C101 479 99 441 89 396 L5 0 L99 0 L159 280 C173 345 217 412 293 412 C351 412 381 381 381 328 C381 313 379 301 377 291 L315 0 L409 0 Z " />
<glyph glyph-name="ograve" unicode="&#xf2;" horiz-adv-x="541" d="M270 543 L344 543 L288 689 L176 689 L270 543 Z M267 412 C344 412 390 356 390 273 C390 142 311 69 228 69 C154 69 106 124 106 209 C106 340 185 412 267 412 L267 412 Z M486 275 C486 396 412 496 273 496 C123 496 10 372 10 207 C10 86 88 -15 224 -15 C374 -15 486 113 486 275 L486 275 Z " />
<glyph glyph-name="oacute" unicode="&#xf3;" horiz-adv-x="541" d="M487 689 L363 689 L248 543 L332 543 L487 689 Z M267 412 C344 412 390 356 390 273 C390 142 311 69 228 69 C154 69 106 124 106 209 C106 340 185 412 267 412 L267 412 Z M486 275 C486 396 412 496 273 496 C123 496 10 372 10 207 C10 86 88 -15 224 -15 C374 -15 486 113 486 275 L486 275 Z " />
<glyph glyph-name="ocircumflex" unicode="&#xf4;" horiz-adv-x="541" d="M235 545 L323 626 L375 545 L460 545 L389 684 L276 684 L145 545 L235 545 Z M267 412 C344 412 390 356 390 273 C390 142 311 69 228 69 C154 69 106 124 106 209 C106 340 185 412 267 412 L267 412 Z M486 275 C486 396 412 496 273 496 C123 496 10 372 10 207 C10 86 88 -15 224 -15 C374 -15 486 113 486 275 L486 275 Z " />
<glyph glyph-name="otilde" unicode="&#xf5;" horiz-adv-x="541" d="M201 554 C207 586 221 598 240 598 C255 598 264 592 276 584 L288 576 C305 564 328 552 356 552 C411 552 453 583 469 678 L400 678 C394 646 380 634 361 634 C346 634 337 640 325 648 L313 656 C296 668 273 680 245 680 C190 680 141 645 131 554 L201 554 Z M267 412 C344 412 390 356 390 273 C390 142 311 69 228 69 C154 69 106 124 106 209 C106 340 185 412 267 412 L267 412 Z M486 275 C486 396 412 496 273 496 C123 496 10 372 10 207 C10 86 88 -15 224 -15 C374 -15 486 113 486 275 L486 275 Z " />
<glyph glyph-name="odieresis" unicode="&#xf6;" horiz-adv-x="541" d="M161 614 C161 586 183 563 212 563 C245 563 278 589 278 626 C278 654 257 679 225 679 C190 679 161 649 161 614 L161 614 Z M356 614 C356 586 378 563 407 563 C440 563 473 589 473 626 C473 654 452 679 420 679 C385 679 356 649 356 614 L356 614 Z M267 412 C344 412 390 356 390 273 C390 142 311 69 228 69 C154 69 106 124 106 209 C106 340 185 412 267 412 L267 412 Z M486 275 C486 396 412 496 273 496 C123 496 10 372 10 207 C10 86 88 -15 224 -15 C374 -15 486 113 486 275 L486 275 Z " />
<glyph glyph-name="divide" unicode="&#xf7;" horiz-adv-x="567" d="M198 465 C198 430 228 400 263 400 C298 400 327 430 327 465 C327 500 298 529 263 529 C228 529 198 500 198 465 L198 465 Z M198 110 C198 75 228 45 263 45 C298 45 327 75 327 110 C327 145 298 174 263 174 C228 174 198 145 198 110 L198 110 Z M35 246 L492 246 L492 329 L35 329 L35 246 Z " />
<glyph glyph-name="oslash" unicode="&#xf8;" horiz-adv-x="541" d="M20 -28 L84 33 C119 3 166 -15 224 -15 C374 -15 486 113 486 275 C486 318 477 358 458 392 L524 455 L472 509 L411 451 C376 480 330 496 273 496 C123 496 10 372 10 207 C10 165 19 126 37 92 L-32 26 L20 -28 Z M390 273 C390 142 311 69 228 69 C197 69 170 79 150 96 L384 321 C388 306 390 290 390 273 L390 273 Z M267 412 C298 412 324 403 344 386 L111 163 C108 176 106 192 106 209 C106 340 185 412 267 412 L267 412 Z " />
<glyph glyph-name="ugrave" unicode="&#xf9;" horiz-adv-x="544" d="M318 56 C317 43 317 33 317 28 C317 15 318 5 319 0 L409 0 C408 8 408 13 408 16 C408 36 408 75 419 125 L494 481 L401 481 L342 200 C328 132 285 70 213 70 C150 70 128 107 128 156 C128 171 130 186 133 202 L192 481 L98 481 L38 200 C34 181 32 162 32 145 C32 52 88 -10 187 -10 C232 -10 286 11 318 56 L318 56 Z M272 543 L346 543 L290 689 L178 689 L272 543 Z " />
<glyph glyph-name="uacute" unicode="&#xfa;" horiz-adv-x="544" d="M318 56 C317 43 317 33 317 28 C317 15 318 5 319 0 L409 0 C408 8 408 13 408 16 C408 36 408 75 419 125 L494 481 L401 481 L342 200 C328 132 285 70 213 70 C150 70 128 107 128 156 C128 171 130 186 133 202 L192 481 L98 481 L38 200 C34 181 32 162 32 145 C32 52 88 -10 187 -10 C232 -10 286 11 318 56 L318 56 Z M487 689 L363 689 L248 543 L332 543 L487 689 Z " />
<glyph glyph-name="ucircumflex" unicode="&#xfb;" horiz-adv-x="544" d="M318 56 C317 43 317 33 317 28 C317 15 318 5 319 0 L409 0 C408 8 408 13 408 16 C408 36 408 75 419 125 L494 481 L401 481 L342 200 C328 132 285 70 213 70 C150 70 128 107 128 156 C128 171 130 186 133 202 L192 481 L98 481 L38 200 C34 181 32 162 32 145 C32 52 88 -10 187 -10 C232 -10 286 11 318 56 L318 56 Z M235 545 L323 626 L375 545 L460 545 L389 684 L276 684 L145 545 L235 545 Z " />
<glyph glyph-name="udieresis" unicode="&#xfc;" horiz-adv-x="544" d="M318 56 C317 43 317 33 317 28 C317 15 318 5 319 0 L409 0 C408 8 408 13 408 16 C408 36 408 75 419 125 L494 481 L401 481 L342 200 C328 132 285 70 213 70 C150 70 128 107 128 156 C128 171 130 186 133 202 L192 481 L98 481 L38 200 C34 181 32 162 32 145 C32 52 88 -10 187 -10 C232 -10 286 11 318 56 L318 56 Z M166 614 C166 586 188 563 217 563 C250 563 283 589 283 626 C283 654 262 679 230 679 C195 679 166 649 166 614 L166 614 Z M361 614 C361 586 383 563 412 563 C445 563 478 589 478 626 C478 654 457 679 425 679 C390 679 361 649 361 614 L361 614 Z " />
<glyph glyph-name="yacute" unicode="&#xfd;" horiz-adv-x="504" d="M448 689 L324 689 L209 543 L293 543 L448 689 Z M78 -190 L519 481 L408 481 L220 179 L135 481 L33 481 L151 83 L-30 -190 L78 -190 Z " />
<glyph glyph-name="thorn" unicode="&#xfe;" horiz-adv-x="580" d="M-35 -190 L58 -190 L114 73 C142 19 206 -13 272 -13 C424 -13 524 118 524 288 C524 402 466 494 341 494 C284 494 228 472 191 430 L253 724 L159 724 L-35 -190 Z M306 409 C384 409 428 362 428 277 C428 146 347 71 266 71 C192 71 146 120 146 205 C146 336 224 409 306 409 L306 409 Z " />
<glyph glyph-name="ydieresis" unicode="&#xff;" horiz-adv-x="504" d="M133 614 C133 586 155 563 184 563 C217 563 250 589 250 626 C250 654 229 679 197 679 C162 679 133 649 133 614 L133 614 Z M328 614 C328 586 350 563 379 563 C412 563 445 589 445 626 C445 654 424 679 392 679 C357 679 328 649 328 614 L328 614 Z M78 -190 L519 481 L408 481 L220 179 L135 481 L33 481 L151 83 L-30 -190 L78 -190 Z " />
<glyph glyph-name="dotlessi" unicode="&#x131;" horiz-adv-x="257" d="M99 0 L202 481 L108 481 L5 0 L99 0 Z " />
<glyph glyph-name="Lslash" unicode="&#x141;" horiz-adv-x="538" d="M438 0 L457 92 L132 92 L184 339 L365 412 L383 499 L203 426 L263 709 L165 709 L96 383 L-1 344 L-19 257 L77 296 L15 0 L438 0 Z " />
<glyph glyph-name="lslash" unicode="&#x142;" horiz-adv-x="289" d="M99 0 L173 349 L276 391 L295 478 L192 436 L253 724 L159 724 L89 395 L-9 355 L-28 268 L71 308 L5 0 L99 0 Z " />
<glyph glyph-name="OE" unicode="&#x152;" horiz-adv-x="1103" d="M618 404 C618 235 521 75 347 75 C225 75 135 156 135 304 C135 473 232 634 406 634 C528 634 618 552 618 404 L618 404 Z M968 0 L987 91 L659 91 L705 308 L1002 308 L1022 400 L725 400 L771 618 L1099 618 L1118 709 L692 709 L665 583 C619 672 532 724 412 724 C228 724 35 577 35 294 C35 109 157 -15 342 -15 C418 -15 493 11 555 60 L542 0 L968 0 Z " />
<glyph glyph-name="oe" unicode="&#x153;" horiz-adv-x="905" d="M605 -15 C705 -15 782 39 816 102 L745 148 C723 109 678 68 603 68 C536 68 481 118 481 197 C481 203 481 207 482 214 L836 214 C841 230 850 263 850 302 C850 416 781 496 651 496 C577 496 504 462 453 401 C419 458 358 496 273 496 C123 496 10 372 10 207 C10 86 88 -15 224 -15 C304 -15 372 21 420 79 C458 17 527 -15 605 -15 L605 -15 Z M495 290 C512 353 565 413 646 413 C726 413 753 358 753 310 C753 302 752 294 751 290 L495 290 Z M390 273 C390 142 311 69 228 69 C154 69 106 124 106 209 C106 340 185 412 267 412 C344 412 390 356 390 273 L390 273 Z " />
<glyph glyph-name="Scaron" unicode="&#x160;" horiz-adv-x="581" d="M264 73 C150 73 104 153 104 233 C104 237 104 244 105 253 L6 236 C5 229 5 223 5 221 C5 111 79 -15 264 -15 C406 -15 502 84 502 195 C502 273 458 338 364 382 L267 427 C226 446 201 478 201 525 C201 588 258 637 331 637 C460 637 478 542 478 505 L571 523 C571 602 512 724 339 724 C203 724 101 630 101 512 C101 423 151 364 230 329 L324 287 C378 263 400 225 400 184 C400 118 345 74 264 73 L264 73 Z M477 878 L376 814 L307 878 L225 878 L310 759 L430 759 L570 878 L477 878 Z " />
<glyph glyph-name="scaron" unicode="&#x161;" horiz-adv-x="441" d="M360 687 L272 606 L220 687 L136 687 L206 545 L321 545 L451 687 L360 687 Z M-10 150 C-10 81 41 -15 173 -15 C301 -15 349 74 349 136 C349 193 313 241 249 270 L183 300 C159 311 145 327 145 354 C145 387 173 417 221 417 C290 417 311 371 317 334 L401 357 C396 408 356 496 230 496 C120 496 54 421 54 340 C54 285 85 243 140 218 L210 186 C240 172 255 153 255 129 C255 97 231 65 178 65 C113 65 74 112 73 169 L-10 150 Z " />
<glyph glyph-name="Ydieresis" unicode="&#x178;" horiz-adv-x="611" d="M226 813 C226 782 249 760 279 760 C313 760 344 787 344 826 C344 855 323 878 292 878 C255 878 226 851 226 813 L226 813 Z M416 813 C416 782 439 760 469 760 C503 760 534 787 534 826 C534 855 513 878 482 878 C445 878 416 851 416 813 L416 813 Z M257 305 L193 0 L291 0 L353 299 L666 709 L549 709 L321 398 L198 709 L95 709 L257 305 Z " />
<glyph glyph-name="Zcaron" unicode="&#x17d;" horiz-adv-x="614" d="M499 0 L518 91 L112 91 L624 616 L644 709 L130 709 L111 619 L500 619 L-10 96 L-30 0 L499 0 Z M499 878 L398 814 L329 878 L247 878 L332 759 L452 759 L592 878 L499 878 Z " />
<glyph glyph-name="zcaron" unicode="&#x17e;" horiz-adv-x="473" d="M365 687 L277 606 L225 687 L141 687 L211 545 L326 545 L456 687 L365 687 Z M359 0 L377 85 L108 85 L435 396 L453 481 L81 481 L63 396 L315 396 L-12 84 L-30 0 L359 0 Z " />
<glyph glyph-name="florin" unicode="&#x192;" horiz-adv-x="481" d="M106 20 C90 -62 45 -72 10 -72 C-14 -72 -32 -69 -46 -65 L-46 -148 C-27 -154 -10 -158 31 -158 C104 -158 176 -115 196 -13 L278 398 L424 398 L424 481 L295 481 L311 561 C327 640 373 653 408 653 C438 653 454 648 460 646 L460 729 C448 733 430 739 386 739 C313 739 241 696 221 594 L198 481 L71 481 L71 398 L182 398 L106 20 Z " />
<glyph glyph-name="circumflex" unicode="&#x2c6;" horiz-adv-x="355" d="M155 545 L243 626 L295 545 L380 545 L309 684 L196 684 L65 545 L155 545 Z " />
<glyph glyph-name="caron" unicode="&#x2c7;" horiz-adv-x="355" d="M289 687 L201 606 L149 687 L65 687 L135 545 L250 545 L380 687 L289 687 Z " />
<glyph glyph-name="uni02C9" unicode="&#x2c9;" horiz-adv-x="330" d="M338 577 L355 658 L82 658 L65 577 L338 577 Z " />
<glyph glyph-name="breve" unicode="&#x2d8;" horiz-adv-x="335" d="M187 544 C289 544 344 617 360 688 L283 688 C274 660 248 624 197 624 C151 624 136 653 136 679 C136 680 136 684 137 688 L68 688 C66 679 65 670 65 661 C65 600 107 544 187 544 L187 544 Z " />
<glyph glyph-name="dotaccent" unicode="&#x2d9;" horiz-adv-x="169" d="M65 608 C65 576 89 551 123 551 C161 551 194 584 194 623 C194 654 170 680 136 680 C96 680 65 644 65 608 L65 608 Z " />
<glyph glyph-name="ring" unicode="&#x2da;" horiz-adv-x="265" d="M187 750 C126 750 65 701 65 629 C65 574 112 531 170 531 C235 531 290 589 290 650 C290 705 245 750 187 750 L187 750 Z M129 637 C129 667 155 687 180 687 C206 687 224 669 224 645 C224 615 200 595 172 595 C146 595 129 611 129 637 L129 637 Z " />
<glyph glyph-name="ogonek" unicode="&#x2db;" horiz-adv-x="233" d="M27 -216 C52 -216 64 -213 78 -208 L92 -144 C74 -147 66 -147 59 -147 C35 -147 15 -135 15 -109 C15 -54 79 -19 123 0 L61 16 C11 -4 -66 -48 -66 -132 C-66 -183 -29 -216 27 -216 L27 -216 Z " />
<glyph glyph-name="tilde" unicode="&#x2dc;" horiz-adv-x="378" d="M135 554 C141 586 155 598 174 598 C189 598 198 592 210 584 L222 576 C239 564 262 552 290 552 C345 552 387 583 403 678 L334 678 C328 646 314 634 295 634 C280 634 271 640 259 648 L247 656 C230 668 207 680 179 680 C124 680 75 645 65 554 L135 554 Z " />
<glyph glyph-name="hungarumlaut" unicode="&#x2dd;" horiz-adv-x="374" d="M255 689 L147 689 L65 543 L134 543 L255 689 Z M399 689 L291 689 L199 543 L268 543 L399 689 Z " />
<glyph glyph-name="uni0394" unicode="&#x394;" horiz-adv-x="657" d="M497 90 L114 90 L304 597 L497 90 Z M-25 0 L637 0 L358 709 L253 709 L-25 0 Z " />
<glyph glyph-name="uni03A9" unicode="&#x3a9;" horiz-adv-x="816" d="M408 636 C531 636 661 550 661 388 C661 243 550 153 451 132 L451 0 L756 0 L756 88 L556 88 C659 125 761 233 761 387 C761 599 592 724 408 724 C224 724 55 599 55 387 C55 233 157 125 259 88 L60 88 L60 0 L365 0 L365 132 C266 153 155 243 155 388 C155 550 285 636 408 636 L408 636 Z " />
<glyph glyph-name="uni03BC" unicode="&#x3bc;" horiz-adv-x="577" d="M65 -190 L159 -190 L159 5 C184 -8 213 -15 246 -15 C302 -15 362 8 388 58 C388 38 390 11 392 0 L482 0 C481 8 477 42 477 89 L477 481 L383 481 L383 191 C383 118 345 68 269 68 C190 68 160 126 160 192 L160 481 L65 481 L65 -190 Z " />
<glyph glyph-name="pi" unicode="&#x3c0;" horiz-adv-x="625" d="M480 399 L563 399 L563 481 L45 481 L45 399 L127 399 L127 0 L221 0 L221 399 L386 399 L386 112 C386 51 422 -7 504 -7 C534 -7 553 0 565 5 L565 77 C555 74 544 73 534 73 C504 73 480 86 480 122 L480 399 Z " />
<glyph glyph-name="uni2007" unicode="&#x2007;" horiz-adv-x="604" d="" />
<glyph glyph-name="uni2008" unicode="&#x2008;" horiz-adv-x="262" d="" />
<glyph glyph-name="uni200B" unicode="&#x200b;" d="" />
<glyph glyph-name="endash" unicode="&#x2013;" horiz-adv-x="639" d="M552 246 L569 328 L57 328 L40 246 L552 246 Z " />
<glyph glyph-name="emdash" unicode="&#x2014;" horiz-adv-x="1100" d="M1003 246 L1020 328 L67 328 L50 246 L1003 246 Z " />
<glyph glyph-name="quoteleft" unicode="&#x2018;" horiz-adv-x="234" d="M226 518 C226 553 200 575 168 575 C160 575 150 573 147 571 C157 617 202 659 254 668 L264 718 C159 713 80 620 80 523 C80 474 112 447 151 447 C193 447 226 478 226 518 L226 518 Z " />
<glyph glyph-name="quoteright" unicode="&#x2019;" horiz-adv-x="219" d="M103 647 C103 612 129 590 161 590 C169 590 179 592 182 594 C172 548 127 506 75 497 L65 447 C170 452 249 545 249 642 C249 691 217 718 178 718 C136 718 103 687 103 647 L103 647 Z " />
<glyph glyph-name="quotesinglbase" unicode="&#x201a;" horiz-adv-x="224" d="M-17 52 C-17 17 9 -5 41 -5 C49 -5 59 -3 62 -1 C52 -47 7 -89 -45 -98 L-55 -148 C50 -143 129 -50 129 47 C129 96 97 123 58 123 C16 123 -17 92 -17 52 L-17 52 Z " />
<glyph glyph-name="quotedblleft" unicode="&#x201c;" horiz-adv-x="408" d="M401 526 C401 560 376 580 345 580 C337 580 328 579 325 577 C335 619 380 661 428 670 L438 718 C336 711 261 624 261 531 C261 484 292 458 329 458 C372 458 401 487 401 526 L401 526 Z M220 526 C220 560 195 580 164 580 C156 580 147 579 144 577 C154 619 199 661 247 670 L257 718 C155 711 80 624 80 531 C80 484 111 458 148 458 C191 458 220 487 220 526 L220 526 Z " />
<glyph glyph-name="quotedblright" unicode="&#x201d;" horiz-adv-x="393" d="M102 647 C102 613 127 593 158 593 C166 593 175 594 178 596 C168 552 124 512 75 503 L65 455 C167 460 242 549 242 642 C242 689 211 715 174 715 C133 715 102 686 102 647 L102 647 Z M283 647 C283 613 308 593 339 593 C347 593 356 594 359 596 C349 552 305 512 256 503 L246 455 C348 460 423 549 423 642 C423 689 392 715 355 715 C314 715 283 686 283 647 L283 647 Z " />
<glyph glyph-name="quotedblbase" unicode="&#x201e;" horiz-adv-x="388" d="M-18 50 C-18 16 7 -4 38 -4 C46 -4 55 -3 58 -1 C48 -45 4 -85 -45 -94 L-55 -142 C47 -137 122 -48 122 45 C122 92 91 118 54 118 C13 118 -18 89 -18 50 L-18 50 Z M153 50 C153 16 178 -4 209 -4 C217 -4 226 -3 229 -1 C219 -45 175 -85 126 -94 L116 -142 C218 -137 293 -48 293 45 C293 92 262 118 225 118 C184 118 153 89 153 50 L153 50 Z " />
<glyph glyph-name="dagger" unicode="&#x2020;" horiz-adv-x="414" d="M236 709 L204 560 L78 560 L60 479 L187 479 L120 162 L202 162 L269 479 L396 479 L414 560 L286 560 L318 709 L236 709 Z " />
<glyph glyph-name="daggerdbl" unicode="&#x2021;" horiz-adv-x="434" d="M178 0 L209 149 L336 149 L353 230 L226 230 L279 479 L406 479 L424 560 L296 560 L328 709 L246 709 L214 560 L88 560 L70 479 L197 479 L144 230 L17 230 L0 149 L127 149 L96 0 L178 0 Z " />
<glyph glyph-name="bullet" unicode="&#x2022;" horiz-adv-x="559" d="M60 289 C60 176 153 82 267 82 C381 82 474 176 474 289 C474 404 381 497 267 497 C153 497 60 404 60 289 L60 289 Z " />
<glyph glyph-name="ellipsis" unicode="&#x2026;" horiz-adv-x="871" d="M76 -5 C114 -5 148 26 148 67 C148 99 125 125 88 125 C48 125 15 91 15 52 C15 21 39 -5 76 -5 L76 -5 Z M367 -5 C405 -5 439 26 439 67 C439 99 416 125 379 125 C339 125 306 91 306 52 C306 21 330 -5 367 -5 L367 -5 Z M659 -5 C697 -5 731 26 731 67 C731 99 708 125 671 125 C631 125 598 91 598 52 C598 21 622 -5 659 -5 L659 -5 Z " />
<glyph glyph-name="perthousand" unicode="&#x2030;" horiz-adv-x="1011" d="M208 422 C166 422 140 451 140 491 C140 542 180 580 223 580 C266 580 293 553 293 513 C293 458 252 422 208 422 L208 422 Z M200 344 C288 344 376 418 376 516 C376 596 314 659 232 659 C136 659 57 579 57 485 C57 406 117 344 200 344 L200 344 Z M549 74 C507 74 481 103 481 143 C481 194 521 232 564 232 C607 232 634 205 634 165 C634 110 593 74 549 74 L549 74 Z M732 648 L637 648 L31 0 L128 0 L732 648 Z M784 74 C742 74 716 103 716 143 C716 194 756 232 799 232 C842 232 869 205 869 165 C869 110 828 74 784 74 L784 74 Z M776 -4 C864 -4 952 70 952 168 C952 248 890 311 808 311 C760 311 716 291 684 259 C658 291 619 311 573 311 C477 311 398 231 398 137 C398 58 458 -4 541 -4 C586 -4 631 15 664 47 C689 15 729 -4 776 -4 L776 -4 Z " />
<glyph glyph-name="guilsinglleft" unicode="&#x2039;" horiz-adv-x="284" d="M206 99 L113 284 L289 481 L186 481 L15 293 L113 99 L206 99 Z " />
<glyph glyph-name="guilsinglright" unicode="&#x203a;" horiz-adv-x="284" d="M48 481 L141 296 L-35 99 L68 99 L239 287 L141 481 L48 481 Z " />
<glyph glyph-name="uni2042" unicode="&#x2042;" horiz-adv-x="814" d="M512 709 L436 709 L417 588 L314 626 L282 563 L387 526 L294 431 L344 389 L436 487 L492 388 L551 430 L495 523 L614 561 L606 626 L489 588 L512 709 Z M235 311 L159 311 L140 190 L37 228 L5 165 L110 128 L17 33 L67 -9 L159 89 L215 -10 L274 32 L218 125 L337 163 L329 228 L212 190 L235 311 Z M647 311 L571 311 L552 190 L449 228 L417 165 L522 128 L429 33 L479 -9 L571 89 L627 -10 L686 32 L630 125 L749 163 L741 228 L624 190 L647 311 Z " />
<glyph glyph-name="fraction" unicode="&#x2044;" horiz-adv-x="541" d="M621 648 L526 648 L-80 0 L17 0 L621 648 Z " />
<glyph glyph-name="uni2051" unicode="&#x2051;" horiz-adv-x="441" d="M333 709 L257 709 L238 588 L135 626 L103 563 L208 526 L115 431 L165 389 L257 487 L313 388 L372 430 L316 523 L435 561 L427 626 L310 588 L333 709 Z M235 311 L159 311 L140 190 L37 228 L5 165 L110 128 L17 33 L67 -9 L159 89 L215 -10 L274 32 L218 125 L337 163 L329 228 L212 190 L235 311 Z " />
<glyph glyph-name="uni2070" unicode="&#x2070;" horiz-adv-x="411" d="M60 473 C60 387 118 337 195 337 C317 337 376 455 376 579 C376 655 330 716 242 716 C112 716 60 580 60 473 L60 473 Z M130 475 C130 518 150 649 237 649 C289 649 305 613 305 577 C305 509 275 404 199 404 C153 404 130 436 130 475 L130 475 Z " />
<glyph glyph-name="uni2074" unicode="&#x2074;" horiz-adv-x="427" d="M60 420 L233 420 L217 344 L293 344 C308 416 309 419 309 420 L373 420 L387 485 L322 485 L370 709 L282 709 L76 505 L60 420 Z M246 485 L139 485 L277 622 L246 485 Z " />
<glyph glyph-name="uni2075" unicode="&#x2075;" horiz-adv-x="407" d="M55 456 C55 386 113 337 189 337 C274 337 337 399 337 476 C337 546 291 583 225 583 C211 583 185 580 170 571 L201 643 L359 643 L372 709 L159 709 L87 543 L151 507 C164 517 182 523 200 523 C232 523 259 505 259 467 C259 422 224 403 191 403 C150 403 131 431 131 463 L55 456 Z " />
<glyph glyph-name="uni2076" unicode="&#x2076;" horiz-adv-x="390" d="M376 693 C353 711 314 717 277 717 C143 717 55 608 55 483 C55 385 122 337 191 337 C268 337 345 390 345 481 C345 548 300 592 228 592 C205 592 172 587 153 568 C174 624 228 653 277 653 C308 653 331 647 349 637 L376 693 Z M207 528 C243 528 266 506 266 473 C266 424 229 402 196 402 C161 402 134 423 134 460 C134 501 168 528 207 528 L207 528 Z " />
<glyph glyph-name="uni2077" unicode="&#x2077;" horiz-adv-x="368" d="M393 709 L105 709 L92 643 L282 643 C260 629 116 520 75 344 L155 344 C209 523 322 606 379 645 L393 709 Z " />
<glyph glyph-name="uni2078" unicode="&#x2078;" horiz-adv-x="396" d="M187 603 C187 635 211 655 247 655 C280 653 295 635 295 614 C295 577 262 562 232 562 C206 562 187 579 187 603 L187 603 Z M142 443 C142 476 172 500 212 500 C249 500 270 480 270 455 C270 419 243 398 202 398 C170 398 142 414 142 443 L142 443 Z M198 337 C281 337 347 385 347 456 C347 485 324 517 295 528 C346 546 371 585 371 624 C371 678 323 716 254 716 C166 716 112 667 112 601 C112 576 131 545 159 534 C99 519 65 479 65 436 C65 381 111 337 198 337 L198 337 Z " />
<glyph glyph-name="uni2079" unicode="&#x2079;" horiz-adv-x="407" d="M50 373 C75 352 121 338 160 338 C298 338 367 441 367 578 C367 674 304 717 234 717 C154 717 81 664 81 577 C81 507 136 462 206 462 C229 462 260 472 278 493 C265 433 211 405 164 405 C134 405 104 413 80 430 L50 373 Z M217 525 C184 525 160 547 160 582 C160 628 194 653 229 653 C259 653 286 631 286 597 C286 555 256 525 217 525 L217 525 Z " />
<glyph glyph-name="uni2080" unicode="&#x2080;" horiz-adv-x="411" d="M25 57 C25 -29 83 -79 160 -79 C282 -79 341 39 341 163 C341 239 295 300 207 300 C77 300 25 164 25 57 L25 57 Z M95 59 C95 102 115 233 202 233 C254 233 270 197 270 161 C270 93 240 -12 164 -12 C118 -12 95 20 95 59 L95 59 Z " />
<glyph glyph-name="uni2081" unicode="&#x2081;" horiz-adv-x="290" d="M136 -72 L215 293 L147 293 C132 257 94 231 45 229 L35 178 L115 178 L59 -72 L136 -72 Z " />
<glyph glyph-name="uni2082" unicode="&#x2082;" horiz-adv-x="381" d="M115 94 C41 61 3 6 -5 -72 L269 -72 L283 -7 L99 -7 C105 7 116 22 141 33 L217 66 C275 91 313 133 313 191 C313 248 270 299 186 299 C103 299 43 249 43 158 L118 158 C118 211 145 235 184 235 C218 235 235 210 235 187 C235 159 217 139 178 122 L115 94 Z " />
<glyph glyph-name="uni2083" unicode="&#x2083;" horiz-adv-x="425" d="M138 100 C143 102 154 104 162 104 C193 104 221 85 221 52 C221 10 189 -12 149 -12 C111 -12 85 17 85 50 C85 54 85 57 86 61 L17 56 C16 51 15 43 15 37 C15 -35 77 -78 150 -78 C243 -78 297 -14 297 54 C297 103 260 144 212 153 L326 220 L340 294 L80 294 L66 229 L226 229 L112 160 L138 100 Z " />
<glyph glyph-name="uni2084" unicode="&#x2084;" horiz-adv-x="427" d="M5 4 L178 4 L162 -72 L238 -72 C253 0 254 3 254 4 L318 4 L332 69 L267 69 L315 293 L227 293 L21 89 L5 4 Z M191 69 L84 69 L222 206 L191 69 Z " />
<glyph glyph-name="uni2085" unicode="&#x2085;" horiz-adv-x="407" d="M5 40 C5 -30 63 -79 139 -79 C224 -79 287 -17 287 60 C287 130 241 167 175 167 C161 167 135 164 120 155 L151 227 L309 227 L322 293 L109 293 L37 127 L101 91 C114 101 132 107 150 107 C182 107 209 89 209 51 C209 6 174 -13 141 -13 C100 -13 81 15 81 47 L5 40 Z " />
<glyph glyph-name="uni2086" unicode="&#x2086;" horiz-adv-x="390" d="M326 277 C303 295 264 301 227 301 C93 301 5 192 5 67 C5 -31 72 -79 141 -79 C218 -79 295 -26 295 65 C295 132 250 176 178 176 C155 176 122 171 103 152 C124 208 178 237 227 237 C258 237 281 231 299 221 L326 277 Z M157 112 C193 112 216 90 216 57 C216 8 179 -14 146 -14 C111 -14 84 7 84 44 C84 85 118 112 157 112 L157 112 Z " />
<glyph glyph-name="uni2087" unicode="&#x2087;" horiz-adv-x="368" d="M343 293 L55 293 L42 227 L232 227 C210 213 66 104 25 -72 L105 -72 C159 107 272 190 329 229 L343 293 Z " />
<glyph glyph-name="uni2088" unicode="&#x2088;" horiz-adv-x="396" d="M137 187 C137 219 161 239 197 239 C230 237 245 219 245 198 C245 161 212 146 182 146 C156 146 137 163 137 187 L137 187 Z M92 27 C92 60 122 84 162 84 C199 84 220 64 220 39 C220 3 193 -18 152 -18 C120 -18 92 -2 92 27 L92 27 Z M148 -79 C231 -79 297 -31 297 40 C297 69 274 101 245 112 C296 130 321 169 321 208 C321 262 273 300 204 300 C116 300 62 251 62 185 C62 160 81 129 109 118 C49 103 15 63 15 20 C15 -35 61 -79 148 -79 L148 -79 Z " />
<glyph glyph-name="uni2089" unicode="&#x2089;" horiz-adv-x="407" d="M15 -43 C40 -64 86 -78 125 -78 C263 -78 332 25 332 162 C332 258 269 301 199 301 C119 301 46 248 46 161 C46 91 101 46 171 46 C194 46 225 56 243 77 C230 17 176 -11 129 -11 C99 -11 69 -3 45 14 L15 -43 Z M182 109 C149 109 125 131 125 166 C125 212 159 237 194 237 C224 237 251 215 251 181 C251 139 221 109 182 109 L182 109 Z " />
<glyph glyph-name="Euro" unicode="&#x20ac;" horiz-adv-x="689" d="M50 365 L130 365 C125 339 122 311 122 282 L32 282 L15 202 L131 202 C165 63 292 -15 422 -15 C489 -15 550 2 599 34 L566 108 C528 81 482 70 432 70 C338 70 259 116 231 202 L421 202 L475 282 L220 282 C220 312 224 339 230 365 L522 365 L576 443 L260 443 C311 534 403 577 487 577 C546 577 602 558 637 525 L694 596 C650 638 577 663 495 663 C369 663 219 592 154 443 L67 443 L50 365 Z " />
<glyph glyph-name="uni2113" unicode="&#x2113;" horiz-adv-x="470" d="M96 127 C96 52 141 -5 246 -5 C283 -5 313 9 321 18 L339 103 C330 97 306 82 263 82 C222 82 192 97 192 142 C192 150 195 169 197 179 L217 274 C361 343 455 477 455 591 C455 662 412 709 334 709 C261 709 203 656 184 565 L136 335 C111 326 86 320 63 316 L45 229 C69 231 92 234 115 239 C110 218 96 159 96 127 L96 127 Z M277 556 C287 605 307 622 329 622 C351 622 361 608 361 586 C361 505 309 438 242 391 L277 556 Z " />
<glyph glyph-name="trademark" unicode="&#x2122;" horiz-adv-x="874" d="M364 641 L378 709 L78 709 L64 641 L176 641 L113 344 L189 344 L252 641 L364 641 Z M770 344 L847 709 L746 709 L588 455 L532 709 L441 709 L364 344 L440 344 L489 574 L541 344 L600 344 L747 577 L698 344 L770 344 Z " />
<glyph glyph-name="Omega" unicode="&#x2126;" horiz-adv-x="816" d="M408 636 C531 636 661 550 661 388 C661 243 550 153 451 132 L451 0 L756 0 L756 88 L556 88 C659 125 761 233 761 387 C761 599 592 724 408 724 C224 724 55 599 55 387 C55 233 157 125 259 88 L60 88 L60 0 L365 0 L365 132 C266 153 155 243 155 388 C155 550 285 636 408 636 L408 636 Z " />
<glyph glyph-name="uni2160" unicode="&#x2160;" horiz-adv-x="493" d="M112 648 L94 560 L243 560 L143 88 L-7 88 L-25 0 L371 0 L389 88 L239 88 L339 560 L490 560 L508 648 L112 648 Z " />
<glyph glyph-name="uni2161" unicode="&#x2161;" horiz-adv-x="757" d="M112 648 L94 560 L233 560 L133 88 L-7 88 L-25 0 L635 0 L653 88 L513 88 L613 560 L754 560 L772 648 L112 648 Z M229 88 L329 560 L517 560 L417 88 L229 88 Z " />
<glyph glyph-name="uni2162" unicode="&#x2162;" horiz-adv-x="1031" d="M692 88 L509 88 L608 560 L791 560 L692 88 Z M413 88 L230 88 L329 560 L512 560 L413 88 Z M-25 0 L909 0 L927 88 L788 88 L887 560 L1028 560 L1046 648 L112 648 L94 560 L233 560 L134 88 L-7 88 L-25 0 Z " />
<glyph glyph-name="uni2163" unicode="&#x2163;" horiz-adv-x="982" d="M94 560 L223 560 L123 88 L-7 88 L-25 0 L871 0 L889 88 L610 88 L874 560 L989 560 L1007 648 L112 648 L94 560 Z M319 560 L399 560 L460 88 L219 88 L319 560 Z M502 560 L774 560 L548 141 L502 560 Z " />
<glyph glyph-name="uni2164" unicode="&#x2164;" horiz-adv-x="765" d="M-17 88 L-35 0 L649 0 L667 88 L398 88 L662 560 L772 560 L790 648 L97 648 L79 560 L187 560 L248 88 L-17 88 Z M290 560 L562 560 L336 141 L290 560 Z " />
<glyph glyph-name="uni2165" unicode="&#x2165;" horiz-adv-x="982" d="M84 560 L197 560 L258 88 L-17 88 L-35 0 L861 0 L879 88 L749 88 L849 560 L979 560 L997 648 L102 648 L84 560 Z M672 560 L753 560 L653 88 L408 88 L672 560 Z M300 560 L572 560 L346 141 L300 560 Z " />
<glyph glyph-name="uni2166" unicode="&#x2166;" horiz-adv-x="1270" d="M345 141 L300 560 L572 560 L345 141 Z M653 88 L408 88 L671 560 L752 560 L653 88 Z M931 88 L749 88 L848 560 L1030 560 L931 88 Z M1148 0 L1166 88 L1027 88 L1126 560 L1266 560 L1284 648 L101 648 L83 560 L198 560 L257 88 L-17 88 L-35 0 L1148 0 Z " />
<glyph glyph-name="uni2167" unicode="&#x2167;" horiz-adv-x="1529" d="M94 560 L207 560 L263 88 L-7 88 L-25 0 L1407 0 L1425 88 L1290 88 L1390 560 L1526 560 L1544 648 L112 648 L94 560 Z M852 560 L1025 560 L925 88 L752 88 L852 560 Z M1121 560 L1294 560 L1194 88 L1021 88 L1121 560 Z M672 560 L756 560 L656 88 L413 88 L672 560 Z M309 560 L573 560 L351 141 L309 560 Z " />
<glyph glyph-name="uni2168" unicode="&#x2168;" horiz-adv-x="952" d="M94 560 L223 560 L123 88 L-7 88 L-25 0 L841 0 L859 88 L744 88 L632 317 L854 560 L959 560 L977 648 L112 648 L94 560 Z M525 317 L312 88 L219 88 L319 560 L405 560 L525 317 Z M515 560 L744 560 L594 392 L515 560 Z M561 243 L635 88 L419 88 L561 243 Z " />
<glyph glyph-name="uni2169" unicode="&#x2169;" horiz-adv-x="733" d="M306 317 L93 88 L-17 88 L-35 0 L622 0 L640 88 L525 88 L413 317 L635 560 L740 560 L758 648 L102 648 L84 560 L186 560 L306 317 Z M296 560 L525 560 L375 392 L296 560 Z M342 243 L416 88 L200 88 L342 243 Z " />
<glyph glyph-name="uni216C" unicode="&#x216c;" horiz-adv-x="623" d="M112 648 L94 560 L223 560 L123 88 L-7 88 L-25 0 L509 0 L568 281 L472 281 L431 88 L219 88 L319 560 L460 560 L478 648 L112 648 Z " />
<glyph glyph-name="uni216D" unicode="&#x216d;" horiz-adv-x="711" d="M621 648 L603 565 C568 626 504 663 399 663 C236 663 45 529 45 274 C45 100 178 -15 330 -15 C402 -15 456 9 498 52 L488 0 L581 0 L630 231 L535 231 L531 212 C517 145 458 72 339 72 C229 72 141 147 141 274 C141 481 269 574 387 574 C483 574 569 513 573 424 L668 424 L716 648 L621 648 Z " />
<glyph glyph-name="uni216E" unicode="&#x216e;" horiz-adv-x="737" d="M325 560 L409 560 C506 560 576 503 576 392 C576 190 441 88 306 88 L224 88 L325 560 Z M-25 0 L316 0 C478 0 672 129 672 395 C672 565 559 648 422 648 L110 648 L94 560 L228 560 L129 88 L-7 88 L-25 0 Z " />
<glyph glyph-name="uni216F" unicode="&#x216f;" horiz-adv-x="1036" d="M308 88 L205 88 L295 518 L403 0 L479 0 L807 516 L717 88 L617 88 L599 0 L914 0 L932 88 L811 88 L910 560 L1033 560 L1051 648 L785 648 L464 133 L364 648 L112 648 L94 560 L210 560 L111 88 L-7 88 L-25 0 L290 0 L308 88 Z " />
<glyph glyph-name="arrowleft" unicode="&#x2190;" horiz-adv-x="1026" d="M221 102 L221 246 L956 246 L956 329 L221 329 L221 473 L0 287 L221 102 Z " />
<glyph glyph-name="arrowup" unicode="&#x2191;" horiz-adv-x="449" d="M240 800 L40 555 L198 555 L198 -148 L281 -148 L281 555 L439 555 L240 800 Z " />
<glyph glyph-name="arrowright" unicode="&#x2192;" horiz-adv-x="1026" d="M982 287 L730 499 L730 328 L34 328 L34 245 L730 245 L730 76 L982 287 Z " />
<glyph glyph-name="arrowdown" unicode="&#x2193;" horiz-adv-x="449" d="M422 90 L251 90 L251 786 L168 786 L168 90 L-1 90 L210 -162 L422 90 Z " />
<glyph glyph-name="uni2196" unicode="&#x2196;" horiz-adv-x="874" d="M55 709 L55 415 L172 533 L715 -8 L774 50 L231 592 L347 709 L55 709 Z " />
<glyph glyph-name="uni2197" unicode="&#x2197;" horiz-adv-x="773" d="M381 709 L497 592 L-46 50 L13 -8 L555 533 L673 415 L673 709 L381 709 Z " />
<glyph glyph-name="uni2198" unicode="&#x2198;" horiz-adv-x="874" d="M774 0 L774 294 L656 175 L114 717 L55 659 L598 117 L482 0 L774 0 Z " />
<glyph glyph-name="uni2199" unicode="&#x2199;" horiz-adv-x="764" d="M337 0 L221 117 L764 659 L705 717 L162 175 L45 294 L45 0 L337 0 Z " />
<glyph glyph-name="uni21A9" unicode="&#x21a9;" horiz-adv-x="833" d="M398 581 L578 581 C659 581 725 535 725 455 C725 374 657 329 582 329 L219 329 L219 473 L-2 287 L219 102 L219 246 L587 246 C706 246 807 333 807 455 C807 579 706 664 587 664 L398 664 L398 581 Z " />
<glyph glyph-name="uni21B0" unicode="&#x21b0;" horiz-adv-x="775" d="M271 353 L271 497 L602 497 L602 0 L685 0 L685 580 L271 580 L271 724 L50 538 L271 353 Z " />
<glyph glyph-name="uni21B1" unicode="&#x21b1;" horiz-adv-x="720" d="M118 0 L118 497 L499 497 L499 353 L720 538 L499 724 L499 580 L35 580 L35 0 L118 0 Z " />
<glyph glyph-name="uni21B2" unicode="&#x21b2;" horiz-adv-x="760" d="M592 709 L592 212 L211 212 L211 356 L-10 171 L211 -15 L211 129 L675 129 L675 709 L592 709 Z " />
<glyph glyph-name="uni21B3" unicode="&#x21b3;" horiz-adv-x="840" d="M549 356 L549 212 L168 212 L168 709 L85 709 L85 129 L549 129 L549 -15 L770 171 L549 356 Z " />
<glyph glyph-name="uni21B4" unicode="&#x21b4;" horiz-adv-x="814" d="M55 626 L552 626 L552 205 L408 205 L593 -16 L779 205 L635 205 L635 709 L55 709 L55 626 Z " />
<glyph glyph-name="uni21C6" unicode="&#x21c6;" horiz-adv-x="1106" d="M276 355 L276 499 L1031 499 L1031 582 L276 582 L276 726 L55 540 L276 355 Z M1051 170 L830 356 L830 212 L75 212 L75 129 L830 129 L830 -15 L1051 170 Z " />
<glyph glyph-name="partialdiff" unicode="&#x2202;" horiz-adv-x="653" d="M272 638 C391 638 474 567 488 395 C458 426 397 452 317 452 C184 452 71 364 71 221 C71 63 190 -15 312 -15 C492 -15 587 125 587 348 C587 659 400 724 280 724 C225 724 155 713 100 681 L132 607 C184 632 240 638 272 638 L272 638 Z M331 369 C394 369 456 342 489 297 C489 284 488 270 487 257 C482 195 443 72 317 72 C240 72 167 123 167 215 C167 299 222 369 331 369 L331 369 Z " />
<glyph glyph-name="Delta" unicode="&#x2206;" horiz-adv-x="657" d="M497 90 L114 90 L304 597 L497 90 Z M-25 0 L637 0 L358 709 L253 709 L-25 0 Z " />
<glyph glyph-name="product" unicode="&#x220f;" horiz-adv-x="687" d="M594 0 L594 709 L87 709 L87 0 L185 0 L185 622 L499 622 L499 0 L594 0 Z " />
<glyph glyph-name="summation" unicode="&#x2211;" horiz-adv-x="567" d="M40 0 L537 0 L537 90 L163 90 L441 357 L172 619 L537 619 L537 709 L40 709 L40 623 L313 357 L40 86 L40 0 Z " />
<glyph glyph-name="minus" unicode="&#x2212;" horiz-adv-x="533" d="M42 248 L465 248 L465 327 L42 327 L42 248 Z " />
<glyph glyph-name="uni2215" unicode="&#x2215;" horiz-adv-x="386" d="M371 648 L-75 0 L20 0 L466 648 L371 648 Z " />
<glyph glyph-name="uni2219" unicode="&#x2219;" horiz-adv-x="272" d="M55 276 C55 243 81 215 120 215 C161 215 197 248 197 292 C197 326 172 354 133 354 C90 354 55 318 55 276 L55 276 Z " />
<glyph glyph-name="radical" unicode="&#x221a;" horiz-adv-x="665" d="M712 780 L712 868 L517 868 L282 155 L155 529 L47 529 L236 0 L327 0 L593 780 L712 780 Z " />
<glyph glyph-name="infinity" unicode="&#x221e;" horiz-adv-x="811" d="M45 290 C45 194 118 122 219 122 C285 122 340 159 399 228 C443 171 504 122 582 122 C683 122 756 194 756 290 C756 386 683 459 582 459 C517 459 461 422 403 351 C346 422 285 459 219 459 C118 459 45 386 45 290 L45 290 Z M221 379 C273 379 307 339 350 287 C309 237 271 200 221 200 C164 200 128 238 128 289 C128 340 164 379 221 379 L221 379 Z M580 200 C530 200 493 239 451 291 C494 340 528 379 580 379 C637 379 673 340 673 289 C673 238 637 200 580 200 L580 200 Z " />
<glyph glyph-name="integral" unicode="&#x222b;" horiz-adv-x="310" d="M91 -33 C91 -86 60 -114 18 -114 L-13 -114 L-13 -200 L30 -200 C128 -200 185 -139 185 -41 L185 544 C185 597 213 623 257 623 L287 623 L287 709 L250 709 C151 709 91 649 91 551 L91 -33 Z " />
<glyph glyph-name="approxequal" unicode="&#x2248;" horiz-adv-x="654" d="M513 429 C488 399 459 385 427 385 C404 385 380 392 357 405 L311 430 C274 450 242 461 208 461 C152 461 103 431 65 376 L118 329 C144 359 176 374 209 374 C229 374 250 368 271 357 L318 331 C353 311 385 301 418 301 C476 301 527 331 564 384 L513 429 Z M513 235 C488 205 459 191 427 191 C404 191 380 198 357 211 L311 236 C274 256 242 267 208 267 C152 267 103 237 65 182 L118 135 C144 165 176 180 209 180 C229 180 250 174 271 163 L318 137 C353 117 385 107 418 107 C476 107 527 137 564 190 L513 235 Z " />
<glyph glyph-name="notequal" unicode="&#x2260;" horiz-adv-x="619" d="M65 346 L303 346 L217 230 L65 230 L65 151 L159 151 L86 51 L182 51 L255 151 L528 151 L528 230 L314 230 L399 346 L528 346 L528 423 L456 423 L529 522 L433 522 L360 423 L65 423 L65 346 Z " />
<glyph glyph-name="lessequal" unicode="&#x2264;" horiz-adv-x="567" d="M65 51 L477 51 L477 130 L65 130 L65 51 Z M65 304 L477 159 L477 243 L170 347 L477 451 L477 535 L65 389 L65 304 Z " />
<glyph glyph-name="greaterequal" unicode="&#x2265;" horiz-adv-x="567" d="M477 130 L65 130 L65 51 L477 51 L477 130 Z M477 389 L65 535 L65 451 L372 347 L65 243 L65 159 L477 304 L477 389 Z " />
<glyph glyph-name="dotmath" unicode="&#x22c5;" horiz-adv-x="272" d="M55 276 C55 243 81 215 120 215 C161 215 197 248 197 292 C197 326 172 354 133 354 C90 354 55 318 55 276 L55 276 Z " />
<glyph glyph-name="uni24C5" unicode="&#x24c5;" horiz-adv-x="826" d="M40 355 C40 152 202 -15 404 -15 C607 -15 771 152 771 355 C771 558 607 724 404 724 C202 724 40 558 40 355 L40 355 Z M118 355 C118 523 244 651 404 651 C564 651 690 523 690 355 C690 187 564 58 404 58 C244 58 118 187 118 355 L118 355 Z M374 367 L402 494 L452 494 C494 494 515 476 515 443 C515 392 479 367 426 367 L374 367 Z M443 303 C526 303 589 365 589 446 C589 504 544 558 474 558 L342 558 L257 157 L330 157 L360 303 L443 303 Z " />
<glyph glyph-name="filledbox" unicode="&#x25a0;" horiz-adv-x="879" d="M85 0 L794 0 L794 709 L85 709 L85 0 Z " />
<glyph glyph-name="H22073" unicode="&#x25a1;" horiz-adv-x="879" d="M794 0 L794 709 L85 709 L85 0 L794 0 Z M167 633 L712 633 L712 75 L167 75 L167 633 Z " />
<glyph glyph-name="triagup" unicode="&#x25b2;" horiz-adv-x="847" d="M360 724 L-60 0 L777 0 L360 724 Z " />
<glyph glyph-name="uni25B3" unicode="&#x25b3;" horiz-adv-x="847" d="M-60 0 L777 0 L360 724 L-60 0 Z M359 561 L640 75 L76 75 L359 561 Z " />
<glyph glyph-name="lozenge" unicode="&#x25ca;" horiz-adv-x="556" d="M278 112 L137 354 L278 597 L418 354 L278 112 Z M319 0 L521 354 L319 709 L237 709 L35 354 L237 0 L319 0 Z " />
<glyph glyph-name="circle" unicode="&#x25cb;" horiz-adv-x="846" d="M791 354 C791 559 625 725 420 725 C215 725 50 559 50 354 C50 149 215 -16 420 -16 C625 -16 791 149 791 354 L791 354 Z M708 354 C708 192 580 63 420 63 C260 63 132 192 132 354 C132 516 260 645 420 645 C580 645 708 516 708 354 L708 354 Z " />
<glyph glyph-name="H18533" unicode="&#x25cf;" horiz-adv-x="846" d="M50 354 C50 149 215 -16 420 -16 C625 -16 791 149 791 354 C791 559 625 725 420 725 C215 725 50 559 50 354 L50 354 Z " />
<glyph glyph-name="uni262E" unicode="&#x262e;" horiz-adv-x="826" d="M771 355 C771 558 607 724 404 724 C202 724 40 558 40 355 C40 152 202 -15 404 -15 C607 -15 771 152 771 355 L771 355 Z M690 355 C690 298 675 246 650 201 L444 408 L444 648 C584 628 690 508 690 355 L690 355 Z M118 355 C118 508 222 628 362 648 L362 408 L157 203 C132 247 118 299 118 355 L118 355 Z M444 61 L444 292 L600 136 C558 96 504 69 444 61 L444 61 Z M207 137 L362 292 L362 61 C302 69 248 96 207 137 L207 137 Z " />
<glyph glyph-name="uni2713" unicode="&#x2713;" horiz-adv-x="780" d="M870 670 L810 729 L236 108 L10 355 L-50 298 L232 -17 L870 670 Z " />
<glyph glyph-name="uni2715" unicode="&#x2715;" horiz-adv-x="774" d="M93 -5 L387 295 L681 -5 L739 53 L444 354 L739 655 L680 713 L387 413 L94 713 L35 655 L329 354 L35 53 L93 -5 Z " />
<glyph glyph-name="uni2780" unicode="&#x2780;" horiz-adv-x="826" d="M40 355 C40 152 202 -15 404 -15 C607 -15 771 152 771 355 C771 558 607 724 404 724 C202 724 40 558 40 355 L40 355 Z M118 355 C118 523 244 651 404 651 C564 651 690 523 690 355 C690 187 564 58 404 58 C244 58 118 187 118 355 L118 355 Z M451 173 L451 538 L380 538 C373 501 337 471 288 470 L288 418 L374 418 L374 173 L451 173 Z " />
<glyph glyph-name="uni2781" unicode="&#x2781;" horiz-adv-x="826" d="M404 724 C202 724 40 558 40 355 C40 152 202 -15 404 -15 C607 -15 771 152 771 355 C771 558 607 724 404 724 L404 724 Z M118 355 C118 523 244 651 404 651 C564 651 690 523 690 355 C690 187 564 58 404 58 C244 58 118 187 118 355 L118 355 Z M353 336 C293 299 268 248 268 188 L268 178 L536 178 L536 243 L361 243 C364 257 377 270 392 280 L464 325 C507 352 534 388 534 435 C534 496 485 550 403 550 C321 550 271 496 271 433 C271 425 272 412 274 402 L348 402 C346 411 345 424 345 428 C345 463 368 486 402 486 C437 486 456 462 456 436 C456 412 441 390 413 373 L353 336 Z " />
<glyph glyph-name="uni2782" unicode="&#x2782;" horiz-adv-x="826" d="M40 355 C40 152 202 -15 404 -15 C607 -15 771 152 771 355 C771 558 607 724 404 724 C202 724 40 558 40 355 L40 355 Z M118 355 C118 523 244 651 404 651 C564 651 690 523 690 355 C690 187 564 58 404 58 C244 58 118 187 118 355 L118 355 Z M369 339 C376 341 387 343 397 343 C430 343 465 327 465 285 C465 254 438 230 397 230 C356 230 324 256 318 294 L251 267 C263 215 311 164 398 164 C485 164 543 219 543 285 C543 353 492 391 435 396 L535 474 L535 537 L264 537 L264 472 L433 472 L340 395 L369 339 Z " />
<glyph glyph-name="uni2783" unicode="&#x2783;" horiz-adv-x="826" d="M40 355 C40 152 202 -15 404 -15 C607 -15 771 152 771 355 C771 558 607 724 404 724 C202 724 40 558 40 355 L40 355 Z M118 355 C118 523 244 651 404 651 C564 651 690 523 690 355 C690 187 564 58 404 58 C244 58 118 187 118 355 L118 355 Z M230 250 L415 250 L415 178 L492 178 L492 250 L556 250 L556 315 L492 315 L492 543 L407 543 L230 323 L230 250 Z M415 315 L304 315 L415 454 L415 315 Z " />
<glyph glyph-name="uni2784" unicode="&#x2784;" horiz-adv-x="826" d="M40 355 C40 152 202 -15 404 -15 C607 -15 771 152 771 355 C771 558 607 724 404 724 C202 724 40 558 40 355 L40 355 Z M118 355 C118 523 244 651 404 651 C564 651 690 523 690 355 C690 187 564 58 404 58 C244 58 118 187 118 355 L118 355 Z M252 255 C265 208 319 163 391 163 C484 163 536 221 536 292 C536 365 486 411 412 411 C385 411 357 403 339 383 L362 469 L516 469 L516 535 L312 535 L263 348 L327 324 C343 340 364 351 391 351 C429 351 458 330 458 289 C458 250 430 228 391 228 C355 228 327 250 318 285 L252 255 Z " />
<glyph glyph-name="uni2785" unicode="&#x2785;" horiz-adv-x="826" d="M40 355 C40 152 202 -15 404 -15 C607 -15 771 152 771 355 C771 558 607 724 404 724 C202 724 40 558 40 355 L40 355 Z M118 355 C118 523 244 651 404 651 C564 651 690 523 690 355 C690 187 564 58 404 58 C244 58 118 187 118 355 L118 355 Z M523 527 C503 539 470 546 437 546 C326 546 243 463 243 333 C243 218 320 166 394 166 C477 166 541 218 541 295 C541 375 488 421 411 421 C374 421 337 403 320 378 C331 447 379 483 443 483 C464 483 485 479 505 470 L523 527 Z M326 294 C326 335 361 357 395 357 C429 357 463 335 463 294 C463 253 429 231 395 231 C361 231 326 253 326 294 L326 294 Z " />
<glyph glyph-name="uni2786" unicode="&#x2786;" horiz-adv-x="826" d="M40 355 C40 152 202 -15 404 -15 C607 -15 771 152 771 355 C771 558 607 724 404 724 C202 724 40 558 40 355 L40 355 Z M118 355 C118 523 244 651 404 651 C564 651 690 523 690 355 C690 187 564 58 404 58 C244 58 118 187 118 355 L118 355 Z M554 533 L257 533 L257 467 L454 467 C454 467 336 366 318 168 L400 168 C418 357 519 440 554 464 L554 533 Z " />
<glyph glyph-name="uni2787" unicode="&#x2787;" horiz-adv-x="826" d="M40 355 C40 152 202 -15 404 -15 C607 -15 771 152 771 355 C771 558 607 724 404 724 C202 724 40 558 40 355 L40 355 Z M118 355 C118 523 244 651 404 651 C564 651 690 523 690 355 C690 187 564 58 404 58 C244 58 118 187 118 355 L118 355 Z M403 390 C368 390 346 409 346 438 C346 464 367 483 403 483 C439 483 460 464 460 438 C460 409 438 390 403 390 L403 390 Z M403 230 C359 230 336 250 336 280 C336 309 360 330 403 330 C446 330 470 309 470 280 C470 250 447 230 403 230 L403 230 Z M403 166 C496 166 548 213 548 274 C548 310 523 344 480 360 C516 375 536 407 536 440 C536 502 480 545 403 545 C326 545 270 502 270 440 C270 407 290 375 326 360 C283 344 258 310 258 274 C258 213 310 166 403 166 L403 166 Z " />
<glyph glyph-name="uni2788" unicode="&#x2788;" horiz-adv-x="826" d="M40 355 C40 152 202 -15 404 -15 C607 -15 771 152 771 355 C771 558 607 724 404 724 C202 724 40 558 40 355 L40 355 Z M118 355 C118 523 244 651 404 651 C564 651 690 523 690 355 C690 187 564 58 404 58 C244 58 118 187 118 355 L118 355 Z M276 183 C296 171 329 164 362 164 C473 164 554 239 554 377 C554 492 479 544 405 544 C322 544 258 491 258 415 C258 337 313 289 388 289 C425 289 462 307 479 332 C471 260 420 229 356 229 C335 229 314 233 294 242 L276 183 Z M471 415 C471 374 438 351 402 351 C366 351 334 374 334 415 C334 456 366 479 402 479 C438 479 471 456 471 415 L471 415 Z " />
<glyph glyph-name="uniE000" unicode="&#xe000;" horiz-adv-x="814" d="M221 -16 L406 205 L262 205 L262 626 L759 626 L759 709 L179 709 L179 205 L35 205 L221 -16 Z " />
<glyph glyph-name="uni21B5" unicode="&#xe001;" horiz-adv-x="1080" d="M224 145 L403 355 L260 355 C260 514 386 641 546 641 C598 641 647 627 690 603 L727 677 C673 707 611 724 545 724 C342 724 177 559 176 355 L45 355 L224 145 Z M914 354 L1050 354 L871 564 L692 354 L830 354 C830 195 704 68 544 68 C492 68 443 82 400 106 L363 32 C417 2 479 -15 545 -15 C748 -15 913 149 914 354 L914 354 Z " />
<glyph glyph-name="uniE002" unicode="&#xe002;" horiz-adv-x="949" d="M561 354 L705 354 C705 194 580 66 420 66 C260 66 134 194 134 354 C134 514 260 641 420 641 C472 641 521 627 564 603 L601 677 C547 707 485 724 419 724 C215 724 50 559 50 354 C50 150 215 -15 419 -15 C624 -15 789 150 789 354 L919 354 L740 564 L561 354 Z " />
<glyph glyph-name="uniFB00" unicode="&#xfb00;" horiz-adv-x="618" d="M617 643 C637 643 652 637 657 635 L675 715 C672 717 649 729 611 729 C552 729 466 711 439 581 L418 481 L229 481 L247 566 C260 625 291 643 331 643 C351 643 366 637 371 635 L389 715 C386 717 363 729 325 729 C266 729 180 711 153 581 L132 481 L51 481 L33 398 L114 398 L30 0 L127 0 L211 398 L400 398 L316 0 L413 0 L497 398 L606 398 L624 481 L515 481 L533 566 C546 625 577 643 617 643 L617 643 Z " />
<glyph glyph-name="fi" unicode="&#xfb01;" horiz-adv-x="591" d="M211 398 L424 398 L339 0 L433 0 L536 481 L229 481 L247 566 C260 625 291 643 331 643 C351 643 366 637 371 635 L389 715 C386 717 363 729 325 729 C266 729 180 711 153 581 L132 481 L51 481 L33 398 L114 398 L30 0 L127 0 L211 398 Z M459 659 C459 626 484 599 520 599 C556 599 594 632 594 673 C594 706 569 733 533 733 C497 733 459 701 459 659 L459 659 Z " />
<glyph glyph-name="fl" unicode="&#xfb02;" horiz-adv-x="590" d="M331 643 C351 643 366 637 371 635 L389 715 C386 717 363 729 325 729 C266 729 180 711 153 581 L132 481 L51 481 L33 398 L114 398 L30 0 L127 0 L211 398 L425 398 L340 0 L434 0 L588 724 L494 724 L442 481 L229 481 L247 566 C260 625 291 643 331 643 L331 643 Z " />
<glyph glyph-name="uniFB03" unicode="&#xfb03;" horiz-adv-x="870" d="M738 659 C738 626 763 599 799 599 C835 599 873 632 873 673 C873 706 848 733 812 733 C776 733 738 701 738 659 L738 659 Z M617 643 C637 643 652 637 657 635 L675 715 C672 717 649 729 611 729 C552 729 466 711 439 581 L418 481 L229 481 L247 566 C260 625 291 643 331 643 C351 643 366 637 371 635 L389 715 C386 717 363 729 325 729 C266 729 180 711 153 581 L132 481 L51 481 L33 398 L114 398 L30 0 L127 0 L211 398 L400 398 L316 0 L413 0 L497 398 L703 398 L618 0 L712 0 L815 481 L515 481 L533 566 C546 625 577 643 617 643 L617 643 Z " />
<glyph glyph-name="uniFB04" unicode="&#xfb04;" horiz-adv-x="875" d="M617 643 C637 643 652 637 657 635 L675 715 C672 717 649 729 611 729 C552 729 466 711 439 581 L418 481 L229 481 L247 566 C260 625 291 643 331 643 C351 643 366 637 371 635 L389 715 C386 717 363 729 325 729 C266 729 180 711 153 581 L132 481 L51 481 L33 398 L114 398 L30 0 L127 0 L211 398 L400 398 L316 0 L413 0 L497 398 L710 398 L625 0 L719 0 L873 724 L779 724 L727 481 L515 481 L533 566 C546 625 577 643 617 643 L617 643 Z " />
<glyph glyph-name="uniFEFF" unicode="&#xfeff;" d="" />
</font>
</svg>
