<?xml version="1.0" encoding="UTF-8" standalone="no"?>
<svg width="21px" height="21px" viewBox="0 0 21 21" version="1.1" xmlns="http://www.w3.org/2000/svg" xmlns:xlink="http://www.w3.org/1999/xlink">
    <!-- Generator: Sketch 3.7.2 (28276) - http://www.bohemiancoding.com/sketch -->
    <title>close</title>
    <desc>Created with Sketch.</desc>
    <defs></defs>
    <g id="Page-1" stroke="none" stroke-width="1" fill="none" fill-rule="evenodd">
        <path d="M10.4045744,9.01738301 L2.07842917,0.691237748 C1.69226399,0.305072572 1.07665804,0.310533376 0.693595708,0.693595708 C0.307862736,1.07932868 0.309477681,1.6966691 0.691237748,2.07842917 L9.01738301,10.4045744 L0.691237748,18.7307197 C0.309477681,19.1124798 0.307862736,19.7298202 0.693595708,20.1155531 C1.07665804,20.4986155 1.69226399,20.5040763 2.07842917,20.1179111 L10.4045744,11.7917658 L18.7307197,20.1179111 C19.1168849,20.5040763 19.7324908,20.4986155 20.1155531,20.1155531 C20.5012861,19.7298202 20.4996712,19.1124798 20.1179111,18.7307197 L11.7917658,10.4045744 L20.1179111,2.07842917 C20.4996712,1.6966691 20.5012861,1.07932868 20.1155531,0.693595708 C19.7324908,0.310533376 19.1168849,0.305072572 18.7307197,0.691237748 L10.4045744,9.01738301 Z" id="close" fill="#FFFFFF"></path>
    </g>
</svg>