<?xml version="1.0" encoding="UTF-8" standalone="no"?>
<svg width="135px" height="45px" viewBox="0 0 135 45" version="1.1" xmlns="http://www.w3.org/2000/svg" xmlns:xlink="http://www.w3.org/1999/xlink">
    <!-- Generator: Sketch 39.1 (31720) - http://www.bohemiancoding.com/sketch -->
    <title>spoogle</title>
    <desc>Created with Sketch.</desc>
    <defs></defs>
    <g id="Page-1" stroke="none" stroke-width="1" fill="none" fill-rule="evenodd">
        <g id="spoogle">
            <path d="M57.875,23.59 C57.875,29.975 52.88,34.68 46.75,34.68 C40.62,34.68 35.625,29.975 35.625,23.59 C35.625,17.16 40.62,12.5 46.75,12.5 C52.88,12.5 57.875,17.16 57.875,23.59 L57.875,23.59 Z M53.005,23.59 C53.005,19.6 50.11,16.87 46.75,16.87 C43.39,16.87 40.495,19.6 40.495,23.59 C40.495,27.54 43.39,30.31 46.75,30.31 C50.11,30.31 53.005,27.535 53.005,23.59 L53.005,23.59 Z" id="Shape" fill="#EA4335"></path>
            <path d="M81.875,23.59 C81.875,29.975 76.88,34.68 70.75,34.68 C64.62,34.68 59.625,29.975 59.625,23.59 C59.625,17.165 64.62,12.5 70.75,12.5 C76.88,12.5 81.875,17.16 81.875,23.59 L81.875,23.59 Z M77.005,23.59 C77.005,19.6 74.11,16.87 70.75,16.87 C67.39,16.87 64.495,19.6 64.495,23.59 C64.495,27.54 67.39,30.31 70.75,30.31 C74.11,30.31 77.005,27.535 77.005,23.59 L77.005,23.59 Z" id="Shape" fill="#FBBC05"></path>
            <path d="M104.875,13.17 L104.875,33.08 C104.875,41.27 100.045,44.615 94.335,44.615 C88.96,44.615 85.725,41.02 84.505,38.08 L88.745,36.315 C89.5,38.12 91.35,40.25 94.33,40.25 C97.985,40.25 100.25,37.995 100.25,33.75 L100.25,32.155 L100.08,32.155 C98.99,33.5 96.89,34.675 94.24,34.675 C88.695,34.675 83.615,29.845 83.615,23.63 C83.615,17.37 88.695,12.5 94.24,12.5 C96.885,12.5 98.985,13.675 100.08,14.98 L100.25,14.98 L100.25,13.175 L104.875,13.175 L104.875,13.17 Z M100.595,23.63 C100.595,19.725 97.99,16.87 94.675,16.87 C91.315,16.87 88.5,19.725 88.5,23.63 C88.5,27.495 91.315,30.31 94.675,30.31 C97.99,30.31 100.595,27.495 100.595,23.63 L100.595,23.63 Z" id="Shape" fill="#4285F4"></path>
            <polygon id="Shape" fill="#34A853" points="112.5 1.5 112.5 34 107.75 34 107.75 1.5"></polygon>
            <path d="M131.01,27.24 L134.79,29.76 C133.57,31.565 130.63,34.675 125.55,34.675 C119.25,34.675 114.545,29.805 114.545,23.585 C114.545,16.99 119.29,12.495 125.005,12.495 C130.76,12.495 133.575,17.075 134.495,19.55 L135,20.81 L120.175,26.95 C121.31,29.175 123.075,30.31 125.55,30.31 C128.03,30.31 129.75,29.09 131.01,27.24 L131.01,27.24 Z M119.375,23.25 L129.285,19.135 C128.74,17.75 127.1,16.785 125.17,16.785 C122.695,16.785 119.25,18.97 119.375,23.25 L119.375,23.25 Z" id="Shape" fill="#EA4335"></path>
            <path d="M17.645,20.705 L17.645,16 L33.5,16 C33.655,16.82 33.735,17.79 33.735,18.84 C33.735,22.37 32.77,26.735 29.66,29.845 C26.635,32.995 22.77,34.675 17.65,34.675 C8.16,34.675 0.18,26.945 0.18,17.455 C0.18,7.965 8.16,0.235 17.65,0.235 C22.9,0.235 26.64,2.295 29.45,4.98 L26.13,8.3 C24.115,6.41 21.385,4.94 17.645,4.94 C10.715,4.94 5.295,10.525 5.295,17.455 C5.295,24.385 10.715,29.97 17.645,29.97 C22.14,29.97 24.7,28.165 26.34,26.525 C27.67,25.195 28.545,23.295 28.89,20.7 L17.645,20.705 L17.645,20.705 Z" id="Shape" fill="#4285F4"></path>
        </g>
    </g>
</svg>