<?xml version="1.0" encoding="UTF-8" standalone="no"?>
<svg width="1280px" height="700px" viewBox="0 0 1280 700" version="1.1" xmlns="http://www.w3.org/2000/svg" xmlns:xlink="http://www.w3.org/1999/xlink">
    <!-- Generator: Sketch 41.2 (35397) - http://www.bohemiancoding.com/sketch -->
    <title>herobg</title>
    <desc>Created with Sketch.</desc>
    <defs>
        <rect id="path-1" x="0" y="0" width="1280" height="700"></rect>
        <filter x="-50%" y="-50%" width="200%" height="200%" filterUnits="objectBoundingBox" id="filter-3">
            <feOffset dx="0" dy="21" in="SourceAlpha" result="shadowOffsetOuter1"></feOffset>
            <feGaussianBlur stdDeviation="17" in="shadowOffsetOuter1" result="shadowBlurOuter1"></feGaussianBlur>
            <feColorMatrix values="0 0 0 0 0   0 0 0 0 0   0 0 0 0 0.156862745  0 0 0 0.08 0" type="matrix" in="shadowBlurOuter1" result="shadowMatrixOuter1"></feColorMatrix>
            <feMerge>
                <feMergeNode in="shadowMatrixOuter1"></feMergeNode>
                <feMergeNode in="SourceGraphic"></feMergeNode>
            </feMerge>
        </filter>
        <ellipse id="path-4" cx="434" cy="433.5" rx="434" ry="433.5"></ellipse>
    </defs>
    <g id="Page-1" stroke="none" stroke-width="1" fill="none" fill-rule="evenodd">
        <g id="herobg">
            <mask id="mask-2" fill="white">
                <use xlink:href="#path-1"></use>
            </mask>
            <use id="Rectangle-2" fill="#2861E0" xlink:href="#path-1"></use>
            <g id="Group" filter="url(#filter-3)" mask="url(#mask-2)">
                <g transform="translate(999.000000, 64.000000)">
                    <mask id="mask-5" fill="white">
                        <use xlink:href="#path-4"></use>
                    </mask>
                    <g id="Oval-3" stroke="none" fill="none" opacity="0.59660681"></g>
                    <path d="M778.390596,432.952759 C778.390596,243.072226 623.675247,88.555741 433.492379,88.555741 C243.309511,88.555741 88.5681599,243.072226 88.5681599,432.952759 C88.5681599,457.463524 68.702189,477.300626 44.1817564,477.300626 C19.6613238,477.300626 -0.230649662,457.463524 -0.230649662,432.952759 C-0.230649662,194.154555 194.346654,-0.114028152 433.492379,-0.114028152 C672.638104,-0.114028152 867.215408,194.154555 867.215408,432.952759 C867.215408,457.463524 847.323434,477.300626 822.803002,477.300626 C798.282569,477.300626 778.390596,457.463524 778.390596,432.952759 Z" id="Fill-21" stroke="none" fill="#95E7FF" fill-rule="evenodd" mask="url(#mask-5)"></path>
                    <path d="M-0.212447856,432.965742 C-0.212447856,408.480942 19.653523,388.643839 44.1739556,388.643839 C68.7203908,388.643839 88.5863617,408.480942 88.5863617,432.965742 C88.5863617,622.898205 243.301711,777.388725 433.484578,777.388725 C623.667446,777.388725 778.408798,622.898205 778.408798,432.965742 C778.408798,408.480942 798.274768,388.643839 822.795201,388.643839 C847.341636,388.643839 867.207607,408.480942 867.207607,432.965742 C867.207607,671.763946 672.630303,866.058494 433.484578,866.058494 C194.338853,866.058494 -0.212447856,671.763946 -0.212447856,432.965742 Z" id="Fill-22" stroke="none" fill="#40A0FF" fill-rule="evenodd" mask="url(#mask-5)"></path>
                    <path d="M20.4986068,470.547183 C12.6793398,455.781356 -6.44006569,430.12 6.63923189,409.400095 C93.7218712,271.578972 259.540322,185.973049 439.400165,185.973049 C611.121201,185.973049 767.994764,262.46533 859.029796,390.62755 C873.201202,410.594476 868.494735,438.272945 848.498751,452.423758 C828.502767,466.57457 800.758015,461.900907 786.586609,441.908016 C712.193228,337.16604 582.388351,274.642818 439.400165,274.642818 C289.755319,274.642818 152.695722,344.410218 81.734682,456.707949 C73.2838436,470.079817 58.8784144,477.401889 44.1349518,477.401889 C36.0481495,477.401889 23.243824,475.731225 20.4986068,470.547183 Z" id="Fill-23" stroke="none" fill="#55D7FF" fill-rule="evenodd" mask="url(#mask-5)"></path>
                    <path d="M7.95756267,458.377485 C-6.21384324,438.384594 -1.50737632,410.732089 18.4886074,396.555312 C38.4845912,382.4045 66.2033411,387.078162 80.4007496,407.071053 C154.79413,511.813029 284.599008,574.362216 427.587193,574.362216 C577.232039,574.362216 714.291637,504.568852 785.252677,392.271121 C798.331974,371.577181 825.738693,365.34563 846.488752,378.431886 C867.23881,391.492177 873.427424,418.859069 860.348127,439.578974 C773.265487,577.400097 607.421034,663.031986 427.587193,663.031986 C255.866157,663.031986 98.9925941,586.51374 7.95756267,458.377485 Z" id="Fill-24" stroke="none" fill="#14BBFC" fill-rule="evenodd" mask="url(#mask-5)"></path>
                </g>
            </g>
        </g>
    </g>
</svg>