<?xml version="1.0" encoding="UTF-8" standalone="no"?>
<svg width="398px" height="397px" viewBox="0 0 398 397" version="1.1" xmlns="http://www.w3.org/2000/svg" xmlns:xlink="http://www.w3.org/1999/xlink">
    <!-- Generator: Sketch 40.3 (33839) - http://www.bohemiancoding.com/sketch -->
    <title>Group</title>
    <desc>Created with Sketch.</desc>
    <defs></defs>
    <g id="Page-1" stroke="none" stroke-width="1" fill="none" fill-rule="evenodd">
        <g id="Group">
            <g>
                <path d="M356.983399,198.596143 C356.983399,111.649693 286.166081,40.8964702 199.114338,40.8964702 C112.062596,40.8964702 41.2333755,111.649693 41.2333755,198.596143 C41.2333755,209.819642 32.1401938,218.903067 20.9165414,218.903067 C9.69288912,218.903067 0.587805324,209.819642 0.587805324,198.596143 C0.587805324,89.2502525 89.6509976,0.294511308 199.114338,0.294511308 C308.577679,0.294511308 397.640871,89.2502525 397.640871,198.596143 C397.640871,209.819642 388.535788,218.903067 377.312135,218.903067 C366.088483,218.903067 356.983399,209.819642 356.983399,198.596143 Z" id="Fill-21" fill="#95E7FF"></path>
                <path d="M0.596136773,198.602088 C0.596136773,187.390478 9.6893185,178.307053 20.9129708,178.307053 C32.1485252,178.307053 41.2417069,187.390478 41.2417069,198.602088 C41.2417069,285.572316 112.059025,356.31365 199.110768,356.31365 C286.16251,356.31365 356.991731,285.572316 356.991731,198.602088 C356.991731,187.390478 366.084912,178.307053 377.308565,178.307053 C388.544119,178.307053 397.637301,187.390478 397.637301,198.602088 C397.637301,307.947978 308.574109,396.915608 199.110768,396.915608 C89.6474269,396.915608 0.596136773,307.947978 0.596136773,198.602088 Z" id="Fill-22" fill="#40A0FF"></path>
                <path d="M10.0761358,215.81066 C0.578283667,209.830342 -2.25440907,197.29902 3.7323323,187.811359 C43.5923658,124.702956 119.491868,85.5039341 201.818489,85.5039341 C280.419761,85.5039341 352.224951,120.529811 393.8941,179.215395 C400.380728,188.358267 398.226453,201.03226 389.073761,207.511929 C379.921069,213.991597 367.22156,211.851523 360.734932,202.696762 C326.683109,154.735327 267.267973,126.105893 201.818489,126.105893 C133.322074,126.105893 70.5862613,158.052442 38.1055114,209.473663 C34.2373385,215.596653 27.6435916,218.949435 20.8951177,218.949435 C17.1935738,218.949435 13.4444217,217.938845 10.0761358,215.81066 Z" id="Fill-23" fill="#55D7FF"></path>
                <path d="M4.33576727,210.238145 C-2.15086106,201.083384 0.00341367072,188.42128 9.15610575,181.929722 C18.3087978,175.450054 30.9964048,177.590128 37.4949352,186.744889 C71.5467584,234.706324 130.961893,263.347648 196.411378,263.347648 C264.907793,263.347648 327.643606,231.38921 360.124356,179.967988 C366.111097,170.492216 378.655879,167.638784 388.153731,173.630991 C397.651583,179.611309 400.484276,192.142631 394.497535,201.630292 C354.637501,264.738696 278.726097,303.949606 196.411378,303.949606 C117.810106,303.949606 46.0049155,268.91184 4.33576727,210.238145 Z" id="Fill-24" fill="#14BBFC"></path>
            </g>
        </g>
    </g>
</svg>