<?xml version="1.0" encoding="UTF-8" standalone="no"?>
<svg width="268px" height="68px" viewBox="0 0 268 68" version="1.1" xmlns="http://www.w3.org/2000/svg" xmlns:xlink="http://www.w3.org/1999/xlink">
    <!-- Generator: Sketch 41.2 (35397) - http://www.bohemiancoding.com/sketch -->
    <title>logo-white</title>
    <desc>Created with Sketch.</desc>
    <defs></defs>
    <g id="Page-1" stroke="none" stroke-width="1" fill="none" fill-rule="evenodd">
        <g id="Type" transform="translate(-286.000000, -206.000000)">
            <g id="White">
                <g id="logo-white" transform="translate(286.000000, 206.000000)">
                    <path d="M101.152,32.28 C101.152,22.04 108.32,17.176 115.296,17.176 C122.336,17.176 129.504,22.04 129.504,32.28 C129.504,42.52 122.336,47.384 115.296,47.384 C108.32,47.384 101.152,42.52 101.152,32.28 Z M92,32.344 C92,46.936 103.008,55.96 115.296,55.96 C127.648,55.96 138.656,46.936 138.656,32.344 C138.656,17.688 127.648,8.664 115.296,8.664 C103.008,8.664 92,17.688 92,32.344 Z M152.458,67.16 L152.458,51.928 C153.994,54.04 157.194,55.768 161.546,55.768 C170.442,55.768 176.394,48.728 176.394,39.192 C176.394,29.848 171.082,22.808 161.866,22.808 C157.13,22.808 153.61,24.92 152.202,27.352 L152.202,23.512 L143.946,23.512 L143.946,67.16 L152.458,67.16 Z M168.01,39.256 C168.01,44.888 164.554,48.152 160.202,48.152 C155.85,48.152 152.33,44.824 152.33,39.256 C152.33,33.688 155.85,30.424 160.202,30.424 C164.554,30.424 168.01,33.688 168.01,39.256 Z M191.732,14.104 L184.052,14.104 L184.052,18.52 C184.052,21.336 182.516,23.512 179.188,23.512 L177.588,23.512 L177.588,31.064 L183.284,31.064 L183.284,45.72 C183.284,51.8 187.124,55.448 193.268,55.448 C195.764,55.448 197.3,55 198.068,54.68 L198.068,47.64 C197.62,47.768 196.468,47.896 195.444,47.896 C193.012,47.896 191.732,47 191.732,44.248 L191.732,31.064 L198.068,31.064 L198.068,23.512 L191.732,23.512 L191.732,14.104 Z M209.438,35.672 C209.63,32.792 212.062,29.464 216.478,29.464 C221.342,29.464 223.39,32.536 223.518,35.672 L209.438,35.672 Z M224.35,43.864 C223.326,46.68 221.15,48.664 217.182,48.664 C212.958,48.664 209.438,45.656 209.246,41.496 L231.774,41.496 C231.774,41.368 231.902,40.088 231.902,38.872 C231.902,28.76 226.078,22.552 216.35,22.552 C208.286,22.552 200.862,29.08 200.862,39.128 C200.862,49.752 208.478,55.96 217.118,55.96 C224.862,55.96 229.854,51.416 231.454,45.976 L224.35,43.864 Z M251.016,48.216 C246.856,48.216 243.016,45.144 243.016,39.256 C243.016,33.304 246.856,30.296 251.016,30.296 C255.176,30.296 259.016,33.304 259.016,39.256 C259.016,45.208 255.176,48.216 251.016,48.216 Z M251.016,22.552 C241.608,22.552 234.504,29.528 234.504,39.256 C234.504,48.92 241.608,55.96 251.016,55.96 C260.424,55.96 267.528,48.92 267.528,39.256 C267.528,29.528 260.424,22.552 251.016,22.552 Z" id="Opteo" fill="#3B6DDF"></path>
                    <g id="Opteo_Icon_64x64">
                        <path d="M0,31.75 C0,30.0016412 1.49690095,28.5 3.25,28.5 C5.19424629,28.5 6.68927611,30.0016412 6.75,31.75 C6.68927611,45.876939 18.0432698,57.2811425 32,57.25 C45.9567302,57.2811425 57.3107239,45.876939 57.25,31.75 C57.3107239,30.0016412 58.8057537,28.5 60.75,28.5 C62.5030991,28.5 64,30.0016412 64,31.75 C64,49.5812378 49.6447199,64 32,64 C14.3552801,64 0,49.5812378 0,31.75 Z" id="Fill-187" fill="#3297FC"></path>
                        <path d="M57.25,32.25 C57.3107239,18.123061 45.9567302,6.71885754 32,6.75 C18.0432698,6.71885754 6.68927611,18.123061 6.75,32.25 C6.68927611,33.9983588 5.19424629,35.5 3.25,35.5 C1.49690095,35.5 0,33.9983588 0,32.25 C0,14.4187622 14.3552801,0 32,0 C49.6447199,0 64,14.4187622 64,32.25 C64,33.9983588 62.5030991,35.5 60.75,35.5 C58.8057537,35.5 57.3107239,33.9983588 57.25,32.25 Z" id="Fill-185" fill="#95E7FF"></path>
                        <path d="M57.5,33.75 C52.2833079,24.1847837 42.0611943,19.9332486 31.5,20 C21.5608326,19.9332486 11.7990229,24.0408368 6.5,33.75 C5.30424787,35.1808307 3.26281901,35.7192295 1.5,34.75 C0.0650170576,33.8666143 -0.473875254,31.8233162 0.5,30 C7.21282481,18.6306769 19.1900807,13.25 31.5,13.25 C44.3963943,13.25 56.8900887,18.8064043 63.5,30 C64.4738753,31.8233162 63.9349829,33.8666143 62.5,34.75 C61.807481,35.1023142 61.2292945,35.25 60.75,35.25 C59.5059618,35.25 58.3851406,34.655518 57.5,33.75 Z" id="Fill-186" fill="#55D7FF"></path>
                        <path d="M0.5,34 C-0.473256776,32.1762846 0.0656454362,30.1310731 1.5,29.25 C3.25602138,28.2765486 5.3049725,28.8149589 6.5,30.25 C11.711921,39.8168508 21.9398359,44.0666078 32.5,44 C42.438703,44.0666078 52.2025632,39.9589313 57.5,30.25 C58.6955864,28.8149589 60.7464087,28.2840265 62.5,29.25 C63.9349135,30.1310731 64.4738157,32.1762846 63.5,34 C56.7907168,45.3710769 44.8132409,50.75 32.5,50.75 C19.6008506,50.75 7.10692677,45.1934762 0.5,34 Z" id="Fill-188" fill="#14BBFC"></path>
                    </g>
                </g>
            </g>
        </g>
    </g>
</svg>