<?xml version="1.0" encoding="UTF-8" standalone="no"?>
<svg width="28px" height="18px" viewBox="0 0 28 18" version="1.1" xmlns="http://www.w3.org/2000/svg" xmlns:xlink="http://www.w3.org/1999/xlink">
    <!-- Generator: Sketch 41 (35326) - http://www.bohemiancoding.com/sketch -->
    <title>Fill-196</title>
    <desc>Created with Sketch.</desc>
    <defs></defs>
    <g id="Page-1" stroke="none" stroke-width="1" fill="none" fill-rule="evenodd">
        <g id="menu" fill="#3B6DDF">
            <g id="Page-1">
                <g id="2_Account_Overview">
                    <g id="Sidebar">
                        <g id="Dashboard">
                            <g id="Group">
                                <path d="M27,8 L1,8 C0.447,8 0,8.448 0,9 C0,9.553 0.447,10 1,10 L27,10 C27.553,10 28,9.553 28,9 C28,8.448 27.553,8 27,8 L27,8 Z M27,16 L1,16 C0.447,16 0,16.448 0,17 C0,17.553 0.447,18 1,18 L27,18 C27.553,18 28,17.553 28,17 C28,16.448 27.553,16 27,16 L27,16 Z M1,2 L27,2 C27.553,2 28,1.553 28,1 C28,0.448 27.553,0 27,0 L1,0 C0.447,0 0,0.448 0,1 C0,1.553 0.447,2 1,2 L1,2 Z" id="Fill-196"></path>
                            </g>
                        </g>
                    </g>
                </g>
            </g>
        </g>
    </g>
</svg>