<?xml version="1.0" encoding="UTF-8" standalone="no"?>
<svg width="28px" height="18px" viewBox="0 0 28 18" version="1.1" xmlns="http://www.w3.org/2000/svg" xmlns:xlink="http://www.w3.org/1999/xlink">
    <!-- Generator: Sketch 3.7.2 (28276) - http://www.bohemiancoding.com/sketch -->
    <title>Fill 196</title>
    <desc>Created with Sketch.</desc>
    <defs></defs>
    <g id="Page-1" stroke="none" stroke-width="1" fill="none" fill-rule="evenodd">
        <g id="2_Account_Overview" transform="translate(-24.000000, -23.000000)" fill="#FFFFFF">
            <g id="Sidebar">
                <g id="Dashboard">
                    <g id="Group">
                        <path d="M51,31 L25,31 C24.447,31 24,31.448 24,32 C24,32.553 24.447,33 25,33 L51,33 C51.553,33 52,32.553 52,32 C52,31.448 51.553,31 51,31 L51,31 Z M51,39 L25,39 C24.447,39 24,39.448 24,40 C24,40.553 24.447,41 25,41 L51,41 C51.553,41 52,40.553 52,40 C52,39.448 51.553,39 51,39 L51,39 Z M25,25 L51,25 C51.553,25 52,24.553 52,24 C52,23.448 51.553,23 51,23 L25,23 C24.447,23 24,23.448 24,24 C24,24.553 24.447,25 25,25 L25,25 Z" id="Fill-196"></path>
                    </g>
                </g>
            </g>
        </g>
    </g>
</svg>